solid OpenSCAD_Model
  facet normal 0 0 -1
    outer loop
      vertex 15 37 -2.5
      vertex 11.5 42 -2.5
      vertex 15 47.5 -2.5
    endloop
  endfacet
  facet normal 0 0 -1
    outer loop
      vertex 15 37 -2.5
      vertex 10.7678 40.2322 -2.5
      vertex 11.5 42 -2.5
    endloop
  endfacet
  facet normal 0 0 -1
    outer loop
      vertex 15 37 -2.5
      vertex 9 39.5 -2.5
      vertex 10.7678 40.2322 -2.5
    endloop
  endfacet
  facet normal 0 0 -1
    outer loop
      vertex -9 39.5 -2.5
      vertex 9 39.5 -2.5
      vertex 15 37 -2.5
    endloop
  endfacet
  facet normal 0 0 -1
    outer loop
      vertex 7.23223 40.2322 -2.5
      vertex -6.5 42 -2.5
      vertex 6.5 42 -2.5
    endloop
  endfacet
  facet normal 0 0 -1
    outer loop
      vertex 9 39.5 -2.5
      vertex -9 39.5 -2.5
      vertex 7.23223 40.2322 -2.5
    endloop
  endfacet
  facet normal 0 0 -1
    outer loop
      vertex 7.23223 40.2322 -2.5
      vertex -7.23223 40.2322 -2.5
      vertex -6.5 42 -2.5
    endloop
  endfacet
  facet normal -0 0 -1
    outer loop
      vertex 7.23223 40.2322 -2.5
      vertex -9 39.5 -2.5
      vertex -7.23223 40.2322 -2.5
    endloop
  endfacet
  facet normal -0 0 -1
    outer loop
      vertex -10.7678 40.2322 -2.5
      vertex -15 37 -2.5
      vertex -11.5 42 -2.5
    endloop
  endfacet
  facet normal -0 0 -1
    outer loop
      vertex -9 39.5 -2.5
      vertex -15 37 -2.5
      vertex -10.7678 40.2322 -2.5
    endloop
  endfacet
  facet normal 0 0 -1
    outer loop
      vertex -15 37 -2.5
      vertex -9 39.5 -2.5
      vertex 15 37 -2.5
    endloop
  endfacet
  facet normal 0 0 -1
    outer loop
      vertex 10.7678 43.7678 -2.5
      vertex 15 47.5 -2.5
      vertex 11.5 42 -2.5
    endloop
  endfacet
  facet normal 0 0 -1
    outer loop
      vertex 9 44.5 -2.5
      vertex 15 47.5 -2.5
      vertex 10.7678 43.7678 -2.5
    endloop
  endfacet
  facet normal 0 0 -1
    outer loop
      vertex -9 44.5 -2.5
      vertex 9 44.5 -2.5
      vertex 7.23223 43.7678 -2.5
    endloop
  endfacet
  facet normal 0 0 -1
    outer loop
      vertex -6.5 42 -2.5
      vertex 7.23223 43.7678 -2.5
      vertex 6.5 42 -2.5
    endloop
  endfacet
  facet normal 0 0 -1
    outer loop
      vertex -7.23223 43.7678 -2.5
      vertex 7.23223 43.7678 -2.5
      vertex -6.5 42 -2.5
    endloop
  endfacet
  facet normal 0 0 -1
    outer loop
      vertex -9 44.5 -2.5
      vertex 7.23223 43.7678 -2.5
      vertex -7.23223 43.7678 -2.5
    endloop
  endfacet
  facet normal 0 0 -1
    outer loop
      vertex 9 44.5 -2.5
      vertex -9 44.5 -2.5
      vertex 15 47.5 -2.5
    endloop
  endfacet
  facet normal 0 0 -1
    outer loop
      vertex -15 47.5 -2.5
      vertex -11.5 42 -2.5
      vertex -15 37 -2.5
    endloop
  endfacet
  facet normal 0 0 -1
    outer loop
      vertex -9 44.5 -2.5
      vertex -15 47.5 -2.5
      vertex 15 47.5 -2.5
    endloop
  endfacet
  facet normal 0 0 -1
    outer loop
      vertex -10.7678 43.7678 -2.5
      vertex -15 47.5 -2.5
      vertex -9 44.5 -2.5
    endloop
  endfacet
  facet normal 0 0 -1
    outer loop
      vertex -11.5 42 -2.5
      vertex -15 47.5 -2.5
      vertex -10.7678 43.7678 -2.5
    endloop
  endfacet
  facet normal -1 0 0
    outer loop
      vertex -15 47.5 -2.5
      vertex -15 47.45 2.5
      vertex -15 47.5 2.5
    endloop
  endfacet
  facet normal -1 0 0
    outer loop
      vertex -15 47.45 2.5
      vertex -15 46.45 2.5
      vertex -15 47.45 3.5
    endloop
  endfacet
  facet normal -1 0 0
    outer loop
      vertex -15 47.5 -2.5
      vertex -15 46.45 2.5
      vertex -15 47.45 2.5
    endloop
  endfacet
  facet normal -1 0 0
    outer loop
      vertex -15 37 -2.5
      vertex -15 46.45 2.5
      vertex -15 47.5 -2.5
    endloop
  endfacet
  facet normal -1 -0 0
    outer loop
      vertex -15 46.45 2.5
      vertex -15 37 -2.5
      vertex -15 37 2.5
    endloop
  endfacet
  facet normal -1 -0 0
    outer loop
      vertex -15 47.45 3.5
      vertex -15 46.45 2.5
      vertex -15 46.45 3.5
    endloop
  endfacet
  facet normal 1 0 0
    outer loop
      vertex 15 47.45 3.5
      vertex 15 46.45 3.5
      vertex 15 47.45 2.5
    endloop
  endfacet
  facet normal 1 -0 0
    outer loop
      vertex 15 47.45 2.5
      vertex 15 47.5 -2.5
      vertex 15 47.5 2.5
    endloop
  endfacet
  facet normal 1 0 0
    outer loop
      vertex 15 46.45 2.5
      vertex 15 47.45 2.5
      vertex 15 46.45 3.5
    endloop
  endfacet
  facet normal 1 0 0
    outer loop
      vertex 15 47.45 2.5
      vertex 15 46.45 2.5
      vertex 15 47.5 -2.5
    endloop
  endfacet
  facet normal 1 0 0
    outer loop
      vertex 15 37 -2.5
      vertex 15 46.45 2.5
      vertex 15 37 2.5
    endloop
  endfacet
  facet normal 1 0 0
    outer loop
      vertex 15 46.45 2.5
      vertex 15 37 -2.5
      vertex 15 47.5 -2.5
    endloop
  endfacet
  facet normal 0 0 1
    outer loop
      vertex -5 47.5 2.5
      vertex -13.2581 47.4558 2.5
      vertex -5 47.4558 2.5
    endloop
  endfacet
  facet normal -0 0 1
    outer loop
      vertex -15 47.5 2.5
      vertex -13.2581 47.4558 2.5
      vertex -5 47.5 2.5
    endloop
  endfacet
  facet normal 0 0 1
    outer loop
      vertex -13.2581 47.4558 2.5
      vertex -15 47.5 2.5
      vertex -13.4995 47.4557 2.5
    endloop
  endfacet
  facet normal 0 0 1
    outer loop
      vertex -13.4995 47.4557 2.5
      vertex -15 47.5 2.5
      vertex -13.7279 47.4556 2.5
    endloop
  endfacet
  facet normal 0 0 1
    outer loop
      vertex -13.7279 47.4556 2.5
      vertex -15 47.5 2.5
      vertex -13.9001 47.4553 2.5
    endloop
  endfacet
  facet normal 0 0 1
    outer loop
      vertex -13.9001 47.4553 2.5
      vertex -15 47.5 2.5
      vertex -13.993 47.4551 2.5
    endloop
  endfacet
  facet normal 0 0 1
    outer loop
      vertex -13.993 47.4551 2.5
      vertex -15 47.5 2.5
      vertex -15 47.45 2.5
    endloop
  endfacet
  facet normal 0 0 1
    outer loop
      vertex 15 47.5 2.5
      vertex 13.993 47.4551 2.5
      vertex 15 47.45 2.5
    endloop
  endfacet
  facet normal 0 0 1
    outer loop
      vertex 15 47.5 2.5
      vertex 13.9001 47.4553 2.5
      vertex 13.993 47.4551 2.5
    endloop
  endfacet
  facet normal 0 0 1
    outer loop
      vertex 15 47.5 2.5
      vertex 13.7279 47.4556 2.5
      vertex 13.9001 47.4553 2.5
    endloop
  endfacet
  facet normal 0 0 1
    outer loop
      vertex 15 47.5 2.5
      vertex 13.4995 47.4557 2.5
      vertex 13.7279 47.4556 2.5
    endloop
  endfacet
  facet normal 0 0 1
    outer loop
      vertex 15 47.5 2.5
      vertex 13.2581 47.4558 2.5
      vertex 13.4995 47.4557 2.5
    endloop
  endfacet
  facet normal -0 0 1
    outer loop
      vertex 5 47.5 2.5
      vertex 13.2581 47.4558 2.5
      vertex 15 47.5 2.5
    endloop
  endfacet
  facet normal 0 0 1
    outer loop
      vertex 13.2581 47.4558 2.5
      vertex 5 47.5 2.5
      vertex 5 47.4558 2.5
    endloop
  endfacet
  facet normal 0 0 1
    outer loop
      vertex -5 45.701 2.5
      vertex -6.5 42 2.5
      vertex -5 41.5 2.5
    endloop
  endfacet
  facet normal 0 0 1
    outer loop
      vertex -5 45.701 2.5
      vertex -7.23223 43.7678 2.5
      vertex -6.5 42 2.5
    endloop
  endfacet
  facet normal 0 0 1
    outer loop
      vertex -5 45.701 2.5
      vertex -9 44.5 2.5
      vertex -7.23223 43.7678 2.5
    endloop
  endfacet
  facet normal 0 0 1
    outer loop
      vertex -10.7678 43.7678 2.5
      vertex -13.2581 45.701 2.5
      vertex -11.5 42 2.5
    endloop
  endfacet
  facet normal 0 0 1
    outer loop
      vertex -9 44.5 2.5
      vertex -13.2581 45.701 2.5
      vertex -10.7678 43.7678 2.5
    endloop
  endfacet
  facet normal -0 0 1
    outer loop
      vertex -13.2581 45.701 2.5
      vertex -9 44.5 2.5
      vertex -5 45.701 2.5
    endloop
  endfacet
  facet normal 0 0 1
    outer loop
      vertex 13.2581 45.701 2.5
      vertex 10.7678 43.7678 2.5
      vertex 11.5 42 2.5
    endloop
  endfacet
  facet normal 0 0 1
    outer loop
      vertex 13.2581 45.701 2.5
      vertex 9 44.5 2.5
      vertex 10.7678 43.7678 2.5
    endloop
  endfacet
  facet normal 0 0 1
    outer loop
      vertex 7.23223 43.7678 2.5
      vertex 5 45.701 2.5
      vertex 6.5 42 2.5
    endloop
  endfacet
  facet normal 0 0 1
    outer loop
      vertex 9 44.5 2.5
      vertex 5 45.701 2.5
      vertex 7.23223 43.7678 2.5
    endloop
  endfacet
  facet normal -0 0 1
    outer loop
      vertex 5 45.701 2.5
      vertex 9 44.5 2.5
      vertex 13.2581 45.701 2.5
    endloop
  endfacet
  facet normal -0 0 1
    outer loop
      vertex 13.993 45.7968 2.5
      vertex 15 37 2.5
      vertex 15 46.45 2.5
    endloop
  endfacet
  facet normal 0 0 1
    outer loop
      vertex 11.5 42 2.5
      vertex 13.993 45.7968 2.5
      vertex 13.9001 45.7632 2.5
    endloop
  endfacet
  facet normal 0 0 1
    outer loop
      vertex 11.5 42 2.5
      vertex 13.9001 45.7632 2.5
      vertex 13.7279 45.7318 2.5
    endloop
  endfacet
  facet normal 0 0 1
    outer loop
      vertex 11.5 42 2.5
      vertex 13.7279 45.7318 2.5
      vertex 13.4995 45.7092 2.5
    endloop
  endfacet
  facet normal 0 0 1
    outer loop
      vertex 11.5 42 2.5
      vertex 13.4995 45.7092 2.5
      vertex 13.2581 45.701 2.5
    endloop
  endfacet
  facet normal 0 0 1
    outer loop
      vertex 13.993 45.7968 2.5
      vertex 11.5 42 2.5
      vertex 15 37 2.5
    endloop
  endfacet
  facet normal -0 0 1
    outer loop
      vertex 10.7678 40.2322 2.5
      vertex 15 37 2.5
      vertex 11.5 42 2.5
    endloop
  endfacet
  facet normal -0 0 1
    outer loop
      vertex 9 39.5 2.5
      vertex 15 37 2.5
      vertex 10.7678 40.2322 2.5
    endloop
  endfacet
  facet normal 0 0 1
    outer loop
      vertex -9 39.5 2.5
      vertex 9 39.5 2.5
      vertex 7.23223 40.2322 2.5
    endloop
  endfacet
  facet normal 0 0 1
    outer loop
      vertex 5 41.5 2.5
      vertex 6.5 42 2.5
      vertex 5 45.701 2.5
    endloop
  endfacet
  facet normal -0 0 1
    outer loop
      vertex 5 41.5 2.5
      vertex 7.23223 40.2322 2.5
      vertex 6.5 42 2.5
    endloop
  endfacet
  facet normal -0 0 1
    outer loop
      vertex -5 41.5 2.5
      vertex 7.23223 40.2322 2.5
      vertex 5 41.5 2.5
    endloop
  endfacet
  facet normal 0 0 1
    outer loop
      vertex -7.23223 40.2322 2.5
      vertex 7.23223 40.2322 2.5
      vertex -5 41.5 2.5
    endloop
  endfacet
  facet normal 0 0 1
    outer loop
      vertex -7.23223 40.2322 2.5
      vertex -5 41.5 2.5
      vertex -6.5 42 2.5
    endloop
  endfacet
  facet normal 0 0 1
    outer loop
      vertex -9 39.5 2.5
      vertex 7.23223 40.2322 2.5
      vertex -7.23223 40.2322 2.5
    endloop
  endfacet
  facet normal 0 0 1
    outer loop
      vertex 9 39.5 2.5
      vertex -9 39.5 2.5
      vertex 15 37 2.5
    endloop
  endfacet
  facet normal 0 0 1
    outer loop
      vertex -13.4995 45.7092 2.5
      vertex -11.5 42 2.5
      vertex -13.2581 45.701 2.5
    endloop
  endfacet
  facet normal 0 0 1
    outer loop
      vertex -13.7279 45.7318 2.5
      vertex -11.5 42 2.5
      vertex -13.4995 45.7092 2.5
    endloop
  endfacet
  facet normal 0 0 1
    outer loop
      vertex -13.9001 45.7632 2.5
      vertex -11.5 42 2.5
      vertex -13.7279 45.7318 2.5
    endloop
  endfacet
  facet normal 0 0 1
    outer loop
      vertex -13.993 45.7968 2.5
      vertex -11.5 42 2.5
      vertex -13.9001 45.7632 2.5
    endloop
  endfacet
  facet normal 0 0 1
    outer loop
      vertex -11.5 42 2.5
      vertex -13.993 45.7968 2.5
      vertex -15 37 2.5
    endloop
  endfacet
  facet normal 0 0 1
    outer loop
      vertex -15 37 2.5
      vertex -13.993 45.7968 2.5
      vertex -15 46.45 2.5
    endloop
  endfacet
  facet normal 0 0 1
    outer loop
      vertex -9 39.5 2.5
      vertex -15 37 2.5
      vertex 15 37 2.5
    endloop
  endfacet
  facet normal 0 0 1
    outer loop
      vertex -10.7678 40.2322 2.5
      vertex -15 37 2.5
      vertex -9 39.5 2.5
    endloop
  endfacet
  facet normal 0 0 1
    outer loop
      vertex -11.5 42 2.5
      vertex -15 37 2.5
      vertex -10.7678 40.2322 2.5
    endloop
  endfacet
  facet normal 0 1 -0
    outer loop
      vertex 15 47.5 -2.5
      vertex 5 47.5 2.5
      vertex 15 47.5 2.5
    endloop
  endfacet
  facet normal 0 1 0
    outer loop
      vertex 5 47.5 2.5
      vertex 15 47.5 -2.5
      vertex -5 47.5 2.5
    endloop
  endfacet
  facet normal 0 1 0
    outer loop
      vertex -15 47.5 -2.5
      vertex -5 47.5 2.5
      vertex 15 47.5 -2.5
    endloop
  endfacet
  facet normal 0 1 0
    outer loop
      vertex -5 47.5 2.5
      vertex -15 47.5 -2.5
      vertex -15 47.5 2.5
    endloop
  endfacet
  facet normal 0 1 -0
    outer loop
      vertex 5 47.5 2.5
      vertex -5 47.5 5.5
      vertex 5 47.5 5.5
    endloop
  endfacet
  facet normal 0 1 0
    outer loop
      vertex -5 47.5 5.5
      vertex 5 47.5 2.5
      vertex -5 47.5 2.5
    endloop
  endfacet
  facet normal -1 0 0
    outer loop
      vertex -5 41.5 2.5
      vertex -5 42.15 21.463
      vertex -5 45.701 2.5
    endloop
  endfacet
  facet normal -1 0 0
    outer loop
      vertex -5 41.5 2.5
      vertex -5 41.5133 25.1578
      vertex -5 42.15 21.463
    endloop
  endfacet
  facet normal -1 -0 0
    outer loop
      vertex -5 41.5133 25.1578
      vertex -5 41.5 2.5
      vertex -5 41.5 25.2474
    endloop
  endfacet
  facet normal -1 0 0
    outer loop
      vertex -5 47.5 2.5
      vertex -5 47.4602 5.5
      vertex -5 47.5 5.5
    endloop
  endfacet
  facet normal -1 0 -0
    outer loop
      vertex -5 47.4602 5.5
      vertex -5 47.5 2.5
      vertex -5 47.4558 2.5
    endloop
  endfacet
  facet normal 0 -1 -0
    outer loop
      vertex -3.48837 41.5 24.9341
      vertex -5 41.5 2.5
      vertex 3.48837 41.5 24.9341
    endloop
  endfacet
  facet normal 0 -1 -0
    outer loop
      vertex -4.97312 41.5 25.2294
      vertex -5 41.5 2.5
      vertex -3.48837 41.5 24.9341
    endloop
  endfacet
  facet normal 0 -1 0
    outer loop
      vertex -5 41.5 2.5
      vertex -4.97312 41.5 25.2294
      vertex -5 41.5 25.2474
    endloop
  endfacet
  facet normal 0 -1 0
    outer loop
      vertex 5 41.5 2.5
      vertex 3.48837 41.5 24.9341
      vertex -5 41.5 2.5
    endloop
  endfacet
  facet normal 0 -1 0
    outer loop
      vertex 3.48837 41.5 24.9341
      vertex 5 41.5 2.5
      vertex 4.97312 41.5 25.2294
    endloop
  endfacet
  facet normal 0 -1 0
    outer loop
      vertex 4.97312 41.5 25.2294
      vertex 5 41.5 2.5
      vertex 5 41.5 25.2474
    endloop
  endfacet
  facet normal 1 0 0
    outer loop
      vertex 5 42.15 21.463
      vertex 5 41.5 2.5
      vertex 5 45.701 2.5
    endloop
  endfacet
  facet normal 1 0 0
    outer loop
      vertex 5 41.5133 25.1578
      vertex 5 41.5 2.5
      vertex 5 42.15 21.463
    endloop
  endfacet
  facet normal 1 0 0
    outer loop
      vertex 5 41.5 2.5
      vertex 5 41.5133 25.1578
      vertex 5 41.5 25.2474
    endloop
  endfacet
  facet normal 1 -0 0
    outer loop
      vertex 5 47.4602 5.5
      vertex 5 47.5 2.5
      vertex 5 47.5 5.5
    endloop
  endfacet
  facet normal 1 0 0
    outer loop
      vertex 5 47.5 2.5
      vertex 5 47.4602 5.5
      vertex 5 47.4558 2.5
    endloop
  endfacet
  facet normal -0 0 1
    outer loop
      vertex -5 47.5 5.5
      vertex 5 47.4602 5.5
      vertex 5 47.5 5.5
    endloop
  endfacet
  facet normal 0 0 1
    outer loop
      vertex 5 47.4602 5.5
      vertex -5 47.5 5.5
      vertex -5 47.4602 5.5
    endloop
  endfacet
  facet normal -0.92388 0.382683 0
    outer loop
      vertex 10.7678 40.2322 -2.5
      vertex 11.5 42 2.5
      vertex 11.5 42 -2.5
    endloop
  endfacet
  facet normal -0.92388 0.382683 0
    outer loop
      vertex 11.5 42 2.5
      vertex 10.7678 40.2322 -2.5
      vertex 10.7678 40.2322 2.5
    endloop
  endfacet
  facet normal 0.92388 -0.382683 2.91964e-07
    outer loop
      vertex 6.5 42 2.5
      vertex 7.23223 43.7678 -2.5
      vertex 7.23223 43.7678 2.5
    endloop
  endfacet
  facet normal 0.92388 -0.382683 0
    outer loop
      vertex 7.23223 43.7678 -2.5
      vertex 6.5 42 2.5
      vertex 6.5 42 -2.5
    endloop
  endfacet
  facet normal 0.382682 0.92388 -0
    outer loop
      vertex 9 39.5 -2.5
      vertex 7.23223 40.2322 2.5
      vertex 9 39.5 2.5
    endloop
  endfacet
  facet normal 0.382682 0.92388 0
    outer loop
      vertex 7.23223 40.2322 2.5
      vertex 9 39.5 -2.5
      vertex 7.23223 40.2322 -2.5
    endloop
  endfacet
  facet normal -0.382683 0.92388 0
    outer loop
      vertex 10.7678 40.2322 -2.5
      vertex 9 39.5 2.5
      vertex 10.7678 40.2322 2.5
    endloop
  endfacet
  facet normal -0.382683 0.92388 0
    outer loop
      vertex 9 39.5 2.5
      vertex 10.7678 40.2322 -2.5
      vertex 9 39.5 -2.5
    endloop
  endfacet
  facet normal 0.92388 0.382683 0
    outer loop
      vertex 7.23223 40.2322 2.5
      vertex 6.5 42 -2.5
      vertex 6.5 42 2.5
    endloop
  endfacet
  facet normal 0.92388 0.382683 0
    outer loop
      vertex 6.5 42 -2.5
      vertex 7.23223 40.2322 2.5
      vertex 7.23223 40.2322 -2.5
    endloop
  endfacet
  facet normal -0.923879 -0.382684 2.91965e-07
    outer loop
      vertex 11.5 42 -2.5
      vertex 10.7678 43.7678 2.5
      vertex 10.7678 43.7678 -2.5
    endloop
  endfacet
  facet normal -0.92388 -0.382683 0
    outer loop
      vertex 10.7678 43.7678 2.5
      vertex 11.5 42 -2.5
      vertex 11.5 42 2.5
    endloop
  endfacet
  facet normal -0.382683 -0.92388 0
    outer loop
      vertex 9 44.5 -2.5
      vertex 10.7678 43.7678 2.5
      vertex 9 44.5 2.5
    endloop
  endfacet
  facet normal -0.382684 -0.923879 7.04864e-07
    outer loop
      vertex 10.7678 43.7678 2.5
      vertex 9 44.5 -2.5
      vertex 10.7678 43.7678 -2.5
    endloop
  endfacet
  facet normal 0.382682 -0.92388 7.04864e-07
    outer loop
      vertex 7.23223 43.7678 -2.5
      vertex 9 44.5 2.5
      vertex 7.23223 43.7678 2.5
    endloop
  endfacet
  facet normal 0.382684 -0.923879 0
    outer loop
      vertex 9 44.5 2.5
      vertex 7.23223 43.7678 -2.5
      vertex 9 44.5 -2.5
    endloop
  endfacet
  facet normal -0.92388 0.382683 0
    outer loop
      vertex -7.23223 40.2322 -2.5
      vertex -6.5 42 2.5
      vertex -6.5 42 -2.5
    endloop
  endfacet
  facet normal -0.92388 0.382683 0
    outer loop
      vertex -6.5 42 2.5
      vertex -7.23223 40.2322 -2.5
      vertex -7.23223 40.2322 2.5
    endloop
  endfacet
  facet normal 0.92388 0.382683 0
    outer loop
      vertex -10.7678 40.2322 2.5
      vertex -11.5 42 -2.5
      vertex -11.5 42 2.5
    endloop
  endfacet
  facet normal 0.92388 0.382683 0
    outer loop
      vertex -11.5 42 -2.5
      vertex -10.7678 40.2322 2.5
      vertex -10.7678 40.2322 -2.5
    endloop
  endfacet
  facet normal -0.382682 -0.92388 0
    outer loop
      vertex -9 44.5 -2.5
      vertex -7.23223 43.7678 2.5
      vertex -9 44.5 2.5
    endloop
  endfacet
  facet normal -0.382684 -0.923879 7.04864e-07
    outer loop
      vertex -7.23223 43.7678 2.5
      vertex -9 44.5 -2.5
      vertex -7.23223 43.7678 -2.5
    endloop
  endfacet
  facet normal 0.382683 0.92388 -0
    outer loop
      vertex -9 39.5 -2.5
      vertex -10.7678 40.2322 2.5
      vertex -9 39.5 2.5
    endloop
  endfacet
  facet normal 0.382683 0.92388 0
    outer loop
      vertex -10.7678 40.2322 2.5
      vertex -9 39.5 -2.5
      vertex -10.7678 40.2322 -2.5
    endloop
  endfacet
  facet normal -0.382682 0.92388 0
    outer loop
      vertex -7.23223 40.2322 -2.5
      vertex -9 39.5 2.5
      vertex -7.23223 40.2322 2.5
    endloop
  endfacet
  facet normal -0.382682 0.92388 0
    outer loop
      vertex -9 39.5 2.5
      vertex -7.23223 40.2322 -2.5
      vertex -9 39.5 -2.5
    endloop
  endfacet
  facet normal -0.92388 -0.382683 2.91964e-07
    outer loop
      vertex -6.5 42 -2.5
      vertex -7.23223 43.7678 2.5
      vertex -7.23223 43.7678 -2.5
    endloop
  endfacet
  facet normal -0.92388 -0.382683 0
    outer loop
      vertex -7.23223 43.7678 2.5
      vertex -6.5 42 -2.5
      vertex -6.5 42 2.5
    endloop
  endfacet
  facet normal 0.382683 -0.92388 7.04864e-07
    outer loop
      vertex -10.7678 43.7678 -2.5
      vertex -9 44.5 2.5
      vertex -10.7678 43.7678 2.5
    endloop
  endfacet
  facet normal 0.382684 -0.923879 0
    outer loop
      vertex -9 44.5 2.5
      vertex -10.7678 43.7678 -2.5
      vertex -9 44.5 -2.5
    endloop
  endfacet
  facet normal 0.92388 -0.382683 2.91964e-07
    outer loop
      vertex -11.5 42 2.5
      vertex -10.7678 43.7678 -2.5
      vertex -10.7678 43.7678 2.5
    endloop
  endfacet
  facet normal 0.923879 -0.382684 0
    outer loop
      vertex -10.7678 43.7678 -2.5
      vertex -11.5 42 2.5
      vertex -11.5 42 -2.5
    endloop
  endfacet
  facet normal -0.0974073 -0.98451 -0.145781
    outer loop
      vertex -3.57482 40 34.4252
      vertex -5 41.5 25.2474
      vertex -1.93468 40 33.3293
    endloop
  endfacet
  facet normal -0.0974077 -0.98451 -0.14578
    outer loop
      vertex -13.7279 45.7318 2.5
      vertex -5 41.5 25.2474
      vertex -3.57482 40 34.4252
    endloop
  endfacet
  facet normal -0.097412 -0.98451 -0.145779
    outer loop
      vertex -13.7279 45.7318 2.5
      vertex -5 41.5133 25.1578
      vertex -5 41.5 25.2474
    endloop
  endfacet
  facet normal -0.0974134 -0.98451 -0.145778
    outer loop
      vertex -5 41.5133 25.1578
      vertex -13.7279 45.7318 2.5
      vertex -13.4995 45.7092 2.5
    endloop
  endfacet
  facet normal -0.0974077 -0.98451 -0.14578
    outer loop
      vertex -1.93468 40 33.3293
      vertex -5 41.5 25.2474
      vertex -4.97312 41.5 25.2294
    endloop
  endfacet
  facet normal -0.19509 0 0.980785
    outer loop
      vertex -1.93468 47.5 42.6707
      vertex 0 40 43.0556
      vertex 0 47.5 43.0556
    endloop
  endfacet
  facet normal -0.19509 0 0.980785
    outer loop
      vertex 0 40 43.0556
      vertex -1.93468 47.5 42.6707
      vertex -1.93468 40 42.6707
    endloop
  endfacet
  facet normal -0.962084 0 0.272752
    outer loop
      vertex -15 46.45 3.5
      vertex -4.67072 47.5 39.9347
      vertex -15 47.45 3.5
    endloop
  endfacet
  facet normal -0.962084 0 0.272752
    outer loop
      vertex -4.67072 47.5 39.9347
      vertex -15 46.45 3.5
      vertex -4.67072 40 39.9347
    endloop
  endfacet
  facet normal 0.19509 0 0.980785
    outer loop
      vertex 0 47.5 43.0556
      vertex 1.93468 40 42.6707
      vertex 1.93468 47.5 42.6707
    endloop
  endfacet
  facet normal 0.19509 0 0.980785
    outer loop
      vertex 1.93468 40 42.6707
      vertex 0 47.5 43.0556
      vertex 0 40 43.0556
    endloop
  endfacet
  facet normal -0.339878 -0.938036 -0.067606
    outer loop
      vertex -13.993 45.7968 2.5
      vertex -4.67072 40 36.0653
      vertex -5.05556 40 38
    endloop
  endfacet
  facet normal -0.339903 -0.938028 -0.0675977
    outer loop
      vertex -4.67072 40 36.0653
      vertex -13.993 45.7968 2.5
      vertex -13.9001 45.7632 2.5
    endloop
  endfacet
  facet normal 0.339903 -0.938028 -0.0675977
    outer loop
      vertex 13.993 45.7968 2.5
      vertex 4.67072 40 36.0653
      vertex 13.9001 45.7632 2.5
    endloop
  endfacet
  facet normal 0.339878 -0.938036 -0.067606
    outer loop
      vertex 4.67072 40 36.0653
      vertex 13.993 45.7968 2.5
      vertex 5.05556 40 38
    endloop
  endfacet
  facet normal 0.0974077 -0.98451 -0.14578
    outer loop
      vertex 1.93468 40 33.3293
      vertex 4.97312 41.5 25.2294
      vertex 5 41.5 25.2474
    endloop
  endfacet
  facet normal 0.0974073 -0.98451 -0.145781
    outer loop
      vertex 5 41.5 25.2474
      vertex 3.57482 40 34.4252
      vertex 1.93468 40 33.3293
    endloop
  endfacet
  facet normal 0.0974134 -0.98451 -0.145778
    outer loop
      vertex 13.7279 45.7318 2.5
      vertex 5 41.5133 25.1578
      vertex 13.4995 45.7092 2.5
    endloop
  endfacet
  facet normal 0.097412 -0.98451 -0.145779
    outer loop
      vertex 5 41.5133 25.1578
      vertex 13.7279 45.7318 2.5
      vertex 5 41.5 25.2474
    endloop
  endfacet
  facet normal 0.0974077 -0.98451 -0.14578
    outer loop
      vertex 5 41.5 25.2474
      vertex 13.7279 45.7318 2.5
      vertex 3.57482 40 34.4252
    endloop
  endfacet
  facet normal -0 -0.982915 -0.184059
    outer loop
      vertex 13.2581 45.701 2.5
      vertex 5 42.15 21.463
      vertex 5 45.701 2.5
    endloop
  endfacet
  facet normal -0 -0.982915 -0.184059
    outer loop
      vertex -5 45.701 2.5
      vertex -5 42.15 21.463
      vertex -13.2581 45.701 2.5
    endloop
  endfacet
  facet normal -0 -0.982915 -0.184059
    outer loop
      vertex 3.48837 41.5 24.9341
      vertex 0 40 32.9444
      vertex -3.48837 41.5 24.9341
    endloop
  endfacet
  facet normal -0.016221 0.999863 0.00322655
    outer loop
      vertex -4.67072 47.5 39.9347
      vertex -5.05556 47.5 38
      vertex -15 47.45 3.5
    endloop
  endfacet
  facet normal -3.22475e-07 0.999999 -0.00145174
    outer loop
      vertex 13.2581 47.4558 2.5
      vertex 5 47.4602 5.5
      vertex 0 47.5 32.9444
    endloop
  endfacet
  facet normal 0 0.999999 -0.00145085
    outer loop
      vertex 5 47.4602 5.5
      vertex 13.2581 47.4558 2.5
      vertex 5 47.4558 2.5
    endloop
  endfacet
  facet normal 0 0.999999 -0.00145168
    outer loop
      vertex -5 47.4602 5.5
      vertex 0 47.5 32.9444
      vertex 5 47.4602 5.5
    endloop
  endfacet
  facet normal 3.22475e-07 0.999999 -0.00145174
    outer loop
      vertex -5 47.4602 5.5
      vertex -13.2581 47.4558 2.5
      vertex 0 47.5 32.9444
    endloop
  endfacet
  facet normal 0 0.999999 -0.00145085
    outer loop
      vertex -13.2581 47.4558 2.5
      vertex -5 47.4602 5.5
      vertex -5 47.4558 2.5
    endloop
  endfacet
  facet normal 0.962084 0 0.272752
    outer loop
      vertex 4.67072 47.5 39.9347
      vertex 15 46.45 3.5
      vertex 15 47.45 3.5
    endloop
  endfacet
  facet normal 0.962084 0 0.272752
    outer loop
      vertex 15 46.45 3.5
      vertex 4.67072 47.5 39.9347
      vertex 4.67072 40 39.9347
    endloop
  endfacet
  facet normal -0.544164 -0.838979 0
    outer loop
      vertex -13.993 45.7968 2.5
      vertex -15 46.45 3.5
      vertex -15 46.45 2.5
    endloop
  endfacet
  facet normal -0.544164 -0.838979 -1.38154e-07
    outer loop
      vertex -15 46.45 3.5
      vertex -13.993 45.7968 2.5
      vertex -5.05556 40 38
    endloop
  endfacet
  facet normal -0.888097 -0.424354 0.176654
    outer loop
      vertex -5.05556 40 38
      vertex -4.67072 40 39.9347
      vertex -15 46.45 3.5
    endloop
  endfacet
  facet normal -0.177838 -0.976859 -0.118828
    outer loop
      vertex -13.9001 45.7632 2.5
      vertex -3.57482 40 34.4252
      vertex -4.67072 40 36.0653
    endloop
  endfacet
  facet normal -0.177824 -0.976861 -0.118833
    outer loop
      vertex -3.57482 40 34.4252
      vertex -13.9001 45.7632 2.5
      vertex -13.7279 45.7318 2.5
    endloop
  endfacet
  facet normal -0.00141748 0.999999 -0.000941005
    outer loop
      vertex -13.9001 47.4553 2.5
      vertex -3.57482 47.5 34.4252
      vertex -13.7279 47.4556 2.5
    endloop
  endfacet
  facet normal -0.0014113 0.999999 -0.000943003
    outer loop
      vertex -3.57482 47.5 34.4252
      vertex -13.9001 47.4553 2.5
      vertex -4.67072 47.5 36.0653
    endloop
  endfacet
  facet normal 0.00280877 0.999996 -0.000558699
    outer loop
      vertex 13.993 47.4551 2.5
      vertex 4.67072 47.5 36.0653
      vertex 5.05556 47.5 38
    endloop
  endfacet
  facet normal 0.002794 0.999996 -0.000562801
    outer loop
      vertex 4.67072 47.5 36.0653
      vertex 13.993 47.4551 2.5
      vertex 13.9001 47.4553 2.5
    endloop
  endfacet
  facet normal -0.83147 0 0.55557
    outer loop
      vertex -4.67072 40 39.9347
      vertex -3.57482 47.5 41.5748
      vertex -4.67072 47.5 39.9347
    endloop
  endfacet
  facet normal -0.83147 0 0.55557
    outer loop
      vertex -3.57482 47.5 41.5748
      vertex -4.67072 40 39.9347
      vertex -3.57482 40 41.5748
    endloop
  endfacet
  facet normal -0.55557 0 0.83147
    outer loop
      vertex -3.57482 47.5 41.5748
      vertex -1.93468 40 42.6707
      vertex -1.93468 47.5 42.6707
    endloop
  endfacet
  facet normal -0.55557 0 0.83147
    outer loop
      vertex -1.93468 40 42.6707
      vertex -3.57482 47.5 41.5748
      vertex -3.57482 40 41.5748
    endloop
  endfacet
  facet normal 0.83147 -0 0.55557
    outer loop
      vertex 3.57482 40 41.5748
      vertex 4.67072 47.5 39.9347
      vertex 3.57482 47.5 41.5748
    endloop
  endfacet
  facet normal 0.83147 0 0.55557
    outer loop
      vertex 4.67072 47.5 39.9347
      vertex 3.57482 40 41.5748
      vertex 4.67072 40 39.9347
    endloop
  endfacet
  facet normal 0.00502669 0.999987 0
    outer loop
      vertex 13.993 47.4551 2.5
      vertex 15 47.45 3.5
      vertex 15 47.45 2.5
    endloop
  endfacet
  facet normal 0.00502694 0.999987 -2.47173e-07
    outer loop
      vertex 15 47.45 3.5
      vertex 13.993 47.4551 2.5
      vertex 5.05556 47.5 38
    endloop
  endfacet
  facet normal 0.0337686 -0.984912 -0.169727
    outer loop
      vertex 13.4995 45.7092 2.5
      vertex 5 42.15 21.463
      vertex 13.2581 45.701 2.5
    endloop
  endfacet
  facet normal 0.0337603 -0.984912 -0.169731
    outer loop
      vertex 5 42.15 21.463
      vertex 13.4995 45.7092 2.5
      vertex 5 41.5133 25.1578
    endloop
  endfacet
  facet normal 0.0337617 -0.984912 -0.16973
    outer loop
      vertex 3.48837 41.5 24.9341
      vertex 1.93468 40 33.3293
      vertex 0 40 32.9444
    endloop
  endfacet
  facet normal 0.0337614 -0.984912 -0.16973
    outer loop
      vertex 1.93468 40 33.3293
      vertex 3.48837 41.5 24.9341
      vertex 4.97312 41.5 25.2294
    endloop
  endfacet
  facet normal 0.544164 -0.838979 -1.38154e-07
    outer loop
      vertex 13.993 45.7968 2.5
      vertex 15 46.45 3.5
      vertex 5.05556 40 38
    endloop
  endfacet
  facet normal 0.544164 -0.838979 0
    outer loop
      vertex 15 46.45 3.5
      vertex 13.993 45.7968 2.5
      vertex 15 46.45 2.5
    endloop
  endfacet
  facet normal 0.177824 -0.976861 -0.118833
    outer loop
      vertex 13.9001 45.7632 2.5
      vertex 3.57482 40 34.4252
      vertex 13.7279 45.7318 2.5
    endloop
  endfacet
  facet normal 0.177838 -0.976859 -0.118828
    outer loop
      vertex 3.57482 40 34.4252
      vertex 13.9001 45.7632 2.5
      vertex 4.67072 40 36.0653
    endloop
  endfacet
  facet normal -0.00502694 0.999987 -2.47173e-07
    outer loop
      vertex -13.993 47.4551 2.5
      vertex -15 47.45 3.5
      vertex -5.05556 47.5 38
    endloop
  endfacet
  facet normal -0.00502669 0.999987 0
    outer loop
      vertex -15 47.45 3.5
      vertex -13.993 47.4551 2.5
      vertex -15 47.45 2.5
    endloop
  endfacet
  facet normal -0.002794 0.999996 -0.000562801
    outer loop
      vertex -13.993 47.4551 2.5
      vertex -4.67072 47.5 36.0653
      vertex -13.9001 47.4553 2.5
    endloop
  endfacet
  facet normal -0.00280877 0.999996 -0.000558699
    outer loop
      vertex -4.67072 47.5 36.0653
      vertex -13.993 47.4551 2.5
      vertex -5.05556 47.5 38
    endloop
  endfacet
  facet normal -0.000265726 0.999999 -0.00133588
    outer loop
      vertex -13.2581 47.4558 2.5
      vertex -1.93468 47.5 33.3293
      vertex 0 47.5 32.9444
    endloop
  endfacet
  facet normal -0.000268599 0.999999 -0.00133483
    outer loop
      vertex -1.93468 47.5 33.3293
      vertex -13.2581 47.4558 2.5
      vertex -13.4995 47.4557 2.5
    endloop
  endfacet
  facet normal 0.000268599 0.999999 -0.00133483
    outer loop
      vertex 13.2581 47.4558 2.5
      vertex 1.93468 47.5 33.3293
      vertex 13.4995 47.4557 2.5
    endloop
  endfacet
  facet normal 0.000265726 0.999999 -0.00133588
    outer loop
      vertex 1.93468 47.5 33.3293
      vertex 13.2581 47.4558 2.5
      vertex 0 47.5 32.9444
    endloop
  endfacet
  facet normal 0.016221 0.999863 0.00322655
    outer loop
      vertex 15 47.45 3.5
      vertex 5.05556 47.5 38
      vertex 4.67072 47.5 39.9347
    endloop
  endfacet
  facet normal 0 1 0
    outer loop
      vertex 1.93468 47.5 42.6707
      vertex -1.93468 47.5 42.6707
      vertex 0 47.5 43.0556
    endloop
  endfacet
  facet normal 0 1 0
    outer loop
      vertex 3.57482 47.5 41.5748
      vertex -1.93468 47.5 42.6707
      vertex 1.93468 47.5 42.6707
    endloop
  endfacet
  facet normal 0 1 0
    outer loop
      vertex 3.57482 47.5 41.5748
      vertex -3.57482 47.5 41.5748
      vertex -1.93468 47.5 42.6707
    endloop
  endfacet
  facet normal 0 1 0
    outer loop
      vertex 4.67072 47.5 39.9347
      vertex -3.57482 47.5 41.5748
      vertex 3.57482 47.5 41.5748
    endloop
  endfacet
  facet normal 0 1 0
    outer loop
      vertex 4.67072 47.5 39.9347
      vertex -4.67072 47.5 39.9347
      vertex -3.57482 47.5 41.5748
    endloop
  endfacet
  facet normal 0 1 0
    outer loop
      vertex 5.05556 47.5 38
      vertex -4.67072 47.5 39.9347
      vertex 4.67072 47.5 39.9347
    endloop
  endfacet
  facet normal 0 1 0
    outer loop
      vertex 5.05556 47.5 38
      vertex -5.05556 47.5 38
      vertex -4.67072 47.5 39.9347
    endloop
  endfacet
  facet normal 0 1 -0
    outer loop
      vertex 4.67072 47.5 36.0653
      vertex -5.05556 47.5 38
      vertex 5.05556 47.5 38
    endloop
  endfacet
  facet normal 0 1 0
    outer loop
      vertex 4.67072 47.5 36.0653
      vertex -4.67072 47.5 36.0653
      vertex -5.05556 47.5 38
    endloop
  endfacet
  facet normal 0 1 -0
    outer loop
      vertex 3.57482 47.5 34.4252
      vertex -4.67072 47.5 36.0653
      vertex 4.67072 47.5 36.0653
    endloop
  endfacet
  facet normal 0 1 0
    outer loop
      vertex 3.57482 47.5 34.4252
      vertex -3.57482 47.5 34.4252
      vertex -4.67072 47.5 36.0653
    endloop
  endfacet
  facet normal 0 1 -0
    outer loop
      vertex 1.93468 47.5 33.3293
      vertex -3.57482 47.5 34.4252
      vertex 3.57482 47.5 34.4252
    endloop
  endfacet
  facet normal 0 1 0
    outer loop
      vertex 1.93468 47.5 33.3293
      vertex -1.93468 47.5 33.3293
      vertex -3.57482 47.5 34.4252
    endloop
  endfacet
  facet normal -0 1 0
    outer loop
      vertex -1.93468 47.5 33.3293
      vertex 1.93468 47.5 33.3293
      vertex 0 47.5 32.9444
    endloop
  endfacet
  facet normal 0.55557 0 0.83147
    outer loop
      vertex 1.93468 47.5 42.6707
      vertex 3.57482 40 41.5748
      vertex 3.57482 47.5 41.5748
    endloop
  endfacet
  facet normal 0.55557 0 0.83147
    outer loop
      vertex 3.57482 40 41.5748
      vertex 1.93468 47.5 42.6707
      vertex 1.93468 40 42.6707
    endloop
  endfacet
  facet normal -0.0337614 -0.984912 -0.16973
    outer loop
      vertex -3.48837 41.5 24.9341
      vertex -1.93468 40 33.3293
      vertex -4.97312 41.5 25.2294
    endloop
  endfacet
  facet normal -0.0337617 -0.984912 -0.16973
    outer loop
      vertex -1.93468 40 33.3293
      vertex -3.48837 41.5 24.9341
      vertex 0 40 32.9444
    endloop
  endfacet
  facet normal -0.0337603 -0.984912 -0.169731
    outer loop
      vertex -13.4995 45.7092 2.5
      vertex -5 42.15 21.463
      vertex -5 41.5133 25.1578
    endloop
  endfacet
  facet normal -0.0337686 -0.984912 -0.169727
    outer loop
      vertex -5 42.15 21.463
      vertex -13.4995 45.7092 2.5
      vertex -13.2581 45.701 2.5
    endloop
  endfacet
  facet normal 0 -1 0
    outer loop
      vertex 0 40 40.5
      vertex 0 40 43.0556
      vertex -1.93468 40 42.6707
    endloop
  endfacet
  facet normal 0 -1 0
    outer loop
      vertex -1.76777 40 39.7678
      vertex -1.93468 40 42.6707
      vertex -3.57482 40 41.5748
    endloop
  endfacet
  facet normal 0 -1 0
    outer loop
      vertex 0 40 43.0556
      vertex 0 40 40.5
      vertex 1.93468 40 42.6707
    endloop
  endfacet
  facet normal 0 -1 0
    outer loop
      vertex 1.76777 40 39.7678
      vertex 1.93468 40 42.6707
      vertex 0 40 40.5
    endloop
  endfacet
  facet normal 0 -1 0
    outer loop
      vertex -1.76777 40 39.7678
      vertex -3.57482 40 41.5748
      vertex -4.67072 40 39.9347
    endloop
  endfacet
  facet normal 0 -1 0
    outer loop
      vertex -1.93468 40 42.6707
      vertex -1.76777 40 39.7678
      vertex 0 40 40.5
    endloop
  endfacet
  facet normal 0 -1 0
    outer loop
      vertex -2.5 40 38
      vertex -4.67072 40 39.9347
      vertex -5.05556 40 38
    endloop
  endfacet
  facet normal 0 -1 0
    outer loop
      vertex -4.67072 40 39.9347
      vertex -2.5 40 38
      vertex -1.76777 40 39.7678
    endloop
  endfacet
  facet normal 0 -1 0
    outer loop
      vertex -4.67072 40 36.0653
      vertex -2.5 40 38
      vertex -5.05556 40 38
    endloop
  endfacet
  facet normal 0 -1 -0
    outer loop
      vertex -2.5 40 38
      vertex -4.67072 40 36.0653
      vertex -1.76777 40 36.2322
    endloop
  endfacet
  facet normal 0 -1 0
    outer loop
      vertex -3.57482 40 34.4252
      vertex -1.76777 40 36.2322
      vertex -4.67072 40 36.0653
    endloop
  endfacet
  facet normal 0 -1 0
    outer loop
      vertex -1.93468 40 33.3293
      vertex -1.76777 40 36.2322
      vertex -3.57482 40 34.4252
    endloop
  endfacet
  facet normal 0 -1 -0
    outer loop
      vertex 1.93468 40 42.6707
      vertex 1.76777 40 39.7678
      vertex 3.57482 40 41.5748
    endloop
  endfacet
  facet normal 0 -1 -0
    outer loop
      vertex 3.57482 40 41.5748
      vertex 1.76777 40 39.7678
      vertex 4.67072 40 39.9347
    endloop
  endfacet
  facet normal 0 -1 0
    outer loop
      vertex 2.5 40 38
      vertex 4.67072 40 39.9347
      vertex 1.76777 40 39.7678
    endloop
  endfacet
  facet normal 0 -1 0
    outer loop
      vertex 2.5 40 38
      vertex 5.05556 40 38
      vertex 4.67072 40 39.9347
    endloop
  endfacet
  facet normal 0 -1 0
    outer loop
      vertex 4.67072 40 36.0653
      vertex 2.5 40 38
      vertex 1.76777 40 36.2322
    endloop
  endfacet
  facet normal 0 -1 0
    outer loop
      vertex 2.5 40 38
      vertex 4.67072 40 36.0653
      vertex 5.05556 40 38
    endloop
  endfacet
  facet normal 0 -1 0
    outer loop
      vertex 1.93468 40 33.3293
      vertex 1.76777 40 36.2322
      vertex 0 40 35.5
    endloop
  endfacet
  facet normal 0 -1 -0
    outer loop
      vertex -1.76777 40 36.2322
      vertex -1.93468 40 33.3293
      vertex 0 40 35.5
    endloop
  endfacet
  facet normal 0 -1 0
    outer loop
      vertex 1.76777 40 36.2322
      vertex 3.57482 40 34.4252
      vertex 4.67072 40 36.0653
    endloop
  endfacet
  facet normal 0 -1 0
    outer loop
      vertex 0 40 32.9444
      vertex 0 40 35.5
      vertex -1.93468 40 33.3293
    endloop
  endfacet
  facet normal 0 -1 0
    outer loop
      vertex 1.76777 40 36.2322
      vertex 1.93468 40 33.3293
      vertex 3.57482 40 34.4252
    endloop
  endfacet
  facet normal 0 -1 0
    outer loop
      vertex 0 40 35.5
      vertex 0 40 32.9444
      vertex 1.93468 40 33.3293
    endloop
  endfacet
  facet normal 0.888097 -0.424354 0.176654
    outer loop
      vertex 5.05556 40 38
      vertex 15 46.45 3.5
      vertex 4.67072 40 39.9347
    endloop
  endfacet
  facet normal -0.000766983 0.999999 -0.00114787
    outer loop
      vertex -13.4995 47.4557 2.5
      vertex -3.57482 47.5 34.4252
      vertex -1.93468 47.5 33.3293
    endloop
  endfacet
  facet normal -0.000768318 0.999999 -0.00114746
    outer loop
      vertex -3.57482 47.5 34.4252
      vertex -13.4995 47.4557 2.5
      vertex -13.7279 47.4556 2.5
    endloop
  endfacet
  facet normal 0.000768318 0.999999 -0.00114746
    outer loop
      vertex 13.4995 47.4557 2.5
      vertex 3.57482 47.5 34.4252
      vertex 13.7279 47.4556 2.5
    endloop
  endfacet
  facet normal 0.000766983 0.999999 -0.00114787
    outer loop
      vertex 3.57482 47.5 34.4252
      vertex 13.4995 47.4557 2.5
      vertex 1.93468 47.5 33.3293
    endloop
  endfacet
  facet normal 0.0014113 0.999999 -0.000943003
    outer loop
      vertex 13.9001 47.4553 2.5
      vertex 3.57482 47.5 34.4252
      vertex 4.67072 47.5 36.0653
    endloop
  endfacet
  facet normal 0.00141748 0.999999 -0.000941005
    outer loop
      vertex 3.57482 47.5 34.4252
      vertex 13.9001 47.4553 2.5
      vertex 13.7279 47.4556 2.5
    endloop
  endfacet
  facet normal 0.923879 0 -0.382684
    outer loop
      vertex -1.76777 40 39.7678
      vertex -2.5 46 38
      vertex -1.76777 46 39.7678
    endloop
  endfacet
  facet normal 0.923879 0 -0.382684
    outer loop
      vertex -2.5 46 38
      vertex -1.76777 40 39.7678
      vertex -2.5 40 38
    endloop
  endfacet
  facet normal -0.923879 0 -0.382684
    outer loop
      vertex 2.5 40 38
      vertex 1.76777 46 39.7678
      vertex 2.5 46 38
    endloop
  endfacet
  facet normal -0.923879 -0 -0.382684
    outer loop
      vertex 1.76777 46 39.7678
      vertex 2.5 40 38
      vertex 1.76777 40 39.7678
    endloop
  endfacet
  facet normal 0.382684 0 -0.923879
    outer loop
      vertex -1.76777 40 39.7678
      vertex 0 46 40.5
      vertex 0 40 40.5
    endloop
  endfacet
  facet normal 0.382684 0 -0.923879
    outer loop
      vertex 0 46 40.5
      vertex -1.76777 40 39.7678
      vertex -1.76777 46 39.7678
    endloop
  endfacet
  facet normal 0 -1 0
    outer loop
      vertex -1.76777 46 39.7678
      vertex 1.76777 46 39.7678
      vertex 0 46 40.5
    endloop
  endfacet
  facet normal 0 -1 0
    outer loop
      vertex -2.5 46 38
      vertex 1.76777 46 39.7678
      vertex -1.76777 46 39.7678
    endloop
  endfacet
  facet normal 0 -1 0
    outer loop
      vertex -2.5 46 38
      vertex 2.5 46 38
      vertex 1.76777 46 39.7678
    endloop
  endfacet
  facet normal 0 -1 0
    outer loop
      vertex -1.76777 46 36.2322
      vertex 2.5 46 38
      vertex -2.5 46 38
    endloop
  endfacet
  facet normal 0 -1 0
    outer loop
      vertex -1.76777 46 36.2322
      vertex 1.76777 46 36.2322
      vertex 2.5 46 38
    endloop
  endfacet
  facet normal -0 -1 0
    outer loop
      vertex 1.76777 46 36.2322
      vertex -1.76777 46 36.2322
      vertex 0 46 35.5
    endloop
  endfacet
  facet normal -0.382684 0 -0.923879
    outer loop
      vertex 0 40 40.5
      vertex 1.76777 46 39.7678
      vertex 1.76777 40 39.7678
    endloop
  endfacet
  facet normal -0.382684 0 -0.923879
    outer loop
      vertex 1.76777 46 39.7678
      vertex 0 40 40.5
      vertex 0 46 40.5
    endloop
  endfacet
  facet normal 0.382683 0 0.92388
    outer loop
      vertex -1.76777 46 36.2322
      vertex 0 40 35.5
      vertex 0 46 35.5
    endloop
  endfacet
  facet normal 0.382683 0 0.92388
    outer loop
      vertex 0 40 35.5
      vertex -1.76777 46 36.2322
      vertex -1.76777 40 36.2322
    endloop
  endfacet
  facet normal -0.92388 0 0.382683
    outer loop
      vertex 1.76777 40 36.2322
      vertex 2.5 46 38
      vertex 1.76777 46 36.2322
    endloop
  endfacet
  facet normal -0.92388 0 0.382683
    outer loop
      vertex 2.5 46 38
      vertex 1.76777 40 36.2322
      vertex 2.5 40 38
    endloop
  endfacet
  facet normal 0.92388 -0 0.382683
    outer loop
      vertex -2.5 40 38
      vertex -1.76777 46 36.2322
      vertex -2.5 46 38
    endloop
  endfacet
  facet normal 0.92388 0 0.382683
    outer loop
      vertex -1.76777 46 36.2322
      vertex -2.5 40 38
      vertex -1.76777 40 36.2322
    endloop
  endfacet
  facet normal -0.382683 0 0.92388
    outer loop
      vertex 0 46 35.5
      vertex 1.76777 40 36.2322
      vertex 1.76777 46 36.2322
    endloop
  endfacet
  facet normal -0.382683 0 0.92388
    outer loop
      vertex 1.76777 40 36.2322
      vertex 0 46 35.5
      vertex 0 40 35.5
    endloop
  endfacet
  facet normal 0 -1 0
    outer loop
      vertex -15 37 -2.5
      vertex 15 37 2.5
      vertex -15 37 2.5
    endloop
  endfacet
  facet normal 0 -1 -0
    outer loop
      vertex 15 37 2.5
      vertex -15 37 -2.5
      vertex 15 37 -2.5
    endloop
  endfacet
endsolid OpenSCAD_Model
