solid OpenSCAD_Model
  facet normal -1 0 0
    outer loop
      vertex -21.5 -2.5 46.5
      vertex -21.5 -2.5 49.0774
      vertex -21.5 19.0359 46.5
    endloop
  endfacet
  facet normal -1 0 0
    outer loop
      vertex -21.5 19.0359 46.5
      vertex -21.5 -2.5 49.0774
      vertex -21.5 20.7487 62.5
    endloop
  endfacet
  facet normal -1 0 0
    outer loop
      vertex -21.5 19.0359 46.5
      vertex -21.5 20.7487 62.5
      vertex -21.5 21.5 62.5
    endloop
  endfacet
  facet normal -1 0 0
    outer loop
      vertex -21.5 19.0359 46.5
      vertex -21.5 21.5 62.5
      vertex -21.5 21.5 47.9226
    endloop
  endfacet
  facet normal 0 -1 0
    outer loop
      vertex -21.5 -2.5 49.0774
      vertex -21.5 -2.5 46.5
      vertex -15 -2.5 46.5
    endloop
  endfacet
  facet normal 0 -1 0
    outer loop
      vertex 5.5 -2.5 47.5
      vertex -21.5 -2.5 49.0774
      vertex -15 -2.5 46.5
    endloop
  endfacet
  facet normal 0 -1 0
    outer loop
      vertex -6.5 -2.5 18
      vertex 15 -2.5 -47.5
      vertex -15 -2.5 46.5
    endloop
  endfacet
  facet normal 0 -1 0
    outer loop
      vertex -9 -2.5 44.5
      vertex 15 -2.5 47.5
      vertex -15 -2.5 46.5
    endloop
  endfacet
  facet normal 0 -1 0
    outer loop
      vertex 15 -2.5 47.5
      vertex 5.5 -2.5 47.5
      vertex -15 -2.5 46.5
    endloop
  endfacet
  facet normal 0 -1 0
    outer loop
      vertex -11.5 -2.5 -42
      vertex -10.7678 -2.5 -40.2322
      vertex -15 -2.5 46.5
    endloop
  endfacet
  facet normal 0 -1 0
    outer loop
      vertex -7.23223 -2.5 -40.2322
      vertex -6.5 -2.5 -42
      vertex 15 -2.5 -47.5
    endloop
  endfacet
  facet normal 0 -1 0
    outer loop
      vertex -11.5 -2.5 -4
      vertex -11.5 -2.5 4
      vertex -15 -2.5 46.5
    endloop
  endfacet
  facet normal 0 -1 0
    outer loop
      vertex -15 -2.5 -47.5
      vertex -11.5 -2.5 -42
      vertex -15 -2.5 46.5
    endloop
  endfacet
  facet normal 0 -1 0
    outer loop
      vertex -15 -2.5 -47.5
      vertex -10.7678 -2.5 -43.7678
      vertex -11.5 -2.5 -42
    endloop
  endfacet
  facet normal 0 -1 0
    outer loop
      vertex -6.5 -2.5 18
      vertex -7.23223 -2.5 16.2322
      vertex 15 -2.5 -47.5
    endloop
  endfacet
  facet normal 0 -1 0
    outer loop
      vertex -7.23223 -2.5 -40.2322
      vertex 15 -2.5 -47.5
      vertex -9 -2.5 -39.5
    endloop
  endfacet
  facet normal 0 -1 0
    outer loop
      vertex -7.23223 -2.5 -43.7678
      vertex -9 -2.5 -44.5
      vertex 15 -2.5 -47.5
    endloop
  endfacet
  facet normal 0 -1 0
    outer loop
      vertex -7.23223 -2.5 -43.7678
      vertex 15 -2.5 -47.5
      vertex -6.5 -2.5 -42
    endloop
  endfacet
  facet normal 0 -1 0
    outer loop
      vertex -15 -2.5 -47.5
      vertex -9 -2.5 -44.5
      vertex -10.7678 -2.5 -43.7678
    endloop
  endfacet
  facet normal 0 -1 0
    outer loop
      vertex -15 -2.5 -47.5
      vertex 15 -2.5 -47.5
      vertex -9 -2.5 -44.5
    endloop
  endfacet
  facet normal 0 -1 0
    outer loop
      vertex -11.5 -2.5 4
      vertex -10.7678 -2.5 16.2322
      vertex -11.5 -2.5 18
    endloop
  endfacet
  facet normal 0 -1 0
    outer loop
      vertex -10.7678 -2.5 -40.2322
      vertex -9 -2.5 -39.5
      vertex -10.7678 -2.5 -19.7678
    endloop
  endfacet
  facet normal 0 -1 0
    outer loop
      vertex -10.7678 -2.5 -40.2322
      vertex -11.5 -2.5 -18
      vertex -15 -2.5 46.5
    endloop
  endfacet
  facet normal 0 -1 0
    outer loop
      vertex -10.7678 -2.5 -40.2322
      vertex -10.7678 -2.5 -19.7678
      vertex -11.5 -2.5 -18
    endloop
  endfacet
  facet normal 0 -1 0
    outer loop
      vertex 6.5 -2.5 18
      vertex 7.23223 -2.5 19.7678
      vertex 5 -2.5 24
    endloop
  endfacet
  facet normal 0 -1 0
    outer loop
      vertex -11.5 -2.5 4
      vertex -11.5 -2.5 18
      vertex -15 -2.5 46.5
    endloop
  endfacet
  facet normal 0 -1 0
    outer loop
      vertex -9 -2.5 15.5
      vertex -10.7678 -2.5 16.2322
      vertex -8.5 -2.5 4
    endloop
  endfacet
  facet normal 0 -1 0
    outer loop
      vertex 11.5 -2.5 -42
      vertex 10.7678 -2.5 -43.7678
      vertex 15 -2.5 -47.5
    endloop
  endfacet
  facet normal 0 -1 0
    outer loop
      vertex -2 -2.5 -24
      vertex -3.03647 -2.5 -25.4266
      vertex 9 -2.5 -39.5
    endloop
  endfacet
  facet normal 0 -1 0
    outer loop
      vertex -9 -2.5 -39.5
      vertex -7.23223 -2.5 -19.7678
      vertex -9 -2.5 -20.5
    endloop
  endfacet
  facet normal 0 -1 0
    outer loop
      vertex -10.7678 -2.5 -16.2322
      vertex -11.5 -2.5 -4
      vertex -15 -2.5 46.5
    endloop
  endfacet
  facet normal 0 -1 0
    outer loop
      vertex -11.5 -2.5 -18
      vertex -10.7678 -2.5 -16.2322
      vertex -15 -2.5 46.5
    endloop
  endfacet
  facet normal 0 -1 0
    outer loop
      vertex -8.5 -2.5 -4
      vertex -9 -2.5 -15.5
      vertex -7.23223 -2.5 -16.2322
    endloop
  endfacet
  facet normal 0 -1 0
    outer loop
      vertex 5 -2.5 -24
      vertex 3.96352 -2.5 -25.4266
      vertex 15 -2.5 -47.5
    endloop
  endfacet
  facet normal 0 -1 0
    outer loop
      vertex 9 -2.5 -15.5
      vertex 10.7678 -2.5 -16.2322
      vertex 8.5 -2.5 -4
    endloop
  endfacet
  facet normal 0 -1 0
    outer loop
      vertex -7.23223 -2.5 -16.2322
      vertex -8.5 -2.5 4
      vertex -8.5 -2.5 -4
    endloop
  endfacet
  facet normal 0 -1 0
    outer loop
      vertex -11.5 -2.5 4
      vertex -8.5 -2.5 4
      vertex -10.7678 -2.5 16.2322
    endloop
  endfacet
  facet normal 0 -1 0
    outer loop
      vertex -9 -2.5 15.5
      vertex -8.5 -2.5 4
      vertex 3.96352 -2.5 -22.5734
    endloop
  endfacet
  facet normal 0 -1 0
    outer loop
      vertex -11.5 -2.5 18
      vertex -10.7678 -2.5 19.7678
      vertex -15 -2.5 46.5
    endloop
  endfacet
  facet normal 0 -1 0
    outer loop
      vertex -4.71352 -2.5 -23.1183
      vertex -3.03647 -2.5 -22.5734
      vertex -6.5 -2.5 -18
    endloop
  endfacet
  facet normal 0 -1 0
    outer loop
      vertex -10.7678 -2.5 19.7678
      vertex -9 -2.5 20.5
      vertex -15 -2.5 46.5
    endloop
  endfacet
  facet normal 0 -1 0
    outer loop
      vertex -9 -2.5 20.5
      vertex -7.23223 -2.5 19.7678
      vertex -15 -2.5 46.5
    endloop
  endfacet
  facet normal 0 -1 0
    outer loop
      vertex -7.23223 -2.5 19.7678
      vertex -6.5 -2.5 18
      vertex -15 -2.5 46.5
    endloop
  endfacet
  facet normal 0 -1 0
    outer loop
      vertex -7.23223 -2.5 16.2322
      vertex -9 -2.5 15.5
      vertex 15 -2.5 -47.5
    endloop
  endfacet
  facet normal 0 -1 0
    outer loop
      vertex -9 -2.5 44.5
      vertex -7.23223 -2.5 43.7678
      vertex 15 -2.5 47.5
    endloop
  endfacet
  facet normal 0 -1 0
    outer loop
      vertex 15 -2.5 -47.5
      vertex -10.7678 -2.5 40.2322
      vertex -15 -2.5 46.5
    endloop
  endfacet
  facet normal 0 -1 0
    outer loop
      vertex -4.71352 -2.5 24.8817
      vertex -3.03647 -2.5 25.4266
      vertex -7.23223 -2.5 40.2322
    endloop
  endfacet
  facet normal 0 -1 0
    outer loop
      vertex -10.7678 -2.5 40.2322
      vertex -11.5 -2.5 42
      vertex -15 -2.5 46.5
    endloop
  endfacet
  facet normal 0 -1 0
    outer loop
      vertex -11.5 -2.5 42
      vertex -10.7678 -2.5 43.7678
      vertex -15 -2.5 46.5
    endloop
  endfacet
  facet normal 0 -1 0
    outer loop
      vertex -10.7678 -2.5 43.7678
      vertex -9 -2.5 44.5
      vertex -15 -2.5 46.5
    endloop
  endfacet
  facet normal 0 -1 0
    outer loop
      vertex -7.23223 -2.5 43.7678
      vertex -6.5 -2.5 42
      vertex 15 -2.5 47.5
    endloop
  endfacet
  facet normal 0 -1 0
    outer loop
      vertex -6.5 -2.5 42
      vertex -7.23223 -2.5 40.2322
      vertex 15 -2.5 47.5
    endloop
  endfacet
  facet normal 0 -1 0
    outer loop
      vertex 7.23223 -2.5 43.7678
      vertex 15 -2.5 47.5
      vertex -7.23223 -2.5 40.2322
    endloop
  endfacet
  facet normal 0 -1 0
    outer loop
      vertex -4.71352 -2.5 23.1183
      vertex -9 -2.5 39.5
      vertex -10.7678 -2.5 40.2322
    endloop
  endfacet
  facet normal 0 -1 0
    outer loop
      vertex -4.71352 -2.5 24.8817
      vertex -7.23223 -2.5 40.2322
      vertex -9 -2.5 39.5
    endloop
  endfacet
  facet normal 0 -1 0
    outer loop
      vertex -9 -2.5 -39.5
      vertex -4.71352 -2.5 -24.8817
      vertex -7.23223 -2.5 -19.7678
    endloop
  endfacet
  facet normal 0 -1 0
    outer loop
      vertex 9 -2.5 -39.5
      vertex -7.23223 -2.5 -16.2322
      vertex -2 -2.5 -24
    endloop
  endfacet
  facet normal 0 -1 0
    outer loop
      vertex -4.71352 -2.5 -24.8817
      vertex -4.71352 -2.5 -23.1183
      vertex -7.23223 -2.5 -19.7678
    endloop
  endfacet
  facet normal 0 -1 0
    outer loop
      vertex -4.71352 -2.5 23.1183
      vertex -4.71352 -2.5 24.8817
      vertex -9 -2.5 39.5
    endloop
  endfacet
  facet normal 0 -1 0
    outer loop
      vertex -6.5 -2.5 -18
      vertex -3.03647 -2.5 -22.5734
      vertex -7.23223 -2.5 -16.2322
    endloop
  endfacet
  facet normal 0 -1 0
    outer loop
      vertex -3.03647 -2.5 -22.5734
      vertex -2 -2.5 -24
      vertex -7.23223 -2.5 -16.2322
    endloop
  endfacet
  facet normal 0 -1 0
    outer loop
      vertex 9 -2.5 -20.5
      vertex 7.23223 -2.5 -19.7678
      vertex 15 -2.5 -47.5
    endloop
  endfacet
  facet normal 0 -1 0
    outer loop
      vertex 6.5 -2.5 -18
      vertex -3.03647 -2.5 22.5734
      vertex -4.71352 -2.5 23.1183
    endloop
  endfacet
  facet normal 0 -1 0
    outer loop
      vertex 5 -2.5 24
      vertex 3.96352 -2.5 22.5734
      vertex 8.5 -2.5 -4
    endloop
  endfacet
  facet normal 0 -1 0
    outer loop
      vertex 9 -2.5 44.5
      vertex 10.7678 -2.5 43.7678
      vertex 15 -2.5 47.5
    endloop
  endfacet
  facet normal 0 -1 0
    outer loop
      vertex 2.28647 -2.5 -23.1183
      vertex 3.96352 -2.5 -22.5734
      vertex -8.5 -2.5 4
    endloop
  endfacet
  facet normal 0 -1 0
    outer loop
      vertex -2 -2.5 24
      vertex -3.03647 -2.5 22.5734
      vertex 7.23223 -2.5 -16.2322
    endloop
  endfacet
  facet normal 0 -1 0
    outer loop
      vertex -7.23223 -2.5 -16.2322
      vertex 2.28647 -2.5 -24.8817
      vertex -8.5 -2.5 4
    endloop
  endfacet
  facet normal 0 -1 0
    outer loop
      vertex 10.7678 -2.5 -40.2322
      vertex 15 -2.5 -47.5
      vertex 2.28647 -2.5 -24.8817
    endloop
  endfacet
  facet normal 0 -1 0
    outer loop
      vertex 2.28647 -2.5 -24.8817
      vertex 2.28647 -2.5 -23.1183
      vertex -8.5 -2.5 4
    endloop
  endfacet
  facet normal 0 -1 0
    outer loop
      vertex 6.5 -2.5 -18
      vertex -4.71352 -2.5 23.1183
      vertex -10.7678 -2.5 40.2322
    endloop
  endfacet
  facet normal 0 -1 0
    outer loop
      vertex -4.71352 -2.5 -23.1183
      vertex -6.5 -2.5 -18
      vertex -7.23223 -2.5 -19.7678
    endloop
  endfacet
  facet normal 0 -1 0
    outer loop
      vertex 2.28647 -2.5 24.8817
      vertex 3.96352 -2.5 25.4266
      vertex 15 -2.5 47.5
    endloop
  endfacet
  facet normal 0 -1 0
    outer loop
      vertex 10.7678 -2.5 43.7678
      vertex 11.5 -2.5 42
      vertex 15 -2.5 47.5
    endloop
  endfacet
  facet normal 0 -1 0
    outer loop
      vertex 9 -2.5 -15.5
      vertex 2.28647 -2.5 23.1183
      vertex -2 -2.5 24
    endloop
  endfacet
  facet normal 0 -1 0
    outer loop
      vertex 2.28647 -2.5 23.1183
      vertex 2.28647 -2.5 24.8817
      vertex -2 -2.5 24
    endloop
  endfacet
  facet normal 0 -1 0
    outer loop
      vertex 5 -2.5 24
      vertex 15 -2.5 47.5
      vertex 3.96352 -2.5 25.4266
    endloop
  endfacet
  facet normal 0 -1 0
    outer loop
      vertex 9 -2.5 -39.5
      vertex 10.7678 -2.5 -40.2322
      vertex -7.23223 -2.5 -16.2322
    endloop
  endfacet
  facet normal 0 -1 0
    outer loop
      vertex 7.23223 -2.5 19.7678
      vertex 15 -2.5 47.5
      vertex 5 -2.5 24
    endloop
  endfacet
  facet normal 0 -1 0
    outer loop
      vertex 10.7678 -2.5 -43.7678
      vertex 9 -2.5 -44.5
      vertex 15 -2.5 -47.5
    endloop
  endfacet
  facet normal 0 -1 0
    outer loop
      vertex -9 -2.5 -39.5
      vertex 7.23223 -2.5 -43.7678
      vertex -4.71352 -2.5 -24.8817
    endloop
  endfacet
  facet normal 0 -1 0
    outer loop
      vertex -9 -2.5 -39.5
      vertex 15 -2.5 -47.5
      vertex 7.23223 -2.5 -43.7678
    endloop
  endfacet
  facet normal 0 -1 0
    outer loop
      vertex 7.23223 -2.5 -43.7678
      vertex 6.5 -2.5 -42
      vertex -4.71352 -2.5 -24.8817
    endloop
  endfacet
  facet normal 0 -1 0
    outer loop
      vertex 7.23223 -2.5 -16.2322
      vertex 9 -2.5 -15.5
      vertex -2 -2.5 24
    endloop
  endfacet
  facet normal 0 -1 0
    outer loop
      vertex 6.5 -2.5 -42
      vertex 7.23223 -2.5 -40.2322
      vertex -4.71352 -2.5 -24.8817
    endloop
  endfacet
  facet normal 0 -1 0
    outer loop
      vertex -9 -2.5 15.5
      vertex 3.96352 -2.5 -22.5734
      vertex 5 -2.5 -24
    endloop
  endfacet
  facet normal 0 -1 0
    outer loop
      vertex -9 -2.5 15.5
      vertex 5 -2.5 -24
      vertex 15 -2.5 -47.5
    endloop
  endfacet
  facet normal 0 -1 0
    outer loop
      vertex -7.23223 -2.5 -16.2322
      vertex 10.7678 -2.5 -40.2322
      vertex 2.28647 -2.5 -24.8817
    endloop
  endfacet
  facet normal 0 -1 0
    outer loop
      vertex 11.5 -2.5 -42
      vertex 15 -2.5 -47.5
      vertex 10.7678 -2.5 -40.2322
    endloop
  endfacet
  facet normal 0 -1 0
    outer loop
      vertex 7.23223 -2.5 -43.7678
      vertex 15 -2.5 -47.5
      vertex 9 -2.5 -44.5
    endloop
  endfacet
  facet normal 0 -1 0
    outer loop
      vertex 9 -2.5 -15.5
      vertex 3.96352 -2.5 22.5734
      vertex 2.28647 -2.5 23.1183
    endloop
  endfacet
  facet normal 0 -1 0
    outer loop
      vertex 15 -2.5 -47.5
      vertex 6.5 -2.5 -18
      vertex -10.7678 -2.5 40.2322
    endloop
  endfacet
  facet normal 0 -1 0
    outer loop
      vertex 15 -2.5 -47.5
      vertex 7.23223 -2.5 -19.7678
      vertex 6.5 -2.5 -18
    endloop
  endfacet
  facet normal 0 -1 0
    outer loop
      vertex 6.5 -2.5 -18
      vertex 7.23223 -2.5 -16.2322
      vertex -3.03647 -2.5 22.5734
    endloop
  endfacet
  facet normal 0 -1 0
    outer loop
      vertex 3.96352 -2.5 -25.4266
      vertex 2.28647 -2.5 -24.8817
      vertex 15 -2.5 -47.5
    endloop
  endfacet
  facet normal 0 -1 0
    outer loop
      vertex 11.5 -2.5 -18
      vertex 15 -2.5 47.5
      vertex 10.7678 -2.5 -16.2322
    endloop
  endfacet
  facet normal 0 -1 0
    outer loop
      vertex 10.7678 -2.5 -19.7678
      vertex 9 -2.5 -20.5
      vertex 15 -2.5 -47.5
    endloop
  endfacet
  facet normal 0 -1 0
    outer loop
      vertex 15 -2.5 -47.5
      vertex 15 -2.5 47.5
      vertex 11.5 -2.5 -18
    endloop
  endfacet
  facet normal 0 -1 0
    outer loop
      vertex 7.23223 -2.5 -40.2322
      vertex -3.03647 -2.5 -25.4266
      vertex -4.71352 -2.5 -24.8817
    endloop
  endfacet
  facet normal 0 -1 0
    outer loop
      vertex 9 -2.5 -15.5
      vertex 8.5 -2.5 -4
      vertex 3.96352 -2.5 22.5734
    endloop
  endfacet
  facet normal 0 -1 0
    outer loop
      vertex 7.23223 -2.5 19.7678
      vertex 9 -2.5 20.5
      vertex 15 -2.5 47.5
    endloop
  endfacet
  facet normal 0 -1 0
    outer loop
      vertex 8.5 -2.5 4
      vertex 10.7678 -2.5 16.2322
      vertex 9 -2.5 15.5
    endloop
  endfacet
  facet normal 0 -1 0
    outer loop
      vertex 8.5 -2.5 4
      vertex 7.23223 -2.5 16.2322
      vertex 6.5 -2.5 18
    endloop
  endfacet
  facet normal 0 -1 0
    outer loop
      vertex 10.7678 -2.5 19.7678
      vertex 15 -2.5 47.5
      vertex 9 -2.5 20.5
    endloop
  endfacet
  facet normal 0 -1 0
    outer loop
      vertex 11.5 -2.5 18
      vertex 15 -2.5 47.5
      vertex 10.7678 -2.5 19.7678
    endloop
  endfacet
  facet normal 0 -1 0
    outer loop
      vertex 11.5 -2.5 4
      vertex 15 -2.5 47.5
      vertex 11.5 -2.5 18
    endloop
  endfacet
  facet normal 0 -1 0
    outer loop
      vertex 9 -2.5 39.5
      vertex 7.23223 -2.5 40.2322
      vertex -3.03647 -2.5 25.4266
    endloop
  endfacet
  facet normal 0 -1 0
    outer loop
      vertex 10.7678 -2.5 40.2322
      vertex 9 -2.5 39.5
      vertex -2 -2.5 24
    endloop
  endfacet
  facet normal 0 -1 0
    outer loop
      vertex -3.03647 -2.5 25.4266
      vertex 7.23223 -2.5 40.2322
      vertex -7.23223 -2.5 40.2322
    endloop
  endfacet
  facet normal 0 -1 0
    outer loop
      vertex 7.23223 -2.5 40.2322
      vertex 6.5 -2.5 42
      vertex -7.23223 -2.5 40.2322
    endloop
  endfacet
  facet normal 0 -1 0
    outer loop
      vertex 8.5 -2.5 -4
      vertex 6.5 -2.5 18
      vertex 5 -2.5 24
    endloop
  endfacet
  facet normal 0 -1 0
    outer loop
      vertex 6.5 -2.5 42
      vertex 7.23223 -2.5 43.7678
      vertex -7.23223 -2.5 40.2322
    endloop
  endfacet
  facet normal 0 -1 0
    outer loop
      vertex 9 -2.5 44.5
      vertex 15 -2.5 47.5
      vertex 7.23223 -2.5 43.7678
    endloop
  endfacet
  facet normal 0 -1 0
    outer loop
      vertex 8.5 -2.5 -4
      vertex 8.5 -2.5 4
      vertex 6.5 -2.5 18
    endloop
  endfacet
  facet normal 0 -1 0
    outer loop
      vertex 10.7678 -2.5 40.2322
      vertex 15 -2.5 47.5
      vertex 11.5 -2.5 42
    endloop
  endfacet
  facet normal 0 -1 0
    outer loop
      vertex 8.5 -2.5 4
      vertex 9 -2.5 15.5
      vertex 7.23223 -2.5 16.2322
    endloop
  endfacet
  facet normal 0 -1 0
    outer loop
      vertex 2.28647 -2.5 24.8817
      vertex 15 -2.5 47.5
      vertex 10.7678 -2.5 40.2322
    endloop
  endfacet
  facet normal 0 -1 0
    outer loop
      vertex -2 -2.5 24
      vertex 9 -2.5 39.5
      vertex -3.03647 -2.5 25.4266
    endloop
  endfacet
  facet normal 0 -1 0
    outer loop
      vertex 10.7678 -2.5 40.2322
      vertex -2 -2.5 24
      vertex 2.28647 -2.5 24.8817
    endloop
  endfacet
  facet normal 0 -1 0
    outer loop
      vertex 7.23223 -2.5 -40.2322
      vertex 9 -2.5 -39.5
      vertex -3.03647 -2.5 -25.4266
    endloop
  endfacet
  facet normal 0 -1 0
    outer loop
      vertex 11.5 -2.5 -18
      vertex 10.7678 -2.5 -19.7678
      vertex 15 -2.5 -47.5
    endloop
  endfacet
  facet normal 0 -1 0
    outer loop
      vertex 8.5 -2.5 4
      vertex 11.5 -2.5 18
      vertex 10.7678 -2.5 16.2322
    endloop
  endfacet
  facet normal 0 -1 0
    outer loop
      vertex 8.5 -2.5 4
      vertex 11.5 -2.5 4
      vertex 11.5 -2.5 18
    endloop
  endfacet
  facet normal 0 -1 0
    outer loop
      vertex 11.5 -2.5 -4
      vertex 15 -2.5 47.5
      vertex 11.5 -2.5 4
    endloop
  endfacet
  facet normal 0 -1 0
    outer loop
      vertex 10.7678 -2.5 -16.2322
      vertex 15 -2.5 47.5
      vertex 11.5 -2.5 -4
    endloop
  endfacet
  facet normal 0 -1 0
    outer loop
      vertex 5.5 -2.5 47.5
      vertex 5.5 -2.5 49.0774
      vertex -21.5 -2.5 49.0774
    endloop
  endfacet
  facet normal 0 -1 0
    outer loop
      vertex -9 -2.5 -20.5
      vertex -10.7678 -2.5 -19.7678
      vertex -9 -2.5 -39.5
    endloop
  endfacet
  facet normal 0 -1 0
    outer loop
      vertex -8.5 -2.5 -4
      vertex -10.7678 -2.5 -16.2322
      vertex -9 -2.5 -15.5
    endloop
  endfacet
  facet normal 0 -1 0
    outer loop
      vertex -8.5 -2.5 -4
      vertex -11.5 -2.5 -4
      vertex -10.7678 -2.5 -16.2322
    endloop
  endfacet
  facet normal 0 -1 0
    outer loop
      vertex 11.5 -2.5 -4
      vertex 8.5 -2.5 -4
      vertex 10.7678 -2.5 -16.2322
    endloop
  endfacet
  facet normal 0 0 -1
    outer loop
      vertex -21.5 -2.5 46.5
      vertex -21.5 19.0359 46.5
      vertex -15 -2.5 46.5
    endloop
  endfacet
  facet normal 0 0 -1
    outer loop
      vertex -15 -2.5 46.5
      vertex -21.5 19.0359 46.5
      vertex -15 19.0359 46.5
    endloop
  endfacet
  facet normal 0 0.5 -0.866025
    outer loop
      vertex -21.5 19.0359 46.5
      vertex -21.5 21.5 47.9226
      vertex -15 19.0359 46.5
    endloop
  endfacet
  facet normal 0 0.5 -0.866025
    outer loop
      vertex -15 19.0359 46.5
      vertex -21.5 21.5 47.9226
      vertex 5.5 21.5 47.9226
    endloop
  endfacet
  facet normal 0 0.5 -0.866025
    outer loop
      vertex -14 19.0359 46.5
      vertex 5.5 21.5 47.9226
      vertex 5.5 19.0359 46.5
    endloop
  endfacet
  facet normal 0 0.5 -0.866025
    outer loop
      vertex -15 19.0359 46.5
      vertex 5.5 21.5 47.9226
      vertex -14 19.0359 46.5
    endloop
  endfacet
  facet normal 0 0.5 -0.866025
    outer loop
      vertex -14 19.0359 46.5
      vertex -14 2.5 36.953
      vertex -15 19.0359 46.5
    endloop
  endfacet
  facet normal 0 0.5 -0.866025
    outer loop
      vertex -15 19.0359 46.5
      vertex -14 2.5 36.953
      vertex -15 2.5 36.953
    endloop
  endfacet
  facet normal 0 1 0
    outer loop
      vertex 0.190983 21.5 51.0878
      vertex -21.5 21.5 62.5
      vertex 5.5 21.5 62.5
    endloop
  endfacet
  facet normal 0 1 0
    outer loop
      vertex -21.5 21.5 47.9226
      vertex -21.5 21.5 62.5
      vertex -18.809 21.5 51.0878
    endloop
  endfacet
  facet normal 0 1 0
    outer loop
      vertex -21.5 21.5 47.9226
      vertex -18.809 21.5 51.0878
      vertex -18.809 21.5 49.9122
    endloop
  endfacet
  facet normal 0 1 0
    outer loop
      vertex -21.5 21.5 47.9226
      vertex -18.809 21.5 49.9122
      vertex -17.691 21.5 49.5489
    endloop
  endfacet
  facet normal 0 1 0
    outer loop
      vertex -21.5 21.5 47.9226
      vertex -17.691 21.5 49.5489
      vertex 5.5 21.5 47.9226
    endloop
  endfacet
  facet normal 0 1 0
    outer loop
      vertex -17.691 21.5 51.4511
      vertex 5.5 21.5 47.9226
      vertex -17 21.5 50.5
    endloop
  endfacet
  facet normal 0 1 0
    outer loop
      vertex -18.809 21.5 51.0878
      vertex -21.5 21.5 62.5
      vertex -17.691 21.5 51.4511
    endloop
  endfacet
  facet normal 0 1 0
    outer loop
      vertex 0.190983 21.5 49.9122
      vertex -21.5 21.5 62.5
      vertex 0.190983 21.5 51.0878
    endloop
  endfacet
  facet normal 0 1 0
    outer loop
      vertex 1.30902 21.5 51.4511
      vertex 0.190983 21.5 51.0878
      vertex 5.5 21.5 62.5
    endloop
  endfacet
  facet normal 0 1 0
    outer loop
      vertex -17.691 21.5 51.4511
      vertex -21.5 21.5 62.5
      vertex 0.190983 21.5 49.9122
    endloop
  endfacet
  facet normal 0 1 0
    outer loop
      vertex -17.691 21.5 51.4511
      vertex 0.190983 21.5 49.9122
      vertex 5.5 21.5 47.9226
    endloop
  endfacet
  facet normal 0 1 0
    outer loop
      vertex 2 21.5 50.5
      vertex 5.5 21.5 47.9226
      vertex 1.30902 21.5 49.5489
    endloop
  endfacet
  facet normal 0 1 0
    outer loop
      vertex 0.190983 21.5 49.9122
      vertex 1.30902 21.5 49.5489
      vertex 5.5 21.5 47.9226
    endloop
  endfacet
  facet normal 0 1 0
    outer loop
      vertex 5.5 21.5 47.9226
      vertex 2 21.5 50.5
      vertex 5.5 21.5 62.5
    endloop
  endfacet
  facet normal 0 1 0
    outer loop
      vertex 2 21.5 50.5
      vertex 1.30902 21.5 51.4511
      vertex 5.5 21.5 62.5
    endloop
  endfacet
  facet normal 0 1 0
    outer loop
      vertex -17 21.5 50.5
      vertex 5.5 21.5 47.9226
      vertex -17.691 21.5 49.5489
    endloop
  endfacet
  facet normal 0 0 1
    outer loop
      vertex -21.5 21.5 62.5
      vertex -21.5 20.7487 62.5
      vertex 5.5 20.7487 62.5
    endloop
  endfacet
  facet normal 0 0 1
    outer loop
      vertex 5.5 21.5 62.5
      vertex -21.5 21.5 62.5
      vertex 5.5 20.7487 62.5
    endloop
  endfacet
  facet normal 0 -0.5 0.866025
    outer loop
      vertex -21.5 20.7487 62.5
      vertex -21.5 -2.5 49.0774
      vertex 5.5 -2.5 49.0774
    endloop
  endfacet
  facet normal 0 -0.5 0.866025
    outer loop
      vertex 5.5 20.7487 62.5
      vertex -21.5 20.7487 62.5
      vertex 5.5 -2.5 49.0774
    endloop
  endfacet
  facet normal 1 0 0
    outer loop
      vertex 5.5 -2.5 49.0774
      vertex 5.5 -2.5 47.5
      vertex 5.5 2.5 47.5
    endloop
  endfacet
  facet normal 1 0 0
    outer loop
      vertex 5.5 19.0359 46.5
      vertex 5.5 -2.5 49.0774
      vertex 5.5 2.5 47.5
    endloop
  endfacet
  facet normal 1 0 0
    outer loop
      vertex 5.5 2.5 46.5
      vertex 5.5 19.0359 46.5
      vertex 5.5 2.5 47.5
    endloop
  endfacet
  facet normal 1 0 0
    outer loop
      vertex 5.5 19.0359 46.5
      vertex 5.5 21.5 47.9226
      vertex 5.5 -2.5 49.0774
    endloop
  endfacet
  facet normal 1 0 0
    outer loop
      vertex 5.5 21.5 47.9226
      vertex 5.5 21.5 62.5
      vertex 5.5 -2.5 49.0774
    endloop
  endfacet
  facet normal 1 0 0
    outer loop
      vertex 5.5 21.5 62.5
      vertex 5.5 20.7487 62.5
      vertex 5.5 -2.5 49.0774
    endloop
  endfacet
  facet normal 0 0 1
    outer loop
      vertex 5.5 2.5 47.5
      vertex 5.5 -2.5 47.5
      vertex 15 -2.5 47.5
    endloop
  endfacet
  facet normal 0 0 1
    outer loop
      vertex 15 2.5 47.5
      vertex 5.5 2.5 47.5
      vertex 15 -2.5 47.5
    endloop
  endfacet
  facet normal 1 0 0
    outer loop
      vertex 15 -2.5 47.5
      vertex 15 -2.5 -47.5
      vertex 15 2.5 -47.5
    endloop
  endfacet
  facet normal 1 0 0
    outer loop
      vertex 15 2.5 47.5
      vertex 15 -2.5 47.5
      vertex 15 2.5 -47.5
    endloop
  endfacet
  facet normal 0 0 -1
    outer loop
      vertex -15 -2.5 -47.5
      vertex -15 2.5 -47.5
      vertex 15 -2.5 -47.5
    endloop
  endfacet
  facet normal 0 0 -1
    outer loop
      vertex 15 -2.5 -47.5
      vertex -15 2.5 -47.5
      vertex 15 2.5 -47.5
    endloop
  endfacet
  facet normal -1 0 0
    outer loop
      vertex -15 -2.5 -47.5
      vertex -15 -2.5 46.5
      vertex -15 2.5 -47.5
    endloop
  endfacet
  facet normal -1 0 0
    outer loop
      vertex -15 2.5 36.953
      vertex -15 -2.5 46.5
      vertex -15 19.0359 46.5
    endloop
  endfacet
  facet normal -1 0 0
    outer loop
      vertex -15 2.5 -47.5
      vertex -15 -2.5 46.5
      vertex -15 2.5 36.953
    endloop
  endfacet
  facet normal 0.92388 2.34326e-17 0.382683
    outer loop
      vertex -10.7678 -2.5 -43.7678
      vertex -10.7678 2.5 -43.7678
      vertex -11.5 2.5 -42
    endloop
  endfacet
  facet normal 0.92388 2.34326e-17 0.382683
    outer loop
      vertex -11.5 -2.5 -42
      vertex -10.7678 -2.5 -43.7678
      vertex -11.5 2.5 -42
    endloop
  endfacet
  facet normal 0.382683 5.65713e-17 0.92388
    outer loop
      vertex -9 -2.5 -44.5
      vertex -9 2.5 -44.5
      vertex -10.7678 2.5 -43.7678
    endloop
  endfacet
  facet normal 0.382683 5.65713e-17 0.92388
    outer loop
      vertex -10.7678 -2.5 -43.7678
      vertex -9 -2.5 -44.5
      vertex -10.7678 2.5 -43.7678
    endloop
  endfacet
  facet normal -0.382683 5.65713e-17 0.92388
    outer loop
      vertex -7.23223 -2.5 -43.7678
      vertex -7.23223 2.5 -43.7678
      vertex -9 2.5 -44.5
    endloop
  endfacet
  facet normal -0.382683 5.65713e-17 0.92388
    outer loop
      vertex -9 -2.5 -44.5
      vertex -7.23223 -2.5 -43.7678
      vertex -9 2.5 -44.5
    endloop
  endfacet
  facet normal -0.92388 2.34326e-17 0.382683
    outer loop
      vertex -6.5 2.5 -42
      vertex -7.23223 2.5 -43.7678
      vertex -6.5 -2.5 -42
    endloop
  endfacet
  facet normal -0.92388 2.34326e-17 0.382683
    outer loop
      vertex -6.5 -2.5 -42
      vertex -7.23223 2.5 -43.7678
      vertex -7.23223 -2.5 -43.7678
    endloop
  endfacet
  facet normal -0.92388 -2.34326e-17 -0.382683
    outer loop
      vertex -6.5 2.5 -42
      vertex -6.5 -2.5 -42
      vertex -7.23223 2.5 -40.2322
    endloop
  endfacet
  facet normal -0.92388 -2.34326e-17 -0.382683
    outer loop
      vertex -7.23223 2.5 -40.2322
      vertex -6.5 -2.5 -42
      vertex -7.23223 -2.5 -40.2322
    endloop
  endfacet
  facet normal -0.382683 -5.65713e-17 -0.92388
    outer loop
      vertex -7.23223 2.5 -40.2322
      vertex -7.23223 -2.5 -40.2322
      vertex -9 2.5 -39.5
    endloop
  endfacet
  facet normal -0.382683 -5.65713e-17 -0.92388
    outer loop
      vertex -9 2.5 -39.5
      vertex -7.23223 -2.5 -40.2322
      vertex -9 -2.5 -39.5
    endloop
  endfacet
  facet normal 0.382683 -5.65713e-17 -0.92388
    outer loop
      vertex -9 2.5 -39.5
      vertex -9 -2.5 -39.5
      vertex -10.7678 2.5 -40.2322
    endloop
  endfacet
  facet normal 0.382683 -5.65713e-17 -0.92388
    outer loop
      vertex -10.7678 2.5 -40.2322
      vertex -9 -2.5 -39.5
      vertex -10.7678 -2.5 -40.2322
    endloop
  endfacet
  facet normal 0.92388 -2.34326e-17 -0.382683
    outer loop
      vertex -11.5 2.5 -42
      vertex -10.7678 2.5 -40.2322
      vertex -10.7678 -2.5 -40.2322
    endloop
  endfacet
  facet normal 0.92388 -2.34326e-17 -0.382683
    outer loop
      vertex -11.5 -2.5 -42
      vertex -11.5 2.5 -42
      vertex -10.7678 -2.5 -40.2322
    endloop
  endfacet
  facet normal 0.92388 2.34326e-17 0.382683
    outer loop
      vertex -10.7678 -2.5 -19.7678
      vertex -10.7678 2.5 -19.7678
      vertex -11.5 2.5 -18
    endloop
  endfacet
  facet normal 0.92388 2.34326e-17 0.382683
    outer loop
      vertex -11.5 -2.5 -18
      vertex -10.7678 -2.5 -19.7678
      vertex -11.5 2.5 -18
    endloop
  endfacet
  facet normal 0.382683 5.65713e-17 0.92388
    outer loop
      vertex -9 -2.5 -20.5
      vertex -9 2.5 -20.5
      vertex -10.7678 2.5 -19.7678
    endloop
  endfacet
  facet normal 0.382683 5.65713e-17 0.92388
    outer loop
      vertex -10.7678 -2.5 -19.7678
      vertex -9 -2.5 -20.5
      vertex -10.7678 2.5 -19.7678
    endloop
  endfacet
  facet normal -0.382683 5.65713e-17 0.92388
    outer loop
      vertex -7.23223 -2.5 -19.7678
      vertex -7.23223 2.5 -19.7678
      vertex -9 2.5 -20.5
    endloop
  endfacet
  facet normal -0.382683 5.65713e-17 0.92388
    outer loop
      vertex -9 -2.5 -20.5
      vertex -7.23223 -2.5 -19.7678
      vertex -9 2.5 -20.5
    endloop
  endfacet
  facet normal -0.92388 2.34326e-17 0.382683
    outer loop
      vertex -6.5 2.5 -18
      vertex -7.23223 2.5 -19.7678
      vertex -6.5 -2.5 -18
    endloop
  endfacet
  facet normal -0.92388 2.34326e-17 0.382683
    outer loop
      vertex -6.5 -2.5 -18
      vertex -7.23223 2.5 -19.7678
      vertex -7.23223 -2.5 -19.7678
    endloop
  endfacet
  facet normal -0.92388 -2.34326e-17 -0.382683
    outer loop
      vertex -6.5 2.5 -18
      vertex -6.5 -2.5 -18
      vertex -7.23223 2.5 -16.2322
    endloop
  endfacet
  facet normal -0.92388 -2.34326e-17 -0.382683
    outer loop
      vertex -7.23223 2.5 -16.2322
      vertex -6.5 -2.5 -18
      vertex -7.23223 -2.5 -16.2322
    endloop
  endfacet
  facet normal -0.382683 -5.65713e-17 -0.92388
    outer loop
      vertex -7.23223 2.5 -16.2322
      vertex -7.23223 -2.5 -16.2322
      vertex -9 2.5 -15.5
    endloop
  endfacet
  facet normal -0.382683 -5.65713e-17 -0.92388
    outer loop
      vertex -9 2.5 -15.5
      vertex -7.23223 -2.5 -16.2322
      vertex -9 -2.5 -15.5
    endloop
  endfacet
  facet normal 0.382683 -5.65713e-17 -0.92388
    outer loop
      vertex -9 2.5 -15.5
      vertex -9 -2.5 -15.5
      vertex -10.7678 2.5 -16.2322
    endloop
  endfacet
  facet normal 0.382683 -5.65713e-17 -0.92388
    outer loop
      vertex -10.7678 2.5 -16.2322
      vertex -9 -2.5 -15.5
      vertex -10.7678 -2.5 -16.2322
    endloop
  endfacet
  facet normal 0.92388 -2.34326e-17 -0.382683
    outer loop
      vertex -11.5 2.5 -18
      vertex -10.7678 2.5 -16.2322
      vertex -10.7678 -2.5 -16.2322
    endloop
  endfacet
  facet normal 0.92388 -2.34326e-17 -0.382683
    outer loop
      vertex -11.5 -2.5 -18
      vertex -11.5 2.5 -18
      vertex -10.7678 -2.5 -16.2322
    endloop
  endfacet
  facet normal 1 0 0
    outer loop
      vertex -11.5 2.5 -4
      vertex -11.5 2.5 4
      vertex -11.5 -2.5 4
    endloop
  endfacet
  facet normal 1 0 0
    outer loop
      vertex -11.5 -2.5 -4
      vertex -11.5 2.5 -4
      vertex -11.5 -2.5 4
    endloop
  endfacet
  facet normal 0 0 1
    outer loop
      vertex -8.5 -2.5 -4
      vertex -8.5 2.5 -4
      vertex -11.5 2.5 -4
    endloop
  endfacet
  facet normal 0 0 1
    outer loop
      vertex -11.5 -2.5 -4
      vertex -8.5 -2.5 -4
      vertex -11.5 2.5 -4
    endloop
  endfacet
  facet normal -1 0 0
    outer loop
      vertex -8.5 2.5 4
      vertex -8.5 2.5 -4
      vertex -8.5 -2.5 4
    endloop
  endfacet
  facet normal -1 0 0
    outer loop
      vertex -8.5 -2.5 4
      vertex -8.5 2.5 -4
      vertex -8.5 -2.5 -4
    endloop
  endfacet
  facet normal 0 0 -1
    outer loop
      vertex -8.5 2.5 4
      vertex -8.5 -2.5 4
      vertex -11.5 2.5 4
    endloop
  endfacet
  facet normal 0 0 -1
    outer loop
      vertex -11.5 2.5 4
      vertex -8.5 -2.5 4
      vertex -11.5 -2.5 4
    endloop
  endfacet
  facet normal 0.92388 2.34326e-17 0.382683
    outer loop
      vertex -10.7678 -2.5 16.2322
      vertex -10.7678 2.5 16.2322
      vertex -11.5 2.5 18
    endloop
  endfacet
  facet normal 0.92388 2.34326e-17 0.382683
    outer loop
      vertex -11.5 -2.5 18
      vertex -10.7678 -2.5 16.2322
      vertex -11.5 2.5 18
    endloop
  endfacet
  facet normal 0.382683 5.65713e-17 0.92388
    outer loop
      vertex -9 -2.5 15.5
      vertex -9 2.5 15.5
      vertex -10.7678 2.5 16.2322
    endloop
  endfacet
  facet normal 0.382683 5.65713e-17 0.92388
    outer loop
      vertex -10.7678 -2.5 16.2322
      vertex -9 -2.5 15.5
      vertex -10.7678 2.5 16.2322
    endloop
  endfacet
  facet normal -0.382683 5.65713e-17 0.92388
    outer loop
      vertex -7.23223 -2.5 16.2322
      vertex -7.23223 2.5 16.2322
      vertex -9 2.5 15.5
    endloop
  endfacet
  facet normal -0.382683 5.65713e-17 0.92388
    outer loop
      vertex -9 -2.5 15.5
      vertex -7.23223 -2.5 16.2322
      vertex -9 2.5 15.5
    endloop
  endfacet
  facet normal -0.92388 2.34326e-17 0.382683
    outer loop
      vertex -6.5 2.5 18
      vertex -7.23223 2.5 16.2322
      vertex -6.5 -2.5 18
    endloop
  endfacet
  facet normal -0.92388 2.34326e-17 0.382683
    outer loop
      vertex -6.5 -2.5 18
      vertex -7.23223 2.5 16.2322
      vertex -7.23223 -2.5 16.2322
    endloop
  endfacet
  facet normal -0.92388 -2.34326e-17 -0.382683
    outer loop
      vertex -6.5 2.5 18
      vertex -6.5 -2.5 18
      vertex -7.23223 2.5 19.7678
    endloop
  endfacet
  facet normal -0.92388 -2.34326e-17 -0.382683
    outer loop
      vertex -7.23223 2.5 19.7678
      vertex -6.5 -2.5 18
      vertex -7.23223 -2.5 19.7678
    endloop
  endfacet
  facet normal -0.382683 -5.65713e-17 -0.92388
    outer loop
      vertex -7.23223 2.5 19.7678
      vertex -7.23223 -2.5 19.7678
      vertex -9 2.5 20.5
    endloop
  endfacet
  facet normal -0.382683 -5.65713e-17 -0.92388
    outer loop
      vertex -9 2.5 20.5
      vertex -7.23223 -2.5 19.7678
      vertex -9 -2.5 20.5
    endloop
  endfacet
  facet normal 0.382683 -5.65713e-17 -0.92388
    outer loop
      vertex -9 2.5 20.5
      vertex -9 -2.5 20.5
      vertex -10.7678 2.5 19.7678
    endloop
  endfacet
  facet normal 0.382683 -5.65713e-17 -0.92388
    outer loop
      vertex -10.7678 2.5 19.7678
      vertex -9 -2.5 20.5
      vertex -10.7678 -2.5 19.7678
    endloop
  endfacet
  facet normal 0.92388 -2.34326e-17 -0.382683
    outer loop
      vertex -11.5 2.5 18
      vertex -10.7678 2.5 19.7678
      vertex -10.7678 -2.5 19.7678
    endloop
  endfacet
  facet normal 0.92388 -2.34326e-17 -0.382683
    outer loop
      vertex -11.5 -2.5 18
      vertex -11.5 2.5 18
      vertex -10.7678 -2.5 19.7678
    endloop
  endfacet
  facet normal 0.92388 2.34326e-17 0.382683
    outer loop
      vertex -10.7678 -2.5 40.2322
      vertex -10.7678 2.5 40.2322
      vertex -11.5 2.5 42
    endloop
  endfacet
  facet normal 0.92388 2.34326e-17 0.382683
    outer loop
      vertex -11.5 -2.5 42
      vertex -10.7678 -2.5 40.2322
      vertex -11.5 2.5 42
    endloop
  endfacet
  facet normal 0.382683 5.65713e-17 0.92388
    outer loop
      vertex -9 -2.5 39.5
      vertex -9 2.5 39.5
      vertex -10.7678 2.5 40.2322
    endloop
  endfacet
  facet normal 0.382683 5.65713e-17 0.92388
    outer loop
      vertex -10.7678 -2.5 40.2322
      vertex -9 -2.5 39.5
      vertex -10.7678 2.5 40.2322
    endloop
  endfacet
  facet normal -0.382683 5.65713e-17 0.92388
    outer loop
      vertex -7.23223 -2.5 40.2322
      vertex -7.23223 2.5 40.2322
      vertex -9 2.5 39.5
    endloop
  endfacet
  facet normal -0.382683 5.65713e-17 0.92388
    outer loop
      vertex -9 -2.5 39.5
      vertex -7.23223 -2.5 40.2322
      vertex -9 2.5 39.5
    endloop
  endfacet
  facet normal -0.92388 2.34326e-17 0.382683
    outer loop
      vertex -6.5 2.5 42
      vertex -7.23223 2.5 40.2322
      vertex -6.5 -2.5 42
    endloop
  endfacet
  facet normal -0.92388 2.34326e-17 0.382683
    outer loop
      vertex -6.5 -2.5 42
      vertex -7.23223 2.5 40.2322
      vertex -7.23223 -2.5 40.2322
    endloop
  endfacet
  facet normal -0.92388 -2.34326e-17 -0.382683
    outer loop
      vertex -6.5 2.5 42
      vertex -6.5 -2.5 42
      vertex -7.23223 2.5 43.7678
    endloop
  endfacet
  facet normal -0.92388 -2.34326e-17 -0.382683
    outer loop
      vertex -7.23223 2.5 43.7678
      vertex -6.5 -2.5 42
      vertex -7.23223 -2.5 43.7678
    endloop
  endfacet
  facet normal -0.382683 -5.65713e-17 -0.92388
    outer loop
      vertex -7.23223 2.5 43.7678
      vertex -7.23223 -2.5 43.7678
      vertex -9 2.5 44.5
    endloop
  endfacet
  facet normal -0.382683 -5.65713e-17 -0.92388
    outer loop
      vertex -9 2.5 44.5
      vertex -7.23223 -2.5 43.7678
      vertex -9 -2.5 44.5
    endloop
  endfacet
  facet normal 0.382683 -5.65713e-17 -0.92388
    outer loop
      vertex -9 2.5 44.5
      vertex -9 -2.5 44.5
      vertex -10.7678 2.5 43.7678
    endloop
  endfacet
  facet normal 0.382683 -5.65713e-17 -0.92388
    outer loop
      vertex -10.7678 2.5 43.7678
      vertex -9 -2.5 44.5
      vertex -10.7678 -2.5 43.7678
    endloop
  endfacet
  facet normal 0.92388 -2.34326e-17 -0.382683
    outer loop
      vertex -11.5 2.5 42
      vertex -10.7678 2.5 43.7678
      vertex -10.7678 -2.5 43.7678
    endloop
  endfacet
  facet normal 0.92388 -2.34326e-17 -0.382683
    outer loop
      vertex -11.5 -2.5 42
      vertex -11.5 2.5 42
      vertex -10.7678 -2.5 43.7678
    endloop
  endfacet
  facet normal 1 0 0
    outer loop
      vertex -4.71352 2.5 -24.8817
      vertex -4.71352 2.5 -23.1183
      vertex -4.71352 -2.5 -23.1183
    endloop
  endfacet
  facet normal 1 0 0
    outer loop
      vertex -4.71352 -2.5 -24.8817
      vertex -4.71352 2.5 -24.8817
      vertex -4.71352 -2.5 -23.1183
    endloop
  endfacet
  facet normal 0.309017 5.82354e-17 0.951056
    outer loop
      vertex -3.03647 -2.5 -25.4266
      vertex -3.03647 2.5 -25.4266
      vertex -4.71352 2.5 -24.8817
    endloop
  endfacet
  facet normal 0.309017 5.82354e-17 0.951056
    outer loop
      vertex -4.71352 -2.5 -24.8817
      vertex -3.03647 -2.5 -25.4266
      vertex -4.71352 2.5 -24.8817
    endloop
  endfacet
  facet normal -0.809017 3.59915e-17 0.587785
    outer loop
      vertex -2 2.5 -24
      vertex -3.03647 2.5 -25.4266
      vertex -2 -2.5 -24
    endloop
  endfacet
  facet normal -0.809017 3.59915e-17 0.587785
    outer loop
      vertex -2 -2.5 -24
      vertex -3.03647 2.5 -25.4266
      vertex -3.03647 -2.5 -25.4266
    endloop
  endfacet
  facet normal -0.809017 -3.59915e-17 -0.587785
    outer loop
      vertex -2 2.5 -24
      vertex -2 -2.5 -24
      vertex -3.03647 2.5 -22.5734
    endloop
  endfacet
  facet normal -0.809017 -3.59915e-17 -0.587785
    outer loop
      vertex -3.03647 2.5 -22.5734
      vertex -2 -2.5 -24
      vertex -3.03647 -2.5 -22.5734
    endloop
  endfacet
  facet normal 0.309017 -5.82354e-17 -0.951056
    outer loop
      vertex -3.03647 2.5 -22.5734
      vertex -3.03647 -2.5 -22.5734
      vertex -4.71352 2.5 -23.1183
    endloop
  endfacet
  facet normal 0.309017 -5.82354e-17 -0.951056
    outer loop
      vertex -4.71352 2.5 -23.1183
      vertex -3.03647 -2.5 -22.5734
      vertex -4.71352 -2.5 -23.1183
    endloop
  endfacet
  facet normal 1 0 0
    outer loop
      vertex -4.71352 2.5 23.1183
      vertex -4.71352 2.5 24.8817
      vertex -4.71352 -2.5 24.8817
    endloop
  endfacet
  facet normal 1 0 0
    outer loop
      vertex -4.71352 -2.5 23.1183
      vertex -4.71352 2.5 23.1183
      vertex -4.71352 -2.5 24.8817
    endloop
  endfacet
  facet normal 0.309017 5.82354e-17 0.951056
    outer loop
      vertex -3.03647 -2.5 22.5734
      vertex -3.03647 2.5 22.5734
      vertex -4.71352 2.5 23.1183
    endloop
  endfacet
  facet normal 0.309017 5.82354e-17 0.951056
    outer loop
      vertex -4.71352 -2.5 23.1183
      vertex -3.03647 -2.5 22.5734
      vertex -4.71352 2.5 23.1183
    endloop
  endfacet
  facet normal -0.809017 3.59915e-17 0.587785
    outer loop
      vertex -2 2.5 24
      vertex -3.03647 2.5 22.5734
      vertex -2 -2.5 24
    endloop
  endfacet
  facet normal -0.809017 3.59915e-17 0.587785
    outer loop
      vertex -2 -2.5 24
      vertex -3.03647 2.5 22.5734
      vertex -3.03647 -2.5 22.5734
    endloop
  endfacet
  facet normal -0.809017 -3.59915e-17 -0.587785
    outer loop
      vertex -2 2.5 24
      vertex -2 -2.5 24
      vertex -3.03647 2.5 25.4266
    endloop
  endfacet
  facet normal -0.809017 -3.59915e-17 -0.587785
    outer loop
      vertex -3.03647 2.5 25.4266
      vertex -2 -2.5 24
      vertex -3.03647 -2.5 25.4266
    endloop
  endfacet
  facet normal 0.309017 -5.82354e-17 -0.951056
    outer loop
      vertex -3.03647 2.5 25.4266
      vertex -3.03647 -2.5 25.4266
      vertex -4.71352 2.5 24.8817
    endloop
  endfacet
  facet normal 0.309017 -5.82354e-17 -0.951056
    outer loop
      vertex -4.71352 2.5 24.8817
      vertex -3.03647 -2.5 25.4266
      vertex -4.71352 -2.5 24.8817
    endloop
  endfacet
  facet normal 1 0 0
    outer loop
      vertex 2.28647 2.5 -24.8817
      vertex 2.28647 2.5 -23.1183
      vertex 2.28647 -2.5 -23.1183
    endloop
  endfacet
  facet normal 1 0 0
    outer loop
      vertex 2.28647 -2.5 -24.8817
      vertex 2.28647 2.5 -24.8817
      vertex 2.28647 -2.5 -23.1183
    endloop
  endfacet
  facet normal 0.309017 5.82354e-17 0.951056
    outer loop
      vertex 3.96352 -2.5 -25.4266
      vertex 3.96352 2.5 -25.4266
      vertex 2.28647 2.5 -24.8817
    endloop
  endfacet
  facet normal 0.309017 5.82354e-17 0.951056
    outer loop
      vertex 2.28647 -2.5 -24.8817
      vertex 3.96352 -2.5 -25.4266
      vertex 2.28647 2.5 -24.8817
    endloop
  endfacet
  facet normal -0.809017 3.59915e-17 0.587785
    outer loop
      vertex 5 2.5 -24
      vertex 3.96352 2.5 -25.4266
      vertex 5 -2.5 -24
    endloop
  endfacet
  facet normal -0.809017 3.59915e-17 0.587785
    outer loop
      vertex 5 -2.5 -24
      vertex 3.96352 2.5 -25.4266
      vertex 3.96352 -2.5 -25.4266
    endloop
  endfacet
  facet normal -0.809017 -3.59915e-17 -0.587785
    outer loop
      vertex 5 2.5 -24
      vertex 5 -2.5 -24
      vertex 3.96352 2.5 -22.5734
    endloop
  endfacet
  facet normal -0.809017 -3.59915e-17 -0.587785
    outer loop
      vertex 3.96352 2.5 -22.5734
      vertex 5 -2.5 -24
      vertex 3.96352 -2.5 -22.5734
    endloop
  endfacet
  facet normal 0.309017 -5.82354e-17 -0.951056
    outer loop
      vertex 3.96352 2.5 -22.5734
      vertex 3.96352 -2.5 -22.5734
      vertex 2.28647 2.5 -23.1183
    endloop
  endfacet
  facet normal 0.309017 -5.82354e-17 -0.951056
    outer loop
      vertex 2.28647 2.5 -23.1183
      vertex 3.96352 -2.5 -22.5734
      vertex 2.28647 -2.5 -23.1183
    endloop
  endfacet
  facet normal 1 0 0
    outer loop
      vertex 2.28647 2.5 23.1183
      vertex 2.28647 2.5 24.8817
      vertex 2.28647 -2.5 24.8817
    endloop
  endfacet
  facet normal 1 0 0
    outer loop
      vertex 2.28647 -2.5 23.1183
      vertex 2.28647 2.5 23.1183
      vertex 2.28647 -2.5 24.8817
    endloop
  endfacet
  facet normal 0.309017 5.82354e-17 0.951056
    outer loop
      vertex 3.96352 -2.5 22.5734
      vertex 3.96352 2.5 22.5734
      vertex 2.28647 2.5 23.1183
    endloop
  endfacet
  facet normal 0.309017 5.82354e-17 0.951056
    outer loop
      vertex 2.28647 -2.5 23.1183
      vertex 3.96352 -2.5 22.5734
      vertex 2.28647 2.5 23.1183
    endloop
  endfacet
  facet normal -0.809017 3.59915e-17 0.587785
    outer loop
      vertex 5 2.5 24
      vertex 3.96352 2.5 22.5734
      vertex 5 -2.5 24
    endloop
  endfacet
  facet normal -0.809017 3.59915e-17 0.587785
    outer loop
      vertex 5 -2.5 24
      vertex 3.96352 2.5 22.5734
      vertex 3.96352 -2.5 22.5734
    endloop
  endfacet
  facet normal -0.809017 -3.59915e-17 -0.587785
    outer loop
      vertex 5 2.5 24
      vertex 5 -2.5 24
      vertex 3.96352 2.5 25.4266
    endloop
  endfacet
  facet normal -0.809017 -3.59915e-17 -0.587785
    outer loop
      vertex 3.96352 2.5 25.4266
      vertex 5 -2.5 24
      vertex 3.96352 -2.5 25.4266
    endloop
  endfacet
  facet normal 0.309017 -5.82354e-17 -0.951056
    outer loop
      vertex 3.96352 2.5 25.4266
      vertex 3.96352 -2.5 25.4266
      vertex 2.28647 2.5 24.8817
    endloop
  endfacet
  facet normal 0.309017 -5.82354e-17 -0.951056
    outer loop
      vertex 2.28647 2.5 24.8817
      vertex 3.96352 -2.5 25.4266
      vertex 2.28647 -2.5 24.8817
    endloop
  endfacet
  facet normal 0.92388 2.34326e-17 0.382683
    outer loop
      vertex 7.23223 -2.5 -43.7678
      vertex 7.23223 2.5 -43.7678
      vertex 6.5 2.5 -42
    endloop
  endfacet
  facet normal 0.92388 2.34326e-17 0.382683
    outer loop
      vertex 6.5 -2.5 -42
      vertex 7.23223 -2.5 -43.7678
      vertex 6.5 2.5 -42
    endloop
  endfacet
  facet normal 0.382683 5.65713e-17 0.92388
    outer loop
      vertex 9 -2.5 -44.5
      vertex 9 2.5 -44.5
      vertex 7.23223 2.5 -43.7678
    endloop
  endfacet
  facet normal 0.382683 5.65713e-17 0.92388
    outer loop
      vertex 7.23223 -2.5 -43.7678
      vertex 9 -2.5 -44.5
      vertex 7.23223 2.5 -43.7678
    endloop
  endfacet
  facet normal -0.382683 5.65713e-17 0.92388
    outer loop
      vertex 10.7678 -2.5 -43.7678
      vertex 10.7678 2.5 -43.7678
      vertex 9 2.5 -44.5
    endloop
  endfacet
  facet normal -0.382683 5.65713e-17 0.92388
    outer loop
      vertex 9 -2.5 -44.5
      vertex 10.7678 -2.5 -43.7678
      vertex 9 2.5 -44.5
    endloop
  endfacet
  facet normal -0.92388 2.34326e-17 0.382683
    outer loop
      vertex 11.5 2.5 -42
      vertex 10.7678 2.5 -43.7678
      vertex 11.5 -2.5 -42
    endloop
  endfacet
  facet normal -0.92388 2.34326e-17 0.382683
    outer loop
      vertex 11.5 -2.5 -42
      vertex 10.7678 2.5 -43.7678
      vertex 10.7678 -2.5 -43.7678
    endloop
  endfacet
  facet normal -0.92388 -2.34326e-17 -0.382683
    outer loop
      vertex 11.5 2.5 -42
      vertex 11.5 -2.5 -42
      vertex 10.7678 2.5 -40.2322
    endloop
  endfacet
  facet normal -0.92388 -2.34326e-17 -0.382683
    outer loop
      vertex 10.7678 2.5 -40.2322
      vertex 11.5 -2.5 -42
      vertex 10.7678 -2.5 -40.2322
    endloop
  endfacet
  facet normal -0.382683 -5.65713e-17 -0.92388
    outer loop
      vertex 10.7678 2.5 -40.2322
      vertex 10.7678 -2.5 -40.2322
      vertex 9 2.5 -39.5
    endloop
  endfacet
  facet normal -0.382683 -5.65713e-17 -0.92388
    outer loop
      vertex 9 2.5 -39.5
      vertex 10.7678 -2.5 -40.2322
      vertex 9 -2.5 -39.5
    endloop
  endfacet
  facet normal 0.382683 -5.65713e-17 -0.92388
    outer loop
      vertex 9 2.5 -39.5
      vertex 9 -2.5 -39.5
      vertex 7.23223 2.5 -40.2322
    endloop
  endfacet
  facet normal 0.382683 -5.65713e-17 -0.92388
    outer loop
      vertex 7.23223 2.5 -40.2322
      vertex 9 -2.5 -39.5
      vertex 7.23223 -2.5 -40.2322
    endloop
  endfacet
  facet normal 0.92388 -2.34326e-17 -0.382683
    outer loop
      vertex 6.5 2.5 -42
      vertex 7.23223 2.5 -40.2322
      vertex 7.23223 -2.5 -40.2322
    endloop
  endfacet
  facet normal 0.92388 -2.34326e-17 -0.382683
    outer loop
      vertex 6.5 -2.5 -42
      vertex 6.5 2.5 -42
      vertex 7.23223 -2.5 -40.2322
    endloop
  endfacet
  facet normal 0.92388 2.34326e-17 0.382683
    outer loop
      vertex 7.23223 -2.5 -19.7678
      vertex 7.23223 2.5 -19.7678
      vertex 6.5 2.5 -18
    endloop
  endfacet
  facet normal 0.92388 2.34326e-17 0.382683
    outer loop
      vertex 6.5 -2.5 -18
      vertex 7.23223 -2.5 -19.7678
      vertex 6.5 2.5 -18
    endloop
  endfacet
  facet normal 0.382683 5.65713e-17 0.92388
    outer loop
      vertex 9 -2.5 -20.5
      vertex 9 2.5 -20.5
      vertex 7.23223 2.5 -19.7678
    endloop
  endfacet
  facet normal 0.382683 5.65713e-17 0.92388
    outer loop
      vertex 7.23223 -2.5 -19.7678
      vertex 9 -2.5 -20.5
      vertex 7.23223 2.5 -19.7678
    endloop
  endfacet
  facet normal -0.382683 5.65713e-17 0.92388
    outer loop
      vertex 10.7678 -2.5 -19.7678
      vertex 10.7678 2.5 -19.7678
      vertex 9 2.5 -20.5
    endloop
  endfacet
  facet normal -0.382683 5.65713e-17 0.92388
    outer loop
      vertex 9 -2.5 -20.5
      vertex 10.7678 -2.5 -19.7678
      vertex 9 2.5 -20.5
    endloop
  endfacet
  facet normal -0.92388 2.34326e-17 0.382683
    outer loop
      vertex 11.5 2.5 -18
      vertex 10.7678 2.5 -19.7678
      vertex 11.5 -2.5 -18
    endloop
  endfacet
  facet normal -0.92388 2.34326e-17 0.382683
    outer loop
      vertex 11.5 -2.5 -18
      vertex 10.7678 2.5 -19.7678
      vertex 10.7678 -2.5 -19.7678
    endloop
  endfacet
  facet normal -0.92388 -2.34326e-17 -0.382683
    outer loop
      vertex 11.5 2.5 -18
      vertex 11.5 -2.5 -18
      vertex 10.7678 2.5 -16.2322
    endloop
  endfacet
  facet normal -0.92388 -2.34326e-17 -0.382683
    outer loop
      vertex 10.7678 2.5 -16.2322
      vertex 11.5 -2.5 -18
      vertex 10.7678 -2.5 -16.2322
    endloop
  endfacet
  facet normal -0.382683 -5.65713e-17 -0.92388
    outer loop
      vertex 10.7678 2.5 -16.2322
      vertex 10.7678 -2.5 -16.2322
      vertex 9 2.5 -15.5
    endloop
  endfacet
  facet normal -0.382683 -5.65713e-17 -0.92388
    outer loop
      vertex 9 2.5 -15.5
      vertex 10.7678 -2.5 -16.2322
      vertex 9 -2.5 -15.5
    endloop
  endfacet
  facet normal 0.382683 -5.65713e-17 -0.92388
    outer loop
      vertex 9 2.5 -15.5
      vertex 9 -2.5 -15.5
      vertex 7.23223 2.5 -16.2322
    endloop
  endfacet
  facet normal 0.382683 -5.65713e-17 -0.92388
    outer loop
      vertex 7.23223 2.5 -16.2322
      vertex 9 -2.5 -15.5
      vertex 7.23223 -2.5 -16.2322
    endloop
  endfacet
  facet normal 0.92388 -2.34326e-17 -0.382683
    outer loop
      vertex 6.5 2.5 -18
      vertex 7.23223 2.5 -16.2322
      vertex 7.23223 -2.5 -16.2322
    endloop
  endfacet
  facet normal 0.92388 -2.34326e-17 -0.382683
    outer loop
      vertex 6.5 -2.5 -18
      vertex 6.5 2.5 -18
      vertex 7.23223 -2.5 -16.2322
    endloop
  endfacet
  facet normal 0.92388 2.34326e-17 0.382683
    outer loop
      vertex 7.23223 -2.5 16.2322
      vertex 7.23223 2.5 16.2322
      vertex 6.5 2.5 18
    endloop
  endfacet
  facet normal 0.92388 2.34326e-17 0.382683
    outer loop
      vertex 6.5 -2.5 18
      vertex 7.23223 -2.5 16.2322
      vertex 6.5 2.5 18
    endloop
  endfacet
  facet normal 0.382683 5.65713e-17 0.92388
    outer loop
      vertex 9 -2.5 15.5
      vertex 9 2.5 15.5
      vertex 7.23223 2.5 16.2322
    endloop
  endfacet
  facet normal 0.382683 5.65713e-17 0.92388
    outer loop
      vertex 7.23223 -2.5 16.2322
      vertex 9 -2.5 15.5
      vertex 7.23223 2.5 16.2322
    endloop
  endfacet
  facet normal -0.382683 5.65713e-17 0.92388
    outer loop
      vertex 10.7678 -2.5 16.2322
      vertex 10.7678 2.5 16.2322
      vertex 9 2.5 15.5
    endloop
  endfacet
  facet normal -0.382683 5.65713e-17 0.92388
    outer loop
      vertex 9 -2.5 15.5
      vertex 10.7678 -2.5 16.2322
      vertex 9 2.5 15.5
    endloop
  endfacet
  facet normal -0.92388 2.34326e-17 0.382683
    outer loop
      vertex 11.5 2.5 18
      vertex 10.7678 2.5 16.2322
      vertex 11.5 -2.5 18
    endloop
  endfacet
  facet normal -0.92388 2.34326e-17 0.382683
    outer loop
      vertex 11.5 -2.5 18
      vertex 10.7678 2.5 16.2322
      vertex 10.7678 -2.5 16.2322
    endloop
  endfacet
  facet normal -0.92388 -2.34326e-17 -0.382683
    outer loop
      vertex 11.5 2.5 18
      vertex 11.5 -2.5 18
      vertex 10.7678 2.5 19.7678
    endloop
  endfacet
  facet normal -0.92388 -2.34326e-17 -0.382683
    outer loop
      vertex 10.7678 2.5 19.7678
      vertex 11.5 -2.5 18
      vertex 10.7678 -2.5 19.7678
    endloop
  endfacet
  facet normal -0.382683 -5.65713e-17 -0.92388
    outer loop
      vertex 10.7678 2.5 19.7678
      vertex 10.7678 -2.5 19.7678
      vertex 9 2.5 20.5
    endloop
  endfacet
  facet normal -0.382683 -5.65713e-17 -0.92388
    outer loop
      vertex 9 2.5 20.5
      vertex 10.7678 -2.5 19.7678
      vertex 9 -2.5 20.5
    endloop
  endfacet
  facet normal 0.382683 -5.65713e-17 -0.92388
    outer loop
      vertex 9 2.5 20.5
      vertex 9 -2.5 20.5
      vertex 7.23223 2.5 19.7678
    endloop
  endfacet
  facet normal 0.382683 -5.65713e-17 -0.92388
    outer loop
      vertex 7.23223 2.5 19.7678
      vertex 9 -2.5 20.5
      vertex 7.23223 -2.5 19.7678
    endloop
  endfacet
  facet normal 0.92388 -2.34326e-17 -0.382683
    outer loop
      vertex 6.5 2.5 18
      vertex 7.23223 2.5 19.7678
      vertex 7.23223 -2.5 19.7678
    endloop
  endfacet
  facet normal 0.92388 -2.34326e-17 -0.382683
    outer loop
      vertex 6.5 -2.5 18
      vertex 6.5 2.5 18
      vertex 7.23223 -2.5 19.7678
    endloop
  endfacet
  facet normal 0.92388 2.34326e-17 0.382683
    outer loop
      vertex 7.23223 -2.5 40.2322
      vertex 7.23223 2.5 40.2322
      vertex 6.5 2.5 42
    endloop
  endfacet
  facet normal 0.92388 2.34326e-17 0.382683
    outer loop
      vertex 6.5 -2.5 42
      vertex 7.23223 -2.5 40.2322
      vertex 6.5 2.5 42
    endloop
  endfacet
  facet normal 0.382683 5.65713e-17 0.92388
    outer loop
      vertex 9 -2.5 39.5
      vertex 9 2.5 39.5
      vertex 7.23223 2.5 40.2322
    endloop
  endfacet
  facet normal 0.382683 5.65713e-17 0.92388
    outer loop
      vertex 7.23223 -2.5 40.2322
      vertex 9 -2.5 39.5
      vertex 7.23223 2.5 40.2322
    endloop
  endfacet
  facet normal -0.382683 5.65713e-17 0.92388
    outer loop
      vertex 10.7678 -2.5 40.2322
      vertex 10.7678 2.5 40.2322
      vertex 9 2.5 39.5
    endloop
  endfacet
  facet normal -0.382683 5.65713e-17 0.92388
    outer loop
      vertex 9 -2.5 39.5
      vertex 10.7678 -2.5 40.2322
      vertex 9 2.5 39.5
    endloop
  endfacet
  facet normal -0.92388 2.34326e-17 0.382683
    outer loop
      vertex 11.5 2.5 42
      vertex 10.7678 2.5 40.2322
      vertex 11.5 -2.5 42
    endloop
  endfacet
  facet normal -0.92388 2.34326e-17 0.382683
    outer loop
      vertex 11.5 -2.5 42
      vertex 10.7678 2.5 40.2322
      vertex 10.7678 -2.5 40.2322
    endloop
  endfacet
  facet normal -0.92388 -2.34326e-17 -0.382683
    outer loop
      vertex 11.5 2.5 42
      vertex 11.5 -2.5 42
      vertex 10.7678 2.5 43.7678
    endloop
  endfacet
  facet normal -0.92388 -2.34326e-17 -0.382683
    outer loop
      vertex 10.7678 2.5 43.7678
      vertex 11.5 -2.5 42
      vertex 10.7678 -2.5 43.7678
    endloop
  endfacet
  facet normal -0.382683 -5.65713e-17 -0.92388
    outer loop
      vertex 10.7678 2.5 43.7678
      vertex 10.7678 -2.5 43.7678
      vertex 9 2.5 44.5
    endloop
  endfacet
  facet normal -0.382683 -5.65713e-17 -0.92388
    outer loop
      vertex 9 2.5 44.5
      vertex 10.7678 -2.5 43.7678
      vertex 9 -2.5 44.5
    endloop
  endfacet
  facet normal 0.382683 -5.65713e-17 -0.92388
    outer loop
      vertex 9 2.5 44.5
      vertex 9 -2.5 44.5
      vertex 7.23223 2.5 43.7678
    endloop
  endfacet
  facet normal 0.382683 -5.65713e-17 -0.92388
    outer loop
      vertex 7.23223 2.5 43.7678
      vertex 9 -2.5 44.5
      vertex 7.23223 -2.5 43.7678
    endloop
  endfacet
  facet normal 0.92388 -2.34326e-17 -0.382683
    outer loop
      vertex 6.5 2.5 42
      vertex 7.23223 2.5 43.7678
      vertex 7.23223 -2.5 43.7678
    endloop
  endfacet
  facet normal 0.92388 -2.34326e-17 -0.382683
    outer loop
      vertex 6.5 -2.5 42
      vertex 6.5 2.5 42
      vertex 7.23223 -2.5 43.7678
    endloop
  endfacet
  facet normal 1 0 0
    outer loop
      vertex 8.5 2.5 -4
      vertex 8.5 2.5 4
      vertex 8.5 -2.5 4
    endloop
  endfacet
  facet normal 1 0 0
    outer loop
      vertex 8.5 -2.5 -4
      vertex 8.5 2.5 -4
      vertex 8.5 -2.5 4
    endloop
  endfacet
  facet normal 0 0 1
    outer loop
      vertex 11.5 -2.5 -4
      vertex 11.5 2.5 -4
      vertex 8.5 2.5 -4
    endloop
  endfacet
  facet normal 0 0 1
    outer loop
      vertex 8.5 -2.5 -4
      vertex 11.5 -2.5 -4
      vertex 8.5 2.5 -4
    endloop
  endfacet
  facet normal -1 0 0
    outer loop
      vertex 11.5 2.5 4
      vertex 11.5 2.5 -4
      vertex 11.5 -2.5 4
    endloop
  endfacet
  facet normal -1 0 0
    outer loop
      vertex 11.5 -2.5 4
      vertex 11.5 2.5 -4
      vertex 11.5 -2.5 -4
    endloop
  endfacet
  facet normal 0 0 -1
    outer loop
      vertex 11.5 2.5 4
      vertex 11.5 -2.5 4
      vertex 8.5 2.5 4
    endloop
  endfacet
  facet normal 0 0 -1
    outer loop
      vertex 8.5 2.5 4
      vertex 11.5 -2.5 4
      vertex 8.5 -2.5 4
    endloop
  endfacet
  facet normal 0 1 0
    outer loop
      vertex -6.5 2.5 18
      vertex -14 2.5 36.953
      vertex -14 2.5 46.5
    endloop
  endfacet
  facet normal 0 1 0
    outer loop
      vertex -9 2.5 44.5
      vertex -14 2.5 46.5
      vertex 5.5 2.5 46.5
    endloop
  endfacet
  facet normal 0 1 0
    outer loop
      vertex 9 2.5 44.5
      vertex 5.5 2.5 47.5
      vertex 15 2.5 47.5
    endloop
  endfacet
  facet normal 0 1 0
    outer loop
      vertex -15 2.5 -47.5
      vertex -15 2.5 36.953
      vertex -11.5 2.5 -42
    endloop
  endfacet
  facet normal 0 1 0
    outer loop
      vertex -11.5 2.5 18
      vertex -15 2.5 36.953
      vertex -10.7678 2.5 19.7678
    endloop
  endfacet
  facet normal 0 1 0
    outer loop
      vertex -15 2.5 -47.5
      vertex -11.5 2.5 -42
      vertex -10.7678 2.5 -43.7678
    endloop
  endfacet
  facet normal 0 1 0
    outer loop
      vertex -15 2.5 -47.5
      vertex -10.7678 2.5 -43.7678
      vertex -9 2.5 -44.5
    endloop
  endfacet
  facet normal 0 1 0
    outer loop
      vertex -15 2.5 -47.5
      vertex -9 2.5 -44.5
      vertex 15 2.5 -47.5
    endloop
  endfacet
  facet normal 0 1 0
    outer loop
      vertex -6.5 2.5 -42
      vertex 15 2.5 -47.5
      vertex -7.23223 2.5 -43.7678
    endloop
  endfacet
  facet normal 0 1 0
    outer loop
      vertex -11.5 2.5 -18
      vertex -15 2.5 36.953
      vertex -10.7678 2.5 -16.2322
    endloop
  endfacet
  facet normal 0 1 0
    outer loop
      vertex -8.5 2.5 -4
      vertex -9 2.5 -15.5
      vertex -10.7678 2.5 -16.2322
    endloop
  endfacet
  facet normal 0 1 0
    outer loop
      vertex -9 2.5 -20.5
      vertex -9 2.5 -39.5
      vertex -10.7678 2.5 -19.7678
    endloop
  endfacet
  facet normal 0 1 0
    outer loop
      vertex -11.5 2.5 -42
      vertex -15 2.5 36.953
      vertex -10.7678 2.5 -40.2322
    endloop
  endfacet
  facet normal 0 1 0
    outer loop
      vertex -10.7678 2.5 -40.2322
      vertex -15 2.5 36.953
      vertex -11.5 2.5 -18
    endloop
  endfacet
  facet normal 0 1 0
    outer loop
      vertex -10.7678 2.5 -40.2322
      vertex -11.5 2.5 -18
      vertex -9 2.5 -39.5
    endloop
  endfacet
  facet normal 0 1 0
    outer loop
      vertex -9 2.5 -20.5
      vertex -7.23223 2.5 -40.2322
      vertex -9 2.5 -39.5
    endloop
  endfacet
  facet normal 0 1 0
    outer loop
      vertex -11.5 2.5 -18
      vertex -10.7678 2.5 -19.7678
      vertex -9 2.5 -39.5
    endloop
  endfacet
  facet normal 0 1 0
    outer loop
      vertex -7.23223 2.5 -19.7678
      vertex -6.5 2.5 -42
      vertex -9 2.5 -20.5
    endloop
  endfacet
  facet normal 0 1 0
    outer loop
      vertex -7.23223 2.5 -40.2322
      vertex -9 2.5 -20.5
      vertex -6.5 2.5 -42
    endloop
  endfacet
  facet normal 0 1 0
    outer loop
      vertex -11.5 2.5 -4
      vertex -15 2.5 36.953
      vertex -11.5 2.5 4
    endloop
  endfacet
  facet normal 0 1 0
    outer loop
      vertex 9 2.5 -39.5
      vertex 2.28647 2.5 -24.8817
      vertex 10.7678 2.5 -40.2322
    endloop
  endfacet
  facet normal 0 1 0
    outer loop
      vertex -8.5 2.5 -4
      vertex -10.7678 2.5 -16.2322
      vertex -11.5 2.5 -4
    endloop
  endfacet
  facet normal 0 1 0
    outer loop
      vertex -11.5 2.5 4
      vertex -11.5 2.5 18
      vertex -8.5 2.5 4
    endloop
  endfacet
  facet normal 0 1 0
    outer loop
      vertex -8.5 2.5 -4
      vertex -6.5 2.5 -18
      vertex -7.23223 2.5 -16.2322
    endloop
  endfacet
  facet normal 0 1 0
    outer loop
      vertex -10.7678 2.5 -16.2322
      vertex -15 2.5 36.953
      vertex -11.5 2.5 -4
    endloop
  endfacet
  facet normal 0 1 0
    outer loop
      vertex -8.5 2.5 -4
      vertex -7.23223 2.5 -16.2322
      vertex -9 2.5 -15.5
    endloop
  endfacet
  facet normal 0 1 0
    outer loop
      vertex 3.96352 2.5 -25.4266
      vertex 15 2.5 -47.5
      vertex 2.28647 2.5 -24.8817
    endloop
  endfacet
  facet normal 0 1 0
    outer loop
      vertex -7.23223 2.5 16.2322
      vertex 15 2.5 -47.5
      vertex -9 2.5 15.5
    endloop
  endfacet
  facet normal 0 1 0
    outer loop
      vertex 5 2.5 -24
      vertex -10.7678 2.5 16.2322
      vertex 15 2.5 -47.5
    endloop
  endfacet
  facet normal 0 1 0
    outer loop
      vertex -6.5 2.5 42
      vertex 5.5 2.5 46.5
      vertex -7.23223 2.5 40.2322
    endloop
  endfacet
  facet normal 0 1 0
    outer loop
      vertex -10.7678 2.5 16.2322
      vertex -9 2.5 15.5
      vertex 15 2.5 -47.5
    endloop
  endfacet
  facet normal 0 1 0
    outer loop
      vertex -10.7678 2.5 19.7678
      vertex -15 2.5 36.953
      vertex -9 2.5 20.5
    endloop
  endfacet
  facet normal 0 1 0
    outer loop
      vertex -7.23223 2.5 19.7678
      vertex -14 2.5 36.953
      vertex -6.5 2.5 18
    endloop
  endfacet
  facet normal 0 1 0
    outer loop
      vertex 15 2.5 -47.5
      vertex -6.5 2.5 18
      vertex -14 2.5 46.5
    endloop
  endfacet
  facet normal 0 1 0
    outer loop
      vertex -9 2.5 20.5
      vertex -14 2.5 36.953
      vertex -7.23223 2.5 19.7678
    endloop
  endfacet
  facet normal 0 1 0
    outer loop
      vertex -9 2.5 20.5
      vertex -15 2.5 36.953
      vertex -14 2.5 36.953
    endloop
  endfacet
  facet normal 0 1 0
    outer loop
      vertex -6.5 2.5 18
      vertex 15 2.5 -47.5
      vertex -7.23223 2.5 16.2322
    endloop
  endfacet
  facet normal 0 1 0
    outer loop
      vertex 15 2.5 -47.5
      vertex -14 2.5 46.5
      vertex -11.5 2.5 42
    endloop
  endfacet
  facet normal 0 1 0
    outer loop
      vertex 15 2.5 -47.5
      vertex -11.5 2.5 42
      vertex -10.7678 2.5 40.2322
    endloop
  endfacet
  facet normal 0 1 0
    outer loop
      vertex -4.71352 2.5 23.1183
      vertex -10.7678 2.5 40.2322
      vertex -9 2.5 39.5
    endloop
  endfacet
  facet normal 0 1 0
    outer loop
      vertex -4.71352 2.5 24.8817
      vertex -7.23223 2.5 40.2322
      vertex -3.03647 2.5 25.4266
    endloop
  endfacet
  facet normal 0 1 0
    outer loop
      vertex -4.71352 2.5 24.8817
      vertex -9 2.5 39.5
      vertex -7.23223 2.5 40.2322
    endloop
  endfacet
  facet normal 0 1 0
    outer loop
      vertex -2 2.5 24
      vertex -7.23223 2.5 40.2322
      vertex 5.5 2.5 46.5
    endloop
  endfacet
  facet normal 0 1 0
    outer loop
      vertex -7.23223 2.5 43.7678
      vertex 5.5 2.5 46.5
      vertex -6.5 2.5 42
    endloop
  endfacet
  facet normal 0 1 0
    outer loop
      vertex -4.71352 2.5 -23.1183
      vertex -7.23223 2.5 -19.7678
      vertex -6.5 2.5 -18
    endloop
  endfacet
  facet normal 0 1 0
    outer loop
      vertex -10.7678 2.5 43.7678
      vertex -14 2.5 46.5
      vertex -9 2.5 44.5
    endloop
  endfacet
  facet normal 0 1 0
    outer loop
      vertex -4.71352 2.5 -23.1183
      vertex -6.5 2.5 -18
      vertex -3.03647 2.5 -22.5734
    endloop
  endfacet
  facet normal 0 1 0
    outer loop
      vertex -7.23223 2.5 43.7678
      vertex -9 2.5 44.5
      vertex 5.5 2.5 46.5
    endloop
  endfacet
  facet normal 0 1 0
    outer loop
      vertex -11.5 2.5 42
      vertex -14 2.5 46.5
      vertex -10.7678 2.5 43.7678
    endloop
  endfacet
  facet normal 0 1 0
    outer loop
      vertex -6.5 2.5 -42
      vertex -7.23223 2.5 -19.7678
      vertex -4.71352 2.5 -23.1183
    endloop
  endfacet
  facet normal 0 1 0
    outer loop
      vertex -6.5 2.5 -42
      vertex -4.71352 2.5 -23.1183
      vertex -4.71352 2.5 -24.8817
    endloop
  endfacet
  facet normal 0 1 0
    outer loop
      vertex -3.03647 2.5 -22.5734
      vertex -8.5 2.5 -4
      vertex -2 2.5 -24
    endloop
  endfacet
  facet normal 0 1 0
    outer loop
      vertex -6.5 2.5 -18
      vertex -8.5 2.5 -4
      vertex -3.03647 2.5 -22.5734
    endloop
  endfacet
  facet normal 0 1 0
    outer loop
      vertex -4.71352 2.5 23.1183
      vertex -9 2.5 39.5
      vertex -4.71352 2.5 24.8817
    endloop
  endfacet
  facet normal 0 1 0
    outer loop
      vertex 6.5 2.5 -18
      vertex -10.7678 2.5 40.2322
      vertex -4.71352 2.5 23.1183
    endloop
  endfacet
  facet normal 0 1 0
    outer loop
      vertex 9 2.5 -15.5
      vertex 2.28647 2.5 23.1183
      vertex 3.96352 2.5 22.5734
    endloop
  endfacet
  facet normal 0 1 0
    outer loop
      vertex -2 2.5 24
      vertex 7.23223 2.5 -16.2322
      vertex -3.03647 2.5 22.5734
    endloop
  endfacet
  facet normal 0 1 0
    outer loop
      vertex -3.03647 2.5 25.4266
      vertex -7.23223 2.5 40.2322
      vertex -2 2.5 24
    endloop
  endfacet
  facet normal 0 1 0
    outer loop
      vertex 2.28647 2.5 24.8817
      vertex -2 2.5 24
      vertex 5.5 2.5 46.5
    endloop
  endfacet
  facet normal 0 1 0
    outer loop
      vertex 7.23223 2.5 -40.2322
      vertex -4.71352 2.5 -24.8817
      vertex -3.03647 2.5 -25.4266
    endloop
  endfacet
  facet normal 0 1 0
    outer loop
      vertex 2.28647 2.5 -23.1183
      vertex -8.5 2.5 4
      vertex 3.96352 2.5 -22.5734
    endloop
  endfacet
  facet normal 0 1 0
    outer loop
      vertex -8.5 2.5 -4
      vertex -8.5 2.5 4
      vertex 2.28647 2.5 -23.1183
    endloop
  endfacet
  facet normal 0 1 0
    outer loop
      vertex -2 2.5 -24
      vertex -8.5 2.5 -4
      vertex 2.28647 2.5 -24.8817
    endloop
  endfacet
  facet normal 0 1 0
    outer loop
      vertex 10.7678 2.5 -40.2322
      vertex 2.28647 2.5 -24.8817
      vertex 15 2.5 -47.5
    endloop
  endfacet
  facet normal 0 1 0
    outer loop
      vertex 2.28647 2.5 -24.8817
      vertex -8.5 2.5 -4
      vertex 2.28647 2.5 -23.1183
    endloop
  endfacet
  facet normal 0 1 0
    outer loop
      vertex 5 2.5 -24
      vertex 15 2.5 -47.5
      vertex 3.96352 2.5 -25.4266
    endloop
  endfacet
  facet normal 0 1 0
    outer loop
      vertex -8.5 2.5 4
      vertex -10.7678 2.5 16.2322
      vertex 5 2.5 -24
    endloop
  endfacet
  facet normal 0 1 0
    outer loop
      vertex 10.7678 2.5 43.7678
      vertex 15 2.5 47.5
      vertex 11.5 2.5 42
    endloop
  endfacet
  facet normal 0 1 0
    outer loop
      vertex -8.5 2.5 4
      vertex 5 2.5 -24
      vertex 3.96352 2.5 -22.5734
    endloop
  endfacet
  facet normal 0 1 0
    outer loop
      vertex 7.23223 2.5 -16.2322
      vertex -2 2.5 24
      vertex 2.28647 2.5 23.1183
    endloop
  endfacet
  facet normal 0 1 0
    outer loop
      vertex 2.28647 2.5 23.1183
      vertex -2 2.5 24
      vertex 2.28647 2.5 24.8817
    endloop
  endfacet
  facet normal 0 1 0
    outer loop
      vertex 3.96352 2.5 25.4266
      vertex 2.28647 2.5 24.8817
      vertex 5.5 2.5 46.5
    endloop
  endfacet
  facet normal 0 1 0
    outer loop
      vertex 3.96352 2.5 25.4266
      vertex 5.5 2.5 46.5
      vertex 5 2.5 24
    endloop
  endfacet
  facet normal 0 1 0
    outer loop
      vertex 8.5 2.5 -4
      vertex 3.96352 2.5 22.5734
      vertex 5 2.5 24
    endloop
  endfacet
  facet normal 0 1 0
    outer loop
      vertex 6.5 2.5 18
      vertex 5 2.5 24
      vertex 5.5 2.5 46.5
    endloop
  endfacet
  facet normal 0 1 0
    outer loop
      vertex 10.7678 2.5 -43.7678
      vertex 15 2.5 -47.5
      vertex 9 2.5 -44.5
    endloop
  endfacet
  facet normal 0 1 0
    outer loop
      vertex -6.5 2.5 -42
      vertex -4.71352 2.5 -24.8817
      vertex 6.5 2.5 -42
    endloop
  endfacet
  facet normal 0 1 0
    outer loop
      vertex 6.5 2.5 -18
      vertex -3.03647 2.5 22.5734
      vertex 7.23223 2.5 -16.2322
    endloop
  endfacet
  facet normal 0 1 0
    outer loop
      vertex -6.5 2.5 -42
      vertex 6.5 2.5 -42
      vertex 7.23223 2.5 -43.7678
    endloop
  endfacet
  facet normal 0 1 0
    outer loop
      vertex -6.5 2.5 -42
      vertex 7.23223 2.5 -43.7678
      vertex 15 2.5 -47.5
    endloop
  endfacet
  facet normal 0 1 0
    outer loop
      vertex 7.23223 2.5 -43.7678
      vertex 9 2.5 -44.5
      vertex 15 2.5 -47.5
    endloop
  endfacet
  facet normal 0 1 0
    outer loop
      vertex 6.5 2.5 -18
      vertex -4.71352 2.5 23.1183
      vertex -3.03647 2.5 22.5734
    endloop
  endfacet
  facet normal 0 1 0
    outer loop
      vertex 11.5 2.5 -42
      vertex 15 2.5 -47.5
      vertex 10.7678 2.5 -43.7678
    endloop
  endfacet
  facet normal 0 1 0
    outer loop
      vertex 7.23223 2.5 -40.2322
      vertex -3.03647 2.5 -25.4266
      vertex 9 2.5 -39.5
    endloop
  endfacet
  facet normal 0 1 0
    outer loop
      vertex 9 2.5 -39.5
      vertex -2 2.5 -24
      vertex 2.28647 2.5 -24.8817
    endloop
  endfacet
  facet normal 0 1 0
    outer loop
      vertex 11.5 2.5 -42
      vertex 10.7678 2.5 -40.2322
      vertex 15 2.5 -47.5
    endloop
  endfacet
  facet normal 0 1 0
    outer loop
      vertex -2 2.5 -24
      vertex 9 2.5 -39.5
      vertex -3.03647 2.5 -25.4266
    endloop
  endfacet
  facet normal 0 1 0
    outer loop
      vertex 6.5 2.5 -42
      vertex -4.71352 2.5 -24.8817
      vertex 7.23223 2.5 -40.2322
    endloop
  endfacet
  facet normal 0 1 0
    outer loop
      vertex 15 2.5 -47.5
      vertex -10.7678 2.5 40.2322
      vertex 6.5 2.5 -18
    endloop
  endfacet
  facet normal 0 1 0
    outer loop
      vertex 9 2.5 -20.5
      vertex 15 2.5 -47.5
      vertex 7.23223 2.5 -19.7678
    endloop
  endfacet
  facet normal 0 1 0
    outer loop
      vertex 15 2.5 -47.5
      vertex 6.5 2.5 -18
      vertex 7.23223 2.5 -19.7678
    endloop
  endfacet
  facet normal 0 1 0
    outer loop
      vertex 6.5 2.5 18
      vertex 5.5 2.5 46.5
      vertex 7.23223 2.5 19.7678
    endloop
  endfacet
  facet normal 0 1 0
    outer loop
      vertex 10.7678 2.5 -19.7678
      vertex 15 2.5 -47.5
      vertex 9 2.5 -20.5
    endloop
  endfacet
  facet normal 0 1 0
    outer loop
      vertex 7.23223 2.5 19.7678
      vertex 5.5 2.5 46.5
      vertex 5.5 2.5 47.5
    endloop
  endfacet
  facet normal 0 1 0
    outer loop
      vertex 11.5 2.5 -18
      vertex 15 2.5 -47.5
      vertex 10.7678 2.5 -19.7678
    endloop
  endfacet
  facet normal 0 1 0
    outer loop
      vertex 9 2.5 -15.5
      vertex 8.5 2.5 -4
      vertex 10.7678 2.5 -16.2322
    endloop
  endfacet
  facet normal 0 1 0
    outer loop
      vertex 11.5 2.5 -4
      vertex 10.7678 2.5 -16.2322
      vertex 8.5 2.5 -4
    endloop
  endfacet
  facet normal 0 1 0
    outer loop
      vertex 11.5 2.5 -4
      vertex 11.5 2.5 -18
      vertex 10.7678 2.5 -16.2322
    endloop
  endfacet
  facet normal 0 1 0
    outer loop
      vertex 9 2.5 -15.5
      vertex 3.96352 2.5 22.5734
      vertex 8.5 2.5 -4
    endloop
  endfacet
  facet normal 0 1 0
    outer loop
      vertex 8.5 2.5 4
      vertex 6.5 2.5 18
      vertex 7.23223 2.5 16.2322
    endloop
  endfacet
  facet normal 0 1 0
    outer loop
      vertex 8.5 2.5 -4
      vertex 6.5 2.5 18
      vertex 8.5 2.5 4
    endloop
  endfacet
  facet normal 0 1 0
    outer loop
      vertex 10.7678 2.5 19.7678
      vertex 15 2.5 47.5
      vertex 11.5 2.5 18
    endloop
  endfacet
  facet normal 0 1 0
    outer loop
      vertex 15 2.5 -47.5
      vertex 10.7678 2.5 16.2322
      vertex 11.5 2.5 18
    endloop
  endfacet
  facet normal 0 1 0
    outer loop
      vertex 15 2.5 -47.5
      vertex 11.5 2.5 18
      vertex 15 2.5 47.5
    endloop
  endfacet
  facet normal 0 1 0
    outer loop
      vertex 9 2.5 20.5
      vertex 15 2.5 47.5
      vertex 10.7678 2.5 19.7678
    endloop
  endfacet
  facet normal 0 1 0
    outer loop
      vertex 7.23223 2.5 19.7678
      vertex 5.5 2.5 47.5
      vertex 9 2.5 20.5
    endloop
  endfacet
  facet normal 0 1 0
    outer loop
      vertex 11.5 2.5 -4
      vertex 15 2.5 -47.5
      vertex 11.5 2.5 -18
    endloop
  endfacet
  facet normal 0 1 0
    outer loop
      vertex 9 2.5 20.5
      vertex 5.5 2.5 47.5
      vertex 6.5 2.5 42
    endloop
  endfacet
  facet normal 0 1 0
    outer loop
      vertex 8.5 2.5 4
      vertex 9 2.5 15.5
      vertex 10.7678 2.5 16.2322
    endloop
  endfacet
  facet normal 0 1 0
    outer loop
      vertex 9 2.5 20.5
      vertex 6.5 2.5 42
      vertex 7.23223 2.5 40.2322
    endloop
  endfacet
  facet normal 0 1 0
    outer loop
      vertex 9 2.5 20.5
      vertex 7.23223 2.5 40.2322
      vertex 9 2.5 39.5
    endloop
  endfacet
  facet normal 0 1 0
    outer loop
      vertex 8.5 2.5 4
      vertex 10.7678 2.5 16.2322
      vertex 11.5 2.5 4
    endloop
  endfacet
  facet normal 0 1 0
    outer loop
      vertex 9 2.5 20.5
      vertex 9 2.5 39.5
      vertex 10.7678 2.5 40.2322
    endloop
  endfacet
  facet normal 0 1 0
    outer loop
      vertex 9 2.5 20.5
      vertex 10.7678 2.5 40.2322
      vertex 15 2.5 47.5
    endloop
  endfacet
  facet normal 0 1 0
    outer loop
      vertex 10.7678 2.5 40.2322
      vertex 11.5 2.5 42
      vertex 15 2.5 47.5
    endloop
  endfacet
  facet normal 0 1 0
    outer loop
      vertex 9 2.5 44.5
      vertex 15 2.5 47.5
      vertex 10.7678 2.5 43.7678
    endloop
  endfacet
  facet normal 0 1 0
    outer loop
      vertex 7.23223 2.5 43.7678
      vertex 5.5 2.5 47.5
      vertex 9 2.5 44.5
    endloop
  endfacet
  facet normal 0 1 0
    outer loop
      vertex 8.5 2.5 4
      vertex 7.23223 2.5 16.2322
      vertex 9 2.5 15.5
    endloop
  endfacet
  facet normal 0 1 0
    outer loop
      vertex 6.5 2.5 42
      vertex 5.5 2.5 47.5
      vertex 7.23223 2.5 43.7678
    endloop
  endfacet
  facet normal 0 1 0
    outer loop
      vertex 8.5 2.5 -4
      vertex 5 2.5 24
      vertex 6.5 2.5 18
    endloop
  endfacet
  facet normal 0 1 0
    outer loop
      vertex 7.23223 2.5 -16.2322
      vertex 2.28647 2.5 23.1183
      vertex 9 2.5 -15.5
    endloop
  endfacet
  facet normal 0 1 0
    outer loop
      vertex 15 2.5 -47.5
      vertex 11.5 2.5 -4
      vertex 11.5 2.5 4
    endloop
  endfacet
  facet normal 0 1 0
    outer loop
      vertex 15 2.5 -47.5
      vertex 11.5 2.5 4
      vertex 10.7678 2.5 16.2322
    endloop
  endfacet
  facet normal 0 1 0
    outer loop
      vertex -7.23223 2.5 -43.7678
      vertex 15 2.5 -47.5
      vertex -9 2.5 -44.5
    endloop
  endfacet
  facet normal 0 1 0
    outer loop
      vertex -11.5 2.5 4
      vertex -15 2.5 36.953
      vertex -11.5 2.5 18
    endloop
  endfacet
  facet normal 0 1 0
    outer loop
      vertex -10.7678 2.5 16.2322
      vertex -8.5 2.5 4
      vertex -11.5 2.5 18
    endloop
  endfacet
  facet normal 1 0 0
    outer loop
      vertex -14 2.5 46.5
      vertex -14 2.5 36.953
      vertex -14 19.0359 46.5
    endloop
  endfacet
  facet normal 0 0 -1
    outer loop
      vertex -14 2.5 46.5
      vertex -14 19.0359 46.5
      vertex 5.5 2.5 46.5
    endloop
  endfacet
  facet normal 0 0 -1
    outer loop
      vertex 5.5 2.5 46.5
      vertex -14 19.0359 46.5
      vertex 5.5 19.0359 46.5
    endloop
  endfacet
  facet normal 1 0 0
    outer loop
      vertex -18.809 21.5 49.9122
      vertex -18.809 21.5 51.0878
      vertex -18.809 11.5 51.0878
    endloop
  endfacet
  facet normal 1 0 0
    outer loop
      vertex -18.809 11.5 49.9122
      vertex -18.809 21.5 49.9122
      vertex -18.809 11.5 51.0878
    endloop
  endfacet
  facet normal 0.309018 -5.82354e-17 -0.951056
    outer loop
      vertex -17.691 21.5 51.4511
      vertex -17.691 11.5 51.4511
      vertex -18.809 21.5 51.0878
    endloop
  endfacet
  facet normal 0.309018 -5.82354e-17 -0.951056
    outer loop
      vertex -18.809 21.5 51.0878
      vertex -17.691 11.5 51.4511
      vertex -18.809 11.5 51.0878
    endloop
  endfacet
  facet normal -0.809017 -3.59915e-17 -0.587785
    outer loop
      vertex -17 21.5 50.5
      vertex -17 11.5 50.5
      vertex -17.691 21.5 51.4511
    endloop
  endfacet
  facet normal -0.809017 -3.59915e-17 -0.587785
    outer loop
      vertex -17.691 21.5 51.4511
      vertex -17 11.5 50.5
      vertex -17.691 11.5 51.4511
    endloop
  endfacet
  facet normal -0.809017 3.59915e-17 0.587785
    outer loop
      vertex -17 21.5 50.5
      vertex -17.691 21.5 49.5489
      vertex -17 11.5 50.5
    endloop
  endfacet
  facet normal -0.809017 3.59915e-17 0.587785
    outer loop
      vertex -17 11.5 50.5
      vertex -17.691 21.5 49.5489
      vertex -17.691 11.5 49.5489
    endloop
  endfacet
  facet normal 0.309018 5.82354e-17 0.951056
    outer loop
      vertex -17.691 11.5 49.5489
      vertex -17.691 21.5 49.5489
      vertex -18.809 21.5 49.9122
    endloop
  endfacet
  facet normal 0.309018 5.82354e-17 0.951056
    outer loop
      vertex -18.809 11.5 49.9122
      vertex -17.691 11.5 49.5489
      vertex -18.809 21.5 49.9122
    endloop
  endfacet
  facet normal 0.309018 -5.82354e-17 -0.951056
    outer loop
      vertex 1.30902 21.5 51.4511
      vertex 1.30902 11.5 51.4511
      vertex 0.190983 21.5 51.0878
    endloop
  endfacet
  facet normal 0.309018 -5.82354e-17 -0.951056
    outer loop
      vertex 0.190983 21.5 51.0878
      vertex 1.30902 11.5 51.4511
      vertex 0.190983 11.5 51.0878
    endloop
  endfacet
  facet normal 1 0 0
    outer loop
      vertex 0.190983 21.5 49.9122
      vertex 0.190983 21.5 51.0878
      vertex 0.190983 11.5 51.0878
    endloop
  endfacet
  facet normal 1 0 0
    outer loop
      vertex 0.190983 11.5 49.9122
      vertex 0.190983 21.5 49.9122
      vertex 0.190983 11.5 51.0878
    endloop
  endfacet
  facet normal -0.809017 -3.59915e-17 -0.587785
    outer loop
      vertex 2 21.5 50.5
      vertex 2 11.5 50.5
      vertex 1.30902 21.5 51.4511
    endloop
  endfacet
  facet normal -0.809017 -3.59915e-17 -0.587785
    outer loop
      vertex 1.30902 21.5 51.4511
      vertex 2 11.5 50.5
      vertex 1.30902 11.5 51.4511
    endloop
  endfacet
  facet normal -0.809017 3.59915e-17 0.587785
    outer loop
      vertex 2 21.5 50.5
      vertex 1.30902 21.5 49.5489
      vertex 2 11.5 50.5
    endloop
  endfacet
  facet normal -0.809017 3.59915e-17 0.587785
    outer loop
      vertex 2 11.5 50.5
      vertex 1.30902 21.5 49.5489
      vertex 1.30902 11.5 49.5489
    endloop
  endfacet
  facet normal 0.309018 5.82354e-17 0.951056
    outer loop
      vertex 1.30902 11.5 49.5489
      vertex 1.30902 21.5 49.5489
      vertex 0.190983 21.5 49.9122
    endloop
  endfacet
  facet normal 0.309018 5.82354e-17 0.951056
    outer loop
      vertex 0.190983 11.5 49.9122
      vertex 1.30902 11.5 49.5489
      vertex 0.190983 21.5 49.9122
    endloop
  endfacet
  facet normal 0 1 -6.12323e-17
    outer loop
      vertex -17.691 11.5 51.4511
      vertex -17 11.5 50.5
      vertex -18.809 11.5 51.0878
    endloop
  endfacet
  facet normal 0 1 -6.12323e-17
    outer loop
      vertex -18.809 11.5 51.0878
      vertex -17 11.5 50.5
      vertex -17.691 11.5 49.5489
    endloop
  endfacet
  facet normal 0 1 -6.12323e-17
    outer loop
      vertex -18.809 11.5 51.0878
      vertex -17.691 11.5 49.5489
      vertex -18.809 11.5 49.9122
    endloop
  endfacet
  facet normal 0 1 -6.12323e-17
    outer loop
      vertex 1.30902 11.5 51.4511
      vertex 2 11.5 50.5
      vertex 0.190983 11.5 51.0878
    endloop
  endfacet
  facet normal 0 1 -6.12323e-17
    outer loop
      vertex 0.190983 11.5 51.0878
      vertex 2 11.5 50.5
      vertex 1.30902 11.5 49.5489
    endloop
  endfacet
  facet normal 0 1 -6.12323e-17
    outer loop
      vertex 0.190983 11.5 51.0878
      vertex 1.30902 11.5 49.5489
      vertex 0.190983 11.5 49.9122
    endloop
  endfacet
endsolid OpenSCAD_Model
