solid OpenSCAD_Model
  facet normal -0.5 -0.5 0.707107
    outer loop
      vertex 31.6484 -34.1125 28.6632
      vertex 20.8805 -44.8805 13.435
      vertex 22.7029 -46.7029 13.435
    endloop
  endfacet
  facet normal -0.5 -0.5 0.707107
    outer loop
      vertex 40.6586 -40.6586 30.4056
      vertex 31.6484 -34.1125 28.6632
      vertex 35.9529 -45.3644 23.7506
    endloop
  endfacet
  facet normal -0.5 -0.5 0.707107
    outer loop
      vertex 35.9529 -45.3644 23.7506
      vertex 31.6484 -34.1125 28.6632
      vertex 22.7029 -46.7029 13.435
    endloop
  endfacet
  facet normal -0.5 -0.5 0.707107
    outer loop
      vertex 33.8864 -33.8864 30.4056
      vertex 31.6484 -34.1125 28.6632
      vertex 40.6586 -40.6586 30.4056
    endloop
  endfacet
  facet normal -0.5 -0.5 -0.707107
    outer loop
      vertex 20.8805 -44.8805 13.435
      vertex 24.1305 -41.6305 8.83883
      vertex 22.7029 -46.7029 13.435
    endloop
  endfacet
  facet normal -0.5 -0.5 -0.707107
    outer loop
      vertex -36.6985 22.6985 6.36396
      vertex 24.1305 -41.6305 8.83883
      vertex -42.3376 24.8376 8.83883
    endloop
  endfacet
  facet normal -0.5 -0.5 -0.707107
    outer loop
      vertex 21.8146 -35.0824 5.84619
      vertex 24.1305 -41.6305 8.83883
      vertex -27.3376 39.8376 -12.3744
    endloop
  endfacet
  facet normal -0.5 -0.5 -0.707107
    outer loop
      vertex 35.0876 -32.0876 -5.65685
      vertex 24.1305 -41.6305 8.83883
      vertex 39.8376 -27.3376 -12.3744
    endloop
  endfacet
  facet normal -0.5 -0.5 -0.707107
    outer loop
      vertex 22.7029 -46.7029 13.435
      vertex 24.1305 -41.6305 8.83883
      vertex 35.0876 -32.0876 -5.65685
    endloop
  endfacet
  facet normal -0.5 -0.5 -0.707107
    outer loop
      vertex -35.0824 21.8146 5.84619
      vertex 24.1305 -41.6305 8.83883
      vertex -36.6985 22.6985 6.36396
    endloop
  endfacet
  facet normal -0.5 -0.5 -0.707107
    outer loop
      vertex -34.1985 25.1985 2.82843
      vertex -27.3376 39.8376 -12.3744
      vertex -33.3146 23.5824 3.34619
    endloop
  endfacet
  facet normal -0.5 -0.5 -0.707107
    outer loop
      vertex -37.2163 25.7163 4.59619
      vertex -37.5824 24.3146 5.84619
      vertex -42.3376 24.8376 8.83883
    endloop
  endfacet
  facet normal -0.5 -0.5 -0.707107
    outer loop
      vertex -37.5824 24.3146 5.84619
      vertex -36.6985 22.6985 6.36396
      vertex -42.3376 24.8376 8.83883
    endloop
  endfacet
  facet normal -0.5 -0.5 -0.707107
    outer loop
      vertex -19.7279 5.72792 6.36396
      vertex 24.1305 -41.6305 8.83883
      vertex -35.0824 21.8146 5.84619
    endloop
  endfacet
  facet normal -0.5 -0.5 -0.707107
    outer loop
      vertex -27.3376 39.8376 -12.3744
      vertex -33.6807 22.1807 4.59619
      vertex -33.3146 23.5824 3.34619
    endloop
  endfacet
  facet normal -0.5 -0.5 -0.707107
    outer loop
      vertex -37.2163 25.7163 4.59619
      vertex -27.3376 39.8376 -12.3744
      vertex -35.8146 26.0824 3.34619
    endloop
  endfacet
  facet normal -0.5 -0.5 -0.707107
    outer loop
      vertex -27.3376 39.8376 -12.3744
      vertex -34.1985 25.1985 2.82843
      vertex -35.8146 26.0824 3.34619
    endloop
  endfacet
  facet normal -0.5 -0.5 -0.707107
    outer loop
      vertex -4.17157 -9.82843 6.36396
      vertex 24.1305 -41.6305 8.83883
      vertex -9.82843 -4.17157 6.36396
    endloop
  endfacet
  facet normal -0.5 -0.5 -0.707107
    outer loop
      vertex -20.6118 7.34404 5.84619
      vertex -33.6807 22.1807 4.59619
      vertex -20.2457 8.74569 4.59619
    endloop
  endfacet
  facet normal -0.5 -0.5 -0.707107
    outer loop
      vertex -27.3376 39.8376 -12.3744
      vertex -37.2163 25.7163 4.59619
      vertex -42.3376 24.8376 8.83883
    endloop
  endfacet
  facet normal -0.5 -0.5 -0.707107
    outer loop
      vertex -2.67157 -8.32843 4.24264
      vertex 4.84404 -18.1118 5.84619
      vertex 5.72792 -19.7279 6.36396
    endloop
  endfacet
  facet normal -0.5 -0.5 -0.707107
    outer loop
      vertex -33.6807 22.1807 4.59619
      vertex -20.6118 7.34404 5.84619
      vertex -35.0824 21.8146 5.84619
    endloop
  endfacet
  facet normal -0.5 -0.5 -0.707107
    outer loop
      vertex -20.6118 7.34404 5.84619
      vertex -19.7279 5.72792 6.36396
      vertex -35.0824 21.8146 5.84619
    endloop
  endfacet
  facet normal -0.5 -0.5 -0.707107
    outer loop
      vertex -9.82843 -4.17157 6.36396
      vertex 24.1305 -41.6305 8.83883
      vertex -18.1118 4.84404 5.84619
    endloop
  endfacet
  facet normal -0.5 -0.5 -0.707107
    outer loop
      vertex -18.1118 4.84404 5.84619
      vertex 24.1305 -41.6305 8.83883
      vertex -19.7279 5.72792 6.36396
    endloop
  endfacet
  facet normal -0.5 -0.5 -0.707107
    outer loop
      vertex -2.67157 -8.32843 4.24264
      vertex 5.72792 -19.7279 6.36396
      vertex -4.17157 -9.82843 6.36396
    endloop
  endfacet
  facet normal -0.5 -0.5 -0.707107
    outer loop
      vertex -18.844 9.11181 3.34619
      vertex -20.2457 8.74569 4.59619
      vertex -33.6807 22.1807 4.59619
    endloop
  endfacet
  facet normal -0.5 -0.5 -0.707107
    outer loop
      vertex -18.7301 13.1936 0.379345
      vertex -16.344 6.61181 3.34619
      vertex -17.2279 8.22792 2.82843
    endloop
  endfacet
  facet normal -0.5 -0.5 -0.707107
    outer loop
      vertex 4.84404 -18.1118 5.84619
      vertex -15.7206 18.2206 -5.3033
      vertex -27.3376 39.8376 -12.3744
    endloop
  endfacet
  facet normal -0.5 -0.5 -0.707107
    outer loop
      vertex -9.82843 -4.17157 6.36396
      vertex -16.7102 5.21016 4.59619
      vertex -16.344 6.61181 3.34619
    endloop
  endfacet
  facet normal -0.5 -0.5 -0.707107
    outer loop
      vertex -21.2008 13.9872 1.5652
      vertex -18.844 9.11181 3.34619
      vertex -33.6807 22.1807 4.59619
    endloop
  endfacet
  facet normal -0.5 -0.5 -0.707107
    outer loop
      vertex -16.7102 5.21016 4.59619
      vertex -9.82843 -4.17157 6.36396
      vertex -18.1118 4.84404 5.84619
    endloop
  endfacet
  facet normal -0.5 -0.5 -0.707107
    outer loop
      vertex -20.7475 15.2111 0.379345
      vertex -24.6807 31.1807 -8.13173
      vertex -19.2206 14.7206 -0.353553
    endloop
  endfacet
  facet normal -0.5 -0.5 -0.707107
    outer loop
      vertex 4.84404 -18.1118 5.84619
      vertex -27.3376 39.8376 -12.3744
      vertex 5.21016 -16.7102 4.59619
    endloop
  endfacet
  facet normal -0.5 -0.5 -0.707107
    outer loop
      vertex -17.7008 17.4872 -3.38455
      vertex -2.67157 -8.32843 4.24264
      vertex -16.344 6.61181 3.34619
    endloop
  endfacet
  facet normal -0.5 -0.5 -0.707107
    outer loop
      vertex 4.84404 -18.1118 5.84619
      vertex -15.2301 16.6936 -4.5704
      vertex -15.7206 18.2206 -5.3033
    endloop
  endfacet
  facet normal -0.5 -0.5 -0.707107
    outer loop
      vertex -2.67157 -8.32843 4.24264
      vertex -8.32843 -2.67157 4.24264
      vertex -16.344 6.61181 3.34619
    endloop
  endfacet
  facet normal -0.5 -0.5 -0.707107
    outer loop
      vertex 7.34404 -20.6118 5.84619
      vertex 24.1305 -41.6305 8.83883
      vertex 5.72792 -19.7279 6.36396
    endloop
  endfacet
  facet normal -0.5 -0.5 -0.707107
    outer loop
      vertex 4.84404 -18.1118 5.84619
      vertex -2.67157 -8.32843 4.24264
      vertex -15.2301 16.6936 -4.5704
    endloop
  endfacet
  facet normal -0.5 -0.5 -0.707107
    outer loop
      vertex 6.61181 -16.344 3.34619
      vertex -27.3376 39.8376 -12.3744
      vertex 8.22792 -17.2279 2.82843
    endloop
  endfacet
  facet normal -0.5 -0.5 -0.707107
    outer loop
      vertex 8.74569 -20.2457 4.59619
      vertex 24.1305 -41.6305 8.83883
      vertex 7.34404 -20.6118 5.84619
    endloop
  endfacet
  facet normal -0.5 -0.5 -0.707107
    outer loop
      vertex 13.9872 -21.2008 1.5652
      vertex 22.1807 -33.6807 4.59619
      vertex 12.7404 -19.9539 1.5652
    endloop
  endfacet
  facet normal -0.5 -0.5 -0.707107
    outer loop
      vertex 9.11181 -18.844 3.34619
      vertex 24.1305 -41.6305 8.83883
      vertex 8.74569 -20.2457 4.59619
    endloop
  endfacet
  facet normal -0.5 -0.5 -0.707107
    outer loop
      vertex 8.22792 -17.2279 2.82843
      vertex 24.1305 -41.6305 8.83883
      vertex 9.11181 -18.844 3.34619
    endloop
  endfacet
  facet normal -0.5 -0.5 -0.707107
    outer loop
      vertex -27.3376 39.8376 -12.3744
      vertex 24.1305 -41.6305 8.83883
      vertex 8.22792 -17.2279 2.82843
    endloop
  endfacet
  facet normal -0.5 -0.5 -0.707107
    outer loop
      vertex 5.21016 -16.7102 4.59619
      vertex -27.3376 39.8376 -12.3744
      vertex 6.61181 -16.344 3.34619
    endloop
  endfacet
  facet normal -0.5 -0.5 -0.707107
    outer loop
      vertex 26.0824 -35.8146 3.34619
      vertex 39.8376 -27.3376 -12.3744
      vertex 25.7163 -37.2163 4.59619
    endloop
  endfacet
  facet normal -0.5 -0.5 -0.707107
    outer loop
      vertex -11.2457 17.7457 -8.13173
      vertex -27.3376 39.8376 -12.3744
      vertex -9.84404 18.1118 -9.38173
    endloop
  endfacet
  facet normal -0.5 -0.5 -0.707107
    outer loop
      vertex 22.6985 -36.6985 6.36396
      vertex 24.1305 -41.6305 8.83883
      vertex 21.8146 -35.0824 5.84619
    endloop
  endfacet
  facet normal -0.5 -0.5 -0.707107
    outer loop
      vertex -10.7279 14.7279 -6.36396
      vertex 21.8146 -35.0824 5.84619
      vertex -27.3376 39.8376 -12.3744
    endloop
  endfacet
  facet normal -0.5 -0.5 -0.707107
    outer loop
      vertex 24.3146 -37.5824 5.84619
      vertex 24.1305 -41.6305 8.83883
      vertex 22.6985 -36.6985 6.36396
    endloop
  endfacet
  facet normal -0.5 -0.5 -0.707107
    outer loop
      vertex 25.7163 -37.2163 4.59619
      vertex 24.1305 -41.6305 8.83883
      vertex 24.3146 -37.5824 5.84619
    endloop
  endfacet
  facet normal -0.5 -0.5 -0.707107
    outer loop
      vertex 39.8376 -27.3376 -12.3744
      vertex 24.1305 -41.6305 8.83883
      vertex 25.7163 -37.2163 4.59619
    endloop
  endfacet
  facet normal -0.5 -0.5 -0.707107
    outer loop
      vertex 25.1985 -34.1985 2.82843
      vertex 39.8376 -27.3376 -12.3744
      vertex 26.0824 -35.8146 3.34619
    endloop
  endfacet
  facet normal -0.5 -0.5 -0.707107
    outer loop
      vertex 23.5824 -33.3146 3.34619
      vertex 39.8376 -27.3376 -12.3744
      vertex 25.1985 -34.1985 2.82843
    endloop
  endfacet
  facet normal -0.5 -0.5 -0.707107
    outer loop
      vertex -18.7301 13.1936 0.379345
      vertex -18.844 9.11181 3.34619
      vertex -19.9539 12.7404 1.5652
    endloop
  endfacet
  facet normal -0.5 -0.5 -0.707107
    outer loop
      vertex -18.7301 13.1936 0.379345
      vertex -17.2279 8.22792 2.82843
      vertex -18.844 9.11181 3.34619
    endloop
  endfacet
  facet normal -0.5 -0.5 -0.707107
    outer loop
      vertex 13.1936 -18.7301 0.379345
      vertex -9.11181 13.844 -6.88173
      vertex 14.7206 -19.2206 -0.353553
    endloop
  endfacet
  facet normal -0.5 -0.5 -0.707107
    outer loop
      vertex -19.9539 12.7404 1.5652
      vertex -18.844 9.11181 3.34619
      vertex -21.2008 13.9872 1.5652
    endloop
  endfacet
  facet normal -0.5 -0.5 -0.707107
    outer loop
      vertex -28.5824 33.3146 -6.88173
      vertex -21.2008 13.9872 1.5652
      vertex -33.6807 22.1807 4.59619
    endloop
  endfacet
  facet normal -0.5 -0.5 -0.707107
    outer loop
      vertex -19.2206 14.7206 -0.353553
      vertex -16.344 6.61181 3.34619
      vertex -18.7301 13.1936 0.379345
    endloop
  endfacet
  facet normal -0.5 -0.5 -0.707107
    outer loop
      vertex -24.3146 32.5824 -9.38173
      vertex -16.344 6.61181 3.34619
      vertex -19.2206 14.7206 -0.353553
    endloop
  endfacet
  facet normal -0.5 -0.5 -0.707107
    outer loop
      vertex -9.11181 13.844 -6.88173
      vertex 21.8146 -35.0824 5.84619
      vertex -10.7279 14.7279 -6.36396
    endloop
  endfacet
  facet normal -0.5 -0.5 -0.707107
    outer loop
      vertex -24.3146 32.5824 -9.38173
      vertex -19.2206 14.7206 -0.353553
      vertex -24.6807 31.1807 -8.13173
    endloop
  endfacet
  facet normal -0.5 -0.5 -0.707107
    outer loop
      vertex 22.1807 -33.6807 4.59619
      vertex 21.8146 -35.0824 5.84619
      vertex 12.7404 -19.9539 1.5652
    endloop
  endfacet
  facet normal -0.5 -0.5 -0.707107
    outer loop
      vertex 15.2111 -20.7475 0.379345
      vertex 23.5824 -33.3146 3.34619
      vertex 13.9872 -21.2008 1.5652
    endloop
  endfacet
  facet normal -0.5 -0.5 -0.707107
    outer loop
      vertex 23.5824 -33.3146 3.34619
      vertex 22.1807 -33.6807 4.59619
      vertex 13.9872 -21.2008 1.5652
    endloop
  endfacet
  facet normal -0.5 -0.5 -0.707107
    outer loop
      vertex -17.7008 17.4872 -3.38455
      vertex -27.3376 39.8376 -12.3744
      vertex -17.2475 18.7111 -4.5704
    endloop
  endfacet
  facet normal -0.5 -0.5 -0.707107
    outer loop
      vertex 30.8146 -26.0824 -6.88173
      vertex 23.5824 -33.3146 3.34619
      vertex 15.2111 -20.7475 0.379345
    endloop
  endfacet
  facet normal -0.5 -0.5 -0.707107
    outer loop
      vertex 31.1807 -24.6807 -8.13173
      vertex 15.2111 -20.7475 0.379345
      vertex 14.7206 -19.2206 -0.353553
    endloop
  endfacet
  facet normal -0.5 -0.5 -0.707107
    outer loop
      vertex -16.4539 16.2404 -3.38455
      vertex -2.67157 -8.32843 4.24264
      vertex -17.7008 17.4872 -3.38455
    endloop
  endfacet
  facet normal -0.5 -0.5 -0.707107
    outer loop
      vertex -24.3146 32.5824 -9.38173
      vertex -17.7008 17.4872 -3.38455
      vertex -16.344 6.61181 3.34619
    endloop
  endfacet
  facet normal -0.5 -0.5 -0.707107
    outer loop
      vertex 16.6936 -15.2301 -4.5704
      vertex 0.171573 5.82843 -7.77817
      vertex 18.2206 -15.7206 -5.3033
    endloop
  endfacet
  facet normal -0.5 -0.5 -0.707107
    outer loop
      vertex -15.2301 16.6936 -4.5704
      vertex -2.67157 -8.32843 4.24264
      vertex -16.4539 16.2404 -3.38455
    endloop
  endfacet
  facet normal -0.5 -0.5 -0.707107
    outer loop
      vertex -17.2475 18.7111 -4.5704
      vertex -27.3376 39.8376 -12.3744
      vertex -15.7206 18.2206 -5.3033
    endloop
  endfacet
  facet normal -0.5 -0.5 -0.707107
    outer loop
      vertex 18.7111 -17.2475 -4.5704
      vertex 39.8376 -27.3376 -12.3744
      vertex 17.4872 -17.7008 -3.38455
    endloop
  endfacet
  facet normal -0.5 -0.5 -0.707107
    outer loop
      vertex 17.4872 -17.7008 -3.38455
      vertex 14.7206 -19.2206 -0.353553
      vertex 16.2404 -16.4539 -3.38455
    endloop
  endfacet
  facet normal -0.5 -0.5 -0.707107
    outer loop
      vertex 7.32843 1.67157 -9.89949
      vertex 17.2279 -8.22792 -9.89949
      vertex 15.6118 -7.34404 -9.38173
    endloop
  endfacet
  facet normal -0.5 -0.5 -0.707107
    outer loop
      vertex 0.171573 5.82843 -7.77817
      vertex -7.34404 15.6118 -9.38173
      vertex 1.67157 7.32843 -9.89949
    endloop
  endfacet
  facet normal -0.5 -0.5 -0.707107
    outer loop
      vertex 39.8376 -27.3376 -12.3744
      vertex 18.7111 -17.2475 -4.5704
      vertex 18.2206 -15.7206 -5.3033
    endloop
  endfacet
  facet normal -0.5 -0.5 -0.707107
    outer loop
      vertex -9.84404 18.1118 -9.38173
      vertex -27.3376 39.8376 -12.3744
      vertex -8.22792 17.2279 -9.89949
    endloop
  endfacet
  facet normal -0.5 -0.5 -0.707107
    outer loop
      vertex -27.6985 31.6985 -6.36396
      vertex -21.2008 13.9872 1.5652
      vertex -28.5824 33.3146 -6.88173
    endloop
  endfacet
  facet normal -0.5 -0.5 -0.707107
    outer loop
      vertex -27.3376 39.8376 -12.3744
      vertex -28.5824 33.3146 -6.88173
      vertex -33.6807 22.1807 4.59619
    endloop
  endfacet
  facet normal -0.5 -0.5 -0.707107
    outer loop
      vertex -26.0824 30.8146 -6.88173
      vertex -21.2008 13.9872 1.5652
      vertex -27.6985 31.6985 -6.36396
    endloop
  endfacet
  facet normal -0.5 -0.5 -0.707107
    outer loop
      vertex -9.11181 13.844 -6.88173
      vertex 13.1936 -18.7301 0.379345
      vertex 12.7404 -19.9539 1.5652
    endloop
  endfacet
  facet normal -0.5 -0.5 -0.707107
    outer loop
      vertex -7.71016 14.2102 -8.13173
      vertex 14.7206 -19.2206 -0.353553
      vertex -9.11181 13.844 -6.88173
    endloop
  endfacet
  facet normal -0.5 -0.5 -0.707107
    outer loop
      vertex -9.82843 -4.17157 6.36396
      vertex -16.344 6.61181 3.34619
      vertex -8.32843 -2.67157 4.24264
    endloop
  endfacet
  facet normal -0.5 -0.5 -0.707107
    outer loop
      vertex -27.3376 39.8376 -12.3744
      vertex -17.7008 17.4872 -3.38455
      vertex -24.3146 32.5824 -9.38173
    endloop
  endfacet
  facet normal -0.5 -0.5 -0.707107
    outer loop
      vertex -26.8146 35.0824 -9.38173
      vertex -27.3376 39.8376 -12.3744
      vertex -25.1985 34.1985 -9.89949
    endloop
  endfacet
  facet normal -0.5 -0.5 -0.707107
    outer loop
      vertex -27.3376 39.8376 -12.3744
      vertex -24.3146 32.5824 -9.38173
      vertex -25.1985 34.1985 -9.89949
    endloop
  endfacet
  facet normal -0.5 -0.5 -0.707107
    outer loop
      vertex -28.2163 34.7163 -8.13173
      vertex -27.3376 39.8376 -12.3744
      vertex -26.8146 35.0824 -9.38173
    endloop
  endfacet
  facet normal -0.5 -0.5 -0.707107
    outer loop
      vertex 0.171573 5.82843 -7.77817
      vertex 16.6936 -15.2301 -4.5704
      vertex 16.2404 -16.4539 -3.38455
    endloop
  endfacet
  facet normal -0.5 -0.5 -0.707107
    outer loop
      vertex -11.6118 16.344 -6.88173
      vertex -27.3376 39.8376 -12.3744
      vertex -11.2457 17.7457 -8.13173
    endloop
  endfacet
  facet normal -0.5 -0.5 -0.707107
    outer loop
      vertex -27.3376 39.8376 -12.3744
      vertex -28.2163 34.7163 -8.13173
      vertex -28.5824 33.3146 -6.88173
    endloop
  endfacet
  facet normal -0.5 -0.5 -0.707107
    outer loop
      vertex -9.11181 13.844 -6.88173
      vertex 12.7404 -19.9539 1.5652
      vertex 21.8146 -35.0824 5.84619
    endloop
  endfacet
  facet normal -0.5 -0.5 -0.707107
    outer loop
      vertex -7.34404 15.6118 -9.38173
      vertex 0.171573 5.82843 -7.77817
      vertex 16.2404 -16.4539 -3.38455
    endloop
  endfacet
  facet normal -0.5 -0.5 -0.707107
    outer loop
      vertex -11.6118 16.344 -6.88173
      vertex -10.7279 14.7279 -6.36396
      vertex -27.3376 39.8376 -12.3744
    endloop
  endfacet
  facet normal -0.5 -0.5 -0.707107
    outer loop
      vertex -7.34404 15.6118 -9.38173
      vertex 16.2404 -16.4539 -3.38455
      vertex -7.71016 14.2102 -8.13173
    endloop
  endfacet
  facet normal -0.5 -0.5 -0.707107
    outer loop
      vertex 16.2404 -16.4539 -3.38455
      vertex 14.7206 -19.2206 -0.353553
      vertex -7.71016 14.2102 -8.13173
    endloop
  endfacet
  facet normal -0.5 -0.5 -0.707107
    outer loop
      vertex 5.82843 0.171573 -7.77817
      vertex 14.7279 -10.7279 -6.36396
      vertex 18.2206 -15.7206 -5.3033
    endloop
  endfacet
  facet normal -0.5 -0.5 -0.707107
    outer loop
      vertex 7.32843 1.67157 -9.89949
      vertex 14.2102 -7.71016 -8.13173
      vertex 13.844 -9.11181 -6.88173
    endloop
  endfacet
  facet normal -0.5 -0.5 -0.707107
    outer loop
      vertex 39.8376 -27.3376 -12.3744
      vertex -7.34404 15.6118 -9.38173
      vertex -8.22792 17.2279 -9.89949
    endloop
  endfacet
  facet normal -0.5 -0.5 -0.707107
    outer loop
      vertex 39.8376 -27.3376 -12.3744
      vertex -8.22792 17.2279 -9.89949
      vertex -27.3376 39.8376 -12.3744
    endloop
  endfacet
  facet normal -0.5 -0.5 -0.707107
    outer loop
      vertex -24.6807 31.1807 -8.13173
      vertex -20.7475 15.2111 0.379345
      vertex -21.2008 13.9872 1.5652
    endloop
  endfacet
  facet normal -0.5 -0.5 -0.707107
    outer loop
      vertex -24.6807 31.1807 -8.13173
      vertex -21.2008 13.9872 1.5652
      vertex -26.0824 30.8146 -6.88173
    endloop
  endfacet
  facet normal -0.5 -0.5 -0.707107
    outer loop
      vertex 7.32843 1.67157 -9.89949
      vertex 15.6118 -7.34404 -9.38173
      vertex 14.2102 -7.71016 -8.13173
    endloop
  endfacet
  facet normal -0.5 -0.5 -0.707107
    outer loop
      vertex 16.344 -11.6118 -6.88173
      vertex 18.2206 -15.7206 -5.3033
      vertex 14.7279 -10.7279 -6.36396
    endloop
  endfacet
  facet normal -0.5 -0.5 -0.707107
    outer loop
      vertex 17.7457 -11.2457 -8.13173
      vertex 39.8376 -27.3376 -12.3744
      vertex 16.344 -11.6118 -6.88173
    endloop
  endfacet
  facet normal -0.5 -0.5 -0.707107
    outer loop
      vertex 7.32843 1.67157 -9.89949
      vertex 13.844 -9.11181 -6.88173
      vertex 5.82843 0.171573 -7.77817
    endloop
  endfacet
  facet normal -0.5 -0.5 -0.707107
    outer loop
      vertex 39.8376 -27.3376 -12.3744
      vertex 18.2206 -15.7206 -5.3033
      vertex 16.344 -11.6118 -6.88173
    endloop
  endfacet
  facet normal -0.5 -0.5 -0.707107
    outer loop
      vertex 39.8376 -27.3376 -12.3744
      vertex 17.7457 -11.2457 -8.13173
      vertex 18.1118 -9.84404 -9.38173
    endloop
  endfacet
  facet normal -0.5 -0.5 -0.707107
    outer loop
      vertex 39.8376 -27.3376 -12.3744
      vertex 18.1118 -9.84404 -9.38173
      vertex 17.2279 -8.22792 -9.89949
    endloop
  endfacet
  facet normal -0.5 -0.5 -0.707107
    outer loop
      vertex 30.8146 -26.0824 -6.88173
      vertex 15.2111 -20.7475 0.379345
      vertex 31.1807 -24.6807 -8.13173
    endloop
  endfacet
  facet normal -0.5 -0.5 -0.707107
    outer loop
      vertex 31.6985 -27.6985 -6.36396
      vertex 23.5824 -33.3146 3.34619
      vertex 30.8146 -26.0824 -6.88173
    endloop
  endfacet
  facet normal -0.5 -0.5 -0.707107
    outer loop
      vertex 35.0824 -26.8146 -9.38173
      vertex 39.8376 -27.3376 -12.3744
      vertex 34.7163 -28.2163 -8.13173
    endloop
  endfacet
  facet normal -0.5 -0.5 -0.707107
    outer loop
      vertex 33.3146 -28.5824 -6.88173
      vertex 23.5824 -33.3146 3.34619
      vertex 31.6985 -27.6985 -6.36396
    endloop
  endfacet
  facet normal -0.5 -0.5 -0.707107
    outer loop
      vertex 39.8376 -27.3376 -12.3744
      vertex 23.5824 -33.3146 3.34619
      vertex 33.3146 -28.5824 -6.88173
    endloop
  endfacet
  facet normal -0.5 -0.5 -0.707107
    outer loop
      vertex 39.8376 -27.3376 -12.3744
      vertex 33.3146 -28.5824 -6.88173
      vertex 34.7163 -28.2163 -8.13173
    endloop
  endfacet
  facet normal -0.5 -0.5 -0.707107
    outer loop
      vertex 34.1985 -25.1985 -9.89949
      vertex 39.8376 -27.3376 -12.3744
      vertex 35.0824 -26.8146 -9.38173
    endloop
  endfacet
  facet normal -0.5 -0.5 -0.707107
    outer loop
      vertex 31.1807 -24.6807 -8.13173
      vertex 14.7206 -19.2206 -0.353553
      vertex 17.4872 -17.7008 -3.38455
    endloop
  endfacet
  facet normal -0.5 -0.5 -0.707107
    outer loop
      vertex 39.8376 -27.3376 -12.3744
      vertex 34.1985 -25.1985 -9.89949
      vertex 32.5824 -24.3146 -9.38173
    endloop
  endfacet
  facet normal -0.5 -0.5 -0.707107
    outer loop
      vertex 39.8376 -27.3376 -12.3744
      vertex 32.5824 -24.3146 -9.38173
      vertex 17.4872 -17.7008 -3.38455
    endloop
  endfacet
  facet normal -0.5 -0.5 -0.707107
    outer loop
      vertex 31.1807 -24.6807 -8.13173
      vertex 17.4872 -17.7008 -3.38455
      vertex 32.5824 -24.3146 -9.38173
    endloop
  endfacet
  facet normal -0.5 -0.5 -0.707107
    outer loop
      vertex 13.844 -9.11181 -6.88173
      vertex 14.7279 -10.7279 -6.36396
      vertex 5.82843 0.171573 -7.77817
    endloop
  endfacet
  facet normal -0.5 -0.5 -0.707107
    outer loop
      vertex 39.8376 -27.3376 -12.3744
      vertex 17.2279 -8.22792 -9.89949
      vertex 7.32843 1.67157 -9.89949
    endloop
  endfacet
  facet normal -0.5 -0.5 -0.707107
    outer loop
      vertex 39.8376 -27.3376 -12.3744
      vertex 7.32843 1.67157 -9.89949
      vertex 1.67157 7.32843 -9.89949
    endloop
  endfacet
  facet normal -0.5 -0.5 -0.707107
    outer loop
      vertex 39.8376 -27.3376 -12.3744
      vertex 1.67157 7.32843 -9.89949
      vertex -7.34404 15.6118 -9.38173
    endloop
  endfacet
  facet normal -0.5 -0.5 -0.707107
    outer loop
      vertex 36.2029 -33.2029 -5.65685
      vertex 22.7029 -46.7029 13.435
      vertex 35.0876 -32.0876 -5.65685
    endloop
  endfacet
  facet normal -0.5 -0.5 -0.707107
    outer loop
      vertex 5.72792 -19.7279 6.36396
      vertex 24.1305 -41.6305 8.83883
      vertex -4.17157 -9.82843 6.36396
    endloop
  endfacet
  facet normal -0.5 -0.5 -0.707107
    outer loop
      vertex 5.82843 0.171573 -7.77817
      vertex 18.2206 -15.7206 -5.3033
      vertex 0.171573 5.82843 -7.77817
    endloop
  endfacet
  facet normal -0.707107 0.707107 -5.55112e-17
    outer loop
      vertex 20.8805 -44.8805 13.435
      vertex 31.6484 -34.1125 28.6632
      vertex 24.1305 -41.6305 8.83883
    endloop
  endfacet
  facet normal -0.707107 0.707107 -5.55112e-17
    outer loop
      vertex 24.1305 -41.6305 8.83883
      vertex 31.6484 -34.1125 28.6632
      vertex 34.8984 -30.8625 24.067
    endloop
  endfacet
  facet normal -0.362372 0.862372 0.353553
    outer loop
      vertex 31.6484 -34.1125 28.6632
      vertex 33.8864 -33.8864 30.4056
      vertex 34.8984 -30.8625 24.067
    endloop
  endfacet
  facet normal -0.362372 0.862372 0.353553
    outer loop
      vertex 34.8984 -30.8625 24.067
      vertex 33.8864 -33.8864 30.4056
      vertex 47.3864 -20.3864 11.3137
    endloop
  endfacet
  facet normal -0.362372 0.862372 0.353553
    outer loop
      vertex 35.3984 -30.3625 23.3599
      vertex 47.3864 -20.3864 11.3137
      vertex 45.1484 -20.6125 9.57133
    endloop
  endfacet
  facet normal -0.362372 0.862372 0.353553
    outer loop
      vertex 34.8984 -30.8625 24.067
      vertex 47.3864 -20.3864 11.3137
      vertex 35.3984 -30.3625 23.3599
    endloop
  endfacet
  facet normal -0.362372 0.862372 0.353553
    outer loop
      vertex 35.3984 -30.3625 23.3599
      vertex 20.3797 -31.8797 11.6673
      vertex 34.8984 -30.8625 24.067
    endloop
  endfacet
  facet normal -0.362372 0.862372 0.353553
    outer loop
      vertex 34.8984 -30.8625 24.067
      vertex 20.3797 -31.8797 11.6673
      vertex 19.8797 -32.3797 12.3744
    endloop
  endfacet
  facet normal 0.5 0.5 0.707107
    outer loop
      vertex 37.4756 -35.1891 28.7888
      vertex 33.8864 -33.8864 30.4056
      vertex 40.6586 -40.6586 30.4056
    endloop
  endfacet
  facet normal 0.5 0.5 0.707107
    outer loop
      vertex 38.6994 -34.7359 27.603
      vertex 37.4756 -35.1891 28.7888
      vertex 40.6586 -40.6586 30.4056
    endloop
  endfacet
  facet normal 0.5 0.5 0.707107
    outer loop
      vertex 36.2287 -33.9422 28.7888
      vertex 33.8864 -33.8864 30.4056
      vertex 37.4756 -35.1891 28.7888
    endloop
  endfacet
  facet normal 0.5 0.5 0.707107
    outer loop
      vertex 36.6819 -32.7184 27.603
      vertex 33.8864 -33.8864 30.4056
      vertex 36.2287 -33.9422 28.7888
    endloop
  endfacet
  facet normal 0.5 0.5 0.707107
    outer loop
      vertex 38.2089 -33.2089 26.8701
      vertex 38.6994 -34.7359 27.603
      vertex 47.3864 -20.3864 11.3137
    endloop
  endfacet
  facet normal 0.5 0.5 0.707107
    outer loop
      vertex 47.3864 -20.3864 11.3137
      vertex 33.8864 -33.8864 30.4056
      vertex 36.6819 -32.7184 27.603
    endloop
  endfacet
  facet normal 0.5 0.5 0.707107
    outer loop
      vertex 46.9756 -25.6891 15.3538
      vertex 45.7287 -24.4422 15.3538
      vertex 40.6586 -40.6586 30.4056
    endloop
  endfacet
  facet normal 0.5 0.5 0.707107
    outer loop
      vertex 45.7287 -24.4422 15.3538
      vertex 38.6994 -34.7359 27.603
      vertex 40.6586 -40.6586 30.4056
    endloop
  endfacet
  facet normal 0.5 0.5 0.707107
    outer loop
      vertex 54.1586 -27.1586 11.3137
      vertex 46.9756 -25.6891 15.3538
      vertex 40.6586 -40.6586 30.4056
    endloop
  endfacet
  facet normal 0.5 0.5 0.707107
    outer loop
      vertex 46.1819 -23.2184 14.1679
      vertex 38.6994 -34.7359 27.603
      vertex 45.7287 -24.4422 15.3538
    endloop
  endfacet
  facet normal 0.5 0.5 0.707107
    outer loop
      vertex 47.3864 -20.3864 11.3137
      vertex 38.6994 -34.7359 27.603
      vertex 46.1819 -23.2184 14.1679
    endloop
  endfacet
  facet normal 0.5 0.5 0.707107
    outer loop
      vertex 54.1586 -27.1586 11.3137
      vertex 47.3864 -20.3864 11.3137
      vertex 47.7089 -23.7089 13.435
    endloop
  endfacet
  facet normal 0.5 0.5 0.707107
    outer loop
      vertex 54.1586 -27.1586 11.3137
      vertex 48.1994 -25.2359 14.1679
      vertex 46.9756 -25.6891 15.3538
    endloop
  endfacet
  facet normal 0.5 0.5 0.707107
    outer loop
      vertex 54.1586 -27.1586 11.3137
      vertex 47.7089 -23.7089 13.435
      vertex 48.1994 -25.2359 14.1679
    endloop
  endfacet
  facet normal 0.5 0.5 0.707107
    outer loop
      vertex 36.6819 -32.7184 27.603
      vertex 38.2089 -33.2089 26.8701
      vertex 47.3864 -20.3864 11.3137
    endloop
  endfacet
  facet normal 0.5 0.5 0.707107
    outer loop
      vertex 46.1819 -23.2184 14.1679
      vertex 47.7089 -23.7089 13.435
      vertex 47.3864 -20.3864 11.3137
    endloop
  endfacet
  facet normal 0.707107 -0.707107 5.55112e-17
    outer loop
      vertex 40.6586 -40.6586 30.4056
      vertex 35.9529 -45.3644 23.7506
      vertex 49.4529 -31.8644 4.65874
    endloop
  endfacet
  facet normal 0.707107 -0.707107 5.55112e-17
    outer loop
      vertex 54.1586 -27.1586 11.3137
      vertex 40.6586 -40.6586 30.4056
      vertex 49.4529 -31.8644 4.65874
    endloop
  endfacet
  facet normal 0.362372 -0.862372 -0.353553
    outer loop
      vertex 35.9529 -45.3644 23.7506
      vertex 22.7029 -46.7029 13.435
      vertex 36.2029 -33.2029 -5.65685
    endloop
  endfacet
  facet normal 0.362372 -0.862372 -0.353553
    outer loop
      vertex 49.4529 -31.8644 4.65874
      vertex 35.9529 -45.3644 23.7506
      vertex 36.2029 -33.2029 -5.65685
    endloop
  endfacet
  facet normal 0.5 0.5 -0.707107
    outer loop
      vertex 35.0876 -32.0876 -5.65685
      vertex 37.5876 -29.5876 -2.12132
      vertex 36.2029 -33.2029 -5.65685
    endloop
  endfacet
  facet normal 0.5 0.5 -0.707107
    outer loop
      vertex 45.1484 -20.6125 9.57133
      vertex 37.5876 -29.5876 -2.12132
      vertex 36.8805 -28.8805 -2.12132
    endloop
  endfacet
  facet normal 0.5 0.5 -0.707107
    outer loop
      vertex 36.2029 -33.2029 -5.65685
      vertex 37.5876 -29.5876 -2.12132
      vertex 45.1484 -20.6125 9.57133
    endloop
  endfacet
  facet normal 0.5 0.5 -0.707107
    outer loop
      vertex 36.2029 -33.2029 -5.65685
      vertex 45.1484 -20.6125 9.57133
      vertex 47.3864 -20.3864 11.3137
    endloop
  endfacet
  facet normal 0.5 0.5 -0.707107
    outer loop
      vertex 36.2029 -33.2029 -5.65685
      vertex 47.3864 -20.3864 11.3137
      vertex 54.1586 -27.1586 11.3137
    endloop
  endfacet
  facet normal 0.5 0.5 -0.707107
    outer loop
      vertex 36.2029 -33.2029 -5.65685
      vertex 54.1586 -27.1586 11.3137
      vertex 49.4529 -31.8644 4.65874
    endloop
  endfacet
  facet normal 0.707107 -0.707107 5.55112e-17
    outer loop
      vertex 37.5876 -29.5876 -2.12132
      vertex 35.0876 -32.0876 -5.65685
      vertex 39.8376 -27.3376 -12.3744
    endloop
  endfacet
  facet normal 0.707107 -0.707107 5.55112e-17
    outer loop
      vertex 42.3376 -24.8376 -8.83883
      vertex 37.5876 -29.5876 -2.12132
      vertex 39.8376 -27.3376 -12.3744
    endloop
  endfacet
  facet normal 0.5 0.5 -0.707107
    outer loop
      vertex -27.3376 39.8376 -12.3744
      vertex -24.8376 42.3376 -8.83883
      vertex 39.8376 -27.3376 -12.3744
    endloop
  endfacet
  facet normal 0.5 0.5 -0.707107
    outer loop
      vertex 39.8376 -27.3376 -12.3744
      vertex -24.8376 42.3376 -8.83883
      vertex 42.3376 -24.8376 -8.83883
    endloop
  endfacet
  facet normal -0.707107 0.707107 -5.55112e-17
    outer loop
      vertex -42.3376 24.8376 8.83883
      vertex -39.8376 27.3376 12.3744
      vertex -27.3376 39.8376 -12.3744
    endloop
  endfacet
  facet normal -0.707107 0.707107 -5.55112e-17
    outer loop
      vertex -27.3376 39.8376 -12.3744
      vertex -39.8376 27.3376 12.3744
      vertex -24.8376 42.3376 -8.83883
    endloop
  endfacet
  facet normal -0.5 -0.5 0.707107
    outer loop
      vertex -39.8376 27.3376 12.3744
      vertex -42.3376 24.8376 8.83883
      vertex 24.1305 -41.6305 8.83883
    endloop
  endfacet
  facet normal -0.5 -0.5 0.707107
    outer loop
      vertex 19.8797 -32.3797 12.3744
      vertex -39.8376 27.3376 12.3744
      vertex 24.1305 -41.6305 8.83883
    endloop
  endfacet
  facet normal -0.5 -0.5 0.707107
    outer loop
      vertex 34.8984 -30.8625 24.067
      vertex 19.8797 -32.3797 12.3744
      vertex 24.1305 -41.6305 8.83883
    endloop
  endfacet
  facet normal 0.732538 0.191342 -0.653281
    outer loop
      vertex -37.5824 24.3146 5.84619
      vertex -35.0824 26.8146 9.38173
      vertex -34.1985 25.1985 9.89949
    endloop
  endfacet
  facet normal 0.732538 0.191342 -0.653281
    outer loop
      vertex -36.6985 22.6985 6.36396
      vertex -37.5824 24.3146 5.84619
      vertex -34.1985 25.1985 9.89949
    endloop
  endfacet
  facet normal 0.844623 -0.46194 -0.270598
    outer loop
      vertex -37.2163 25.7163 4.59619
      vertex -34.7163 28.2163 8.13173
      vertex -35.0824 26.8146 9.38173
    endloop
  endfacet
  facet normal 0.844623 -0.46194 -0.270598
    outer loop
      vertex -37.5824 24.3146 5.84619
      vertex -37.2163 25.7163 4.59619
      vertex -35.0824 26.8146 9.38173
    endloop
  endfacet
  facet normal 0.46194 -0.844623 0.270598
    outer loop
      vertex -35.8146 26.0824 3.34619
      vertex -33.3146 28.5824 6.88173
      vertex -34.7163 28.2163 8.13173
    endloop
  endfacet
  facet normal 0.46194 -0.844623 0.270598
    outer loop
      vertex -37.2163 25.7163 4.59619
      vertex -35.8146 26.0824 3.34619
      vertex -34.7163 28.2163 8.13173
    endloop
  endfacet
  facet normal -0.191342 -0.732538 0.653281
    outer loop
      vertex -34.1985 25.1985 2.82843
      vertex -31.6985 27.6985 6.36396
      vertex -33.3146 28.5824 6.88173
    endloop
  endfacet
  facet normal -0.191342 -0.732538 0.653281
    outer loop
      vertex -35.8146 26.0824 3.34619
      vertex -34.1985 25.1985 2.82843
      vertex -33.3146 28.5824 6.88173
    endloop
  endfacet
  facet normal -0.732538 -0.191342 0.653281
    outer loop
      vertex -31.6985 27.6985 6.36396
      vertex -34.1985 25.1985 2.82843
      vertex -30.8146 26.0824 6.88173
    endloop
  endfacet
  facet normal -0.732538 -0.191342 0.653281
    outer loop
      vertex -30.8146 26.0824 6.88173
      vertex -34.1985 25.1985 2.82843
      vertex -33.3146 23.5824 3.34619
    endloop
  endfacet
  facet normal -0.844623 0.46194 0.270598
    outer loop
      vertex -30.8146 26.0824 6.88173
      vertex -33.3146 23.5824 3.34619
      vertex -31.1807 24.6807 8.13173
    endloop
  endfacet
  facet normal -0.844623 0.46194 0.270598
    outer loop
      vertex -31.1807 24.6807 8.13173
      vertex -33.3146 23.5824 3.34619
      vertex -33.6807 22.1807 4.59619
    endloop
  endfacet
  facet normal -0.46194 0.844623 -0.270598
    outer loop
      vertex -31.1807 24.6807 8.13173
      vertex -33.6807 22.1807 4.59619
      vertex -32.5824 24.3146 9.38173
    endloop
  endfacet
  facet normal -0.46194 0.844623 -0.270598
    outer loop
      vertex -32.5824 24.3146 9.38173
      vertex -33.6807 22.1807 4.59619
      vertex -35.0824 21.8146 5.84619
    endloop
  endfacet
  facet normal 0.191342 0.732538 -0.653281
    outer loop
      vertex -32.5824 24.3146 9.38173
      vertex -35.0824 21.8146 5.84619
      vertex -34.1985 25.1985 9.89949
    endloop
  endfacet
  facet normal 0.191342 0.732538 -0.653281
    outer loop
      vertex -34.1985 25.1985 9.89949
      vertex -35.0824 21.8146 5.84619
      vertex -36.6985 22.6985 6.36396
    endloop
  endfacet
  facet normal 0.732538 0.191342 -0.653281
    outer loop
      vertex -20.6118 7.34404 5.84619
      vertex -18.1118 9.84404 9.38173
      vertex -17.2279 8.22792 9.89949
    endloop
  endfacet
  facet normal 0.732538 0.191342 -0.653281
    outer loop
      vertex -19.7279 5.72792 6.36396
      vertex -20.6118 7.34404 5.84619
      vertex -17.2279 8.22792 9.89949
    endloop
  endfacet
  facet normal 0.844623 -0.46194 -0.270598
    outer loop
      vertex -20.2457 8.74569 4.59619
      vertex -17.7457 11.2457 8.13173
      vertex -18.1118 9.84404 9.38173
    endloop
  endfacet
  facet normal 0.844623 -0.46194 -0.270598
    outer loop
      vertex -20.6118 7.34404 5.84619
      vertex -20.2457 8.74569 4.59619
      vertex -18.1118 9.84404 9.38173
    endloop
  endfacet
  facet normal 0.46194 -0.844623 0.270598
    outer loop
      vertex -18.844 9.11181 3.34619
      vertex -16.344 11.6118 6.88173
      vertex -17.7457 11.2457 8.13173
    endloop
  endfacet
  facet normal 0.46194 -0.844623 0.270598
    outer loop
      vertex -20.2457 8.74569 4.59619
      vertex -18.844 9.11181 3.34619
      vertex -17.7457 11.2457 8.13173
    endloop
  endfacet
  facet normal -0.191342 -0.732538 0.653281
    outer loop
      vertex -17.2279 8.22792 2.82843
      vertex -14.7279 10.7279 6.36396
      vertex -16.344 11.6118 6.88173
    endloop
  endfacet
  facet normal -0.191342 -0.732538 0.653281
    outer loop
      vertex -18.844 9.11181 3.34619
      vertex -17.2279 8.22792 2.82843
      vertex -16.344 11.6118 6.88173
    endloop
  endfacet
  facet normal -0.732538 -0.191342 0.653281
    outer loop
      vertex -14.7279 10.7279 6.36396
      vertex -17.2279 8.22792 2.82843
      vertex -13.844 9.11181 6.88173
    endloop
  endfacet
  facet normal -0.732538 -0.191342 0.653281
    outer loop
      vertex -13.844 9.11181 6.88173
      vertex -17.2279 8.22792 2.82843
      vertex -16.344 6.61181 3.34619
    endloop
  endfacet
  facet normal -0.844623 0.46194 0.270598
    outer loop
      vertex -13.844 9.11181 6.88173
      vertex -16.344 6.61181 3.34619
      vertex -14.2102 7.71016 8.13173
    endloop
  endfacet
  facet normal -0.844623 0.46194 0.270598
    outer loop
      vertex -14.2102 7.71016 8.13173
      vertex -16.344 6.61181 3.34619
      vertex -16.7102 5.21016 4.59619
    endloop
  endfacet
  facet normal -0.46194 0.844623 -0.270598
    outer loop
      vertex -14.2102 7.71016 8.13173
      vertex -16.7102 5.21016 4.59619
      vertex -15.6118 7.34404 9.38173
    endloop
  endfacet
  facet normal -0.46194 0.844623 -0.270598
    outer loop
      vertex -15.6118 7.34404 9.38173
      vertex -16.7102 5.21016 4.59619
      vertex -18.1118 4.84404 5.84619
    endloop
  endfacet
  facet normal 0.191342 0.732538 -0.653281
    outer loop
      vertex -15.6118 7.34404 9.38173
      vertex -18.1118 4.84404 5.84619
      vertex -17.2279 8.22792 9.89949
    endloop
  endfacet
  facet normal 0.191342 0.732538 -0.653281
    outer loop
      vertex -17.2279 8.22792 9.89949
      vertex -18.1118 4.84404 5.84619
      vertex -19.7279 5.72792 6.36396
    endloop
  endfacet
  facet normal 0.5 0.5 -0.707107
    outer loop
      vertex -1.67157 -7.32843 9.89949
      vertex -4.17157 -9.82843 6.36396
      vertex -7.32843 -1.67157 9.89949
    endloop
  endfacet
  facet normal 0.5 0.5 -0.707107
    outer loop
      vertex -7.32843 -1.67157 9.89949
      vertex -4.17157 -9.82843 6.36396
      vertex -9.82843 -4.17157 6.36396
    endloop
  endfacet
  facet normal 0.707107 -0.707107 5.55112e-17
    outer loop
      vertex -8.32843 -2.67157 4.24264
      vertex -5.82843 -0.171573 7.77817
      vertex -7.32843 -1.67157 9.89949
    endloop
  endfacet
  facet normal 0.707107 -0.707107 5.55112e-17
    outer loop
      vertex -9.82843 -4.17157 6.36396
      vertex -8.32843 -2.67157 4.24264
      vertex -7.32843 -1.67157 9.89949
    endloop
  endfacet
  facet normal -0.5 -0.5 0.707107
    outer loop
      vertex -2.67157 -8.32843 4.24264
      vertex -0.171573 -5.82843 7.77817
      vertex -5.82843 -0.171573 7.77817
    endloop
  endfacet
  facet normal -0.5 -0.5 0.707107
    outer loop
      vertex -8.32843 -2.67157 4.24264
      vertex -2.67157 -8.32843 4.24264
      vertex -5.82843 -0.171573 7.77817
    endloop
  endfacet
  facet normal -0.707107 0.707107 -5.55112e-17
    outer loop
      vertex -0.171573 -5.82843 7.77817
      vertex -2.67157 -8.32843 4.24264
      vertex -1.67157 -7.32843 9.89949
    endloop
  endfacet
  facet normal -0.707107 0.707107 -5.55112e-17
    outer loop
      vertex -1.67157 -7.32843 9.89949
      vertex -2.67157 -8.32843 4.24264
      vertex -4.17157 -9.82843 6.36396
    endloop
  endfacet
  facet normal 0.732538 0.191342 -0.653281
    outer loop
      vertex 4.84404 -18.1118 5.84619
      vertex 7.34404 -15.6118 9.38173
      vertex 8.22792 -17.2279 9.89949
    endloop
  endfacet
  facet normal 0.732538 0.191342 -0.653281
    outer loop
      vertex 5.72792 -19.7279 6.36396
      vertex 4.84404 -18.1118 5.84619
      vertex 8.22792 -17.2279 9.89949
    endloop
  endfacet
  facet normal 0.844623 -0.46194 -0.270598
    outer loop
      vertex 5.21016 -16.7102 4.59619
      vertex 7.71016 -14.2102 8.13173
      vertex 7.34404 -15.6118 9.38173
    endloop
  endfacet
  facet normal 0.844623 -0.46194 -0.270598
    outer loop
      vertex 4.84404 -18.1118 5.84619
      vertex 5.21016 -16.7102 4.59619
      vertex 7.34404 -15.6118 9.38173
    endloop
  endfacet
  facet normal 0.46194 -0.844623 0.270598
    outer loop
      vertex 6.61181 -16.344 3.34619
      vertex 9.11181 -13.844 6.88173
      vertex 7.71016 -14.2102 8.13173
    endloop
  endfacet
  facet normal 0.46194 -0.844623 0.270598
    outer loop
      vertex 5.21016 -16.7102 4.59619
      vertex 6.61181 -16.344 3.34619
      vertex 7.71016 -14.2102 8.13173
    endloop
  endfacet
  facet normal -0.191342 -0.732538 0.653281
    outer loop
      vertex 8.22792 -17.2279 2.82843
      vertex 10.7279 -14.7279 6.36396
      vertex 9.11181 -13.844 6.88173
    endloop
  endfacet
  facet normal -0.191342 -0.732538 0.653281
    outer loop
      vertex 6.61181 -16.344 3.34619
      vertex 8.22792 -17.2279 2.82843
      vertex 9.11181 -13.844 6.88173
    endloop
  endfacet
  facet normal -0.732538 -0.191342 0.653281
    outer loop
      vertex 10.7279 -14.7279 6.36396
      vertex 8.22792 -17.2279 2.82843
      vertex 11.6118 -16.344 6.88173
    endloop
  endfacet
  facet normal -0.732538 -0.191342 0.653281
    outer loop
      vertex 11.6118 -16.344 6.88173
      vertex 8.22792 -17.2279 2.82843
      vertex 9.11181 -18.844 3.34619
    endloop
  endfacet
  facet normal -0.844623 0.46194 0.270598
    outer loop
      vertex 11.6118 -16.344 6.88173
      vertex 9.11181 -18.844 3.34619
      vertex 11.2457 -17.7457 8.13173
    endloop
  endfacet
  facet normal -0.844623 0.46194 0.270598
    outer loop
      vertex 11.2457 -17.7457 8.13173
      vertex 9.11181 -18.844 3.34619
      vertex 8.74569 -20.2457 4.59619
    endloop
  endfacet
  facet normal -0.46194 0.844623 -0.270598
    outer loop
      vertex 11.2457 -17.7457 8.13173
      vertex 8.74569 -20.2457 4.59619
      vertex 9.84404 -18.1118 9.38173
    endloop
  endfacet
  facet normal -0.46194 0.844623 -0.270598
    outer loop
      vertex 9.84404 -18.1118 9.38173
      vertex 8.74569 -20.2457 4.59619
      vertex 7.34404 -20.6118 5.84619
    endloop
  endfacet
  facet normal 0.191342 0.732538 -0.653281
    outer loop
      vertex 9.84404 -18.1118 9.38173
      vertex 7.34404 -20.6118 5.84619
      vertex 8.22792 -17.2279 9.89949
    endloop
  endfacet
  facet normal 0.191342 0.732538 -0.653281
    outer loop
      vertex 8.22792 -17.2279 9.89949
      vertex 7.34404 -20.6118 5.84619
      vertex 5.72792 -19.7279 6.36396
    endloop
  endfacet
  facet normal 0.732538 0.191342 -0.653281
    outer loop
      vertex 21.8146 -35.0824 5.84619
      vertex 24.3146 -32.5824 9.38173
      vertex 25.1985 -34.1985 9.89949
    endloop
  endfacet
  facet normal 0.732538 0.191342 -0.653281
    outer loop
      vertex 22.6985 -36.6985 6.36396
      vertex 21.8146 -35.0824 5.84619
      vertex 25.1985 -34.1985 9.89949
    endloop
  endfacet
  facet normal 0.844623 -0.46194 -0.270598
    outer loop
      vertex 22.1807 -33.6807 4.59619
      vertex 24.6807 -31.1807 8.13173
      vertex 24.3146 -32.5824 9.38173
    endloop
  endfacet
  facet normal 0.844623 -0.46194 -0.270598
    outer loop
      vertex 21.8146 -35.0824 5.84619
      vertex 22.1807 -33.6807 4.59619
      vertex 24.3146 -32.5824 9.38173
    endloop
  endfacet
  facet normal 0.46194 -0.844623 0.270598
    outer loop
      vertex 23.5824 -33.3146 3.34619
      vertex 26.0824 -30.8146 6.88173
      vertex 24.6807 -31.1807 8.13173
    endloop
  endfacet
  facet normal 0.46194 -0.844623 0.270598
    outer loop
      vertex 22.1807 -33.6807 4.59619
      vertex 23.5824 -33.3146 3.34619
      vertex 24.6807 -31.1807 8.13173
    endloop
  endfacet
  facet normal -0.191342 -0.732538 0.653281
    outer loop
      vertex 25.1985 -34.1985 2.82843
      vertex 27.6985 -31.6985 6.36396
      vertex 26.0824 -30.8146 6.88173
    endloop
  endfacet
  facet normal -0.191342 -0.732538 0.653281
    outer loop
      vertex 23.5824 -33.3146 3.34619
      vertex 25.1985 -34.1985 2.82843
      vertex 26.0824 -30.8146 6.88173
    endloop
  endfacet
  facet normal -0.732538 -0.191342 0.653281
    outer loop
      vertex 27.6985 -31.6985 6.36396
      vertex 25.1985 -34.1985 2.82843
      vertex 28.5824 -33.3146 6.88173
    endloop
  endfacet
  facet normal -0.732538 -0.191342 0.653281
    outer loop
      vertex 28.5824 -33.3146 6.88173
      vertex 25.1985 -34.1985 2.82843
      vertex 26.0824 -35.8146 3.34619
    endloop
  endfacet
  facet normal -0.844623 0.46194 0.270598
    outer loop
      vertex 28.5824 -33.3146 6.88173
      vertex 26.0824 -35.8146 3.34619
      vertex 28.2163 -34.7163 8.13173
    endloop
  endfacet
  facet normal -0.844623 0.46194 0.270598
    outer loop
      vertex 28.2163 -34.7163 8.13173
      vertex 26.0824 -35.8146 3.34619
      vertex 25.7163 -37.2163 4.59619
    endloop
  endfacet
  facet normal -0.46194 0.844623 -0.270598
    outer loop
      vertex 28.2163 -34.7163 8.13173
      vertex 25.7163 -37.2163 4.59619
      vertex 26.8146 -35.0824 9.38173
    endloop
  endfacet
  facet normal -0.46194 0.844623 -0.270598
    outer loop
      vertex 26.8146 -35.0824 9.38173
      vertex 25.7163 -37.2163 4.59619
      vertex 24.3146 -37.5824 5.84619
    endloop
  endfacet
  facet normal 0.191342 0.732538 -0.653281
    outer loop
      vertex 26.8146 -35.0824 9.38173
      vertex 24.3146 -37.5824 5.84619
      vertex 25.1985 -34.1985 9.89949
    endloop
  endfacet
  facet normal 0.191342 0.732538 -0.653281
    outer loop
      vertex 25.1985 -34.1985 9.89949
      vertex 24.3146 -37.5824 5.84619
      vertex 22.6985 -36.6985 6.36396
    endloop
  endfacet
  facet normal 0.5 0.5 -0.707107
    outer loop
      vertex -17.4539 15.2404 5.10073
      vertex -19.9539 12.7404 1.5652
      vertex -18.7008 16.4872 5.10073
    endloop
  endfacet
  facet normal 0.5 0.5 -0.707107
    outer loop
      vertex -18.7008 16.4872 5.10073
      vertex -19.9539 12.7404 1.5652
      vertex -21.2008 13.9872 1.5652
    endloop
  endfacet
  facet normal 0.827007 -0.51799 -0.218508
    outer loop
      vertex -20.7475 15.2111 0.379345
      vertex -18.2475 17.7111 3.91488
      vertex -18.7008 16.4872 5.10073
    endloop
  endfacet
  facet normal 0.827007 -0.51799 -0.218508
    outer loop
      vertex -21.2008 13.9872 1.5652
      vertex -20.7475 15.2111 0.379345
      vertex -18.7008 16.4872 5.10073
    endloop
  endfacet
  facet normal 0.0111186 -0.820135 0.572061
    outer loop
      vertex -19.2206 14.7206 -0.353553
      vertex -16.7206 17.2206 3.18198
      vertex -18.2475 17.7111 3.91488
    endloop
  endfacet
  facet normal 0.0111186 -0.820135 0.572061
    outer loop
      vertex -20.7475 15.2111 0.379345
      vertex -19.2206 14.7206 -0.353553
      vertex -18.2475 17.7111 3.91488
    endloop
  endfacet
  facet normal -0.820135 0.0111186 0.572061
    outer loop
      vertex -16.7206 17.2206 3.18198
      vertex -19.2206 14.7206 -0.353553
      vertex -16.2301 15.6936 3.91488
    endloop
  endfacet
  facet normal -0.820135 0.0111186 0.572061
    outer loop
      vertex -16.2301 15.6936 3.91488
      vertex -19.2206 14.7206 -0.353553
      vertex -18.7301 13.1936 0.379345
    endloop
  endfacet
  facet normal -0.51799 0.827007 -0.218508
    outer loop
      vertex -16.2301 15.6936 3.91488
      vertex -18.7301 13.1936 0.379345
      vertex -17.4539 15.2404 5.10073
    endloop
  endfacet
  facet normal -0.51799 0.827007 -0.218508
    outer loop
      vertex -17.4539 15.2404 5.10073
      vertex -18.7301 13.1936 0.379345
      vertex -19.9539 12.7404 1.5652
    endloop
  endfacet
  facet normal 0.5 0.5 -0.707107
    outer loop
      vertex 16.4872 -18.7008 5.10073
      vertex 13.9872 -21.2008 1.5652
      vertex 15.2404 -17.4539 5.10073
    endloop
  endfacet
  facet normal 0.5 0.5 -0.707107
    outer loop
      vertex 15.2404 -17.4539 5.10073
      vertex 13.9872 -21.2008 1.5652
      vertex 12.7404 -19.9539 1.5652
    endloop
  endfacet
  facet normal 0.827007 -0.51799 -0.218508
    outer loop
      vertex 13.1936 -18.7301 0.379345
      vertex 15.6936 -16.2301 3.91488
      vertex 15.2404 -17.4539 5.10073
    endloop
  endfacet
  facet normal 0.827007 -0.51799 -0.218508
    outer loop
      vertex 12.7404 -19.9539 1.5652
      vertex 13.1936 -18.7301 0.379345
      vertex 15.2404 -17.4539 5.10073
    endloop
  endfacet
  facet normal 0.0111186 -0.820135 0.572061
    outer loop
      vertex 14.7206 -19.2206 -0.353553
      vertex 17.2206 -16.7206 3.18198
      vertex 15.6936 -16.2301 3.91488
    endloop
  endfacet
  facet normal 0.0111186 -0.820135 0.572061
    outer loop
      vertex 13.1936 -18.7301 0.379345
      vertex 14.7206 -19.2206 -0.353553
      vertex 15.6936 -16.2301 3.91488
    endloop
  endfacet
  facet normal -0.820135 0.0111186 0.572061
    outer loop
      vertex 17.2206 -16.7206 3.18198
      vertex 14.7206 -19.2206 -0.353553
      vertex 17.7111 -18.2475 3.91488
    endloop
  endfacet
  facet normal -0.820135 0.0111186 0.572061
    outer loop
      vertex 17.7111 -18.2475 3.91488
      vertex 14.7206 -19.2206 -0.353553
      vertex 15.2111 -20.7475 0.379345
    endloop
  endfacet
  facet normal -0.51799 0.827007 -0.218508
    outer loop
      vertex 17.7111 -18.2475 3.91488
      vertex 15.2111 -20.7475 0.379345
      vertex 16.4872 -18.7008 5.10073
    endloop
  endfacet
  facet normal -0.51799 0.827007 -0.218508
    outer loop
      vertex 16.4872 -18.7008 5.10073
      vertex 15.2111 -20.7475 0.379345
      vertex 13.9872 -21.2008 1.5652
    endloop
  endfacet
  facet normal 0.5 0.5 -0.707107
    outer loop
      vertex -13.9539 18.7404 0.150985
      vertex -16.4539 16.2404 -3.38455
      vertex -15.2008 19.9872 0.150985
    endloop
  endfacet
  facet normal 0.5 0.5 -0.707107
    outer loop
      vertex -15.2008 19.9872 0.150985
      vertex -16.4539 16.2404 -3.38455
      vertex -17.7008 17.4872 -3.38455
    endloop
  endfacet
  facet normal 0.827007 -0.51799 -0.218508
    outer loop
      vertex -17.2475 18.7111 -4.5704
      vertex -14.7475 21.2111 -1.03487
      vertex -15.2008 19.9872 0.150985
    endloop
  endfacet
  facet normal 0.827007 -0.51799 -0.218508
    outer loop
      vertex -17.7008 17.4872 -3.38455
      vertex -17.2475 18.7111 -4.5704
      vertex -15.2008 19.9872 0.150985
    endloop
  endfacet
  facet normal 0.0111186 -0.820135 0.572061
    outer loop
      vertex -15.7206 18.2206 -5.3033
      vertex -13.2206 20.7206 -1.76777
      vertex -14.7475 21.2111 -1.03487
    endloop
  endfacet
  facet normal 0.0111186 -0.820135 0.572061
    outer loop
      vertex -17.2475 18.7111 -4.5704
      vertex -15.7206 18.2206 -5.3033
      vertex -14.7475 21.2111 -1.03487
    endloop
  endfacet
  facet normal -0.820135 0.0111186 0.572061
    outer loop
      vertex -13.2206 20.7206 -1.76777
      vertex -15.7206 18.2206 -5.3033
      vertex -12.7301 19.1936 -1.03487
    endloop
  endfacet
  facet normal -0.820135 0.0111186 0.572061
    outer loop
      vertex -12.7301 19.1936 -1.03487
      vertex -15.7206 18.2206 -5.3033
      vertex -15.2301 16.6936 -4.5704
    endloop
  endfacet
  facet normal -0.51799 0.827007 -0.218508
    outer loop
      vertex -12.7301 19.1936 -1.03487
      vertex -15.2301 16.6936 -4.5704
      vertex -13.9539 18.7404 0.150985
    endloop
  endfacet
  facet normal -0.51799 0.827007 -0.218508
    outer loop
      vertex -13.9539 18.7404 0.150985
      vertex -15.2301 16.6936 -4.5704
      vertex -16.4539 16.2404 -3.38455
    endloop
  endfacet
  facet normal 0.5 0.5 -0.707107
    outer loop
      vertex 19.9872 -15.2008 0.150985
      vertex 17.4872 -17.7008 -3.38455
      vertex 18.7404 -13.9539 0.150985
    endloop
  endfacet
  facet normal 0.5 0.5 -0.707107
    outer loop
      vertex 18.7404 -13.9539 0.150985
      vertex 17.4872 -17.7008 -3.38455
      vertex 16.2404 -16.4539 -3.38455
    endloop
  endfacet
  facet normal 0.827007 -0.51799 -0.218508
    outer loop
      vertex 16.6936 -15.2301 -4.5704
      vertex 19.1936 -12.7301 -1.03487
      vertex 18.7404 -13.9539 0.150985
    endloop
  endfacet
  facet normal 0.827007 -0.51799 -0.218508
    outer loop
      vertex 16.2404 -16.4539 -3.38455
      vertex 16.6936 -15.2301 -4.5704
      vertex 18.7404 -13.9539 0.150985
    endloop
  endfacet
  facet normal 0.0111186 -0.820135 0.572061
    outer loop
      vertex 18.2206 -15.7206 -5.3033
      vertex 20.7206 -13.2206 -1.76777
      vertex 19.1936 -12.7301 -1.03487
    endloop
  endfacet
  facet normal 0.0111186 -0.820135 0.572061
    outer loop
      vertex 16.6936 -15.2301 -4.5704
      vertex 18.2206 -15.7206 -5.3033
      vertex 19.1936 -12.7301 -1.03487
    endloop
  endfacet
  facet normal -0.820135 0.0111186 0.572061
    outer loop
      vertex 20.7206 -13.2206 -1.76777
      vertex 18.2206 -15.7206 -5.3033
      vertex 21.2111 -14.7475 -1.03487
    endloop
  endfacet
  facet normal -0.820135 0.0111186 0.572061
    outer loop
      vertex 21.2111 -14.7475 -1.03487
      vertex 18.2206 -15.7206 -5.3033
      vertex 18.7111 -17.2475 -4.5704
    endloop
  endfacet
  facet normal -0.51799 0.827007 -0.218508
    outer loop
      vertex 21.2111 -14.7475 -1.03487
      vertex 18.7111 -17.2475 -4.5704
      vertex 19.9872 -15.2008 0.150985
    endloop
  endfacet
  facet normal -0.51799 0.827007 -0.218508
    outer loop
      vertex 19.9872 -15.2008 0.150985
      vertex 18.7111 -17.2475 -4.5704
      vertex 17.4872 -17.7008 -3.38455
    endloop
  endfacet
  facet normal 0.732538 0.191342 -0.653281
    outer loop
      vertex -28.5824 33.3146 -6.88173
      vertex -26.0824 35.8146 -3.34619
      vertex -25.1985 34.1985 -2.82843
    endloop
  endfacet
  facet normal 0.732538 0.191342 -0.653281
    outer loop
      vertex -27.6985 31.6985 -6.36396
      vertex -28.5824 33.3146 -6.88173
      vertex -25.1985 34.1985 -2.82843
    endloop
  endfacet
  facet normal 0.844623 -0.46194 -0.270598
    outer loop
      vertex -28.2163 34.7163 -8.13173
      vertex -25.7163 37.2163 -4.59619
      vertex -26.0824 35.8146 -3.34619
    endloop
  endfacet
  facet normal 0.844623 -0.46194 -0.270598
    outer loop
      vertex -28.5824 33.3146 -6.88173
      vertex -28.2163 34.7163 -8.13173
      vertex -26.0824 35.8146 -3.34619
    endloop
  endfacet
  facet normal 0.46194 -0.844623 0.270598
    outer loop
      vertex -26.8146 35.0824 -9.38173
      vertex -24.3146 37.5824 -5.84619
      vertex -25.7163 37.2163 -4.59619
    endloop
  endfacet
  facet normal 0.46194 -0.844623 0.270598
    outer loop
      vertex -28.2163 34.7163 -8.13173
      vertex -26.8146 35.0824 -9.38173
      vertex -25.7163 37.2163 -4.59619
    endloop
  endfacet
  facet normal -0.191342 -0.732538 0.653281
    outer loop
      vertex -25.1985 34.1985 -9.89949
      vertex -22.6985 36.6985 -6.36396
      vertex -24.3146 37.5824 -5.84619
    endloop
  endfacet
  facet normal -0.191342 -0.732538 0.653281
    outer loop
      vertex -26.8146 35.0824 -9.38173
      vertex -25.1985 34.1985 -9.89949
      vertex -24.3146 37.5824 -5.84619
    endloop
  endfacet
  facet normal -0.732538 -0.191342 0.653281
    outer loop
      vertex -22.6985 36.6985 -6.36396
      vertex -25.1985 34.1985 -9.89949
      vertex -21.8146 35.0824 -5.84619
    endloop
  endfacet
  facet normal -0.732538 -0.191342 0.653281
    outer loop
      vertex -21.8146 35.0824 -5.84619
      vertex -25.1985 34.1985 -9.89949
      vertex -24.3146 32.5824 -9.38173
    endloop
  endfacet
  facet normal -0.844623 0.46194 0.270598
    outer loop
      vertex -21.8146 35.0824 -5.84619
      vertex -24.3146 32.5824 -9.38173
      vertex -22.1807 33.6807 -4.59619
    endloop
  endfacet
  facet normal -0.844623 0.46194 0.270598
    outer loop
      vertex -22.1807 33.6807 -4.59619
      vertex -24.3146 32.5824 -9.38173
      vertex -24.6807 31.1807 -8.13173
    endloop
  endfacet
  facet normal -0.46194 0.844623 -0.270598
    outer loop
      vertex -22.1807 33.6807 -4.59619
      vertex -24.6807 31.1807 -8.13173
      vertex -23.5824 33.3146 -3.34619
    endloop
  endfacet
  facet normal -0.46194 0.844623 -0.270598
    outer loop
      vertex -23.5824 33.3146 -3.34619
      vertex -24.6807 31.1807 -8.13173
      vertex -26.0824 30.8146 -6.88173
    endloop
  endfacet
  facet normal 0.191342 0.732538 -0.653281
    outer loop
      vertex -23.5824 33.3146 -3.34619
      vertex -26.0824 30.8146 -6.88173
      vertex -25.1985 34.1985 -2.82843
    endloop
  endfacet
  facet normal 0.191342 0.732538 -0.653281
    outer loop
      vertex -25.1985 34.1985 -2.82843
      vertex -26.0824 30.8146 -6.88173
      vertex -27.6985 31.6985 -6.36396
    endloop
  endfacet
  facet normal 0.732538 0.191342 -0.653281
    outer loop
      vertex -11.6118 16.344 -6.88173
      vertex -9.11181 18.844 -3.34619
      vertex -8.22792 17.2279 -2.82843
    endloop
  endfacet
  facet normal 0.732538 0.191342 -0.653281
    outer loop
      vertex -10.7279 14.7279 -6.36396
      vertex -11.6118 16.344 -6.88173
      vertex -8.22792 17.2279 -2.82843
    endloop
  endfacet
  facet normal 0.844623 -0.46194 -0.270598
    outer loop
      vertex -11.2457 17.7457 -8.13173
      vertex -8.74569 20.2457 -4.59619
      vertex -9.11181 18.844 -3.34619
    endloop
  endfacet
  facet normal 0.844623 -0.46194 -0.270598
    outer loop
      vertex -11.6118 16.344 -6.88173
      vertex -11.2457 17.7457 -8.13173
      vertex -9.11181 18.844 -3.34619
    endloop
  endfacet
  facet normal 0.46194 -0.844623 0.270598
    outer loop
      vertex -9.84404 18.1118 -9.38173
      vertex -7.34404 20.6118 -5.84619
      vertex -8.74569 20.2457 -4.59619
    endloop
  endfacet
  facet normal 0.46194 -0.844623 0.270598
    outer loop
      vertex -11.2457 17.7457 -8.13173
      vertex -9.84404 18.1118 -9.38173
      vertex -8.74569 20.2457 -4.59619
    endloop
  endfacet
  facet normal -0.191342 -0.732538 0.653281
    outer loop
      vertex -8.22792 17.2279 -9.89949
      vertex -5.72792 19.7279 -6.36396
      vertex -7.34404 20.6118 -5.84619
    endloop
  endfacet
  facet normal -0.191342 -0.732538 0.653281
    outer loop
      vertex -9.84404 18.1118 -9.38173
      vertex -8.22792 17.2279 -9.89949
      vertex -7.34404 20.6118 -5.84619
    endloop
  endfacet
  facet normal -0.732538 -0.191342 0.653281
    outer loop
      vertex -5.72792 19.7279 -6.36396
      vertex -8.22792 17.2279 -9.89949
      vertex -4.84404 18.1118 -5.84619
    endloop
  endfacet
  facet normal -0.732538 -0.191342 0.653281
    outer loop
      vertex -4.84404 18.1118 -5.84619
      vertex -8.22792 17.2279 -9.89949
      vertex -7.34404 15.6118 -9.38173
    endloop
  endfacet
  facet normal -0.844623 0.46194 0.270598
    outer loop
      vertex -4.84404 18.1118 -5.84619
      vertex -7.34404 15.6118 -9.38173
      vertex -5.21016 16.7102 -4.59619
    endloop
  endfacet
  facet normal -0.844623 0.46194 0.270598
    outer loop
      vertex -5.21016 16.7102 -4.59619
      vertex -7.34404 15.6118 -9.38173
      vertex -7.71016 14.2102 -8.13173
    endloop
  endfacet
  facet normal -0.46194 0.844623 -0.270598
    outer loop
      vertex -5.21016 16.7102 -4.59619
      vertex -7.71016 14.2102 -8.13173
      vertex -6.61181 16.344 -3.34619
    endloop
  endfacet
  facet normal -0.46194 0.844623 -0.270598
    outer loop
      vertex -6.61181 16.344 -3.34619
      vertex -7.71016 14.2102 -8.13173
      vertex -9.11181 13.844 -6.88173
    endloop
  endfacet
  facet normal 0.191342 0.732538 -0.653281
    outer loop
      vertex -6.61181 16.344 -3.34619
      vertex -9.11181 13.844 -6.88173
      vertex -8.22792 17.2279 -2.82843
    endloop
  endfacet
  facet normal 0.191342 0.732538 -0.653281
    outer loop
      vertex -8.22792 17.2279 -2.82843
      vertex -9.11181 13.844 -6.88173
      vertex -10.7279 14.7279 -6.36396
    endloop
  endfacet
  facet normal 0.732538 0.191342 -0.653281
    outer loop
      vertex 13.844 -9.11181 -6.88173
      vertex 16.344 -6.61181 -3.34619
      vertex 17.2279 -8.22792 -2.82843
    endloop
  endfacet
  facet normal 0.732538 0.191342 -0.653281
    outer loop
      vertex 14.7279 -10.7279 -6.36396
      vertex 13.844 -9.11181 -6.88173
      vertex 17.2279 -8.22792 -2.82843
    endloop
  endfacet
  facet normal 0.844623 -0.46194 -0.270598
    outer loop
      vertex 14.2102 -7.71016 -8.13173
      vertex 16.7102 -5.21016 -4.59619
      vertex 16.344 -6.61181 -3.34619
    endloop
  endfacet
  facet normal 0.844623 -0.46194 -0.270598
    outer loop
      vertex 13.844 -9.11181 -6.88173
      vertex 14.2102 -7.71016 -8.13173
      vertex 16.344 -6.61181 -3.34619
    endloop
  endfacet
  facet normal 0.46194 -0.844623 0.270598
    outer loop
      vertex 15.6118 -7.34404 -9.38173
      vertex 18.1118 -4.84404 -5.84619
      vertex 16.7102 -5.21016 -4.59619
    endloop
  endfacet
  facet normal 0.46194 -0.844623 0.270598
    outer loop
      vertex 14.2102 -7.71016 -8.13173
      vertex 15.6118 -7.34404 -9.38173
      vertex 16.7102 -5.21016 -4.59619
    endloop
  endfacet
  facet normal -0.191342 -0.732538 0.653281
    outer loop
      vertex 17.2279 -8.22792 -9.89949
      vertex 19.7279 -5.72792 -6.36396
      vertex 18.1118 -4.84404 -5.84619
    endloop
  endfacet
  facet normal -0.191342 -0.732538 0.653281
    outer loop
      vertex 15.6118 -7.34404 -9.38173
      vertex 17.2279 -8.22792 -9.89949
      vertex 18.1118 -4.84404 -5.84619
    endloop
  endfacet
  facet normal -0.732538 -0.191342 0.653281
    outer loop
      vertex 19.7279 -5.72792 -6.36396
      vertex 17.2279 -8.22792 -9.89949
      vertex 20.6118 -7.34404 -5.84619
    endloop
  endfacet
  facet normal -0.732538 -0.191342 0.653281
    outer loop
      vertex 20.6118 -7.34404 -5.84619
      vertex 17.2279 -8.22792 -9.89949
      vertex 18.1118 -9.84404 -9.38173
    endloop
  endfacet
  facet normal -0.844623 0.46194 0.270598
    outer loop
      vertex 20.6118 -7.34404 -5.84619
      vertex 18.1118 -9.84404 -9.38173
      vertex 20.2457 -8.74569 -4.59619
    endloop
  endfacet
  facet normal -0.844623 0.46194 0.270598
    outer loop
      vertex 20.2457 -8.74569 -4.59619
      vertex 18.1118 -9.84404 -9.38173
      vertex 17.7457 -11.2457 -8.13173
    endloop
  endfacet
  facet normal -0.46194 0.844623 -0.270598
    outer loop
      vertex 20.2457 -8.74569 -4.59619
      vertex 17.7457 -11.2457 -8.13173
      vertex 18.844 -9.11181 -3.34619
    endloop
  endfacet
  facet normal -0.46194 0.844623 -0.270598
    outer loop
      vertex 18.844 -9.11181 -3.34619
      vertex 17.7457 -11.2457 -8.13173
      vertex 16.344 -11.6118 -6.88173
    endloop
  endfacet
  facet normal 0.191342 0.732538 -0.653281
    outer loop
      vertex 18.844 -9.11181 -3.34619
      vertex 16.344 -11.6118 -6.88173
      vertex 17.2279 -8.22792 -2.82843
    endloop
  endfacet
  facet normal 0.191342 0.732538 -0.653281
    outer loop
      vertex 17.2279 -8.22792 -2.82843
      vertex 16.344 -11.6118 -6.88173
      vertex 14.7279 -10.7279 -6.36396
    endloop
  endfacet
  facet normal 0.732538 0.191342 -0.653281
    outer loop
      vertex 30.8146 -26.0824 -6.88173
      vertex 33.3146 -23.5824 -3.34619
      vertex 34.1985 -25.1985 -2.82843
    endloop
  endfacet
  facet normal 0.732538 0.191342 -0.653281
    outer loop
      vertex 31.6985 -27.6985 -6.36396
      vertex 30.8146 -26.0824 -6.88173
      vertex 34.1985 -25.1985 -2.82843
    endloop
  endfacet
  facet normal 0.844623 -0.46194 -0.270598
    outer loop
      vertex 31.1807 -24.6807 -8.13173
      vertex 33.6807 -22.1807 -4.59619
      vertex 33.3146 -23.5824 -3.34619
    endloop
  endfacet
  facet normal 0.844623 -0.46194 -0.270598
    outer loop
      vertex 30.8146 -26.0824 -6.88173
      vertex 31.1807 -24.6807 -8.13173
      vertex 33.3146 -23.5824 -3.34619
    endloop
  endfacet
  facet normal 0.46194 -0.844623 0.270598
    outer loop
      vertex 32.5824 -24.3146 -9.38173
      vertex 35.0824 -21.8146 -5.84619
      vertex 33.6807 -22.1807 -4.59619
    endloop
  endfacet
  facet normal 0.46194 -0.844623 0.270598
    outer loop
      vertex 31.1807 -24.6807 -8.13173
      vertex 32.5824 -24.3146 -9.38173
      vertex 33.6807 -22.1807 -4.59619
    endloop
  endfacet
  facet normal -0.191342 -0.732538 0.653281
    outer loop
      vertex 34.1985 -25.1985 -9.89949
      vertex 36.6985 -22.6985 -6.36396
      vertex 35.0824 -21.8146 -5.84619
    endloop
  endfacet
  facet normal -0.191342 -0.732538 0.653281
    outer loop
      vertex 32.5824 -24.3146 -9.38173
      vertex 34.1985 -25.1985 -9.89949
      vertex 35.0824 -21.8146 -5.84619
    endloop
  endfacet
  facet normal -0.732538 -0.191342 0.653281
    outer loop
      vertex 36.6985 -22.6985 -6.36396
      vertex 34.1985 -25.1985 -9.89949
      vertex 37.5824 -24.3146 -5.84619
    endloop
  endfacet
  facet normal -0.732538 -0.191342 0.653281
    outer loop
      vertex 37.5824 -24.3146 -5.84619
      vertex 34.1985 -25.1985 -9.89949
      vertex 35.0824 -26.8146 -9.38173
    endloop
  endfacet
  facet normal -0.844623 0.46194 0.270598
    outer loop
      vertex 37.5824 -24.3146 -5.84619
      vertex 35.0824 -26.8146 -9.38173
      vertex 37.2163 -25.7163 -4.59619
    endloop
  endfacet
  facet normal -0.844623 0.46194 0.270598
    outer loop
      vertex 37.2163 -25.7163 -4.59619
      vertex 35.0824 -26.8146 -9.38173
      vertex 34.7163 -28.2163 -8.13173
    endloop
  endfacet
  facet normal -0.46194 0.844623 -0.270598
    outer loop
      vertex 37.2163 -25.7163 -4.59619
      vertex 34.7163 -28.2163 -8.13173
      vertex 35.8146 -26.0824 -3.34619
    endloop
  endfacet
  facet normal -0.46194 0.844623 -0.270598
    outer loop
      vertex 35.8146 -26.0824 -3.34619
      vertex 34.7163 -28.2163 -8.13173
      vertex 33.3146 -28.5824 -6.88173
    endloop
  endfacet
  facet normal 0.191342 0.732538 -0.653281
    outer loop
      vertex 35.8146 -26.0824 -3.34619
      vertex 33.3146 -28.5824 -6.88173
      vertex 34.1985 -25.1985 -2.82843
    endloop
  endfacet
  facet normal 0.191342 0.732538 -0.653281
    outer loop
      vertex 34.1985 -25.1985 -2.82843
      vertex 33.3146 -28.5824 -6.88173
      vertex 31.6985 -27.6985 -6.36396
    endloop
  endfacet
  facet normal 0.5 0.5 -0.707107
    outer loop
      vertex 8.32843 2.67157 -4.24264
      vertex 5.82843 0.171573 -7.77817
      vertex 2.67157 8.32843 -4.24264
    endloop
  endfacet
  facet normal 0.5 0.5 -0.707107
    outer loop
      vertex 2.67157 8.32843 -4.24264
      vertex 5.82843 0.171573 -7.77817
      vertex 0.171573 5.82843 -7.77817
    endloop
  endfacet
  facet normal 0.707107 -0.707107 5.55112e-17
    outer loop
      vertex 1.67157 7.32843 -9.89949
      vertex 4.17157 9.82843 -6.36396
      vertex 2.67157 8.32843 -4.24264
    endloop
  endfacet
  facet normal 0.707107 -0.707107 5.55112e-17
    outer loop
      vertex 0.171573 5.82843 -7.77817
      vertex 1.67157 7.32843 -9.89949
      vertex 2.67157 8.32843 -4.24264
    endloop
  endfacet
  facet normal -0.5 -0.5 0.707107
    outer loop
      vertex 7.32843 1.67157 -9.89949
      vertex 9.82843 4.17157 -6.36396
      vertex 4.17157 9.82843 -6.36396
    endloop
  endfacet
  facet normal -0.5 -0.5 0.707107
    outer loop
      vertex 1.67157 7.32843 -9.89949
      vertex 7.32843 1.67157 -9.89949
      vertex 4.17157 9.82843 -6.36396
    endloop
  endfacet
  facet normal -0.707107 0.707107 -5.55112e-17
    outer loop
      vertex 9.82843 4.17157 -6.36396
      vertex 7.32843 1.67157 -9.89949
      vertex 8.32843 2.67157 -4.24264
    endloop
  endfacet
  facet normal -0.707107 0.707107 -5.55112e-17
    outer loop
      vertex 8.32843 2.67157 -4.24264
      vertex 7.32843 1.67157 -9.89949
      vertex 5.82843 0.171573 -7.77817
    endloop
  endfacet
  facet normal 0.5 0.5 0.707107
    outer loop
      vertex -34.1985 25.1985 9.89949
      vertex -39.8376 27.3376 12.3744
      vertex 19.8797 -32.3797 12.3744
    endloop
  endfacet
  facet normal 0.5 0.5 0.707107
    outer loop
      vertex 11.6118 -16.344 6.88173
      vertex 19.8797 -32.3797 12.3744
      vertex 20.3797 -31.8797 11.6673
    endloop
  endfacet
  facet normal 0.5 0.5 0.707107
    outer loop
      vertex 25.1985 -34.1985 9.89949
      vertex -24.8376 42.3376 -8.83883
      vertex 27.1305 -38.6305 11.6673
    endloop
  endfacet
  facet normal 0.5 0.5 0.707107
    outer loop
      vertex 19.7279 -5.72792 -6.36396
      vertex 20.6118 -7.34404 -5.84619
      vertex 42.3376 -24.8376 -8.83883
    endloop
  endfacet
  facet normal 0.5 0.5 0.707107
    outer loop
      vertex -32.5824 24.3146 9.38173
      vertex -34.1985 25.1985 9.89949
      vertex 19.8797 -32.3797 12.3744
    endloop
  endfacet
  facet normal 0.5 0.5 0.707107
    outer loop
      vertex -35.0824 26.8146 9.38173
      vertex -39.8376 27.3376 12.3744
      vertex -34.1985 25.1985 9.89949
    endloop
  endfacet
  facet normal 0.5 0.5 0.707107
    outer loop
      vertex -34.7163 28.2163 8.13173
      vertex -39.8376 27.3376 12.3744
      vertex -35.0824 26.8146 9.38173
    endloop
  endfacet
  facet normal 0.5 0.5 0.707107
    outer loop
      vertex -33.3146 28.5824 6.88173
      vertex -31.6985 27.6985 6.36396
      vertex -24.8376 42.3376 -8.83883
    endloop
  endfacet
  facet normal 0.5 0.5 0.707107
    outer loop
      vertex -24.8376 42.3376 -8.83883
      vertex -39.8376 27.3376 12.3744
      vertex -34.7163 28.2163 8.13173
    endloop
  endfacet
  facet normal 0.5 0.5 0.707107
    outer loop
      vertex -7.32843 -1.67157 9.89949
      vertex -13.844 9.11181 6.88173
      vertex -14.2102 7.71016 8.13173
    endloop
  endfacet
  facet normal 0.5 0.5 0.707107
    outer loop
      vertex 8.22792 -17.2279 9.89949
      vertex -1.67157 -7.32843 9.89949
      vertex 19.8797 -32.3797 12.3744
    endloop
  endfacet
  facet normal 0.5 0.5 0.707107
    outer loop
      vertex -17.2279 8.22792 9.89949
      vertex -32.5824 24.3146 9.38173
      vertex 19.8797 -32.3797 12.3744
    endloop
  endfacet
  facet normal 0.5 0.5 0.707107
    outer loop
      vertex -31.1807 24.6807 8.13173
      vertex -32.5824 24.3146 9.38173
      vertex -17.2279 8.22792 9.89949
    endloop
  endfacet
  facet normal 0.5 0.5 0.707107
    outer loop
      vertex 9.84404 -18.1118 9.38173
      vertex 8.22792 -17.2279 9.89949
      vertex 19.8797 -32.3797 12.3744
    endloop
  endfacet
  facet normal 0.5 0.5 0.707107
    outer loop
      vertex -31.1807 24.6807 8.13173
      vertex -17.2279 8.22792 9.89949
      vertex -18.1118 9.84404 9.38173
    endloop
  endfacet
  facet normal 0.5 0.5 0.707107
    outer loop
      vertex 8.22792 -17.2279 9.89949
      vertex 7.34404 -15.6118 9.38173
      vertex -0.171573 -5.82843 7.77817
    endloop
  endfacet
  facet normal 0.5 0.5 0.707107
    outer loop
      vertex -31.6985 27.6985 6.36396
      vertex -30.8146 26.0824 6.88173
      vertex -17.7457 11.2457 8.13173
    endloop
  endfacet
  facet normal 0.5 0.5 0.707107
    outer loop
      vertex -1.67157 -7.32843 9.89949
      vertex -7.32843 -1.67157 9.89949
      vertex 19.8797 -32.3797 12.3744
    endloop
  endfacet
  facet normal 0.5 0.5 0.707107
    outer loop
      vertex -17.4539 15.2404 5.10073
      vertex -31.6985 27.6985 6.36396
      vertex -16.344 11.6118 6.88173
    endloop
  endfacet
  facet normal 0.5 0.5 0.707107
    outer loop
      vertex -7.32843 -1.67157 9.89949
      vertex -5.82843 -0.171573 7.77817
      vertex -14.7279 10.7279 6.36396
    endloop
  endfacet
  facet normal 0.5 0.5 0.707107
    outer loop
      vertex -18.2475 17.7111 3.91488
      vertex -16.7206 17.2206 3.18198
      vertex -22.1807 33.6807 -4.59619
    endloop
  endfacet
  facet normal 0.5 0.5 0.707107
    outer loop
      vertex -7.32843 -1.67157 9.89949
      vertex -14.7279 10.7279 6.36396
      vertex -13.844 9.11181 6.88173
    endloop
  endfacet
  facet normal 0.5 0.5 0.707107
    outer loop
      vertex -7.32843 -1.67157 9.89949
      vertex -15.6118 7.34404 9.38173
      vertex 19.8797 -32.3797 12.3744
    endloop
  endfacet
  facet normal 0.5 0.5 0.707107
    outer loop
      vertex -17.7457 11.2457 8.13173
      vertex -16.344 11.6118 6.88173
      vertex -31.6985 27.6985 6.36396
    endloop
  endfacet
  facet normal 0.5 0.5 0.707107
    outer loop
      vertex -14.2102 7.71016 8.13173
      vertex -15.6118 7.34404 9.38173
      vertex -7.32843 -1.67157 9.89949
    endloop
  endfacet
  facet normal 0.5 0.5 0.707107
    outer loop
      vertex -16.2301 15.6936 3.91488
      vertex -16.344 11.6118 6.88173
      vertex -14.7279 10.7279 6.36396
    endloop
  endfacet
  facet normal 0.5 0.5 0.707107
    outer loop
      vertex -16.2301 15.6936 3.91488
      vertex -14.7279 10.7279 6.36396
      vertex -5.82843 -0.171573 7.77817
    endloop
  endfacet
  facet normal 0.5 0.5 0.707107
    outer loop
      vertex -13.9539 18.7404 0.150985
      vertex -5.82843 -0.171573 7.77817
      vertex -0.171573 -5.82843 7.77817
    endloop
  endfacet
  facet normal 0.5 0.5 0.707107
    outer loop
      vertex -16.2301 15.6936 3.91488
      vertex -17.4539 15.2404 5.10073
      vertex -16.344 11.6118 6.88173
    endloop
  endfacet
  facet normal 0.5 0.5 0.707107
    outer loop
      vertex 7.71016 -14.2102 8.13173
      vertex 9.11181 -13.844 6.88173
      vertex -24.8376 42.3376 -8.83883
    endloop
  endfacet
  facet normal 0.5 0.5 0.707107
    outer loop
      vertex -13.2206 20.7206 -1.76777
      vertex -0.171573 -5.82843 7.77817
      vertex 7.34404 -15.6118 9.38173
    endloop
  endfacet
  facet normal 0.5 0.5 0.707107
    outer loop
      vertex 9.11181 -13.844 6.88173
      vertex 10.7279 -14.7279 6.36396
      vertex -24.8376 42.3376 -8.83883
    endloop
  endfacet
  facet normal 0.5 0.5 0.707107
    outer loop
      vertex -24.8376 42.3376 -8.83883
      vertex 7.34404 -15.6118 9.38173
      vertex 7.71016 -14.2102 8.13173
    endloop
  endfacet
  facet normal 0.5 0.5 0.707107
    outer loop
      vertex 11.2457 -17.7457 8.13173
      vertex 9.84404 -18.1118 9.38173
      vertex 19.8797 -32.3797 12.3744
    endloop
  endfacet
  facet normal 0.5 0.5 0.707107
    outer loop
      vertex 11.6118 -16.344 6.88173
      vertex 11.2457 -17.7457 8.13173
      vertex 19.8797 -32.3797 12.3744
    endloop
  endfacet
  facet normal 0.5 0.5 0.707107
    outer loop
      vertex 27.1305 -38.6305 11.6673
      vertex 10.7279 -14.7279 6.36396
      vertex 20.3797 -31.8797 11.6673
    endloop
  endfacet
  facet normal 0.5 0.5 0.707107
    outer loop
      vertex 27.1305 -38.6305 11.6673
      vertex -24.8376 42.3376 -8.83883
      vertex 10.7279 -14.7279 6.36396
    endloop
  endfacet
  facet normal 0.5 0.5 0.707107
    outer loop
      vertex 10.7279 -14.7279 6.36396
      vertex 11.6118 -16.344 6.88173
      vertex 20.3797 -31.8797 11.6673
    endloop
  endfacet
  facet normal 0.5 0.5 0.707107
    outer loop
      vertex 26.0824 -30.8146 6.88173
      vertex 27.6985 -31.6985 6.36396
      vertex 36.8805 -28.8805 -2.12132
    endloop
  endfacet
  facet normal 0.5 0.5 0.707107
    outer loop
      vertex 26.8146 -35.0824 9.38173
      vertex 25.1985 -34.1985 9.89949
      vertex 27.1305 -38.6305 11.6673
    endloop
  endfacet
  facet normal 0.5 0.5 0.707107
    outer loop
      vertex 24.3146 -32.5824 9.38173
      vertex -24.8376 42.3376 -8.83883
      vertex 25.1985 -34.1985 9.89949
    endloop
  endfacet
  facet normal 0.5 0.5 0.707107
    outer loop
      vertex -8.22792 17.2279 -2.82843
      vertex -24.8376 42.3376 -8.83883
      vertex 24.3146 -32.5824 9.38173
    endloop
  endfacet
  facet normal 0.5 0.5 0.707107
    outer loop
      vertex 27.6985 -31.6985 6.36396
      vertex 28.5824 -33.3146 6.88173
      vertex 36.8805 -28.8805 -2.12132
    endloop
  endfacet
  facet normal 0.5 0.5 0.707107
    outer loop
      vertex -9.11181 18.844 -3.34619
      vertex -8.74569 20.2457 -4.59619
      vertex -24.8376 42.3376 -8.83883
    endloop
  endfacet
  facet normal 0.5 0.5 0.707107
    outer loop
      vertex -8.74569 20.2457 -4.59619
      vertex -7.34404 20.6118 -5.84619
      vertex -24.8376 42.3376 -8.83883
    endloop
  endfacet
  facet normal 0.5 0.5 0.707107
    outer loop
      vertex 15.6936 -16.2301 3.91488
      vertex 17.2206 -16.7206 3.18198
      vertex -6.61181 16.344 -3.34619
    endloop
  endfacet
  facet normal 0.5 0.5 0.707107
    outer loop
      vertex 28.2163 -34.7163 8.13173
      vertex 26.8146 -35.0824 9.38173
      vertex 27.1305 -38.6305 11.6673
    endloop
  endfacet
  facet normal 0.5 0.5 0.707107
    outer loop
      vertex -21.8146 35.0824 -5.84619
      vertex -16.7206 17.2206 3.18198
      vertex -15.2008 19.9872 0.150985
    endloop
  endfacet
  facet normal 0.5 0.5 0.707107
    outer loop
      vertex 36.8805 -28.8805 -2.12132
      vertex 28.2163 -34.7163 8.13173
      vertex 27.1305 -38.6305 11.6673
    endloop
  endfacet
  facet normal 0.5 0.5 0.707107
    outer loop
      vertex 36.8805 -28.8805 -2.12132
      vertex 28.5824 -33.3146 6.88173
      vertex 28.2163 -34.7163 8.13173
    endloop
  endfacet
  facet normal 0.5 0.5 0.707107
    outer loop
      vertex -12.7301 19.1936 -1.03487
      vertex -13.9539 18.7404 0.150985
      vertex -0.171573 -5.82843 7.77817
    endloop
  endfacet
  facet normal 0.5 0.5 0.707107
    outer loop
      vertex -18.7008 16.4872 5.10073
      vertex -31.6985 27.6985 6.36396
      vertex -17.4539 15.2404 5.10073
    endloop
  endfacet
  facet normal 0.5 0.5 0.707107
    outer loop
      vertex -25.1985 34.1985 -2.82843
      vertex -31.6985 27.6985 6.36396
      vertex -18.7008 16.4872 5.10073
    endloop
  endfacet
  facet normal 0.5 0.5 0.707107
    outer loop
      vertex -6.61181 16.344 -3.34619
      vertex -8.22792 17.2279 -2.82843
      vertex 15.2404 -17.4539 5.10073
    endloop
  endfacet
  facet normal 0.5 0.5 0.707107
    outer loop
      vertex -15.2008 19.9872 0.150985
      vertex -16.7206 17.2206 3.18198
      vertex -5.82843 -0.171573 7.77817
    endloop
  endfacet
  facet normal 0.5 0.5 0.707107
    outer loop
      vertex -24.3146 37.5824 -5.84619
      vertex -22.6985 36.6985 -6.36396
      vertex -24.8376 42.3376 -8.83883
    endloop
  endfacet
  facet normal 0.5 0.5 0.707107
    outer loop
      vertex -16.7206 17.2206 3.18198
      vertex -16.2301 15.6936 3.91488
      vertex -5.82843 -0.171573 7.77817
    endloop
  endfacet
  facet normal 0.5 0.5 0.707107
    outer loop
      vertex 9.82843 4.17157 -6.36396
      vertex 8.32843 2.67157 -4.24264
      vertex 16.344 -6.61181 -3.34619
    endloop
  endfacet
  facet normal 0.5 0.5 0.707107
    outer loop
      vertex 26.0824 -30.8146 6.88173
      vertex 16.4872 -18.7008 5.10073
      vertex 24.6807 -31.1807 8.13173
    endloop
  endfacet
  facet normal 0.5 0.5 0.707107
    outer loop
      vertex 24.6807 -31.1807 8.13173
      vertex 15.2404 -17.4539 5.10073
      vertex 24.3146 -32.5824 9.38173
    endloop
  endfacet
  facet normal 0.5 0.5 0.707107
    outer loop
      vertex 16.4872 -18.7008 5.10073
      vertex 15.2404 -17.4539 5.10073
      vertex 24.6807 -31.1807 8.13173
    endloop
  endfacet
  facet normal 0.5 0.5 0.707107
    outer loop
      vertex 36.8805 -28.8805 -2.12132
      vertex 17.2206 -16.7206 3.18198
      vertex 26.0824 -30.8146 6.88173
    endloop
  endfacet
  facet normal 0.5 0.5 0.707107
    outer loop
      vertex -5.21016 16.7102 -4.59619
      vertex 17.2206 -16.7206 3.18198
      vertex 18.7404 -13.9539 0.150985
    endloop
  endfacet
  facet normal 0.5 0.5 0.707107
    outer loop
      vertex 17.2206 -16.7206 3.18198
      vertex 17.7111 -18.2475 3.91488
      vertex 26.0824 -30.8146 6.88173
    endloop
  endfacet
  facet normal 0.5 0.5 0.707107
    outer loop
      vertex -14.7475 21.2111 -1.03487
      vertex -13.2206 20.7206 -1.76777
      vertex -24.8376 42.3376 -8.83883
    endloop
  endfacet
  facet normal 0.5 0.5 0.707107
    outer loop
      vertex -15.2008 19.9872 0.150985
      vertex -14.7475 21.2111 -1.03487
      vertex -24.8376 42.3376 -8.83883
    endloop
  endfacet
  facet normal 0.5 0.5 0.707107
    outer loop
      vertex -22.1807 33.6807 -4.59619
      vertex -23.5824 33.3146 -3.34619
      vertex -18.7008 16.4872 5.10073
    endloop
  endfacet
  facet normal 0.5 0.5 0.707107
    outer loop
      vertex -13.9539 18.7404 0.150985
      vertex -15.2008 19.9872 0.150985
      vertex -5.82843 -0.171573 7.77817
    endloop
  endfacet
  facet normal 0.5 0.5 0.707107
    outer loop
      vertex -24.8376 42.3376 -8.83883
      vertex -13.2206 20.7206 -1.76777
      vertex 7.34404 -15.6118 9.38173
    endloop
  endfacet
  facet normal 0.5 0.5 0.707107
    outer loop
      vertex -12.7301 19.1936 -1.03487
      vertex -0.171573 -5.82843 7.77817
      vertex -13.2206 20.7206 -1.76777
    endloop
  endfacet
  facet normal 0.5 0.5 0.707107
    outer loop
      vertex 36.8805 -28.8805 -2.12132
      vertex 19.9872 -15.2008 0.150985
      vertex 17.2206 -16.7206 3.18198
    endloop
  endfacet
  facet normal 0.5 0.5 0.707107
    outer loop
      vertex 19.9872 -15.2008 0.150985
      vertex 18.7404 -13.9539 0.150985
      vertex 17.2206 -16.7206 3.18198
    endloop
  endfacet
  facet normal 0.5 0.5 0.707107
    outer loop
      vertex 20.7206 -13.2206 -1.76777
      vertex 21.2111 -14.7475 -1.03487
      vertex 36.8805 -28.8805 -2.12132
    endloop
  endfacet
  facet normal 0.5 0.5 0.707107
    outer loop
      vertex -25.7163 37.2163 -4.59619
      vertex -24.3146 37.5824 -5.84619
      vertex -24.8376 42.3376 -8.83883
    endloop
  endfacet
  facet normal 0.5 0.5 0.707107
    outer loop
      vertex 36.8805 -28.8805 -2.12132
      vertex 21.2111 -14.7475 -1.03487
      vertex 19.9872 -15.2008 0.150985
    endloop
  endfacet
  facet normal 0.5 0.5 0.707107
    outer loop
      vertex -23.5824 33.3146 -3.34619
      vertex -25.1985 34.1985 -2.82843
      vertex -18.7008 16.4872 5.10073
    endloop
  endfacet
  facet normal 0.5 0.5 0.707107
    outer loop
      vertex -26.0824 35.8146 -3.34619
      vertex -31.6985 27.6985 6.36396
      vertex -25.1985 34.1985 -2.82843
    endloop
  endfacet
  facet normal 0.5 0.5 0.707107
    outer loop
      vertex -24.8376 42.3376 -8.83883
      vertex -31.6985 27.6985 6.36396
      vertex -26.0824 35.8146 -3.34619
    endloop
  endfacet
  facet normal 0.5 0.5 0.707107
    outer loop
      vertex -22.1807 33.6807 -4.59619
      vertex -18.7008 16.4872 5.10073
      vertex -18.2475 17.7111 3.91488
    endloop
  endfacet
  facet normal 0.5 0.5 0.707107
    outer loop
      vertex -24.8376 42.3376 -8.83883
      vertex -26.0824 35.8146 -3.34619
      vertex -25.7163 37.2163 -4.59619
    endloop
  endfacet
  facet normal 0.5 0.5 0.707107
    outer loop
      vertex -4.84404 18.1118 -5.84619
      vertex -5.21016 16.7102 -4.59619
      vertex 18.7404 -13.9539 0.150985
    endloop
  endfacet
  facet normal 0.5 0.5 0.707107
    outer loop
      vertex -6.61181 16.344 -3.34619
      vertex 15.2404 -17.4539 5.10073
      vertex 15.6936 -16.2301 3.91488
    endloop
  endfacet
  facet normal 0.5 0.5 0.707107
    outer loop
      vertex -24.8376 42.3376 -8.83883
      vertex -21.8146 35.0824 -5.84619
      vertex -15.2008 19.9872 0.150985
    endloop
  endfacet
  facet normal 0.5 0.5 0.707107
    outer loop
      vertex -24.8376 42.3376 -8.83883
      vertex -22.6985 36.6985 -6.36396
      vertex -21.8146 35.0824 -5.84619
    endloop
  endfacet
  facet normal 0.5 0.5 0.707107
    outer loop
      vertex 17.7111 -18.2475 3.91488
      vertex 16.4872 -18.7008 5.10073
      vertex 26.0824 -30.8146 6.88173
    endloop
  endfacet
  facet normal 0.5 0.5 0.707107
    outer loop
      vertex -21.8146 35.0824 -5.84619
      vertex -22.1807 33.6807 -4.59619
      vertex -16.7206 17.2206 3.18198
    endloop
  endfacet
  facet normal 0.5 0.5 0.707107
    outer loop
      vertex 15.2404 -17.4539 5.10073
      vertex -8.22792 17.2279 -2.82843
      vertex 24.3146 -32.5824 9.38173
    endloop
  endfacet
  facet normal 0.5 0.5 0.707107
    outer loop
      vertex -9.11181 18.844 -3.34619
      vertex -24.8376 42.3376 -8.83883
      vertex -8.22792 17.2279 -2.82843
    endloop
  endfacet
  facet normal 0.5 0.5 0.707107
    outer loop
      vertex 18.844 -9.11181 -3.34619
      vertex 17.2279 -8.22792 -2.82843
      vertex 36.8805 -28.8805 -2.12132
    endloop
  endfacet
  facet normal 0.5 0.5 0.707107
    outer loop
      vertex -4.84404 18.1118 -5.84619
      vertex 18.7404 -13.9539 0.150985
      vertex 2.67157 8.32843 -4.24264
    endloop
  endfacet
  facet normal 0.5 0.5 0.707107
    outer loop
      vertex -5.21016 16.7102 -4.59619
      vertex -6.61181 16.344 -3.34619
      vertex 17.2206 -16.7206 3.18198
    endloop
  endfacet
  facet normal 0.5 0.5 0.707107
    outer loop
      vertex 2.67157 8.32843 -4.24264
      vertex 18.7404 -13.9539 0.150985
      vertex 19.1936 -12.7301 -1.03487
    endloop
  endfacet
  facet normal 0.5 0.5 0.707107
    outer loop
      vertex 20.2457 -8.74569 -4.59619
      vertex 18.844 -9.11181 -3.34619
      vertex 36.8805 -28.8805 -2.12132
    endloop
  endfacet
  facet normal 0.5 0.5 0.707107
    outer loop
      vertex 2.67157 8.32843 -4.24264
      vertex 4.17157 9.82843 -6.36396
      vertex -5.72792 19.7279 -6.36396
    endloop
  endfacet
  facet normal 0.5 0.5 0.707107
    outer loop
      vertex -7.34404 20.6118 -5.84619
      vertex -5.72792 19.7279 -6.36396
      vertex -24.8376 42.3376 -8.83883
    endloop
  endfacet
  facet normal 0.5 0.5 0.707107
    outer loop
      vertex 36.8805 -28.8805 -2.12132
      vertex 17.2279 -8.22792 -2.82843
      vertex 20.7206 -13.2206 -1.76777
    endloop
  endfacet
  facet normal 0.5 0.5 0.707107
    outer loop
      vertex 9.82843 4.17157 -6.36396
      vertex 16.344 -6.61181 -3.34619
      vertex 16.7102 -5.21016 -4.59619
    endloop
  endfacet
  facet normal 0.5 0.5 0.707107
    outer loop
      vertex 36.6985 -22.6985 -6.36396
      vertex 37.5824 -24.3146 -5.84619
      vertex 42.3376 -24.8376 -8.83883
    endloop
  endfacet
  facet normal 0.5 0.5 0.707107
    outer loop
      vertex 8.32843 2.67157 -4.24264
      vertex 2.67157 8.32843 -4.24264
      vertex 20.7206 -13.2206 -1.76777
    endloop
  endfacet
  facet normal 0.5 0.5 0.707107
    outer loop
      vertex 19.7279 -5.72792 -6.36396
      vertex -24.8376 42.3376 -8.83883
      vertex 18.1118 -4.84404 -5.84619
    endloop
  endfacet
  facet normal 0.5 0.5 0.707107
    outer loop
      vertex 20.6118 -7.34404 -5.84619
      vertex 20.2457 -8.74569 -4.59619
      vertex 42.3376 -24.8376 -8.83883
    endloop
  endfacet
  facet normal 0.5 0.5 0.707107
    outer loop
      vertex 42.3376 -24.8376 -8.83883
      vertex -24.8376 42.3376 -8.83883
      vertex 19.7279 -5.72792 -6.36396
    endloop
  endfacet
  facet normal 0.5 0.5 0.707107
    outer loop
      vertex 20.2457 -8.74569 -4.59619
      vertex 36.8805 -28.8805 -2.12132
      vertex 37.5876 -29.5876 -2.12132
    endloop
  endfacet
  facet normal 0.5 0.5 0.707107
    outer loop
      vertex 34.1985 -25.1985 -2.82843
      vertex 20.2457 -8.74569 -4.59619
      vertex 37.5876 -29.5876 -2.12132
    endloop
  endfacet
  facet normal 0.5 0.5 0.707107
    outer loop
      vertex 9.82843 4.17157 -6.36396
      vertex 16.7102 -5.21016 -4.59619
      vertex 18.1118 -4.84404 -5.84619
    endloop
  endfacet
  facet normal 0.5 0.5 0.707107
    outer loop
      vertex 35.8146 -26.0824 -3.34619
      vertex 34.1985 -25.1985 -2.82843
      vertex 37.5876 -29.5876 -2.12132
    endloop
  endfacet
  facet normal 0.5 0.5 0.707107
    outer loop
      vertex 33.3146 -23.5824 -3.34619
      vertex 20.2457 -8.74569 -4.59619
      vertex 34.1985 -25.1985 -2.82843
    endloop
  endfacet
  facet normal 0.5 0.5 0.707107
    outer loop
      vertex 33.6807 -22.1807 -4.59619
      vertex 20.2457 -8.74569 -4.59619
      vertex 33.3146 -23.5824 -3.34619
    endloop
  endfacet
  facet normal 0.5 0.5 0.707107
    outer loop
      vertex 37.5824 -24.3146 -5.84619
      vertex 37.2163 -25.7163 -4.59619
      vertex 42.3376 -24.8376 -8.83883
    endloop
  endfacet
  facet normal 0.5 0.5 0.707107
    outer loop
      vertex 35.0824 -21.8146 -5.84619
      vertex 20.2457 -8.74569 -4.59619
      vertex 33.6807 -22.1807 -4.59619
    endloop
  endfacet
  facet normal 0.5 0.5 0.707107
    outer loop
      vertex 42.3376 -24.8376 -8.83883
      vertex 20.2457 -8.74569 -4.59619
      vertex 35.0824 -21.8146 -5.84619
    endloop
  endfacet
  facet normal 0.5 0.5 0.707107
    outer loop
      vertex 42.3376 -24.8376 -8.83883
      vertex 35.0824 -21.8146 -5.84619
      vertex 36.6985 -22.6985 -6.36396
    endloop
  endfacet
  facet normal 0.5 0.5 0.707107
    outer loop
      vertex 42.3376 -24.8376 -8.83883
      vertex 37.2163 -25.7163 -4.59619
      vertex 37.5876 -29.5876 -2.12132
    endloop
  endfacet
  facet normal 0.5 0.5 0.707107
    outer loop
      vertex -5.72792 19.7279 -6.36396
      vertex 4.17157 9.82843 -6.36396
      vertex -24.8376 42.3376 -8.83883
    endloop
  endfacet
  facet normal 0.5 0.5 0.707107
    outer loop
      vertex 37.2163 -25.7163 -4.59619
      vertex 35.8146 -26.0824 -3.34619
      vertex 37.5876 -29.5876 -2.12132
    endloop
  endfacet
  facet normal 0.5 0.5 0.707107
    outer loop
      vertex 16.344 -6.61181 -3.34619
      vertex 8.32843 2.67157 -4.24264
      vertex 17.2279 -8.22792 -2.82843
    endloop
  endfacet
  facet normal 0.5 0.5 0.707107
    outer loop
      vertex 2.67157 8.32843 -4.24264
      vertex -5.72792 19.7279 -6.36396
      vertex -4.84404 18.1118 -5.84619
    endloop
  endfacet
  facet normal 0.5 0.5 0.707107
    outer loop
      vertex 20.7206 -13.2206 -1.76777
      vertex 2.67157 8.32843 -4.24264
      vertex 19.1936 -12.7301 -1.03487
    endloop
  endfacet
  facet normal 0.5 0.5 0.707107
    outer loop
      vertex 8.32843 2.67157 -4.24264
      vertex 20.7206 -13.2206 -1.76777
      vertex 17.2279 -8.22792 -2.82843
    endloop
  endfacet
  facet normal 0.5 0.5 0.707107
    outer loop
      vertex 9.82843 4.17157 -6.36396
      vertex -24.8376 42.3376 -8.83883
      vertex 4.17157 9.82843 -6.36396
    endloop
  endfacet
  facet normal 0.5 0.5 0.707107
    outer loop
      vertex 18.1118 -4.84404 -5.84619
      vertex -24.8376 42.3376 -8.83883
      vertex 9.82843 4.17157 -6.36396
    endloop
  endfacet
  facet normal 0.5 0.5 0.707107
    outer loop
      vertex -34.7163 28.2163 8.13173
      vertex -33.3146 28.5824 6.88173
      vertex -24.8376 42.3376 -8.83883
    endloop
  endfacet
  facet normal 0.5 0.5 0.707107
    outer loop
      vertex -15.6118 7.34404 9.38173
      vertex -17.2279 8.22792 9.89949
      vertex 19.8797 -32.3797 12.3744
    endloop
  endfacet
  facet normal 0.5 0.5 0.707107
    outer loop
      vertex -18.1118 9.84404 9.38173
      vertex -30.8146 26.0824 6.88173
      vertex -31.1807 24.6807 8.13173
    endloop
  endfacet
  facet normal 0.5 0.5 0.707107
    outer loop
      vertex -18.1118 9.84404 9.38173
      vertex -17.7457 11.2457 8.13173
      vertex -30.8146 26.0824 6.88173
    endloop
  endfacet
  facet normal 0.5 0.5 0.707107
    outer loop
      vertex -0.171573 -5.82843 7.77817
      vertex -1.67157 -7.32843 9.89949
      vertex 8.22792 -17.2279 9.89949
    endloop
  endfacet
  facet normal 0.5 0.5 -0.707107
    outer loop
      vertex 27.1305 -38.6305 11.6673
      vertex 20.3797 -31.8797 11.6673
      vertex 35.3984 -30.3625 23.3599
    endloop
  endfacet
  facet normal -0.707107 0.707107 -5.55112e-17
    outer loop
      vertex 27.1305 -38.6305 11.6673
      vertex 35.3984 -30.3625 23.3599
      vertex 36.8805 -28.8805 -2.12132
    endloop
  endfacet
  facet normal -0.707107 0.707107 -5.55112e-17
    outer loop
      vertex 36.8805 -28.8805 -2.12132
      vertex 35.3984 -30.3625 23.3599
      vertex 45.1484 -20.6125 9.57133
    endloop
  endfacet
  facet normal 0.5 0.5 -0.707107
    outer loop
      vertex 37.4756 -35.1891 28.7888
      vertex 32.4756 -40.1891 21.7177
      vertex 36.2287 -33.9422 28.7888
    endloop
  endfacet
  facet normal 0.5 0.5 -0.707107
    outer loop
      vertex 36.2287 -33.9422 28.7888
      vertex 32.4756 -40.1891 21.7177
      vertex 31.2287 -38.9422 21.7177
    endloop
  endfacet
  facet normal -0.51799 0.827007 -0.218508
    outer loop
      vertex 38.6994 -34.7359 27.603
      vertex 33.6994 -39.7359 20.5319
      vertex 37.4756 -35.1891 28.7888
    endloop
  endfacet
  facet normal -0.51799 0.827007 -0.218508
    outer loop
      vertex 37.4756 -35.1891 28.7888
      vertex 33.6994 -39.7359 20.5319
      vertex 32.4756 -40.1891 21.7177
    endloop
  endfacet
  facet normal -0.820135 0.0111186 0.572061
    outer loop
      vertex 38.2089 -33.2089 26.8701
      vertex 33.2089 -38.2089 19.799
      vertex 38.6994 -34.7359 27.603
    endloop
  endfacet
  facet normal -0.820135 0.0111186 0.572061
    outer loop
      vertex 38.6994 -34.7359 27.603
      vertex 33.2089 -38.2089 19.799
      vertex 33.6994 -39.7359 20.5319
    endloop
  endfacet
  facet normal 0.0111186 -0.820135 0.572061
    outer loop
      vertex 33.2089 -38.2089 19.799
      vertex 38.2089 -33.2089 26.8701
      vertex 36.6819 -32.7184 27.603
    endloop
  endfacet
  facet normal 0.0111186 -0.820135 0.572061
    outer loop
      vertex 31.6819 -37.7184 20.5319
      vertex 33.2089 -38.2089 19.799
      vertex 36.6819 -32.7184 27.603
    endloop
  endfacet
  facet normal 0.827007 -0.51799 -0.218508
    outer loop
      vertex 31.6819 -37.7184 20.5319
      vertex 36.6819 -32.7184 27.603
      vertex 36.2287 -33.9422 28.7888
    endloop
  endfacet
  facet normal 0.827007 -0.51799 -0.218508
    outer loop
      vertex 31.2287 -38.9422 21.7177
      vertex 31.6819 -37.7184 20.5319
      vertex 36.2287 -33.9422 28.7888
    endloop
  endfacet
  facet normal 0.5 0.5 -0.707107
    outer loop
      vertex 46.9756 -25.6891 15.3538
      vertex 41.9756 -30.6891 8.28271
      vertex 45.7287 -24.4422 15.3538
    endloop
  endfacet
  facet normal 0.5 0.5 -0.707107
    outer loop
      vertex 45.7287 -24.4422 15.3538
      vertex 41.9756 -30.6891 8.28271
      vertex 40.7287 -29.4422 8.28271
    endloop
  endfacet
  facet normal -0.51799 0.827007 -0.218508
    outer loop
      vertex 48.1994 -25.2359 14.1679
      vertex 43.1994 -30.2359 7.09686
      vertex 46.9756 -25.6891 15.3538
    endloop
  endfacet
  facet normal -0.51799 0.827007 -0.218508
    outer loop
      vertex 46.9756 -25.6891 15.3538
      vertex 43.1994 -30.2359 7.09686
      vertex 41.9756 -30.6891 8.28271
    endloop
  endfacet
  facet normal -0.820135 0.0111186 0.572061
    outer loop
      vertex 47.7089 -23.7089 13.435
      vertex 42.7089 -28.7089 6.36396
      vertex 48.1994 -25.2359 14.1679
    endloop
  endfacet
  facet normal -0.820135 0.0111186 0.572061
    outer loop
      vertex 48.1994 -25.2359 14.1679
      vertex 42.7089 -28.7089 6.36396
      vertex 43.1994 -30.2359 7.09686
    endloop
  endfacet
  facet normal 0.0111186 -0.820135 0.572061
    outer loop
      vertex 42.7089 -28.7089 6.36396
      vertex 47.7089 -23.7089 13.435
      vertex 46.1819 -23.2184 14.1679
    endloop
  endfacet
  facet normal 0.0111186 -0.820135 0.572061
    outer loop
      vertex 41.1819 -28.2184 7.09686
      vertex 42.7089 -28.7089 6.36396
      vertex 46.1819 -23.2184 14.1679
    endloop
  endfacet
  facet normal 0.827007 -0.51799 -0.218508
    outer loop
      vertex 41.1819 -28.2184 7.09686
      vertex 46.1819 -23.2184 14.1679
      vertex 45.7287 -24.4422 15.3538
    endloop
  endfacet
  facet normal 0.827007 -0.51799 -0.218508
    outer loop
      vertex 40.7287 -29.4422 8.28271
      vertex 41.1819 -28.2184 7.09686
      vertex 45.7287 -24.4422 15.3538
    endloop
  endfacet
  facet normal 0.5 0.5 0.707107
    outer loop
      vertex 32.4756 -40.1891 21.7177
      vertex 33.6994 -39.7359 20.5319
      vertex 33.2089 -38.2089 19.799
    endloop
  endfacet
  facet normal 0.5 0.5 0.707107
    outer loop
      vertex 31.2287 -38.9422 21.7177
      vertex 32.4756 -40.1891 21.7177
      vertex 31.6819 -37.7184 20.5319
    endloop
  endfacet
  facet normal 0.5 0.5 0.707107
    outer loop
      vertex 31.6819 -37.7184 20.5319
      vertex 32.4756 -40.1891 21.7177
      vertex 33.2089 -38.2089 19.799
    endloop
  endfacet
  facet normal 0.5 0.5 0.707107
    outer loop
      vertex 41.9756 -30.6891 8.28271
      vertex 43.1994 -30.2359 7.09686
      vertex 42.7089 -28.7089 6.36396
    endloop
  endfacet
  facet normal 0.5 0.5 0.707107
    outer loop
      vertex 40.7287 -29.4422 8.28271
      vertex 41.9756 -30.6891 8.28271
      vertex 41.1819 -28.2184 7.09686
    endloop
  endfacet
  facet normal 0.5 0.5 0.707107
    outer loop
      vertex 41.1819 -28.2184 7.09686
      vertex 41.9756 -30.6891 8.28271
      vertex 42.7089 -28.7089 6.36396
    endloop
  endfacet
endsolid OpenSCAD_Model
