solid OpenSCAD_Model
  facet normal -1 0 0
    outer loop
      vertex -21.5 -46.5 -2.5
      vertex -21.5 -49.0774 -2.5
      vertex -21.5 -46.5 19.0359
    endloop
  endfacet
  facet normal -1 0 0
    outer loop
      vertex -21.5 -46.5 19.0359
      vertex -21.5 -49.0774 -2.5
      vertex -21.5 -57.5 12.0885
    endloop
  endfacet
  facet normal -1 0 0
    outer loop
      vertex -21.5 -46.5 19.0359
      vertex -21.5 -57.5 12.0885
      vertex -21.5 -57.5 21.5
    endloop
  endfacet
  facet normal -1 0 0
    outer loop
      vertex -21.5 -46.5 19.0359
      vertex -21.5 -57.5 21.5
      vertex -21.5 -47.9226 21.5
    endloop
  endfacet
  facet normal 0 -6.12323e-17 -1
    outer loop
      vertex -21.5 -46.5 -2.5
      vertex -15 -46.5 -2.5
      vertex -21.5 -49.0774 -2.5
    endloop
  endfacet
  facet normal 0 -6.12323e-17 -1
    outer loop
      vertex -11.5 42 -2.5
      vertex -15 -46.5 -2.5
      vertex -15 47.5 -2.5
    endloop
  endfacet
  facet normal 0 -6.12323e-17 -1
    outer loop
      vertex -10.7678 -40.2322 -2.5
      vertex -15 -46.5 -2.5
      vertex 15 47.5 -2.5
    endloop
  endfacet
  facet normal 0 -6.12323e-17 -1
    outer loop
      vertex 5.5 -47.5 -2.5
      vertex -15 -46.5 -2.5
      vertex 15 -47.5 -2.5
    endloop
  endfacet
  facet normal 0 -6.12323e-17 -1
    outer loop
      vertex -21.5 -49.0774 -2.5
      vertex -15 -46.5 -2.5
      vertex 5.5 -47.5 -2.5
    endloop
  endfacet
  facet normal 0 -6.12323e-17 -1
    outer loop
      vertex -10.7678 40.2322 -2.5
      vertex -15 -46.5 -2.5
      vertex -11.5 42 -2.5
    endloop
  endfacet
  facet normal 0 -6.12323e-17 -1
    outer loop
      vertex -6.5 42 -2.5
      vertex 15 47.5 -2.5
      vertex -7.23223 40.2322 -2.5
    endloop
  endfacet
  facet normal 0 -6.12323e-17 -1
    outer loop
      vertex -9 44.5 -2.5
      vertex -10.7678 43.7678 -2.5
      vertex -15 47.5 -2.5
    endloop
  endfacet
  facet normal 0 -6.12323e-17 -1
    outer loop
      vertex -10.7678 43.7678 -2.5
      vertex -11.5 42 -2.5
      vertex -15 47.5 -2.5
    endloop
  endfacet
  facet normal 0 -6.12323e-17 -1
    outer loop
      vertex -11.5 18 -2.5
      vertex -15 -46.5 -2.5
      vertex -10.7678 40.2322 -2.5
    endloop
  endfacet
  facet normal 0 -6.12323e-17 -1
    outer loop
      vertex 15 47.5 -2.5
      vertex -9 39.5 -2.5
      vertex -7.23223 40.2322 -2.5
    endloop
  endfacet
  facet normal 0 -6.12323e-17 -1
    outer loop
      vertex -9 44.5 -2.5
      vertex 15 47.5 -2.5
      vertex -7.23223 43.7678 -2.5
    endloop
  endfacet
  facet normal 0 -6.12323e-17 -1
    outer loop
      vertex 15 47.5 -2.5
      vertex -6.5 42 -2.5
      vertex -7.23223 43.7678 -2.5
    endloop
  endfacet
  facet normal 0 -6.12323e-17 -1
    outer loop
      vertex -11.5 -4 -2.5
      vertex -15 -46.5 -2.5
      vertex -11.5 4 -2.5
    endloop
  endfacet
  facet normal 0 -6.12323e-17 -1
    outer loop
      vertex -10.7678 19.7678 -2.5
      vertex -9 39.5 -2.5
      vertex -9 20.5 -2.5
    endloop
  endfacet
  facet normal 0 -6.12323e-17 -1
    outer loop
      vertex 15 47.5 -2.5
      vertex -9 44.5 -2.5
      vertex -15 47.5 -2.5
    endloop
  endfacet
  facet normal 0 -6.12323e-17 -1
    outer loop
      vertex -8.5 -4 -2.5
      vertex -10.7678 -16.2322 -2.5
      vertex -11.5 -18 -2.5
    endloop
  endfacet
  facet normal 0 -6.12323e-17 -1
    outer loop
      vertex -9 39.5 -2.5
      vertex -10.7678 19.7678 -2.5
      vertex -10.7678 40.2322 -2.5
    endloop
  endfacet
  facet normal 0 -6.12323e-17 -1
    outer loop
      vertex -10.7678 19.7678 -2.5
      vertex -11.5 18 -2.5
      vertex -10.7678 40.2322 -2.5
    endloop
  endfacet
  facet normal 0 -6.12323e-17 -1
    outer loop
      vertex -11.5 4 -2.5
      vertex -15 -46.5 -2.5
      vertex -10.7678 16.2322 -2.5
    endloop
  endfacet
  facet normal 0 -6.12323e-17 -1
    outer loop
      vertex -10.7678 16.2322 -2.5
      vertex -15 -46.5 -2.5
      vertex -11.5 18 -2.5
    endloop
  endfacet
  facet normal 0 -6.12323e-17 -1
    outer loop
      vertex -8.5 -4 -2.5
      vertex -11.5 -18 -2.5
      vertex -11.5 -4 -2.5
    endloop
  endfacet
  facet normal 0 -6.12323e-17 -1
    outer loop
      vertex -7.23223 19.7678 -2.5
      vertex -9 20.5 -2.5
      vertex -9 39.5 -2.5
    endloop
  endfacet
  facet normal 0 -6.12323e-17 -1
    outer loop
      vertex -3.03647 22.5734 -2.5
      vertex -7.23223 16.2322 -2.5
      vertex -6.5 18 -2.5
    endloop
  endfacet
  facet normal 0 -6.12323e-17 -1
    outer loop
      vertex -10.7678 -16.2322 -2.5
      vertex 5 24 -2.5
      vertex 15 47.5 -2.5
    endloop
  endfacet
  facet normal 0 -6.12323e-17 -1
    outer loop
      vertex -11.5 4 -2.5
      vertex -9 15.5 -2.5
      vertex -7.23223 16.2322 -2.5
    endloop
  endfacet
  facet normal 0 -6.12323e-17 -1
    outer loop
      vertex -4.71352 24.8817 -2.5
      vertex -7.23223 19.7678 -2.5
      vertex -9 39.5 -2.5
    endloop
  endfacet
  facet normal 0 -6.12323e-17 -1
    outer loop
      vertex -9 15.5 -2.5
      vertex -11.5 4 -2.5
      vertex -10.7678 16.2322 -2.5
    endloop
  endfacet
  facet normal 0 -6.12323e-17 -1
    outer loop
      vertex -3.03647 25.4266 -2.5
      vertex 9 39.5 -2.5
      vertex -2 24 -2.5
    endloop
  endfacet
  facet normal 0 -6.12323e-17 -1
    outer loop
      vertex -10.7678 -16.2322 -2.5
      vertex 15 47.5 -2.5
      vertex -9 -15.5 -2.5
    endloop
  endfacet
  facet normal 0 -6.12323e-17 -1
    outer loop
      vertex 2.28647 24.8817 -2.5
      vertex -8.5 -4 -2.5
      vertex -7.23223 16.2322 -2.5
    endloop
  endfacet
  facet normal 0 -6.12323e-17 -1
    outer loop
      vertex -10.7678 -16.2322 -2.5
      vertex 3.96352 22.5734 -2.5
      vertex 5 24 -2.5
    endloop
  endfacet
  facet normal 0 -6.12323e-17 -1
    outer loop
      vertex -8.5 -4 -2.5
      vertex -8.5 4 -2.5
      vertex -7.23223 16.2322 -2.5
    endloop
  endfacet
  facet normal 0 -6.12323e-17 -1
    outer loop
      vertex -10.7678 -19.7678 -2.5
      vertex -15 -46.5 -2.5
      vertex -11.5 -18 -2.5
    endloop
  endfacet
  facet normal 0 -6.12323e-17 -1
    outer loop
      vertex -10.7678 -16.2322 -2.5
      vertex -8.5 -4 -2.5
      vertex 3.96352 22.5734 -2.5
    endloop
  endfacet
  facet normal 0 -6.12323e-17 -1
    outer loop
      vertex -7.23223 -16.2322 -2.5
      vertex 15 47.5 -2.5
      vertex -6.5 -18 -2.5
    endloop
  endfacet
  facet normal 0 -6.12323e-17 -1
    outer loop
      vertex -9 -20.5 -2.5
      vertex -15 -46.5 -2.5
      vertex -10.7678 -19.7678 -2.5
    endloop
  endfacet
  facet normal 0 -6.12323e-17 -1
    outer loop
      vertex -4.71352 -24.8817 -2.5
      vertex -9 -39.5 -2.5
      vertex -4.71352 -23.1183 -2.5
    endloop
  endfacet
  facet normal 0 -6.12323e-17 -1
    outer loop
      vertex -7.23223 -19.7678 -2.5
      vertex -15 -46.5 -2.5
      vertex -9 -20.5 -2.5
    endloop
  endfacet
  facet normal 0 -6.12323e-17 -1
    outer loop
      vertex -6.5 -18 -2.5
      vertex -15 -46.5 -2.5
      vertex -7.23223 -19.7678 -2.5
    endloop
  endfacet
  facet normal 0 -6.12323e-17 -1
    outer loop
      vertex 15 47.5 -2.5
      vertex -15 -46.5 -2.5
      vertex -6.5 -18 -2.5
    endloop
  endfacet
  facet normal 0 -6.12323e-17 -1
    outer loop
      vertex -9 -15.5 -2.5
      vertex 15 47.5 -2.5
      vertex -7.23223 -16.2322 -2.5
    endloop
  endfacet
  facet normal 0 -6.12323e-17 -1
    outer loop
      vertex -7.23223 -43.7678 -2.5
      vertex 15 -47.5 -2.5
      vertex -9 -44.5 -2.5
    endloop
  endfacet
  facet normal 0 -6.12323e-17 -1
    outer loop
      vertex 9 20.5 -2.5
      vertex 15 47.5 -2.5
      vertex 10.7678 19.7678 -2.5
    endloop
  endfacet
  facet normal 0 -6.12323e-17 -1
    outer loop
      vertex -11.5 -42 -2.5
      vertex -15 -46.5 -2.5
      vertex -10.7678 -40.2322 -2.5
    endloop
  endfacet
  facet normal 0 -6.12323e-17 -1
    outer loop
      vertex 6.5 18 -2.5
      vertex -10.7678 -40.2322 -2.5
      vertex 15 47.5 -2.5
    endloop
  endfacet
  facet normal 0 -6.12323e-17 -1
    outer loop
      vertex -10.7678 -43.7678 -2.5
      vertex -15 -46.5 -2.5
      vertex -11.5 -42 -2.5
    endloop
  endfacet
  facet normal 0 -6.12323e-17 -1
    outer loop
      vertex -9 -44.5 -2.5
      vertex -15 -46.5 -2.5
      vertex -10.7678 -43.7678 -2.5
    endloop
  endfacet
  facet normal 0 -6.12323e-17 -1
    outer loop
      vertex 15 -47.5 -2.5
      vertex -15 -46.5 -2.5
      vertex -9 -44.5 -2.5
    endloop
  endfacet
  facet normal 0 -6.12323e-17 -1
    outer loop
      vertex -6.5 -42 -2.5
      vertex 15 -47.5 -2.5
      vertex -7.23223 -43.7678 -2.5
    endloop
  endfacet
  facet normal 0 -6.12323e-17 -1
    outer loop
      vertex -7.23223 -40.2322 -2.5
      vertex 15 -47.5 -2.5
      vertex -6.5 -42 -2.5
    endloop
  endfacet
  facet normal 0 -6.12323e-17 -1
    outer loop
      vertex -3.03647 22.5734 -2.5
      vertex -7.23223 19.7678 -2.5
      vertex -4.71352 23.1183 -2.5
    endloop
  endfacet
  facet normal 0 -6.12323e-17 -1
    outer loop
      vertex -3.03647 22.5734 -2.5
      vertex -6.5 18 -2.5
      vertex -7.23223 19.7678 -2.5
    endloop
  endfacet
  facet normal 0 -6.12323e-17 -1
    outer loop
      vertex -3.03647 -22.5734 -2.5
      vertex 7.23223 16.2322 -2.5
      vertex -2 -24 -2.5
    endloop
  endfacet
  facet normal 0 -6.12323e-17 -1
    outer loop
      vertex -4.71352 23.1183 -2.5
      vertex -7.23223 19.7678 -2.5
      vertex -4.71352 24.8817 -2.5
    endloop
  endfacet
  facet normal 0 -6.12323e-17 -1
    outer loop
      vertex 7.23223 43.7678 -2.5
      vertex -4.71352 24.8817 -2.5
      vertex -9 39.5 -2.5
    endloop
  endfacet
  facet normal 0 -6.12323e-17 -1
    outer loop
      vertex -2 24 -2.5
      vertex -7.23223 16.2322 -2.5
      vertex -3.03647 22.5734 -2.5
    endloop
  endfacet
  facet normal 0 -6.12323e-17 -1
    outer loop
      vertex 10.7678 40.2322 -2.5
      vertex -7.23223 16.2322 -2.5
      vertex -2 24 -2.5
    endloop
  endfacet
  facet normal 0 -6.12323e-17 -1
    outer loop
      vertex 7.23223 16.2322 -2.5
      vertex -10.7678 -40.2322 -2.5
      vertex 6.5 18 -2.5
    endloop
  endfacet
  facet normal 0 -6.12323e-17 -1
    outer loop
      vertex 10.7678 40.2322 -2.5
      vertex -2 24 -2.5
      vertex 9 39.5 -2.5
    endloop
  endfacet
  facet normal 0 -6.12323e-17 -1
    outer loop
      vertex -9 -39.5 -2.5
      vertex -10.7678 -40.2322 -2.5
      vertex -4.71352 -23.1183 -2.5
    endloop
  endfacet
  facet normal 0 -6.12323e-17 -1
    outer loop
      vertex -3.03647 -25.4266 -2.5
      vertex -7.23223 -40.2322 -2.5
      vertex -4.71352 -24.8817 -2.5
    endloop
  endfacet
  facet normal 0 -6.12323e-17 -1
    outer loop
      vertex -7.23223 -40.2322 -2.5
      vertex -9 -39.5 -2.5
      vertex -4.71352 -24.8817 -2.5
    endloop
  endfacet
  facet normal 0 -6.12323e-17 -1
    outer loop
      vertex 2.28647 24.8817 -2.5
      vertex 15 47.5 -2.5
      vertex 3.96352 25.4266 -2.5
    endloop
  endfacet
  facet normal 0 -6.12323e-17 -1
    outer loop
      vertex 7.23223 -40.2322 -2.5
      vertex -7.23223 -40.2322 -2.5
      vertex -3.03647 -25.4266 -2.5
    endloop
  endfacet
  facet normal 0 -6.12323e-17 -1
    outer loop
      vertex 9 -39.5 -2.5
      vertex -3.03647 -25.4266 -2.5
      vertex -2 -24 -2.5
    endloop
  endfacet
  facet normal 0 -6.12323e-17 -1
    outer loop
      vertex 2.28647 23.1183 -2.5
      vertex -8.5 -4 -2.5
      vertex 2.28647 24.8817 -2.5
    endloop
  endfacet
  facet normal 0 -6.12323e-17 -1
    outer loop
      vertex 10.7678 40.2322 -2.5
      vertex 2.28647 24.8817 -2.5
      vertex -7.23223 16.2322 -2.5
    endloop
  endfacet
  facet normal 0 -6.12323e-17 -1
    outer loop
      vertex 3.96352 -22.5734 -2.5
      vertex 8.5 4 -2.5
      vertex 5 -24 -2.5
    endloop
  endfacet
  facet normal 0 -6.12323e-17 -1
    outer loop
      vertex 3.96352 22.5734 -2.5
      vertex -8.5 -4 -2.5
      vertex 2.28647 23.1183 -2.5
    endloop
  endfacet
  facet normal 0 -6.12323e-17 -1
    outer loop
      vertex 3.96352 25.4266 -2.5
      vertex 15 47.5 -2.5
      vertex 5 24 -2.5
    endloop
  endfacet
  facet normal 0 -6.12323e-17 -1
    outer loop
      vertex 3.96352 -25.4266 -2.5
      vertex 15 -47.5 -2.5
      vertex 2.28647 -24.8817 -2.5
    endloop
  endfacet
  facet normal 0 -6.12323e-17 -1
    outer loop
      vertex 2.28647 -24.8817 -2.5
      vertex -2 -24 -2.5
      vertex 2.28647 -23.1183 -2.5
    endloop
  endfacet
  facet normal 0 -6.12323e-17 -1
    outer loop
      vertex 11.5 -4 -2.5
      vertex 11.5 -18 -2.5
      vertex 10.7678 -16.2322 -2.5
    endloop
  endfacet
  facet normal 0 -6.12323e-17 -1
    outer loop
      vertex 8.5 4 -2.5
      vertex 10.7678 16.2322 -2.5
      vertex 11.5 4 -2.5
    endloop
  endfacet
  facet normal 0 -6.12323e-17 -1
    outer loop
      vertex 15 -47.5 -2.5
      vertex 3.96352 -25.4266 -2.5
      vertex 5 -24 -2.5
    endloop
  endfacet
  facet normal 0 -6.12323e-17 -1
    outer loop
      vertex 10.7678 19.7678 -2.5
      vertex 15 47.5 -2.5
      vertex 11.5 18 -2.5
    endloop
  endfacet
  facet normal 0 -6.12323e-17 -1
    outer loop
      vertex 6.5 42 -2.5
      vertex -4.71352 24.8817 -2.5
      vertex 7.23223 43.7678 -2.5
    endloop
  endfacet
  facet normal 0 -6.12323e-17 -1
    outer loop
      vertex 15 47.5 -2.5
      vertex 7.23223 43.7678 -2.5
      vertex -9 39.5 -2.5
    endloop
  endfacet
  facet normal 0 -6.12323e-17 -1
    outer loop
      vertex 7.23223 40.2322 -2.5
      vertex -4.71352 24.8817 -2.5
      vertex 6.5 42 -2.5
    endloop
  endfacet
  facet normal 0 -6.12323e-17 -1
    outer loop
      vertex 7.23223 16.2322 -2.5
      vertex -3.03647 -22.5734 -2.5
      vertex -4.71352 -23.1183 -2.5
    endloop
  endfacet
  facet normal 0 -6.12323e-17 -1
    outer loop
      vertex 9 15.5 -2.5
      vertex -2 -24 -2.5
      vertex 7.23223 16.2322 -2.5
    endloop
  endfacet
  facet normal 0 -6.12323e-17 -1
    outer loop
      vertex -11.5 4 -2.5
      vertex -7.23223 16.2322 -2.5
      vertex -8.5 4 -2.5
    endloop
  endfacet
  facet normal 0 -6.12323e-17 -1
    outer loop
      vertex 15 47.5 -2.5
      vertex 2.28647 24.8817 -2.5
      vertex 10.7678 40.2322 -2.5
    endloop
  endfacet
  facet normal 0 -6.12323e-17 -1
    outer loop
      vertex 10.7678 43.7678 -2.5
      vertex 15 47.5 -2.5
      vertex 11.5 42 -2.5
    endloop
  endfacet
  facet normal 0 -6.12323e-17 -1
    outer loop
      vertex 15 47.5 -2.5
      vertex 10.7678 40.2322 -2.5
      vertex 11.5 42 -2.5
    endloop
  endfacet
  facet normal 0 -6.12323e-17 -1
    outer loop
      vertex 9 44.5 -2.5
      vertex 15 47.5 -2.5
      vertex 10.7678 43.7678 -2.5
    endloop
  endfacet
  facet normal 0 -6.12323e-17 -1
    outer loop
      vertex 8.5 4 -2.5
      vertex 3.96352 -22.5734 -2.5
      vertex 2.28647 -23.1183 -2.5
    endloop
  endfacet
  facet normal 0 -6.12323e-17 -1
    outer loop
      vertex 7.23223 19.7678 -2.5
      vertex 15 47.5 -2.5
      vertex 9 20.5 -2.5
    endloop
  endfacet
  facet normal 0 -6.12323e-17 -1
    outer loop
      vertex 15 47.5 -2.5
      vertex 9 44.5 -2.5
      vertex 7.23223 43.7678 -2.5
    endloop
  endfacet
  facet normal 0 -6.12323e-17 -1
    outer loop
      vertex 7.23223 16.2322 -2.5
      vertex -4.71352 -23.1183 -2.5
      vertex -10.7678 -40.2322 -2.5
    endloop
  endfacet
  facet normal 0 -6.12323e-17 -1
    outer loop
      vertex 10.7678 16.2322 -2.5
      vertex 8.5 4 -2.5
      vertex 2.28647 -23.1183 -2.5
    endloop
  endfacet
  facet normal 0 -6.12323e-17 -1
    outer loop
      vertex 7.23223 19.7678 -2.5
      vertex 6.5 18 -2.5
      vertex 15 47.5 -2.5
    endloop
  endfacet
  facet normal 0 -6.12323e-17 -1
    outer loop
      vertex 10.7678 16.2322 -2.5
      vertex 2.28647 -23.1183 -2.5
      vertex 9 15.5 -2.5
    endloop
  endfacet
  facet normal 0 -6.12323e-17 -1
    outer loop
      vertex 2.28647 -23.1183 -2.5
      vertex -2 -24 -2.5
      vertex 9 15.5 -2.5
    endloop
  endfacet
  facet normal 0 -6.12323e-17 -1
    outer loop
      vertex 8.5 -4 -2.5
      vertex 6.5 -18 -2.5
      vertex 5 -24 -2.5
    endloop
  endfacet
  facet normal 0 -6.12323e-17 -1
    outer loop
      vertex 11.5 -4 -2.5
      vertex 9 -15.5 -2.5
      vertex 7.23223 -16.2322 -2.5
    endloop
  endfacet
  facet normal 0 -6.12323e-17 -1
    outer loop
      vertex 15 -47.5 -2.5
      vertex 10.7678 16.2322 -2.5
      vertex 11.5 18 -2.5
    endloop
  endfacet
  facet normal 0 -6.12323e-17 -1
    outer loop
      vertex 15 -47.5 -2.5
      vertex 11.5 18 -2.5
      vertex 15 47.5 -2.5
    endloop
  endfacet
  facet normal 0 -6.12323e-17 -1
    outer loop
      vertex 9 39.5 -2.5
      vertex -3.03647 25.4266 -2.5
      vertex -4.71352 24.8817 -2.5
    endloop
  endfacet
  facet normal 0 -6.12323e-17 -1
    outer loop
      vertex 9 39.5 -2.5
      vertex -4.71352 24.8817 -2.5
      vertex 7.23223 40.2322 -2.5
    endloop
  endfacet
  facet normal 0 -6.12323e-17 -1
    outer loop
      vertex 11.5 -4 -2.5
      vertex 10.7678 -16.2322 -2.5
      vertex 9 -15.5 -2.5
    endloop
  endfacet
  facet normal 0 -6.12323e-17 -1
    outer loop
      vertex 7.23223 -19.7678 -2.5
      vertex 5 -24 -2.5
      vertex 6.5 -18 -2.5
    endloop
  endfacet
  facet normal 0 -6.12323e-17 -1
    outer loop
      vertex 9 -20.5 -2.5
      vertex 15 -47.5 -2.5
      vertex 7.23223 -19.7678 -2.5
    endloop
  endfacet
  facet normal 0 -6.12323e-17 -1
    outer loop
      vertex 11.5 -4 -2.5
      vertex 7.23223 -16.2322 -2.5
      vertex 8.5 -4 -2.5
    endloop
  endfacet
  facet normal 0 -6.12323e-17 -1
    outer loop
      vertex 15 -47.5 -2.5
      vertex 5 -24 -2.5
      vertex 7.23223 -19.7678 -2.5
    endloop
  endfacet
  facet normal 0 -6.12323e-17 -1
    outer loop
      vertex 15 -47.5 -2.5
      vertex 9 -20.5 -2.5
      vertex 10.7678 -19.7678 -2.5
    endloop
  endfacet
  facet normal 0 -6.12323e-17 -1
    outer loop
      vertex 15 -47.5 -2.5
      vertex 10.7678 -19.7678 -2.5
      vertex 11.5 -18 -2.5
    endloop
  endfacet
  facet normal 0 -6.12323e-17 -1
    outer loop
      vertex 7.23223 -40.2322 -2.5
      vertex -3.03647 -25.4266 -2.5
      vertex 9 -39.5 -2.5
    endloop
  endfacet
  facet normal 0 -6.12323e-17 -1
    outer loop
      vertex 6.5 -42 -2.5
      vertex -7.23223 -40.2322 -2.5
      vertex 7.23223 -40.2322 -2.5
    endloop
  endfacet
  facet normal 0 -6.12323e-17 -1
    outer loop
      vertex 10.7678 -43.7678 -2.5
      vertex 15 -47.5 -2.5
      vertex 9 -44.5 -2.5
    endloop
  endfacet
  facet normal 0 -6.12323e-17 -1
    outer loop
      vertex 7.23223 -43.7678 -2.5
      vertex -7.23223 -40.2322 -2.5
      vertex 6.5 -42 -2.5
    endloop
  endfacet
  facet normal 0 -6.12323e-17 -1
    outer loop
      vertex 15 -47.5 -2.5
      vertex -7.23223 -40.2322 -2.5
      vertex 7.23223 -43.7678 -2.5
    endloop
  endfacet
  facet normal 0 -6.12323e-17 -1
    outer loop
      vertex 15 -47.5 -2.5
      vertex 7.23223 -43.7678 -2.5
      vertex 9 -44.5 -2.5
    endloop
  endfacet
  facet normal 0 -6.12323e-17 -1
    outer loop
      vertex 11.5 -42 -2.5
      vertex 15 -47.5 -2.5
      vertex 10.7678 -43.7678 -2.5
    endloop
  endfacet
  facet normal 0 -6.12323e-17 -1
    outer loop
      vertex 9 -39.5 -2.5
      vertex -2 -24 -2.5
      vertex 2.28647 -24.8817 -2.5
    endloop
  endfacet
  facet normal 0 -6.12323e-17 -1
    outer loop
      vertex 15 -47.5 -2.5
      vertex 11.5 -42 -2.5
      vertex 10.7678 -40.2322 -2.5
    endloop
  endfacet
  facet normal 0 -6.12323e-17 -1
    outer loop
      vertex 15 -47.5 -2.5
      vertex 10.7678 -40.2322 -2.5
      vertex 2.28647 -24.8817 -2.5
    endloop
  endfacet
  facet normal 0 -6.12323e-17 -1
    outer loop
      vertex 9 -39.5 -2.5
      vertex 2.28647 -24.8817 -2.5
      vertex 10.7678 -40.2322 -2.5
    endloop
  endfacet
  facet normal 0 -6.12323e-17 -1
    outer loop
      vertex 7.23223 -16.2322 -2.5
      vertex 6.5 -18 -2.5
      vertex 8.5 -4 -2.5
    endloop
  endfacet
  facet normal 0 -6.12323e-17 -1
    outer loop
      vertex 15 -47.5 -2.5
      vertex 11.5 -18 -2.5
      vertex 11.5 -4 -2.5
    endloop
  endfacet
  facet normal 0 -6.12323e-17 -1
    outer loop
      vertex 15 -47.5 -2.5
      vertex 11.5 -4 -2.5
      vertex 11.5 4 -2.5
    endloop
  endfacet
  facet normal 0 -6.12323e-17 -1
    outer loop
      vertex 15 -47.5 -2.5
      vertex 11.5 4 -2.5
      vertex 10.7678 16.2322 -2.5
    endloop
  endfacet
  facet normal 0 -6.12323e-17 -1
    outer loop
      vertex 5.5 -49.0774 -2.5
      vertex -21.5 -49.0774 -2.5
      vertex 5.5 -47.5 -2.5
    endloop
  endfacet
  facet normal 0 -6.12323e-17 -1
    outer loop
      vertex -11.5 -18 -2.5
      vertex -15 -46.5 -2.5
      vertex -11.5 -4 -2.5
    endloop
  endfacet
  facet normal 0 -6.12323e-17 -1
    outer loop
      vertex 8.5 -4 -2.5
      vertex 5 -24 -2.5
      vertex 8.5 4 -2.5
    endloop
  endfacet
  facet normal 0 1 -6.12323e-17
    outer loop
      vertex -21.5 -46.5 -2.5
      vertex -21.5 -46.5 19.0359
      vertex -15 -46.5 -2.5
    endloop
  endfacet
  facet normal 0 1 -6.12323e-17
    outer loop
      vertex -15 -46.5 -2.5
      vertex -21.5 -46.5 19.0359
      vertex -15 -46.5 19.0359
    endloop
  endfacet
  facet normal 0 0.866025 0.5
    outer loop
      vertex -21.5 -46.5 19.0359
      vertex -21.5 -47.9226 21.5
      vertex -15 -46.5 19.0359
    endloop
  endfacet
  facet normal 0 0.866025 0.5
    outer loop
      vertex -15 -46.5 19.0359
      vertex -21.5 -47.9226 21.5
      vertex 5.5 -47.9226 21.5
    endloop
  endfacet
  facet normal 0 0.866025 0.5
    outer loop
      vertex -14 -46.5 19.0359
      vertex 5.5 -47.9226 21.5
      vertex 5.5 -46.5 19.0359
    endloop
  endfacet
  facet normal 0 0.866025 0.5
    outer loop
      vertex -15 -46.5 19.0359
      vertex 5.5 -47.9226 21.5
      vertex -14 -46.5 19.0359
    endloop
  endfacet
  facet normal 0 0.866025 0.5
    outer loop
      vertex -14 -46.5 19.0359
      vertex -14 -36.953 2.5
      vertex -15 -46.5 19.0359
    endloop
  endfacet
  facet normal 0 0.866025 0.5
    outer loop
      vertex -15 -46.5 19.0359
      vertex -14 -36.953 2.5
      vertex -15 -36.953 2.5
    endloop
  endfacet
  facet normal 0 6.12323e-17 1
    outer loop
      vertex -19.2135 -51.3817 21.5
      vertex -21.5 -47.9226 21.5
      vertex -21.5 -57.5 21.5
    endloop
  endfacet
  facet normal 0 6.12323e-17 1
    outer loop
      vertex -17.5365 -51.9266 21.5
      vertex -19.2135 -51.3817 21.5
      vertex -21.5 -57.5 21.5
    endloop
  endfacet
  facet normal 0 6.12323e-17 1
    outer loop
      vertex -19.2135 -49.6183 21.5
      vertex -21.5 -47.9226 21.5
      vertex -19.2135 -51.3817 21.5
    endloop
  endfacet
  facet normal 0 6.12323e-17 1
    outer loop
      vertex -17.5365 -49.0734 21.5
      vertex -21.5 -47.9226 21.5
      vertex -19.2135 -49.6183 21.5
    endloop
  endfacet
  facet normal 0 6.12323e-17 1
    outer loop
      vertex -16.5 -50.5 21.5
      vertex -17.5365 -51.9266 21.5
      vertex 5.5 -47.9226 21.5
    endloop
  endfacet
  facet normal 0 6.12323e-17 1
    outer loop
      vertex 5.5 -47.9226 21.5
      vertex -21.5 -47.9226 21.5
      vertex -17.5365 -49.0734 21.5
    endloop
  endfacet
  facet normal 0 6.12323e-17 1
    outer loop
      vertex -0.213525 -51.3817 21.5
      vertex -0.213525 -49.6183 21.5
      vertex -21.5 -57.5 21.5
    endloop
  endfacet
  facet normal 0 6.12323e-17 1
    outer loop
      vertex -0.213525 -49.6183 21.5
      vertex -17.5365 -51.9266 21.5
      vertex -21.5 -57.5 21.5
    endloop
  endfacet
  facet normal 0 6.12323e-17 1
    outer loop
      vertex 5.5 -57.5 21.5
      vertex -0.213525 -51.3817 21.5
      vertex -21.5 -57.5 21.5
    endloop
  endfacet
  facet normal 0 6.12323e-17 1
    outer loop
      vertex 1.46352 -49.0734 21.5
      vertex -17.5365 -51.9266 21.5
      vertex -0.213525 -49.6183 21.5
    endloop
  endfacet
  facet normal 0 6.12323e-17 1
    outer loop
      vertex 5.5 -47.9226 21.5
      vertex -17.5365 -51.9266 21.5
      vertex 1.46352 -49.0734 21.5
    endloop
  endfacet
  facet normal 0 6.12323e-17 1
    outer loop
      vertex 5.5 -57.5 21.5
      vertex 5.5 -47.9226 21.5
      vertex 2.5 -50.5 21.5
    endloop
  endfacet
  facet normal 0 6.12323e-17 1
    outer loop
      vertex 5.5 -57.5 21.5
      vertex 1.46352 -51.9266 21.5
      vertex -0.213525 -51.3817 21.5
    endloop
  endfacet
  facet normal 0 6.12323e-17 1
    outer loop
      vertex 5.5 -57.5 21.5
      vertex 2.5 -50.5 21.5
      vertex 1.46352 -51.9266 21.5
    endloop
  endfacet
  facet normal 0 6.12323e-17 1
    outer loop
      vertex -17.5365 -49.0734 21.5
      vertex -16.5 -50.5 21.5
      vertex 5.5 -47.9226 21.5
    endloop
  endfacet
  facet normal 0 6.12323e-17 1
    outer loop
      vertex 1.46352 -49.0734 21.5
      vertex 2.5 -50.5 21.5
      vertex 5.5 -47.9226 21.5
    endloop
  endfacet
  facet normal 0 -1 6.12323e-17
    outer loop
      vertex -21.5 -57.5 21.5
      vertex -21.5 -57.5 12.0885
      vertex 5.5 -57.5 12.0885
    endloop
  endfacet
  facet normal 0 -1 6.12323e-17
    outer loop
      vertex 5.5 -57.5 21.5
      vertex -21.5 -57.5 21.5
      vertex 5.5 -57.5 12.0885
    endloop
  endfacet
  facet normal 0 -0.866025 -0.5
    outer loop
      vertex -21.5 -57.5 12.0885
      vertex -21.5 -49.0774 -2.5
      vertex 5.5 -49.0774 -2.5
    endloop
  endfacet
  facet normal 0 -0.866025 -0.5
    outer loop
      vertex 5.5 -57.5 12.0885
      vertex -21.5 -57.5 12.0885
      vertex 5.5 -49.0774 -2.5
    endloop
  endfacet
  facet normal 1 0 0
    outer loop
      vertex 5.5 -49.0774 -2.5
      vertex 5.5 -47.5 -2.5
      vertex 5.5 -47.5 2.5
    endloop
  endfacet
  facet normal 1 0 0
    outer loop
      vertex 5.5 -46.5 19.0359
      vertex 5.5 -49.0774 -2.5
      vertex 5.5 -47.5 2.5
    endloop
  endfacet
  facet normal 1 0 0
    outer loop
      vertex 5.5 -46.5 2.5
      vertex 5.5 -46.5 19.0359
      vertex 5.5 -47.5 2.5
    endloop
  endfacet
  facet normal 1 0 0
    outer loop
      vertex 5.5 -46.5 19.0359
      vertex 5.5 -47.9226 21.5
      vertex 5.5 -49.0774 -2.5
    endloop
  endfacet
  facet normal 1 0 0
    outer loop
      vertex 5.5 -47.9226 21.5
      vertex 5.5 -57.5 21.5
      vertex 5.5 -49.0774 -2.5
    endloop
  endfacet
  facet normal 1 0 0
    outer loop
      vertex 5.5 -57.5 21.5
      vertex 5.5 -57.5 12.0885
      vertex 5.5 -49.0774 -2.5
    endloop
  endfacet
  facet normal 0 -1 6.12323e-17
    outer loop
      vertex 5.5 -47.5 2.5
      vertex 5.5 -47.5 -2.5
      vertex 15 -47.5 -2.5
    endloop
  endfacet
  facet normal 0 -1 6.12323e-17
    outer loop
      vertex 15 -47.5 2.5
      vertex 5.5 -47.5 2.5
      vertex 15 -47.5 -2.5
    endloop
  endfacet
  facet normal 1 0 0
    outer loop
      vertex 15 -47.5 -2.5
      vertex 15 47.5 -2.5
      vertex 15 47.5 2.5
    endloop
  endfacet
  facet normal 1 0 0
    outer loop
      vertex 15 -47.5 2.5
      vertex 15 -47.5 -2.5
      vertex 15 47.5 2.5
    endloop
  endfacet
  facet normal 0 1 -6.12323e-17
    outer loop
      vertex -15 47.5 -2.5
      vertex -15 47.5 2.5
      vertex 15 47.5 -2.5
    endloop
  endfacet
  facet normal 0 1 -6.12323e-17
    outer loop
      vertex 15 47.5 -2.5
      vertex -15 47.5 2.5
      vertex 15 47.5 2.5
    endloop
  endfacet
  facet normal -1 0 0
    outer loop
      vertex -15 47.5 -2.5
      vertex -15 -46.5 -2.5
      vertex -15 47.5 2.5
    endloop
  endfacet
  facet normal -1 0 0
    outer loop
      vertex -15 -36.953 2.5
      vertex -15 -46.5 -2.5
      vertex -15 -46.5 19.0359
    endloop
  endfacet
  facet normal -1 0 0
    outer loop
      vertex -15 47.5 2.5
      vertex -15 -46.5 -2.5
      vertex -15 -36.953 2.5
    endloop
  endfacet
  facet normal 0.92388 -0.382683 4.68652e-17
    outer loop
      vertex -10.7678 43.7678 -2.5
      vertex -10.7678 43.7678 2.5
      vertex -11.5 42 2.5
    endloop
  endfacet
  facet normal 0.92388 -0.382683 4.68652e-17
    outer loop
      vertex -11.5 42 -2.5
      vertex -10.7678 43.7678 -2.5
      vertex -11.5 42 2.5
    endloop
  endfacet
  facet normal 0.382683 -0.92388 1.13143e-16
    outer loop
      vertex -9 44.5 -2.5
      vertex -9 44.5 2.5
      vertex -10.7678 43.7678 2.5
    endloop
  endfacet
  facet normal 0.382683 -0.92388 1.13143e-16
    outer loop
      vertex -10.7678 43.7678 -2.5
      vertex -9 44.5 -2.5
      vertex -10.7678 43.7678 2.5
    endloop
  endfacet
  facet normal -0.382683 -0.92388 1.13143e-16
    outer loop
      vertex -7.23223 43.7678 -2.5
      vertex -7.23223 43.7678 2.5
      vertex -9 44.5 2.5
    endloop
  endfacet
  facet normal -0.382683 -0.92388 1.13143e-16
    outer loop
      vertex -9 44.5 -2.5
      vertex -7.23223 43.7678 -2.5
      vertex -9 44.5 2.5
    endloop
  endfacet
  facet normal -0.92388 -0.382683 4.68652e-17
    outer loop
      vertex -6.5 42 2.5
      vertex -7.23223 43.7678 2.5
      vertex -6.5 42 -2.5
    endloop
  endfacet
  facet normal -0.92388 -0.382683 4.68652e-17
    outer loop
      vertex -6.5 42 -2.5
      vertex -7.23223 43.7678 2.5
      vertex -7.23223 43.7678 -2.5
    endloop
  endfacet
  facet normal -0.92388 0.382683 -4.68652e-17
    outer loop
      vertex -6.5 42 2.5
      vertex -6.5 42 -2.5
      vertex -7.23223 40.2322 2.5
    endloop
  endfacet
  facet normal -0.92388 0.382683 -4.68652e-17
    outer loop
      vertex -7.23223 40.2322 2.5
      vertex -6.5 42 -2.5
      vertex -7.23223 40.2322 -2.5
    endloop
  endfacet
  facet normal -0.382683 0.92388 -1.13143e-16
    outer loop
      vertex -7.23223 40.2322 2.5
      vertex -7.23223 40.2322 -2.5
      vertex -9 39.5 2.5
    endloop
  endfacet
  facet normal -0.382683 0.92388 -1.13143e-16
    outer loop
      vertex -9 39.5 2.5
      vertex -7.23223 40.2322 -2.5
      vertex -9 39.5 -2.5
    endloop
  endfacet
  facet normal 0.382683 0.92388 -1.13143e-16
    outer loop
      vertex -9 39.5 2.5
      vertex -9 39.5 -2.5
      vertex -10.7678 40.2322 2.5
    endloop
  endfacet
  facet normal 0.382683 0.92388 -1.13143e-16
    outer loop
      vertex -10.7678 40.2322 2.5
      vertex -9 39.5 -2.5
      vertex -10.7678 40.2322 -2.5
    endloop
  endfacet
  facet normal 0.92388 0.382683 -4.68652e-17
    outer loop
      vertex -11.5 42 2.5
      vertex -10.7678 40.2322 2.5
      vertex -10.7678 40.2322 -2.5
    endloop
  endfacet
  facet normal 0.92388 0.382683 -4.68652e-17
    outer loop
      vertex -11.5 42 -2.5
      vertex -11.5 42 2.5
      vertex -10.7678 40.2322 -2.5
    endloop
  endfacet
  facet normal 0.92388 -0.382683 4.68652e-17
    outer loop
      vertex -10.7678 19.7678 -2.5
      vertex -10.7678 19.7678 2.5
      vertex -11.5 18 2.5
    endloop
  endfacet
  facet normal 0.92388 -0.382683 4.68652e-17
    outer loop
      vertex -11.5 18 -2.5
      vertex -10.7678 19.7678 -2.5
      vertex -11.5 18 2.5
    endloop
  endfacet
  facet normal 0.382683 -0.92388 1.13143e-16
    outer loop
      vertex -9 20.5 -2.5
      vertex -9 20.5 2.5
      vertex -10.7678 19.7678 2.5
    endloop
  endfacet
  facet normal 0.382683 -0.92388 1.13143e-16
    outer loop
      vertex -10.7678 19.7678 -2.5
      vertex -9 20.5 -2.5
      vertex -10.7678 19.7678 2.5
    endloop
  endfacet
  facet normal -0.382683 -0.92388 1.13143e-16
    outer loop
      vertex -7.23223 19.7678 -2.5
      vertex -7.23223 19.7678 2.5
      vertex -9 20.5 2.5
    endloop
  endfacet
  facet normal -0.382683 -0.92388 1.13143e-16
    outer loop
      vertex -9 20.5 -2.5
      vertex -7.23223 19.7678 -2.5
      vertex -9 20.5 2.5
    endloop
  endfacet
  facet normal -0.92388 -0.382683 4.68652e-17
    outer loop
      vertex -6.5 18 2.5
      vertex -7.23223 19.7678 2.5
      vertex -6.5 18 -2.5
    endloop
  endfacet
  facet normal -0.92388 -0.382683 4.68652e-17
    outer loop
      vertex -6.5 18 -2.5
      vertex -7.23223 19.7678 2.5
      vertex -7.23223 19.7678 -2.5
    endloop
  endfacet
  facet normal -0.92388 0.382683 -4.68652e-17
    outer loop
      vertex -6.5 18 2.5
      vertex -6.5 18 -2.5
      vertex -7.23223 16.2322 2.5
    endloop
  endfacet
  facet normal -0.92388 0.382683 -4.68652e-17
    outer loop
      vertex -7.23223 16.2322 2.5
      vertex -6.5 18 -2.5
      vertex -7.23223 16.2322 -2.5
    endloop
  endfacet
  facet normal -0.382683 0.92388 -1.13143e-16
    outer loop
      vertex -7.23223 16.2322 2.5
      vertex -7.23223 16.2322 -2.5
      vertex -9 15.5 2.5
    endloop
  endfacet
  facet normal -0.382683 0.92388 -1.13143e-16
    outer loop
      vertex -9 15.5 2.5
      vertex -7.23223 16.2322 -2.5
      vertex -9 15.5 -2.5
    endloop
  endfacet
  facet normal 0.382683 0.92388 -1.13143e-16
    outer loop
      vertex -9 15.5 2.5
      vertex -9 15.5 -2.5
      vertex -10.7678 16.2322 2.5
    endloop
  endfacet
  facet normal 0.382683 0.92388 -1.13143e-16
    outer loop
      vertex -10.7678 16.2322 2.5
      vertex -9 15.5 -2.5
      vertex -10.7678 16.2322 -2.5
    endloop
  endfacet
  facet normal 0.92388 0.382683 -4.68652e-17
    outer loop
      vertex -11.5 18 2.5
      vertex -10.7678 16.2322 2.5
      vertex -10.7678 16.2322 -2.5
    endloop
  endfacet
  facet normal 0.92388 0.382683 -4.68652e-17
    outer loop
      vertex -11.5 18 -2.5
      vertex -11.5 18 2.5
      vertex -10.7678 16.2322 -2.5
    endloop
  endfacet
  facet normal 1 0 0
    outer loop
      vertex -11.5 4 2.5
      vertex -11.5 -4 2.5
      vertex -11.5 -4 -2.5
    endloop
  endfacet
  facet normal 1 0 0
    outer loop
      vertex -11.5 4 -2.5
      vertex -11.5 4 2.5
      vertex -11.5 -4 -2.5
    endloop
  endfacet
  facet normal 0 -1 6.12323e-17
    outer loop
      vertex -8.5 4 -2.5
      vertex -8.5 4 2.5
      vertex -11.5 4 2.5
    endloop
  endfacet
  facet normal 0 -1 6.12323e-17
    outer loop
      vertex -11.5 4 -2.5
      vertex -8.5 4 -2.5
      vertex -11.5 4 2.5
    endloop
  endfacet
  facet normal -1 0 0
    outer loop
      vertex -8.5 -4 2.5
      vertex -8.5 4 2.5
      vertex -8.5 -4 -2.5
    endloop
  endfacet
  facet normal -1 0 0
    outer loop
      vertex -8.5 -4 -2.5
      vertex -8.5 4 2.5
      vertex -8.5 4 -2.5
    endloop
  endfacet
  facet normal 0 1 -6.12323e-17
    outer loop
      vertex -8.5 -4 2.5
      vertex -8.5 -4 -2.5
      vertex -11.5 -4 2.5
    endloop
  endfacet
  facet normal 0 1 -6.12323e-17
    outer loop
      vertex -11.5 -4 2.5
      vertex -8.5 -4 -2.5
      vertex -11.5 -4 -2.5
    endloop
  endfacet
  facet normal 0.92388 -0.382683 4.68652e-17
    outer loop
      vertex -10.7678 -16.2322 -2.5
      vertex -10.7678 -16.2322 2.5
      vertex -11.5 -18 2.5
    endloop
  endfacet
  facet normal 0.92388 -0.382683 4.68652e-17
    outer loop
      vertex -11.5 -18 -2.5
      vertex -10.7678 -16.2322 -2.5
      vertex -11.5 -18 2.5
    endloop
  endfacet
  facet normal 0.382683 -0.92388 1.13143e-16
    outer loop
      vertex -9 -15.5 -2.5
      vertex -9 -15.5 2.5
      vertex -10.7678 -16.2322 2.5
    endloop
  endfacet
  facet normal 0.382683 -0.92388 1.13143e-16
    outer loop
      vertex -10.7678 -16.2322 -2.5
      vertex -9 -15.5 -2.5
      vertex -10.7678 -16.2322 2.5
    endloop
  endfacet
  facet normal -0.382683 -0.92388 1.13143e-16
    outer loop
      vertex -7.23223 -16.2322 -2.5
      vertex -7.23223 -16.2322 2.5
      vertex -9 -15.5 2.5
    endloop
  endfacet
  facet normal -0.382683 -0.92388 1.13143e-16
    outer loop
      vertex -9 -15.5 -2.5
      vertex -7.23223 -16.2322 -2.5
      vertex -9 -15.5 2.5
    endloop
  endfacet
  facet normal -0.92388 -0.382683 4.68652e-17
    outer loop
      vertex -6.5 -18 2.5
      vertex -7.23223 -16.2322 2.5
      vertex -6.5 -18 -2.5
    endloop
  endfacet
  facet normal -0.92388 -0.382683 4.68652e-17
    outer loop
      vertex -6.5 -18 -2.5
      vertex -7.23223 -16.2322 2.5
      vertex -7.23223 -16.2322 -2.5
    endloop
  endfacet
  facet normal -0.92388 0.382683 -4.68652e-17
    outer loop
      vertex -6.5 -18 2.5
      vertex -6.5 -18 -2.5
      vertex -7.23223 -19.7678 2.5
    endloop
  endfacet
  facet normal -0.92388 0.382683 -4.68652e-17
    outer loop
      vertex -7.23223 -19.7678 2.5
      vertex -6.5 -18 -2.5
      vertex -7.23223 -19.7678 -2.5
    endloop
  endfacet
  facet normal -0.382683 0.92388 -1.13143e-16
    outer loop
      vertex -7.23223 -19.7678 2.5
      vertex -7.23223 -19.7678 -2.5
      vertex -9 -20.5 2.5
    endloop
  endfacet
  facet normal -0.382683 0.92388 -1.13143e-16
    outer loop
      vertex -9 -20.5 2.5
      vertex -7.23223 -19.7678 -2.5
      vertex -9 -20.5 -2.5
    endloop
  endfacet
  facet normal 0.382683 0.92388 -1.13143e-16
    outer loop
      vertex -9 -20.5 2.5
      vertex -9 -20.5 -2.5
      vertex -10.7678 -19.7678 2.5
    endloop
  endfacet
  facet normal 0.382683 0.92388 -1.13143e-16
    outer loop
      vertex -10.7678 -19.7678 2.5
      vertex -9 -20.5 -2.5
      vertex -10.7678 -19.7678 -2.5
    endloop
  endfacet
  facet normal 0.92388 0.382683 -4.68652e-17
    outer loop
      vertex -11.5 -18 2.5
      vertex -10.7678 -19.7678 2.5
      vertex -10.7678 -19.7678 -2.5
    endloop
  endfacet
  facet normal 0.92388 0.382683 -4.68652e-17
    outer loop
      vertex -11.5 -18 -2.5
      vertex -11.5 -18 2.5
      vertex -10.7678 -19.7678 -2.5
    endloop
  endfacet
  facet normal 0.92388 -0.382683 4.68652e-17
    outer loop
      vertex -10.7678 -40.2322 -2.5
      vertex -10.7678 -40.2322 2.5
      vertex -11.5 -42 2.5
    endloop
  endfacet
  facet normal 0.92388 -0.382683 4.68652e-17
    outer loop
      vertex -11.5 -42 -2.5
      vertex -10.7678 -40.2322 -2.5
      vertex -11.5 -42 2.5
    endloop
  endfacet
  facet normal 0.382683 -0.92388 1.13143e-16
    outer loop
      vertex -9 -39.5 -2.5
      vertex -9 -39.5 2.5
      vertex -10.7678 -40.2322 2.5
    endloop
  endfacet
  facet normal 0.382683 -0.92388 1.13143e-16
    outer loop
      vertex -10.7678 -40.2322 -2.5
      vertex -9 -39.5 -2.5
      vertex -10.7678 -40.2322 2.5
    endloop
  endfacet
  facet normal -0.382683 -0.92388 1.13143e-16
    outer loop
      vertex -7.23223 -40.2322 -2.5
      vertex -7.23223 -40.2322 2.5
      vertex -9 -39.5 2.5
    endloop
  endfacet
  facet normal -0.382683 -0.92388 1.13143e-16
    outer loop
      vertex -9 -39.5 -2.5
      vertex -7.23223 -40.2322 -2.5
      vertex -9 -39.5 2.5
    endloop
  endfacet
  facet normal -0.92388 -0.382683 4.68652e-17
    outer loop
      vertex -6.5 -42 2.5
      vertex -7.23223 -40.2322 2.5
      vertex -6.5 -42 -2.5
    endloop
  endfacet
  facet normal -0.92388 -0.382683 4.68652e-17
    outer loop
      vertex -6.5 -42 -2.5
      vertex -7.23223 -40.2322 2.5
      vertex -7.23223 -40.2322 -2.5
    endloop
  endfacet
  facet normal -0.92388 0.382683 -4.68652e-17
    outer loop
      vertex -6.5 -42 2.5
      vertex -6.5 -42 -2.5
      vertex -7.23223 -43.7678 2.5
    endloop
  endfacet
  facet normal -0.92388 0.382683 -4.68652e-17
    outer loop
      vertex -7.23223 -43.7678 2.5
      vertex -6.5 -42 -2.5
      vertex -7.23223 -43.7678 -2.5
    endloop
  endfacet
  facet normal -0.382683 0.92388 -1.13143e-16
    outer loop
      vertex -7.23223 -43.7678 2.5
      vertex -7.23223 -43.7678 -2.5
      vertex -9 -44.5 2.5
    endloop
  endfacet
  facet normal -0.382683 0.92388 -1.13143e-16
    outer loop
      vertex -9 -44.5 2.5
      vertex -7.23223 -43.7678 -2.5
      vertex -9 -44.5 -2.5
    endloop
  endfacet
  facet normal 0.382683 0.92388 -1.13143e-16
    outer loop
      vertex -9 -44.5 2.5
      vertex -9 -44.5 -2.5
      vertex -10.7678 -43.7678 2.5
    endloop
  endfacet
  facet normal 0.382683 0.92388 -1.13143e-16
    outer loop
      vertex -10.7678 -43.7678 2.5
      vertex -9 -44.5 -2.5
      vertex -10.7678 -43.7678 -2.5
    endloop
  endfacet
  facet normal 0.92388 0.382683 -4.68652e-17
    outer loop
      vertex -11.5 -42 2.5
      vertex -10.7678 -43.7678 2.5
      vertex -10.7678 -43.7678 -2.5
    endloop
  endfacet
  facet normal 0.92388 0.382683 -4.68652e-17
    outer loop
      vertex -11.5 -42 -2.5
      vertex -11.5 -42 2.5
      vertex -10.7678 -43.7678 -2.5
    endloop
  endfacet
  facet normal 0.309017 -0.951056 1.16471e-16
    outer loop
      vertex -3.03647 25.4266 -2.5
      vertex -3.03647 25.4266 2.5
      vertex -4.71352 24.8817 2.5
    endloop
  endfacet
  facet normal 0.309017 -0.951056 1.16471e-16
    outer loop
      vertex -4.71352 24.8817 -2.5
      vertex -3.03647 25.4266 -2.5
      vertex -4.71352 24.8817 2.5
    endloop
  endfacet
  facet normal 1 0 0
    outer loop
      vertex -4.71352 24.8817 2.5
      vertex -4.71352 23.1183 2.5
      vertex -4.71352 23.1183 -2.5
    endloop
  endfacet
  facet normal 1 0 0
    outer loop
      vertex -4.71352 24.8817 -2.5
      vertex -4.71352 24.8817 2.5
      vertex -4.71352 23.1183 -2.5
    endloop
  endfacet
  facet normal -0.809017 -0.587785 7.19829e-17
    outer loop
      vertex -2 24 2.5
      vertex -3.03647 25.4266 2.5
      vertex -2 24 -2.5
    endloop
  endfacet
  facet normal -0.809017 -0.587785 7.19829e-17
    outer loop
      vertex -2 24 -2.5
      vertex -3.03647 25.4266 2.5
      vertex -3.03647 25.4266 -2.5
    endloop
  endfacet
  facet normal -0.809017 0.587785 -7.19829e-17
    outer loop
      vertex -2 24 2.5
      vertex -2 24 -2.5
      vertex -3.03647 22.5734 2.5
    endloop
  endfacet
  facet normal -0.809017 0.587785 -7.19829e-17
    outer loop
      vertex -3.03647 22.5734 2.5
      vertex -2 24 -2.5
      vertex -3.03647 22.5734 -2.5
    endloop
  endfacet
  facet normal 0.309017 0.951056 -1.16471e-16
    outer loop
      vertex -3.03647 22.5734 2.5
      vertex -3.03647 22.5734 -2.5
      vertex -4.71352 23.1183 2.5
    endloop
  endfacet
  facet normal 0.309017 0.951056 -1.16471e-16
    outer loop
      vertex -4.71352 23.1183 2.5
      vertex -3.03647 22.5734 -2.5
      vertex -4.71352 23.1183 -2.5
    endloop
  endfacet
  facet normal 1 0 0
    outer loop
      vertex -4.71352 -23.1183 2.5
      vertex -4.71352 -24.8817 2.5
      vertex -4.71352 -24.8817 -2.5
    endloop
  endfacet
  facet normal 1 0 0
    outer loop
      vertex -4.71352 -23.1183 -2.5
      vertex -4.71352 -23.1183 2.5
      vertex -4.71352 -24.8817 -2.5
    endloop
  endfacet
  facet normal 0.309017 -0.951056 1.16471e-16
    outer loop
      vertex -3.03647 -22.5734 -2.5
      vertex -3.03647 -22.5734 2.5
      vertex -4.71352 -23.1183 2.5
    endloop
  endfacet
  facet normal 0.309017 -0.951056 1.16471e-16
    outer loop
      vertex -4.71352 -23.1183 -2.5
      vertex -3.03647 -22.5734 -2.5
      vertex -4.71352 -23.1183 2.5
    endloop
  endfacet
  facet normal -0.809017 -0.587785 7.19829e-17
    outer loop
      vertex -2 -24 2.5
      vertex -3.03647 -22.5734 2.5
      vertex -2 -24 -2.5
    endloop
  endfacet
  facet normal -0.809017 -0.587785 7.19829e-17
    outer loop
      vertex -2 -24 -2.5
      vertex -3.03647 -22.5734 2.5
      vertex -3.03647 -22.5734 -2.5
    endloop
  endfacet
  facet normal -0.809017 0.587785 -7.19829e-17
    outer loop
      vertex -2 -24 2.5
      vertex -2 -24 -2.5
      vertex -3.03647 -25.4266 2.5
    endloop
  endfacet
  facet normal -0.809017 0.587785 -7.19829e-17
    outer loop
      vertex -3.03647 -25.4266 2.5
      vertex -2 -24 -2.5
      vertex -3.03647 -25.4266 -2.5
    endloop
  endfacet
  facet normal 0.309017 0.951056 -1.16471e-16
    outer loop
      vertex -3.03647 -25.4266 2.5
      vertex -3.03647 -25.4266 -2.5
      vertex -4.71352 -24.8817 2.5
    endloop
  endfacet
  facet normal 0.309017 0.951056 -1.16471e-16
    outer loop
      vertex -4.71352 -24.8817 2.5
      vertex -3.03647 -25.4266 -2.5
      vertex -4.71352 -24.8817 -2.5
    endloop
  endfacet
  facet normal 1 0 0
    outer loop
      vertex 2.28647 24.8817 2.5
      vertex 2.28647 23.1183 2.5
      vertex 2.28647 23.1183 -2.5
    endloop
  endfacet
  facet normal 1 0 0
    outer loop
      vertex 2.28647 24.8817 -2.5
      vertex 2.28647 24.8817 2.5
      vertex 2.28647 23.1183 -2.5
    endloop
  endfacet
  facet normal 0.309017 -0.951056 1.16471e-16
    outer loop
      vertex 3.96352 25.4266 -2.5
      vertex 3.96352 25.4266 2.5
      vertex 2.28647 24.8817 2.5
    endloop
  endfacet
  facet normal 0.309017 -0.951056 1.16471e-16
    outer loop
      vertex 2.28647 24.8817 -2.5
      vertex 3.96352 25.4266 -2.5
      vertex 2.28647 24.8817 2.5
    endloop
  endfacet
  facet normal -0.809017 -0.587785 7.19829e-17
    outer loop
      vertex 5 24 2.5
      vertex 3.96352 25.4266 2.5
      vertex 5 24 -2.5
    endloop
  endfacet
  facet normal -0.809017 -0.587785 7.19829e-17
    outer loop
      vertex 5 24 -2.5
      vertex 3.96352 25.4266 2.5
      vertex 3.96352 25.4266 -2.5
    endloop
  endfacet
  facet normal -0.809017 0.587785 -7.19829e-17
    outer loop
      vertex 5 24 2.5
      vertex 5 24 -2.5
      vertex 3.96352 22.5734 2.5
    endloop
  endfacet
  facet normal -0.809017 0.587785 -7.19829e-17
    outer loop
      vertex 3.96352 22.5734 2.5
      vertex 5 24 -2.5
      vertex 3.96352 22.5734 -2.5
    endloop
  endfacet
  facet normal 0.309017 0.951056 -1.16471e-16
    outer loop
      vertex 3.96352 22.5734 2.5
      vertex 3.96352 22.5734 -2.5
      vertex 2.28647 23.1183 2.5
    endloop
  endfacet
  facet normal 0.309017 0.951056 -1.16471e-16
    outer loop
      vertex 2.28647 23.1183 2.5
      vertex 3.96352 22.5734 -2.5
      vertex 2.28647 23.1183 -2.5
    endloop
  endfacet
  facet normal 1 0 0
    outer loop
      vertex 2.28647 -23.1183 2.5
      vertex 2.28647 -24.8817 2.5
      vertex 2.28647 -24.8817 -2.5
    endloop
  endfacet
  facet normal 1 0 0
    outer loop
      vertex 2.28647 -23.1183 -2.5
      vertex 2.28647 -23.1183 2.5
      vertex 2.28647 -24.8817 -2.5
    endloop
  endfacet
  facet normal 0.309017 -0.951056 1.16471e-16
    outer loop
      vertex 3.96352 -22.5734 -2.5
      vertex 3.96352 -22.5734 2.5
      vertex 2.28647 -23.1183 2.5
    endloop
  endfacet
  facet normal 0.309017 -0.951056 1.16471e-16
    outer loop
      vertex 2.28647 -23.1183 -2.5
      vertex 3.96352 -22.5734 -2.5
      vertex 2.28647 -23.1183 2.5
    endloop
  endfacet
  facet normal -0.809017 -0.587785 7.19829e-17
    outer loop
      vertex 5 -24 2.5
      vertex 3.96352 -22.5734 2.5
      vertex 5 -24 -2.5
    endloop
  endfacet
  facet normal -0.809017 -0.587785 7.19829e-17
    outer loop
      vertex 5 -24 -2.5
      vertex 3.96352 -22.5734 2.5
      vertex 3.96352 -22.5734 -2.5
    endloop
  endfacet
  facet normal -0.809017 0.587785 -7.19829e-17
    outer loop
      vertex 5 -24 2.5
      vertex 5 -24 -2.5
      vertex 3.96352 -25.4266 2.5
    endloop
  endfacet
  facet normal -0.809017 0.587785 -7.19829e-17
    outer loop
      vertex 3.96352 -25.4266 2.5
      vertex 5 -24 -2.5
      vertex 3.96352 -25.4266 -2.5
    endloop
  endfacet
  facet normal 0.309017 0.951056 -1.16471e-16
    outer loop
      vertex 3.96352 -25.4266 2.5
      vertex 3.96352 -25.4266 -2.5
      vertex 2.28647 -24.8817 2.5
    endloop
  endfacet
  facet normal 0.309017 0.951056 -1.16471e-16
    outer loop
      vertex 2.28647 -24.8817 2.5
      vertex 3.96352 -25.4266 -2.5
      vertex 2.28647 -24.8817 -2.5
    endloop
  endfacet
  facet normal 0.92388 -0.382683 4.68652e-17
    outer loop
      vertex 7.23223 43.7678 -2.5
      vertex 7.23223 43.7678 2.5
      vertex 6.5 42 2.5
    endloop
  endfacet
  facet normal 0.92388 -0.382683 4.68652e-17
    outer loop
      vertex 6.5 42 -2.5
      vertex 7.23223 43.7678 -2.5
      vertex 6.5 42 2.5
    endloop
  endfacet
  facet normal 0.382683 -0.92388 1.13143e-16
    outer loop
      vertex 9 44.5 -2.5
      vertex 9 44.5 2.5
      vertex 7.23223 43.7678 2.5
    endloop
  endfacet
  facet normal 0.382683 -0.92388 1.13143e-16
    outer loop
      vertex 7.23223 43.7678 -2.5
      vertex 9 44.5 -2.5
      vertex 7.23223 43.7678 2.5
    endloop
  endfacet
  facet normal -0.382683 -0.92388 1.13143e-16
    outer loop
      vertex 10.7678 43.7678 -2.5
      vertex 10.7678 43.7678 2.5
      vertex 9 44.5 2.5
    endloop
  endfacet
  facet normal -0.382683 -0.92388 1.13143e-16
    outer loop
      vertex 9 44.5 -2.5
      vertex 10.7678 43.7678 -2.5
      vertex 9 44.5 2.5
    endloop
  endfacet
  facet normal -0.92388 -0.382683 4.68652e-17
    outer loop
      vertex 11.5 42 2.5
      vertex 10.7678 43.7678 2.5
      vertex 11.5 42 -2.5
    endloop
  endfacet
  facet normal -0.92388 -0.382683 4.68652e-17
    outer loop
      vertex 11.5 42 -2.5
      vertex 10.7678 43.7678 2.5
      vertex 10.7678 43.7678 -2.5
    endloop
  endfacet
  facet normal -0.92388 0.382683 -4.68652e-17
    outer loop
      vertex 11.5 42 2.5
      vertex 11.5 42 -2.5
      vertex 10.7678 40.2322 2.5
    endloop
  endfacet
  facet normal -0.92388 0.382683 -4.68652e-17
    outer loop
      vertex 10.7678 40.2322 2.5
      vertex 11.5 42 -2.5
      vertex 10.7678 40.2322 -2.5
    endloop
  endfacet
  facet normal -0.382683 0.92388 -1.13143e-16
    outer loop
      vertex 10.7678 40.2322 2.5
      vertex 10.7678 40.2322 -2.5
      vertex 9 39.5 2.5
    endloop
  endfacet
  facet normal -0.382683 0.92388 -1.13143e-16
    outer loop
      vertex 9 39.5 2.5
      vertex 10.7678 40.2322 -2.5
      vertex 9 39.5 -2.5
    endloop
  endfacet
  facet normal 0.382683 0.92388 -1.13143e-16
    outer loop
      vertex 9 39.5 2.5
      vertex 9 39.5 -2.5
      vertex 7.23223 40.2322 2.5
    endloop
  endfacet
  facet normal 0.382683 0.92388 -1.13143e-16
    outer loop
      vertex 7.23223 40.2322 2.5
      vertex 9 39.5 -2.5
      vertex 7.23223 40.2322 -2.5
    endloop
  endfacet
  facet normal 0.92388 0.382683 -4.68652e-17
    outer loop
      vertex 6.5 42 2.5
      vertex 7.23223 40.2322 2.5
      vertex 7.23223 40.2322 -2.5
    endloop
  endfacet
  facet normal 0.92388 0.382683 -4.68652e-17
    outer loop
      vertex 6.5 42 -2.5
      vertex 6.5 42 2.5
      vertex 7.23223 40.2322 -2.5
    endloop
  endfacet
  facet normal 0.92388 -0.382683 4.68652e-17
    outer loop
      vertex 7.23223 19.7678 -2.5
      vertex 7.23223 19.7678 2.5
      vertex 6.5 18 2.5
    endloop
  endfacet
  facet normal 0.92388 -0.382683 4.68652e-17
    outer loop
      vertex 6.5 18 -2.5
      vertex 7.23223 19.7678 -2.5
      vertex 6.5 18 2.5
    endloop
  endfacet
  facet normal 0.382683 -0.92388 1.13143e-16
    outer loop
      vertex 9 20.5 -2.5
      vertex 9 20.5 2.5
      vertex 7.23223 19.7678 2.5
    endloop
  endfacet
  facet normal 0.382683 -0.92388 1.13143e-16
    outer loop
      vertex 7.23223 19.7678 -2.5
      vertex 9 20.5 -2.5
      vertex 7.23223 19.7678 2.5
    endloop
  endfacet
  facet normal -0.382683 -0.92388 1.13143e-16
    outer loop
      vertex 10.7678 19.7678 -2.5
      vertex 10.7678 19.7678 2.5
      vertex 9 20.5 2.5
    endloop
  endfacet
  facet normal -0.382683 -0.92388 1.13143e-16
    outer loop
      vertex 9 20.5 -2.5
      vertex 10.7678 19.7678 -2.5
      vertex 9 20.5 2.5
    endloop
  endfacet
  facet normal -0.92388 -0.382683 4.68652e-17
    outer loop
      vertex 11.5 18 2.5
      vertex 10.7678 19.7678 2.5
      vertex 11.5 18 -2.5
    endloop
  endfacet
  facet normal -0.92388 -0.382683 4.68652e-17
    outer loop
      vertex 11.5 18 -2.5
      vertex 10.7678 19.7678 2.5
      vertex 10.7678 19.7678 -2.5
    endloop
  endfacet
  facet normal -0.92388 0.382683 -4.68652e-17
    outer loop
      vertex 11.5 18 2.5
      vertex 11.5 18 -2.5
      vertex 10.7678 16.2322 2.5
    endloop
  endfacet
  facet normal -0.92388 0.382683 -4.68652e-17
    outer loop
      vertex 10.7678 16.2322 2.5
      vertex 11.5 18 -2.5
      vertex 10.7678 16.2322 -2.5
    endloop
  endfacet
  facet normal -0.382683 0.92388 -1.13143e-16
    outer loop
      vertex 10.7678 16.2322 2.5
      vertex 10.7678 16.2322 -2.5
      vertex 9 15.5 2.5
    endloop
  endfacet
  facet normal -0.382683 0.92388 -1.13143e-16
    outer loop
      vertex 9 15.5 2.5
      vertex 10.7678 16.2322 -2.5
      vertex 9 15.5 -2.5
    endloop
  endfacet
  facet normal 0.382683 0.92388 -1.13143e-16
    outer loop
      vertex 9 15.5 2.5
      vertex 9 15.5 -2.5
      vertex 7.23223 16.2322 2.5
    endloop
  endfacet
  facet normal 0.382683 0.92388 -1.13143e-16
    outer loop
      vertex 7.23223 16.2322 2.5
      vertex 9 15.5 -2.5
      vertex 7.23223 16.2322 -2.5
    endloop
  endfacet
  facet normal 0.92388 0.382683 -4.68652e-17
    outer loop
      vertex 6.5 18 2.5
      vertex 7.23223 16.2322 2.5
      vertex 7.23223 16.2322 -2.5
    endloop
  endfacet
  facet normal 0.92388 0.382683 -4.68652e-17
    outer loop
      vertex 6.5 18 -2.5
      vertex 6.5 18 2.5
      vertex 7.23223 16.2322 -2.5
    endloop
  endfacet
  facet normal 0.382683 -0.92388 1.13143e-16
    outer loop
      vertex 9 -15.5 -2.5
      vertex 9 -15.5 2.5
      vertex 7.23223 -16.2322 2.5
    endloop
  endfacet
  facet normal 0.382683 -0.92388 1.13143e-16
    outer loop
      vertex 7.23223 -16.2322 -2.5
      vertex 9 -15.5 -2.5
      vertex 7.23223 -16.2322 2.5
    endloop
  endfacet
  facet normal 0.92388 -0.382683 4.68652e-17
    outer loop
      vertex 7.23223 -16.2322 -2.5
      vertex 7.23223 -16.2322 2.5
      vertex 6.5 -18 2.5
    endloop
  endfacet
  facet normal 0.92388 -0.382683 4.68652e-17
    outer loop
      vertex 6.5 -18 -2.5
      vertex 7.23223 -16.2322 -2.5
      vertex 6.5 -18 2.5
    endloop
  endfacet
  facet normal -0.382683 -0.92388 1.13143e-16
    outer loop
      vertex 10.7678 -16.2322 -2.5
      vertex 10.7678 -16.2322 2.5
      vertex 9 -15.5 2.5
    endloop
  endfacet
  facet normal -0.382683 -0.92388 1.13143e-16
    outer loop
      vertex 9 -15.5 -2.5
      vertex 10.7678 -16.2322 -2.5
      vertex 9 -15.5 2.5
    endloop
  endfacet
  facet normal -0.92388 -0.382683 4.68652e-17
    outer loop
      vertex 11.5 -18 2.5
      vertex 10.7678 -16.2322 2.5
      vertex 11.5 -18 -2.5
    endloop
  endfacet
  facet normal -0.92388 -0.382683 4.68652e-17
    outer loop
      vertex 11.5 -18 -2.5
      vertex 10.7678 -16.2322 2.5
      vertex 10.7678 -16.2322 -2.5
    endloop
  endfacet
  facet normal -0.92388 0.382683 -4.68652e-17
    outer loop
      vertex 11.5 -18 2.5
      vertex 11.5 -18 -2.5
      vertex 10.7678 -19.7678 2.5
    endloop
  endfacet
  facet normal -0.92388 0.382683 -4.68652e-17
    outer loop
      vertex 10.7678 -19.7678 2.5
      vertex 11.5 -18 -2.5
      vertex 10.7678 -19.7678 -2.5
    endloop
  endfacet
  facet normal -0.382683 0.92388 -1.13143e-16
    outer loop
      vertex 10.7678 -19.7678 2.5
      vertex 10.7678 -19.7678 -2.5
      vertex 9 -20.5 2.5
    endloop
  endfacet
  facet normal -0.382683 0.92388 -1.13143e-16
    outer loop
      vertex 9 -20.5 2.5
      vertex 10.7678 -19.7678 -2.5
      vertex 9 -20.5 -2.5
    endloop
  endfacet
  facet normal 0.382683 0.92388 -1.13143e-16
    outer loop
      vertex 9 -20.5 2.5
      vertex 9 -20.5 -2.5
      vertex 7.23223 -19.7678 2.5
    endloop
  endfacet
  facet normal 0.382683 0.92388 -1.13143e-16
    outer loop
      vertex 7.23223 -19.7678 2.5
      vertex 9 -20.5 -2.5
      vertex 7.23223 -19.7678 -2.5
    endloop
  endfacet
  facet normal 0.92388 0.382683 -4.68652e-17
    outer loop
      vertex 6.5 -18 2.5
      vertex 7.23223 -19.7678 2.5
      vertex 7.23223 -19.7678 -2.5
    endloop
  endfacet
  facet normal 0.92388 0.382683 -4.68652e-17
    outer loop
      vertex 6.5 -18 -2.5
      vertex 6.5 -18 2.5
      vertex 7.23223 -19.7678 -2.5
    endloop
  endfacet
  facet normal 0.382683 -0.92388 1.13143e-16
    outer loop
      vertex 9 -39.5 -2.5
      vertex 9 -39.5 2.5
      vertex 7.23223 -40.2322 2.5
    endloop
  endfacet
  facet normal 0.382683 -0.92388 1.13143e-16
    outer loop
      vertex 7.23223 -40.2322 -2.5
      vertex 9 -39.5 -2.5
      vertex 7.23223 -40.2322 2.5
    endloop
  endfacet
  facet normal 0.92388 -0.382683 4.68652e-17
    outer loop
      vertex 7.23223 -40.2322 -2.5
      vertex 7.23223 -40.2322 2.5
      vertex 6.5 -42 2.5
    endloop
  endfacet
  facet normal 0.92388 -0.382683 4.68652e-17
    outer loop
      vertex 6.5 -42 -2.5
      vertex 7.23223 -40.2322 -2.5
      vertex 6.5 -42 2.5
    endloop
  endfacet
  facet normal -0.382683 -0.92388 1.13143e-16
    outer loop
      vertex 10.7678 -40.2322 -2.5
      vertex 10.7678 -40.2322 2.5
      vertex 9 -39.5 2.5
    endloop
  endfacet
  facet normal -0.382683 -0.92388 1.13143e-16
    outer loop
      vertex 9 -39.5 -2.5
      vertex 10.7678 -40.2322 -2.5
      vertex 9 -39.5 2.5
    endloop
  endfacet
  facet normal -0.92388 -0.382683 4.68652e-17
    outer loop
      vertex 11.5 -42 2.5
      vertex 10.7678 -40.2322 2.5
      vertex 11.5 -42 -2.5
    endloop
  endfacet
  facet normal -0.92388 -0.382683 4.68652e-17
    outer loop
      vertex 11.5 -42 -2.5
      vertex 10.7678 -40.2322 2.5
      vertex 10.7678 -40.2322 -2.5
    endloop
  endfacet
  facet normal -0.92388 0.382683 -4.68652e-17
    outer loop
      vertex 11.5 -42 2.5
      vertex 11.5 -42 -2.5
      vertex 10.7678 -43.7678 2.5
    endloop
  endfacet
  facet normal -0.92388 0.382683 -4.68652e-17
    outer loop
      vertex 10.7678 -43.7678 2.5
      vertex 11.5 -42 -2.5
      vertex 10.7678 -43.7678 -2.5
    endloop
  endfacet
  facet normal -0.382683 0.92388 -1.13143e-16
    outer loop
      vertex 10.7678 -43.7678 2.5
      vertex 10.7678 -43.7678 -2.5
      vertex 9 -44.5 2.5
    endloop
  endfacet
  facet normal -0.382683 0.92388 -1.13143e-16
    outer loop
      vertex 9 -44.5 2.5
      vertex 10.7678 -43.7678 -2.5
      vertex 9 -44.5 -2.5
    endloop
  endfacet
  facet normal 0.382683 0.92388 -1.13143e-16
    outer loop
      vertex 9 -44.5 2.5
      vertex 9 -44.5 -2.5
      vertex 7.23223 -43.7678 2.5
    endloop
  endfacet
  facet normal 0.382683 0.92388 -1.13143e-16
    outer loop
      vertex 7.23223 -43.7678 2.5
      vertex 9 -44.5 -2.5
      vertex 7.23223 -43.7678 -2.5
    endloop
  endfacet
  facet normal 0.92388 0.382683 -4.68652e-17
    outer loop
      vertex 6.5 -42 2.5
      vertex 7.23223 -43.7678 2.5
      vertex 7.23223 -43.7678 -2.5
    endloop
  endfacet
  facet normal 0.92388 0.382683 -4.68652e-17
    outer loop
      vertex 6.5 -42 -2.5
      vertex 6.5 -42 2.5
      vertex 7.23223 -43.7678 -2.5
    endloop
  endfacet
  facet normal 1 0 0
    outer loop
      vertex 8.5 4 2.5
      vertex 8.5 -4 2.5
      vertex 8.5 -4 -2.5
    endloop
  endfacet
  facet normal 1 0 0
    outer loop
      vertex 8.5 4 -2.5
      vertex 8.5 4 2.5
      vertex 8.5 -4 -2.5
    endloop
  endfacet
  facet normal 0 -1 6.12323e-17
    outer loop
      vertex 11.5 4 -2.5
      vertex 11.5 4 2.5
      vertex 8.5 4 2.5
    endloop
  endfacet
  facet normal 0 -1 6.12323e-17
    outer loop
      vertex 8.5 4 -2.5
      vertex 11.5 4 -2.5
      vertex 8.5 4 2.5
    endloop
  endfacet
  facet normal -1 0 0
    outer loop
      vertex 11.5 -4 2.5
      vertex 11.5 4 2.5
      vertex 11.5 -4 -2.5
    endloop
  endfacet
  facet normal -1 0 0
    outer loop
      vertex 11.5 -4 -2.5
      vertex 11.5 4 2.5
      vertex 11.5 4 -2.5
    endloop
  endfacet
  facet normal 0 1 -6.12323e-17
    outer loop
      vertex 11.5 -4 2.5
      vertex 11.5 -4 -2.5
      vertex 8.5 -4 2.5
    endloop
  endfacet
  facet normal 0 1 -6.12323e-17
    outer loop
      vertex 8.5 -4 2.5
      vertex 11.5 -4 -2.5
      vertex 8.5 -4 -2.5
    endloop
  endfacet
  facet normal 0 6.12323e-17 1
    outer loop
      vertex -11.5 42 2.5
      vertex -15 47.5 2.5
      vertex -15 -36.953 2.5
    endloop
  endfacet
  facet normal 0 6.12323e-17 1
    outer loop
      vertex -7.23223 -19.7678 2.5
      vertex -15 -36.953 2.5
      vertex -14 -36.953 2.5
    endloop
  endfacet
  facet normal 0 6.12323e-17 1
    outer loop
      vertex -11.5 -42 2.5
      vertex 15 47.5 2.5
      vertex -14 -46.5 2.5
    endloop
  endfacet
  facet normal 0 6.12323e-17 1
    outer loop
      vertex 11.5 -18 2.5
      vertex 10.7678 -19.7678 2.5
      vertex 15 -47.5 2.5
    endloop
  endfacet
  facet normal 0 6.12323e-17 1
    outer loop
      vertex -10.7678 40.2322 2.5
      vertex -11.5 42 2.5
      vertex -15 -36.953 2.5
    endloop
  endfacet
  facet normal 0 6.12323e-17 1
    outer loop
      vertex -10.7678 43.7678 2.5
      vertex -15 47.5 2.5
      vertex -11.5 42 2.5
    endloop
  endfacet
  facet normal 0 6.12323e-17 1
    outer loop
      vertex -9 44.5 2.5
      vertex -15 47.5 2.5
      vertex -10.7678 43.7678 2.5
    endloop
  endfacet
  facet normal 0 6.12323e-17 1
    outer loop
      vertex -7.23223 43.7678 2.5
      vertex -6.5 42 2.5
      vertex 15 47.5 2.5
    endloop
  endfacet
  facet normal 0 6.12323e-17 1
    outer loop
      vertex 15 47.5 2.5
      vertex -15 47.5 2.5
      vertex -9 44.5 2.5
    endloop
  endfacet
  facet normal 0 6.12323e-17 1
    outer loop
      vertex -11.5 4 2.5
      vertex -7.23223 16.2322 2.5
      vertex -9 15.5 2.5
    endloop
  endfacet
  facet normal 0 6.12323e-17 1
    outer loop
      vertex -11.5 -18 2.5
      vertex -11.5 -4 2.5
      vertex -15 -36.953 2.5
    endloop
  endfacet
  facet normal 0 6.12323e-17 1
    outer loop
      vertex -11.5 18 2.5
      vertex -10.7678 40.2322 2.5
      vertex -15 -36.953 2.5
    endloop
  endfacet
  facet normal 0 6.12323e-17 1
    outer loop
      vertex -9 39.5 2.5
      vertex -10.7678 40.2322 2.5
      vertex -11.5 18 2.5
    endloop
  endfacet
  facet normal 0 6.12323e-17 1
    outer loop
      vertex -10.7678 -19.7678 2.5
      vertex -11.5 -18 2.5
      vertex -15 -36.953 2.5
    endloop
  endfacet
  facet normal 0 6.12323e-17 1
    outer loop
      vertex -9 39.5 2.5
      vertex -11.5 18 2.5
      vertex -10.7678 19.7678 2.5
    endloop
  endfacet
  facet normal 0 6.12323e-17 1
    outer loop
      vertex -11.5 -18 2.5
      vertex -10.7678 -16.2322 2.5
      vertex -8.5 -4 2.5
    endloop
  endfacet
  facet normal 0 6.12323e-17 1
    outer loop
      vertex -6.5 42 2.5
      vertex -7.23223 40.2322 2.5
      vertex -9 20.5 2.5
    endloop
  endfacet
  facet normal 0 6.12323e-17 1
    outer loop
      vertex -11.5 -4 2.5
      vertex -11.5 4 2.5
      vertex -15 -36.953 2.5
    endloop
  endfacet
  facet normal 0 6.12323e-17 1
    outer loop
      vertex -4.71352 23.1183 2.5
      vertex -6.5 42 2.5
      vertex -7.23223 19.7678 2.5
    endloop
  endfacet
  facet normal 0 6.12323e-17 1
    outer loop
      vertex -11.5 4 2.5
      vertex -8.5 4 2.5
      vertex -6.5 18 2.5
    endloop
  endfacet
  facet normal 0 6.12323e-17 1
    outer loop
      vertex -3.03647 25.4266 2.5
      vertex -2 24 2.5
      vertex 9 39.5 2.5
    endloop
  endfacet
  facet normal 0 6.12323e-17 1
    outer loop
      vertex -11.5 4 2.5
      vertex -6.5 18 2.5
      vertex -7.23223 16.2322 2.5
    endloop
  endfacet
  facet normal 0 6.12323e-17 1
    outer loop
      vertex -11.5 4 2.5
      vertex -10.7678 16.2322 2.5
      vertex -15 -36.953 2.5
    endloop
  endfacet
  facet normal 0 6.12323e-17 1
    outer loop
      vertex -9 20.5 2.5
      vertex -7.23223 19.7678 2.5
      vertex -6.5 42 2.5
    endloop
  endfacet
  facet normal 0 6.12323e-17 1
    outer loop
      vertex -9 15.5 2.5
      vertex -10.7678 16.2322 2.5
      vertex -11.5 4 2.5
    endloop
  endfacet
  facet normal 0 6.12323e-17 1
    outer loop
      vertex -3.03647 22.5734 2.5
      vertex -7.23223 19.7678 2.5
      vertex -6.5 18 2.5
    endloop
  endfacet
  facet normal 0 6.12323e-17 1
    outer loop
      vertex -3.03647 22.5734 2.5
      vertex -6.5 18 2.5
      vertex -8.5 4 2.5
    endloop
  endfacet
  facet normal 0 6.12323e-17 1
    outer loop
      vertex 2.28647 23.1183 2.5
      vertex -8.5 4 2.5
      vertex -8.5 -4 2.5
    endloop
  endfacet
  facet normal 0 6.12323e-17 1
    outer loop
      vertex -3.03647 22.5734 2.5
      vertex -4.71352 23.1183 2.5
      vertex -7.23223 19.7678 2.5
    endloop
  endfacet
  facet normal 0 6.12323e-17 1
    outer loop
      vertex -9 -15.5 2.5
      vertex -7.23223 -16.2322 2.5
      vertex 15 47.5 2.5
    endloop
  endfacet
  facet normal 0 6.12323e-17 1
    outer loop
      vertex 5 24 2.5
      vertex -8.5 -4 2.5
      vertex -10.7678 -16.2322 2.5
    endloop
  endfacet
  facet normal 0 6.12323e-17 1
    outer loop
      vertex -7.23223 -16.2322 2.5
      vertex -6.5 -18 2.5
      vertex 15 47.5 2.5
    endloop
  endfacet
  facet normal 0 6.12323e-17 1
    outer loop
      vertex 15 47.5 2.5
      vertex -10.7678 -16.2322 2.5
      vertex -9 -15.5 2.5
    endloop
  endfacet
  facet normal 0 6.12323e-17 1
    outer loop
      vertex -9 -20.5 2.5
      vertex -10.7678 -19.7678 2.5
      vertex -15 -36.953 2.5
    endloop
  endfacet
  facet normal 0 6.12323e-17 1
    outer loop
      vertex -7.23223 -19.7678 2.5
      vertex -9 -20.5 2.5
      vertex -15 -36.953 2.5
    endloop
  endfacet
  facet normal 0 6.12323e-17 1
    outer loop
      vertex -14 -46.5 2.5
      vertex -6.5 -18 2.5
      vertex -14 -36.953 2.5
    endloop
  endfacet
  facet normal 0 6.12323e-17 1
    outer loop
      vertex -14 -46.5 2.5
      vertex 15 47.5 2.5
      vertex -6.5 -18 2.5
    endloop
  endfacet
  facet normal 0 6.12323e-17 1
    outer loop
      vertex -6.5 -18 2.5
      vertex -7.23223 -19.7678 2.5
      vertex -14 -36.953 2.5
    endloop
  endfacet
  facet normal 0 6.12323e-17 1
    outer loop
      vertex -7.23223 -40.2322 2.5
      vertex -6.5 -42 2.5
      vertex 5.5 -46.5 2.5
    endloop
  endfacet
  facet normal 0 6.12323e-17 1
    outer loop
      vertex -10.7678 -43.7678 2.5
      vertex -11.5 -42 2.5
      vertex -14 -46.5 2.5
    endloop
  endfacet
  facet normal 0 6.12323e-17 1
    outer loop
      vertex -10.7678 -40.2322 2.5
      vertex 15 47.5 2.5
      vertex -11.5 -42 2.5
    endloop
  endfacet
  facet normal 0 6.12323e-17 1
    outer loop
      vertex 6.5 18 2.5
      vertex 15 47.5 2.5
      vertex -10.7678 -40.2322 2.5
    endloop
  endfacet
  facet normal 0 6.12323e-17 1
    outer loop
      vertex -6.5 -42 2.5
      vertex -7.23223 -43.7678 2.5
      vertex 5.5 -46.5 2.5
    endloop
  endfacet
  facet normal 0 6.12323e-17 1
    outer loop
      vertex 7.23223 19.7678 2.5
      vertex 9 20.5 2.5
      vertex 15 47.5 2.5
    endloop
  endfacet
  facet normal 0 6.12323e-17 1
    outer loop
      vertex 9 20.5 2.5
      vertex 10.7678 19.7678 2.5
      vertex 15 47.5 2.5
    endloop
  endfacet
  facet normal 0 6.12323e-17 1
    outer loop
      vertex -3.03647 -22.5734 2.5
      vertex -2 -24 2.5
      vertex 7.23223 16.2322 2.5
    endloop
  endfacet
  facet normal 0 6.12323e-17 1
    outer loop
      vertex -9 -44.5 2.5
      vertex -10.7678 -43.7678 2.5
      vertex -14 -46.5 2.5
    endloop
  endfacet
  facet normal 0 6.12323e-17 1
    outer loop
      vertex 10.7678 40.2322 2.5
      vertex -2 24 2.5
      vertex 2.28647 24.8817 2.5
    endloop
  endfacet
  facet normal 0 6.12323e-17 1
    outer loop
      vertex 5.5 -46.5 2.5
      vertex -9 -44.5 2.5
      vertex -14 -46.5 2.5
    endloop
  endfacet
  facet normal 0 6.12323e-17 1
    outer loop
      vertex 5.5 -46.5 2.5
      vertex -7.23223 -43.7678 2.5
      vertex -9 -44.5 2.5
    endloop
  endfacet
  facet normal 0 6.12323e-17 1
    outer loop
      vertex 3.96352 22.5734 2.5
      vertex 2.28647 23.1183 2.5
      vertex -8.5 -4 2.5
    endloop
  endfacet
  facet normal 0 6.12323e-17 1
    outer loop
      vertex -4.71352 24.8817 2.5
      vertex -6.5 42 2.5
      vertex -4.71352 23.1183 2.5
    endloop
  endfacet
  facet normal 0 6.12323e-17 1
    outer loop
      vertex 6.5 42 2.5
      vertex -6.5 42 2.5
      vertex -4.71352 24.8817 2.5
    endloop
  endfacet
  facet normal 0 6.12323e-17 1
    outer loop
      vertex 7.23223 16.2322 2.5
      vertex 6.5 18 2.5
      vertex -4.71352 -23.1183 2.5
    endloop
  endfacet
  facet normal 0 6.12323e-17 1
    outer loop
      vertex 2.28647 24.8817 2.5
      vertex -2 24 2.5
      vertex -8.5 4 2.5
    endloop
  endfacet
  facet normal 0 6.12323e-17 1
    outer loop
      vertex 10.7678 43.7678 2.5
      vertex 11.5 42 2.5
      vertex 15 47.5 2.5
    endloop
  endfacet
  facet normal 0 6.12323e-17 1
    outer loop
      vertex -2 24 2.5
      vertex -3.03647 22.5734 2.5
      vertex -8.5 4 2.5
    endloop
  endfacet
  facet normal 0 6.12323e-17 1
    outer loop
      vertex 11.5 -4 2.5
      vertex 8.5 -4 2.5
      vertex 7.23223 -16.2322 2.5
    endloop
  endfacet
  facet normal 0 6.12323e-17 1
    outer loop
      vertex -7.23223 -40.2322 2.5
      vertex -4.71352 -24.8817 2.5
      vertex -9 -39.5 2.5
    endloop
  endfacet
  facet normal 0 6.12323e-17 1
    outer loop
      vertex -9 -39.5 2.5
      vertex -4.71352 -23.1183 2.5
      vertex -10.7678 -40.2322 2.5
    endloop
  endfacet
  facet normal 0 6.12323e-17 1
    outer loop
      vertex -4.71352 -24.8817 2.5
      vertex -4.71352 -23.1183 2.5
      vertex -9 -39.5 2.5
    endloop
  endfacet
  facet normal 0 6.12323e-17 1
    outer loop
      vertex 5.5 -46.5 2.5
      vertex -2 -24 2.5
      vertex -7.23223 -40.2322 2.5
    endloop
  endfacet
  facet normal 0 6.12323e-17 1
    outer loop
      vertex 9 15.5 2.5
      vertex -2 -24 2.5
      vertex 2.28647 -23.1183 2.5
    endloop
  endfacet
  facet normal 0 6.12323e-17 1
    outer loop
      vertex -2 -24 2.5
      vertex -3.03647 -25.4266 2.5
      vertex -7.23223 -40.2322 2.5
    endloop
  endfacet
  facet normal 0 6.12323e-17 1
    outer loop
      vertex 3.96352 25.4266 2.5
      vertex 5 24 2.5
      vertex 15 47.5 2.5
    endloop
  endfacet
  facet normal 0 6.12323e-17 1
    outer loop
      vertex 2.28647 24.8817 2.5
      vertex 3.96352 25.4266 2.5
      vertex 15 47.5 2.5
    endloop
  endfacet
  facet normal 0 6.12323e-17 1
    outer loop
      vertex 9 39.5 2.5
      vertex 7.23223 40.2322 2.5
      vertex -4.71352 24.8817 2.5
    endloop
  endfacet
  facet normal 0 6.12323e-17 1
    outer loop
      vertex 2.28647 23.1183 2.5
      vertex 2.28647 24.8817 2.5
      vertex -8.5 4 2.5
    endloop
  endfacet
  facet normal 0 6.12323e-17 1
    outer loop
      vertex 15 47.5 2.5
      vertex 5 24 2.5
      vertex -10.7678 -16.2322 2.5
    endloop
  endfacet
  facet normal 0 6.12323e-17 1
    outer loop
      vertex 3.96352 22.5734 2.5
      vertex -8.5 -4 2.5
      vertex 5 24 2.5
    endloop
  endfacet
  facet normal 0 6.12323e-17 1
    outer loop
      vertex 5.5 -46.5 2.5
      vertex 2.28647 -24.8817 2.5
      vertex -2 -24 2.5
    endloop
  endfacet
  facet normal 0 6.12323e-17 1
    outer loop
      vertex 2.28647 -24.8817 2.5
      vertex 2.28647 -23.1183 2.5
      vertex -2 -24 2.5
    endloop
  endfacet
  facet normal 0 6.12323e-17 1
    outer loop
      vertex 5 -24 2.5
      vertex 3.96352 -25.4266 2.5
      vertex 5.5 -46.5 2.5
    endloop
  endfacet
  facet normal 0 6.12323e-17 1
    outer loop
      vertex 9 44.5 2.5
      vertex 10.7678 43.7678 2.5
      vertex 15 47.5 2.5
    endloop
  endfacet
  facet normal 0 6.12323e-17 1
    outer loop
      vertex 5.5 -46.5 2.5
      vertex 3.96352 -25.4266 2.5
      vertex 2.28647 -24.8817 2.5
    endloop
  endfacet
  facet normal 0 6.12323e-17 1
    outer loop
      vertex 7.23223 40.2322 2.5
      vertex 6.5 42 2.5
      vertex -4.71352 24.8817 2.5
    endloop
  endfacet
  facet normal 0 6.12323e-17 1
    outer loop
      vertex 7.23223 43.7678 2.5
      vertex -6.5 42 2.5
      vertex 6.5 42 2.5
    endloop
  endfacet
  facet normal 0 6.12323e-17 1
    outer loop
      vertex 15 47.5 2.5
      vertex -6.5 42 2.5
      vertex 7.23223 43.7678 2.5
    endloop
  endfacet
  facet normal 0 6.12323e-17 1
    outer loop
      vertex 9 39.5 2.5
      vertex -4.71352 24.8817 2.5
      vertex -3.03647 25.4266 2.5
    endloop
  endfacet
  facet normal 0 6.12323e-17 1
    outer loop
      vertex 15 47.5 2.5
      vertex 7.23223 43.7678 2.5
      vertex 9 44.5 2.5
    endloop
  endfacet
  facet normal 0 6.12323e-17 1
    outer loop
      vertex 10.7678 16.2322 2.5
      vertex 9 15.5 2.5
      vertex 2.28647 -23.1183 2.5
    endloop
  endfacet
  facet normal 0 6.12323e-17 1
    outer loop
      vertex 7.23223 16.2322 2.5
      vertex -4.71352 -23.1183 2.5
      vertex -3.03647 -22.5734 2.5
    endloop
  endfacet
  facet normal 0 6.12323e-17 1
    outer loop
      vertex 15 47.5 2.5
      vertex 10.7678 40.2322 2.5
      vertex 2.28647 24.8817 2.5
    endloop
  endfacet
  facet normal 0 6.12323e-17 1
    outer loop
      vertex 15 47.5 2.5
      vertex 11.5 42 2.5
      vertex 10.7678 40.2322 2.5
    endloop
  endfacet
  facet normal 0 6.12323e-17 1
    outer loop
      vertex -3.03647 -25.4266 2.5
      vertex -4.71352 -24.8817 2.5
      vertex -7.23223 -40.2322 2.5
    endloop
  endfacet
  facet normal 0 6.12323e-17 1
    outer loop
      vertex 10.7678 40.2322 2.5
      vertex 9 39.5 2.5
      vertex -2 24 2.5
    endloop
  endfacet
  facet normal 0 6.12323e-17 1
    outer loop
      vertex -4.71352 -23.1183 2.5
      vertex 6.5 18 2.5
      vertex -10.7678 -40.2322 2.5
    endloop
  endfacet
  facet normal 0 6.12323e-17 1
    outer loop
      vertex 7.23223 19.7678 2.5
      vertex 15 47.5 2.5
      vertex 6.5 18 2.5
    endloop
  endfacet
  facet normal 0 6.12323e-17 1
    outer loop
      vertex 7.23223 -19.7678 2.5
      vertex 6.5 -18 2.5
      vertex 5.5 -46.5 2.5
    endloop
  endfacet
  facet normal 0 6.12323e-17 1
    outer loop
      vertex 10.7678 16.2322 2.5
      vertex 2.28647 -23.1183 2.5
      vertex 8.5 4 2.5
    endloop
  endfacet
  facet normal 0 6.12323e-17 1
    outer loop
      vertex 9 15.5 2.5
      vertex 7.23223 16.2322 2.5
      vertex -2 -24 2.5
    endloop
  endfacet
  facet normal 0 6.12323e-17 1
    outer loop
      vertex 8.5 4 2.5
      vertex 2.28647 -23.1183 2.5
      vertex 3.96352 -22.5734 2.5
    endloop
  endfacet
  facet normal 0 6.12323e-17 1
    outer loop
      vertex 9 -20.5 2.5
      vertex 7.23223 -19.7678 2.5
      vertex 5.5 -46.5 2.5
    endloop
  endfacet
  facet normal 0 6.12323e-17 1
    outer loop
      vertex 8.5 4 2.5
      vertex 11.5 4 2.5
      vertex 11.5 18 2.5
    endloop
  endfacet
  facet normal 0 6.12323e-17 1
    outer loop
      vertex 10.7678 19.7678 2.5
      vertex 11.5 18 2.5
      vertex 15 47.5 2.5
    endloop
  endfacet
  facet normal 0 6.12323e-17 1
    outer loop
      vertex 5.5 -46.5 2.5
      vertex 6.5 -18 2.5
      vertex 5 -24 2.5
    endloop
  endfacet
  facet normal 0 6.12323e-17 1
    outer loop
      vertex 11.5 -4 2.5
      vertex 7.23223 -16.2322 2.5
      vertex 9 -15.5 2.5
    endloop
  endfacet
  facet normal 0 6.12323e-17 1
    outer loop
      vertex 11.5 -42 2.5
      vertex 10.7678 -43.7678 2.5
      vertex 15 -47.5 2.5
    endloop
  endfacet
  facet normal 0 6.12323e-17 1
    outer loop
      vertex 8.5 -4 2.5
      vertex 8.5 4 2.5
      vertex 5 -24 2.5
    endloop
  endfacet
  facet normal 0 6.12323e-17 1
    outer loop
      vertex 11.5 -18 2.5
      vertex 15 47.5 2.5
      vertex 10.7678 -16.2322 2.5
    endloop
  endfacet
  facet normal 0 6.12323e-17 1
    outer loop
      vertex 10.7678 -19.7678 2.5
      vertex 9 -20.5 2.5
      vertex 15 -47.5 2.5
    endloop
  endfacet
  facet normal 0 6.12323e-17 1
    outer loop
      vertex 15 -47.5 2.5
      vertex 15 47.5 2.5
      vertex 11.5 -18 2.5
    endloop
  endfacet
  facet normal 0 6.12323e-17 1
    outer loop
      vertex 9 -20.5 2.5
      vertex 5.5 -46.5 2.5
      vertex 5.5 -47.5 2.5
    endloop
  endfacet
  facet normal 0 6.12323e-17 1
    outer loop
      vertex 6.5 -42 2.5
      vertex 9 -20.5 2.5
      vertex 5.5 -47.5 2.5
    endloop
  endfacet
  facet normal 0 6.12323e-17 1
    outer loop
      vertex 11.5 -4 2.5
      vertex 9 -15.5 2.5
      vertex 10.7678 -16.2322 2.5
    endloop
  endfacet
  facet normal 0 6.12323e-17 1
    outer loop
      vertex 7.23223 -43.7678 2.5
      vertex 6.5 -42 2.5
      vertex 5.5 -47.5 2.5
    endloop
  endfacet
  facet normal 0 6.12323e-17 1
    outer loop
      vertex 7.23223 -40.2322 2.5
      vertex 9 -20.5 2.5
      vertex 6.5 -42 2.5
    endloop
  endfacet
  facet normal 0 6.12323e-17 1
    outer loop
      vertex 9 -39.5 2.5
      vertex 9 -20.5 2.5
      vertex 7.23223 -40.2322 2.5
    endloop
  endfacet
  facet normal 0 6.12323e-17 1
    outer loop
      vertex 10.7678 -43.7678 2.5
      vertex 9 -44.5 2.5
      vertex 15 -47.5 2.5
    endloop
  endfacet
  facet normal 0 6.12323e-17 1
    outer loop
      vertex 10.7678 -40.2322 2.5
      vertex 9 -20.5 2.5
      vertex 9 -39.5 2.5
    endloop
  endfacet
  facet normal 0 6.12323e-17 1
    outer loop
      vertex 15 -47.5 2.5
      vertex 9 -20.5 2.5
      vertex 10.7678 -40.2322 2.5
    endloop
  endfacet
  facet normal 0 6.12323e-17 1
    outer loop
      vertex 15 -47.5 2.5
      vertex 10.7678 -40.2322 2.5
      vertex 11.5 -42 2.5
    endloop
  endfacet
  facet normal 0 6.12323e-17 1
    outer loop
      vertex 15 -47.5 2.5
      vertex 9 -44.5 2.5
      vertex 5.5 -47.5 2.5
    endloop
  endfacet
  facet normal 0 6.12323e-17 1
    outer loop
      vertex 11.5 18 2.5
      vertex 11.5 4 2.5
      vertex 15 47.5 2.5
    endloop
  endfacet
  facet normal 0 6.12323e-17 1
    outer loop
      vertex 9 -44.5 2.5
      vertex 7.23223 -43.7678 2.5
      vertex 5.5 -47.5 2.5
    endloop
  endfacet
  facet normal 0 6.12323e-17 1
    outer loop
      vertex 7.23223 -16.2322 2.5
      vertex 8.5 -4 2.5
      vertex 6.5 -18 2.5
    endloop
  endfacet
  facet normal 0 6.12323e-17 1
    outer loop
      vertex 8.5 4 2.5
      vertex 11.5 18 2.5
      vertex 10.7678 16.2322 2.5
    endloop
  endfacet
  facet normal 0 6.12323e-17 1
    outer loop
      vertex 5 -24 2.5
      vertex 8.5 4 2.5
      vertex 3.96352 -22.5734 2.5
    endloop
  endfacet
  facet normal 0 6.12323e-17 1
    outer loop
      vertex 8.5 -4 2.5
      vertex 5 -24 2.5
      vertex 6.5 -18 2.5
    endloop
  endfacet
  facet normal 0 6.12323e-17 1
    outer loop
      vertex 11.5 -4 2.5
      vertex 15 47.5 2.5
      vertex 11.5 4 2.5
    endloop
  endfacet
  facet normal 0 6.12323e-17 1
    outer loop
      vertex 10.7678 -16.2322 2.5
      vertex 15 47.5 2.5
      vertex 11.5 -4 2.5
    endloop
  endfacet
  facet normal 0 6.12323e-17 1
    outer loop
      vertex -9 44.5 2.5
      vertex -7.23223 43.7678 2.5
      vertex 15 47.5 2.5
    endloop
  endfacet
  facet normal 0 6.12323e-17 1
    outer loop
      vertex -10.7678 16.2322 2.5
      vertex -11.5 18 2.5
      vertex -15 -36.953 2.5
    endloop
  endfacet
  facet normal 0 6.12323e-17 1
    outer loop
      vertex -10.7678 19.7678 2.5
      vertex -7.23223 40.2322 2.5
      vertex -9 39.5 2.5
    endloop
  endfacet
  facet normal 0 6.12323e-17 1
    outer loop
      vertex -10.7678 19.7678 2.5
      vertex -9 20.5 2.5
      vertex -7.23223 40.2322 2.5
    endloop
  endfacet
  facet normal 0 6.12323e-17 1
    outer loop
      vertex -8.5 -4 2.5
      vertex -11.5 -4 2.5
      vertex -11.5 -18 2.5
    endloop
  endfacet
  facet normal 1 0 0
    outer loop
      vertex -14 -46.5 2.5
      vertex -14 -36.953 2.5
      vertex -14 -46.5 19.0359
    endloop
  endfacet
  facet normal 0 1 -6.12323e-17
    outer loop
      vertex -14 -46.5 2.5
      vertex -14 -46.5 19.0359
      vertex 5.5 -46.5 2.5
    endloop
  endfacet
  facet normal 0 1 -6.12323e-17
    outer loop
      vertex 5.5 -46.5 2.5
      vertex -14 -46.5 19.0359
      vertex 5.5 -46.5 19.0359
    endloop
  endfacet
  facet normal 1 0 0
    outer loop
      vertex -19.2135 -49.6183 21.5
      vertex -19.2135 -51.3817 21.5
      vertex -19.2135 -51.3817 11.5
    endloop
  endfacet
  facet normal 1 0 0
    outer loop
      vertex -19.2135 -49.6183 11.5
      vertex -19.2135 -49.6183 21.5
      vertex -19.2135 -51.3817 11.5
    endloop
  endfacet
  facet normal 0.309017 0.951056 -1.16471e-16
    outer loop
      vertex -17.5365 -51.9266 21.5
      vertex -17.5365 -51.9266 11.5
      vertex -19.2135 -51.3817 21.5
    endloop
  endfacet
  facet normal 0.309017 0.951056 -1.16471e-16
    outer loop
      vertex -19.2135 -51.3817 21.5
      vertex -17.5365 -51.9266 11.5
      vertex -19.2135 -51.3817 11.5
    endloop
  endfacet
  facet normal -0.809017 0.587785 -7.19829e-17
    outer loop
      vertex -16.5 -50.5 21.5
      vertex -16.5 -50.5 11.5
      vertex -17.5365 -51.9266 21.5
    endloop
  endfacet
  facet normal -0.809017 0.587785 -7.19829e-17
    outer loop
      vertex -17.5365 -51.9266 21.5
      vertex -16.5 -50.5 11.5
      vertex -17.5365 -51.9266 11.5
    endloop
  endfacet
  facet normal -0.809017 -0.587785 7.19829e-17
    outer loop
      vertex -16.5 -50.5 21.5
      vertex -17.5365 -49.0734 21.5
      vertex -16.5 -50.5 11.5
    endloop
  endfacet
  facet normal -0.809017 -0.587785 7.19829e-17
    outer loop
      vertex -16.5 -50.5 11.5
      vertex -17.5365 -49.0734 21.5
      vertex -17.5365 -49.0734 11.5
    endloop
  endfacet
  facet normal 0.309017 -0.951056 1.16471e-16
    outer loop
      vertex -17.5365 -49.0734 11.5
      vertex -17.5365 -49.0734 21.5
      vertex -19.2135 -49.6183 21.5
    endloop
  endfacet
  facet normal 0.309017 -0.951056 1.16471e-16
    outer loop
      vertex -19.2135 -49.6183 11.5
      vertex -17.5365 -49.0734 11.5
      vertex -19.2135 -49.6183 21.5
    endloop
  endfacet
  facet normal 1 0 0
    outer loop
      vertex -0.213525 -49.6183 21.5
      vertex -0.213525 -51.3817 21.5
      vertex -0.213525 -51.3817 11.5
    endloop
  endfacet
  facet normal 1 0 0
    outer loop
      vertex -0.213525 -49.6183 11.5
      vertex -0.213525 -49.6183 21.5
      vertex -0.213525 -51.3817 11.5
    endloop
  endfacet
  facet normal 0.309017 0.951056 -1.16471e-16
    outer loop
      vertex 1.46352 -51.9266 21.5
      vertex 1.46352 -51.9266 11.5
      vertex -0.213525 -51.3817 21.5
    endloop
  endfacet
  facet normal 0.309017 0.951056 -1.16471e-16
    outer loop
      vertex -0.213525 -51.3817 21.5
      vertex 1.46352 -51.9266 11.5
      vertex -0.213525 -51.3817 11.5
    endloop
  endfacet
  facet normal -0.809017 0.587785 -7.19829e-17
    outer loop
      vertex 2.5 -50.5 21.5
      vertex 2.5 -50.5 11.5
      vertex 1.46352 -51.9266 21.5
    endloop
  endfacet
  facet normal -0.809017 0.587785 -7.19829e-17
    outer loop
      vertex 1.46352 -51.9266 21.5
      vertex 2.5 -50.5 11.5
      vertex 1.46352 -51.9266 11.5
    endloop
  endfacet
  facet normal -0.809017 -0.587785 7.19829e-17
    outer loop
      vertex 2.5 -50.5 21.5
      vertex 1.46352 -49.0734 21.5
      vertex 2.5 -50.5 11.5
    endloop
  endfacet
  facet normal -0.809017 -0.587785 7.19829e-17
    outer loop
      vertex 2.5 -50.5 11.5
      vertex 1.46352 -49.0734 21.5
      vertex 1.46352 -49.0734 11.5
    endloop
  endfacet
  facet normal 0.309017 -0.951056 1.16471e-16
    outer loop
      vertex 1.46352 -49.0734 11.5
      vertex 1.46352 -49.0734 21.5
      vertex -0.213525 -49.6183 21.5
    endloop
  endfacet
  facet normal 0.309017 -0.951056 1.16471e-16
    outer loop
      vertex -0.213525 -49.6183 11.5
      vertex 1.46352 -49.0734 11.5
      vertex -0.213525 -49.6183 21.5
    endloop
  endfacet
  facet normal 0 1.22465e-16 1
    outer loop
      vertex -19.2135 -51.3817 11.5
      vertex -17.5365 -51.9266 11.5
      vertex -16.5 -50.5 11.5
    endloop
  endfacet
  facet normal 0 1.22465e-16 1
    outer loop
      vertex -19.2135 -49.6183 11.5
      vertex -19.2135 -51.3817 11.5
      vertex -17.5365 -49.0734 11.5
    endloop
  endfacet
  facet normal 0 1.22465e-16 1
    outer loop
      vertex -17.5365 -49.0734 11.5
      vertex -19.2135 -51.3817 11.5
      vertex -16.5 -50.5 11.5
    endloop
  endfacet
  facet normal 0 1.22465e-16 1
    outer loop
      vertex -0.213525 -51.3817 11.5
      vertex 1.46352 -51.9266 11.5
      vertex 2.5 -50.5 11.5
    endloop
  endfacet
  facet normal 0 1.22465e-16 1
    outer loop
      vertex -0.213525 -49.6183 11.5
      vertex -0.213525 -51.3817 11.5
      vertex 1.46352 -49.0734 11.5
    endloop
  endfacet
  facet normal 0 1.22465e-16 1
    outer loop
      vertex 1.46352 -49.0734 11.5
      vertex -0.213525 -51.3817 11.5
      vertex 2.5 -50.5 11.5
    endloop
  endfacet
endsolid OpenSCAD_Model
