solid OpenSCAD_Model
  facet normal 0 0 -1
    outer loop
      vertex 15 37 -2.5
      vertex 11.5 42 -2.5
      vertex 15 47.5 -2.5
    endloop
  endfacet
  facet normal 0 0 -1
    outer loop
      vertex 15 37 -2.5
      vertex 10.7678 40.2322 -2.5
      vertex 11.5 42 -2.5
    endloop
  endfacet
  facet normal 0 0 -1
    outer loop
      vertex 15 37 -2.5
      vertex 9 39.5 -2.5
      vertex 10.7678 40.2322 -2.5
    endloop
  endfacet
  facet normal 0 0 -1
    outer loop
      vertex -9 39.5 -2.5
      vertex 9 39.5 -2.5
      vertex 15 37 -2.5
    endloop
  endfacet
  facet normal 0 0 -1
    outer loop
      vertex 7.23223 40.2322 -2.5
      vertex -6.5 42 -2.5
      vertex 6.5 42 -2.5
    endloop
  endfacet
  facet normal 0 0 -1
    outer loop
      vertex 9 39.5 -2.5
      vertex -9 39.5 -2.5
      vertex 7.23223 40.2322 -2.5
    endloop
  endfacet
  facet normal 0 0 -1
    outer loop
      vertex 7.23223 40.2322 -2.5
      vertex -7.23223 40.2322 -2.5
      vertex -6.5 42 -2.5
    endloop
  endfacet
  facet normal -0 0 -1
    outer loop
      vertex 7.23223 40.2322 -2.5
      vertex -9 39.5 -2.5
      vertex -7.23223 40.2322 -2.5
    endloop
  endfacet
  facet normal -0 0 -1
    outer loop
      vertex -10.7678 40.2322 -2.5
      vertex -15 37 -2.5
      vertex -11.5 42 -2.5
    endloop
  endfacet
  facet normal -0 0 -1
    outer loop
      vertex -9 39.5 -2.5
      vertex -15 37 -2.5
      vertex -10.7678 40.2322 -2.5
    endloop
  endfacet
  facet normal 0 0 -1
    outer loop
      vertex -15 37 -2.5
      vertex -9 39.5 -2.5
      vertex 15 37 -2.5
    endloop
  endfacet
  facet normal 0 0 -1
    outer loop
      vertex 10.7678 43.7678 -2.5
      vertex 15 47.5 -2.5
      vertex 11.5 42 -2.5
    endloop
  endfacet
  facet normal 0 0 -1
    outer loop
      vertex 9 44.5 -2.5
      vertex 15 47.5 -2.5
      vertex 10.7678 43.7678 -2.5
    endloop
  endfacet
  facet normal 0 0 -1
    outer loop
      vertex -9 44.5 -2.5
      vertex 9 44.5 -2.5
      vertex 7.23223 43.7678 -2.5
    endloop
  endfacet
  facet normal 0 0 -1
    outer loop
      vertex -6.5 42 -2.5
      vertex 7.23223 43.7678 -2.5
      vertex 6.5 42 -2.5
    endloop
  endfacet
  facet normal 0 0 -1
    outer loop
      vertex -7.23223 43.7678 -2.5
      vertex 7.23223 43.7678 -2.5
      vertex -6.5 42 -2.5
    endloop
  endfacet
  facet normal 0 0 -1
    outer loop
      vertex -9 44.5 -2.5
      vertex 7.23223 43.7678 -2.5
      vertex -7.23223 43.7678 -2.5
    endloop
  endfacet
  facet normal 0 0 -1
    outer loop
      vertex 9 44.5 -2.5
      vertex -9 44.5 -2.5
      vertex 15 47.5 -2.5
    endloop
  endfacet
  facet normal 0 0 -1
    outer loop
      vertex -15 47.5 -2.5
      vertex -11.5 42 -2.5
      vertex -15 37 -2.5
    endloop
  endfacet
  facet normal 0 0 -1
    outer loop
      vertex -9 44.5 -2.5
      vertex -15 47.5 -2.5
      vertex 15 47.5 -2.5
    endloop
  endfacet
  facet normal 0 0 -1
    outer loop
      vertex -10.7678 43.7678 -2.5
      vertex -15 47.5 -2.5
      vertex -9 44.5 -2.5
    endloop
  endfacet
  facet normal 0 0 -1
    outer loop
      vertex -11.5 42 -2.5
      vertex -15 47.5 -2.5
      vertex -10.7678 43.7678 -2.5
    endloop
  endfacet
  facet normal -1 0 0
    outer loop
      vertex -15 47.5 -2.5
      vertex -15 47.45 2.5
      vertex -15 47.5 2.5
    endloop
  endfacet
  facet normal -1 0 0
    outer loop
      vertex -15 47.5 -2.5
      vertex -15 46.45 2.5
      vertex -15 47.45 2.5
    endloop
  endfacet
  facet normal -1 0 0
    outer loop
      vertex -15 37 -2.5
      vertex -15 46.45 2.5
      vertex -15 47.5 -2.5
    endloop
  endfacet
  facet normal -1 -0 0
    outer loop
      vertex -15 46.45 2.5
      vertex -15 37 -2.5
      vertex -15 37 2.5
    endloop
  endfacet
  facet normal 1 -0 0
    outer loop
      vertex 15 47.45 2.5
      vertex 15 47.5 -2.5
      vertex 15 47.5 2.5
    endloop
  endfacet
  facet normal 1 -0 0
    outer loop
      vertex 15 46.45 2.5
      vertex 15 47.5 -2.5
      vertex 15 47.45 2.5
    endloop
  endfacet
  facet normal 1 0 0
    outer loop
      vertex 15 37 -2.5
      vertex 15 46.45 2.5
      vertex 15 37 2.5
    endloop
  endfacet
  facet normal 1 0 0
    outer loop
      vertex 15 46.45 2.5
      vertex 15 37 -2.5
      vertex 15 47.5 -2.5
    endloop
  endfacet
  facet normal 0 0 1
    outer loop
      vertex -11.994 44.6525 2.5
      vertex -13.1767 45.5499 2.5
      vertex -12.8838 42.9573 2.5
    endloop
  endfacet
  facet normal 0 0 1
    outer loop
      vertex -13.1767 45.5499 2.5
      vertex -11.994 44.6525 2.5
      vertex -12.884 45.5401 2.5
    endloop
  endfacet
  facet normal -0 0 1
    outer loop
      vertex -12.884 45.5401 2.5
      vertex -11.994 44.6525 2.5
      vertex -10.7081 45.5401 2.5
    endloop
  endfacet
  facet normal 0 0 1
    outer loop
      vertex -5 42 2.5
      vertex -5.45818 40.1411 2.5
      vertex -5 41.5 2.5
    endloop
  endfacet
  facet normal 0 0 1
    outer loop
      vertex 5 41.5 2.5
      vertex 5.11623 42.9573 2.5
      vertex 5 45.5401 2.5
    endloop
  endfacet
  facet normal 0 0 1
    outer loop
      vertex 6.00596 44.6525 2.5
      vertex 5 45.5401 2.5
      vertex 5.11623 42.9573 2.5
    endloop
  endfacet
  facet normal -0 0 1
    outer loop
      vertex 5 45.5401 2.5
      vertex 6.00596 44.6525 2.5
      vertex 7.29192 45.5401 2.5
    endloop
  endfacet
  facet normal 0 0 1
    outer loop
      vertex 12.5418 43.8589 2.5
      vertex 13.1767 45.5499 2.5
      vertex 12.884 45.5401 2.5
    endloop
  endfacet
  facet normal 0 0 1
    outer loop
      vertex 13.1767 45.5499 2.5
      vertex 12.5418 43.8589 2.5
      vertex 13 42 2.5
    endloop
  endfacet
  facet normal 0 0 1
    outer loop
      vertex 12.884 45.5401 2.5
      vertex 11.2723 45.2919 2.5
      vertex 12.5418 43.8589 2.5
    endloop
  endfacet
  facet normal 0 -0 1
    outer loop
      vertex 11.2723 45.2919 2.5
      vertex 12.884 45.5401 2.5
      vertex 10.6178 45.5401 2.5
    endloop
  endfacet
  facet normal 0 0 1
    outer loop
      vertex 13 42 2.5
      vertex 15 46.45 2.5
      vertex 13.7723 45.6537 2.5
    endloop
  endfacet
  facet normal 0 0 1
    outer loop
      vertex 13 42 2.5
      vertex 13.7723 45.6537 2.5
      vertex 13.6608 45.6138 2.5
    endloop
  endfacet
  facet normal 0 0 1
    outer loop
      vertex 13 42 2.5
      vertex 13.6608 45.6138 2.5
      vertex 13.4529 45.5766 2.5
    endloop
  endfacet
  facet normal 0 0 1
    outer loop
      vertex 13 42 2.5
      vertex 13.4529 45.5766 2.5
      vertex 13.1767 45.5499 2.5
    endloop
  endfacet
  facet normal 0 0 1
    outer loop
      vertex 15 46.45 2.5
      vertex 13 42 2.5
      vertex 15 37 2.5
    endloop
  endfacet
  facet normal -0 0 1
    outer loop
      vertex 12.5418 40.1411 2.5
      vertex 15 37 2.5
      vertex 13 42 2.5
    endloop
  endfacet
  facet normal -0 0 1
    outer loop
      vertex 11.2723 38.7081 2.5
      vertex 15 37 2.5
      vertex 12.5418 40.1411 2.5
    endloop
  endfacet
  facet normal -0 0 1
    outer loop
      vertex 9.48215 38.0292 2.5
      vertex 15 37 2.5
      vertex 11.2723 38.7081 2.5
    endloop
  endfacet
  facet normal 0 0 1
    outer loop
      vertex 7.58158 38.2599 2.5
      vertex 15 37 2.5
      vertex 9.48215 38.0292 2.5
    endloop
  endfacet
  facet normal 0 0 1
    outer loop
      vertex 5.11623 42.9573 2.5
      vertex 5 41.5 2.5
      vertex 5.11623 41.0427 2.5
    endloop
  endfacet
  facet normal -0 0 1
    outer loop
      vertex -5 41.5 2.5
      vertex 5.11623 41.0427 2.5
      vertex 5 41.5 2.5
    endloop
  endfacet
  facet normal 0 0 1
    outer loop
      vertex -5.45818 40.1411 2.5
      vertex 5.11623 41.0427 2.5
      vertex -5 41.5 2.5
    endloop
  endfacet
  facet normal 0 0 1
    outer loop
      vertex 5.11623 41.0427 2.5
      vertex -5.45818 40.1411 2.5
      vertex 6.00596 39.3475 2.5
    endloop
  endfacet
  facet normal 0 0 1
    outer loop
      vertex -6.72774 38.7081 2.5
      vertex 6.00596 39.3475 2.5
      vertex -5.45818 40.1411 2.5
    endloop
  endfacet
  facet normal 0 0 1
    outer loop
      vertex 6.00596 39.3475 2.5
      vertex -6.72774 38.7081 2.5
      vertex 7.58158 38.2599 2.5
    endloop
  endfacet
  facet normal 0 0 1
    outer loop
      vertex -8.51785 38.0292 2.5
      vertex 7.58158 38.2599 2.5
      vertex -6.72774 38.7081 2.5
    endloop
  endfacet
  facet normal 0 0 1
    outer loop
      vertex 7.58158 38.2599 2.5
      vertex -8.51785 38.0292 2.5
      vertex 15 37 2.5
    endloop
  endfacet
  facet normal 0 0 1
    outer loop
      vertex -13.4529 45.5766 2.5
      vertex -12.8838 42.9573 2.5
      vertex -13.1767 45.5499 2.5
    endloop
  endfacet
  facet normal 0 0 1
    outer loop
      vertex -13.6608 45.6138 2.5
      vertex -12.8838 42.9573 2.5
      vertex -13.4529 45.5766 2.5
    endloop
  endfacet
  facet normal 0 0 1
    outer loop
      vertex -13.7723 45.6537 2.5
      vertex -12.8838 42.9573 2.5
      vertex -13.6608 45.6138 2.5
    endloop
  endfacet
  facet normal 0 0 1
    outer loop
      vertex -15 46.45 2.5
      vertex -12.8838 42.9573 2.5
      vertex -13.7723 45.6537 2.5
    endloop
  endfacet
  facet normal 0 0 1
    outer loop
      vertex -12.8838 42.9573 2.5
      vertex -15 46.45 2.5
      vertex -12.8838 41.0427 2.5
    endloop
  endfacet
  facet normal 0 0 1
    outer loop
      vertex -8.51785 38.0292 2.5
      vertex -15 37 2.5
      vertex 15 37 2.5
    endloop
  endfacet
  facet normal 0 0 1
    outer loop
      vertex -10.4184 38.2599 2.5
      vertex -15 37 2.5
      vertex -8.51785 38.0292 2.5
    endloop
  endfacet
  facet normal 0 0 1
    outer loop
      vertex -11.994 39.3475 2.5
      vertex -15 37 2.5
      vertex -10.4184 38.2599 2.5
    endloop
  endfacet
  facet normal 0 0 1
    outer loop
      vertex -12.8838 41.0427 2.5
      vertex -15 37 2.5
      vertex -11.994 39.3475 2.5
    endloop
  endfacet
  facet normal 0 0 1
    outer loop
      vertex -15 37 2.5
      vertex -12.8838 41.0427 2.5
      vertex -15 46.45 2.5
    endloop
  endfacet
  facet normal 0 0 1
    outer loop
      vertex -5 47.5 2.5
      vertex -12.884 47.4571 2.5
      vertex -5 47.4571 2.5
    endloop
  endfacet
  facet normal -0 0 1
    outer loop
      vertex -15 47.5 2.5
      vertex -12.884 47.4571 2.5
      vertex -5 47.5 2.5
    endloop
  endfacet
  facet normal 0 0 1
    outer loop
      vertex -12.884 47.4571 2.5
      vertex -15 47.5 2.5
      vertex -13.1767 47.457 2.5
    endloop
  endfacet
  facet normal 0 0 1
    outer loop
      vertex -13.1767 47.457 2.5
      vertex -15 47.5 2.5
      vertex -13.4529 47.4568 2.5
    endloop
  endfacet
  facet normal 0 0 1
    outer loop
      vertex -13.4529 47.4568 2.5
      vertex -15 47.5 2.5
      vertex -13.6608 47.4565 2.5
    endloop
  endfacet
  facet normal 0 0 1
    outer loop
      vertex -13.6608 47.4565 2.5
      vertex -15 47.5 2.5
      vertex -13.7723 47.4562 2.5
    endloop
  endfacet
  facet normal 0 0 1
    outer loop
      vertex -13.7723 47.4562 2.5
      vertex -15 47.5 2.5
      vertex -15 47.45 2.5
    endloop
  endfacet
  facet normal 0 0 1
    outer loop
      vertex 15 47.5 2.5
      vertex 13.7723 47.4562 2.5
      vertex 15 47.45 2.5
    endloop
  endfacet
  facet normal 0 0 1
    outer loop
      vertex 15 47.5 2.5
      vertex 13.6608 47.4565 2.5
      vertex 13.7723 47.4562 2.5
    endloop
  endfacet
  facet normal 0 0 1
    outer loop
      vertex 15 47.5 2.5
      vertex 13.4529 47.4568 2.5
      vertex 13.6608 47.4565 2.5
    endloop
  endfacet
  facet normal 0 0 1
    outer loop
      vertex 15 47.5 2.5
      vertex 13.1767 47.457 2.5
      vertex 13.4529 47.4568 2.5
    endloop
  endfacet
  facet normal 0 0 1
    outer loop
      vertex 15 47.5 2.5
      vertex 12.884 47.4571 2.5
      vertex 13.1767 47.457 2.5
    endloop
  endfacet
  facet normal -0 0 1
    outer loop
      vertex 5 47.5 2.5
      vertex 12.884 47.4571 2.5
      vertex 15 47.5 2.5
    endloop
  endfacet
  facet normal 0 0 1
    outer loop
      vertex 12.884 47.4571 2.5
      vertex 5 47.5 2.5
      vertex 5 47.4571 2.5
    endloop
  endfacet
  facet normal 0 0 1
    outer loop
      vertex -5 45.5401 2.5
      vertex -5.45818 43.8589 2.5
      vertex -5 42 2.5
    endloop
  endfacet
  facet normal 0 0 1
    outer loop
      vertex -5 45.5401 2.5
      vertex -6.72774 45.2919 2.5
      vertex -5.45818 43.8589 2.5
    endloop
  endfacet
  facet normal 0 -0 1
    outer loop
      vertex -6.72774 45.2919 2.5
      vertex -5 45.5401 2.5
      vertex -7.38216 45.5401 2.5
    endloop
  endfacet
  facet normal 0 1 -0
    outer loop
      vertex 15 47.5 -2.5
      vertex 5 47.5 2.5
      vertex 15 47.5 2.5
    endloop
  endfacet
  facet normal 0 1 0
    outer loop
      vertex 5 47.5 2.5
      vertex 15 47.5 -2.5
      vertex -5 47.5 2.5
    endloop
  endfacet
  facet normal 0 1 0
    outer loop
      vertex -15 47.5 -2.5
      vertex -5 47.5 2.5
      vertex 15 47.5 -2.5
    endloop
  endfacet
  facet normal 0 1 0
    outer loop
      vertex -5 47.5 2.5
      vertex -15 47.5 -2.5
      vertex -15 47.5 2.5
    endloop
  endfacet
  facet normal 0 1 -0
    outer loop
      vertex 5 47.5 2.5
      vertex -5 47.5 5.5
      vertex 5 47.5 5.5
    endloop
  endfacet
  facet normal 0 1 0
    outer loop
      vertex -5 47.5 5.5
      vertex 5 47.5 2.5
      vertex -5 47.5 2.5
    endloop
  endfacet
  facet normal -1 0 0
    outer loop
      vertex -5 42 2.5
      vertex -5 42.15 21.1296
      vertex -5 45.5401 2.5
    endloop
  endfacet
  facet normal -1 0 0
    outer loop
      vertex -5 41.5 2.5
      vertex -5 42.15 21.1296
      vertex -5 42 2.5
    endloop
  endfacet
  facet normal -1 -0 0
    outer loop
      vertex -5 42.15 21.1296
      vertex -5 41.5 2.5
      vertex -5 41.5133 24.9232
    endloop
  endfacet
  facet normal -1 -0 0
    outer loop
      vertex -5 41.5133 24.9232
      vertex -5 41.5 2.5
      vertex -5 41.5 25.0148
    endloop
  endfacet
  facet normal -1 0 0
    outer loop
      vertex -5 47.5 2.5
      vertex -5 47.4613 5.5
      vertex -5 47.5 5.5
    endloop
  endfacet
  facet normal -1 0 -0
    outer loop
      vertex -5 47.4613 5.5
      vertex -5 47.5 2.5
      vertex -5 47.4571 2.5
    endloop
  endfacet
  facet normal 0 -1 0
    outer loop
      vertex -3.48837 41.5 24.7015
      vertex -2 41.5 24.5
      vertex -1.90294 41.5 24.7015
    endloop
  endfacet
  facet normal 0 -1 0
    outer loop
      vertex -3.48837 41.5 24.7015
      vertex -1.24698 41.5 22.9363
      vertex -2 41.5 24.5
    endloop
  endfacet
  facet normal 0 -1 0
    outer loop
      vertex -4.97312 41.5 24.9969
      vertex -1.24698 41.5 22.9363
      vertex -3.48837 41.5 24.7015
    endloop
  endfacet
  facet normal 0 -1 -0
    outer loop
      vertex -1.24698 41.5 22.9363
      vertex -5 41.5 2.5
      vertex 0.445042 41.5 22.5501
    endloop
  endfacet
  facet normal 0 -1 -0
    outer loop
      vertex -4.97312 41.5 24.9969
      vertex -5 41.5 2.5
      vertex -1.24698 41.5 22.9363
    endloop
  endfacet
  facet normal 0 -1 0
    outer loop
      vertex -5 41.5 2.5
      vertex -4.97312 41.5 24.9969
      vertex -5 41.5 25.0148
    endloop
  endfacet
  facet normal 0 -1 0
    outer loop
      vertex 1.80194 41.5 24.7015
      vertex 1.80194 41.5 23.6322
      vertex 3.48837 41.5 24.7015
    endloop
  endfacet
  facet normal 0 -1 0
    outer loop
      vertex 1.80194 41.5 23.6322
      vertex 4.97312 41.5 24.9969
      vertex 3.48837 41.5 24.7015
    endloop
  endfacet
  facet normal 0 -1 0
    outer loop
      vertex 0.445042 41.5 22.5501
      vertex 4.97312 41.5 24.9969
      vertex 1.80194 41.5 23.6322
    endloop
  endfacet
  facet normal 0 -1 0
    outer loop
      vertex 5 41.5 2.5
      vertex 0.445042 41.5 22.5501
      vertex -5 41.5 2.5
    endloop
  endfacet
  facet normal 0 -1 0
    outer loop
      vertex 0.445042 41.5 22.5501
      vertex 5 41.5 2.5
      vertex 4.97312 41.5 24.9969
    endloop
  endfacet
  facet normal 0 -1 0
    outer loop
      vertex 4.97312 41.5 24.9969
      vertex 5 41.5 2.5
      vertex 5 41.5 25.0148
    endloop
  endfacet
  facet normal 1 0 0
    outer loop
      vertex 5 42.15 21.1296
      vertex 5 41.5 2.5
      vertex 5 45.5401 2.5
    endloop
  endfacet
  facet normal 1 0 0
    outer loop
      vertex 5 41.5133 24.9232
      vertex 5 41.5 2.5
      vertex 5 42.15 21.1296
    endloop
  endfacet
  facet normal 1 0 0
    outer loop
      vertex 5 41.5 2.5
      vertex 5 41.5133 24.9232
      vertex 5 41.5 25.0148
    endloop
  endfacet
  facet normal 1 -0 0
    outer loop
      vertex 5 47.4613 5.5
      vertex 5 47.5 2.5
      vertex 5 47.5 5.5
    endloop
  endfacet
  facet normal 1 0 0
    outer loop
      vertex 5 47.5 2.5
      vertex 5 47.4613 5.5
      vertex 5 47.4571 2.5
    endloop
  endfacet
  facet normal -0 0 1
    outer loop
      vertex -5 47.5 5.5
      vertex 5 47.4613 5.5
      vertex 5 47.5 5.5
    endloop
  endfacet
  facet normal 0 0 1
    outer loop
      vertex 5 47.4613 5.5
      vertex -5 47.5 5.5
      vertex -5 47.4613 5.5
    endloop
  endfacet
  facet normal -0.92388 0.382683 0
    outer loop
      vertex 10.7678 40.2322 -2.5
      vertex 11.5 42 -0.4
      vertex 11.5 42 -2.5
    endloop
  endfacet
  facet normal -0.92388 0.382683 0
    outer loop
      vertex 11.5 42 -0.4
      vertex 10.7678 40.2322 -2.5
      vertex 10.7678 40.2322 -0.4
    endloop
  endfacet
  facet normal 0.92388 -0.382683 0
    outer loop
      vertex 6.5 42 -0.4
      vertex 7.23223 43.7678 -2.5
      vertex 7.23223 43.7678 -0.4
    endloop
  endfacet
  facet normal 0.92388 -0.382683 0
    outer loop
      vertex 7.23223 43.7678 -2.5
      vertex 6.5 42 -0.4
      vertex 6.5 42 -2.5
    endloop
  endfacet
  facet normal 0.382682 0.92388 -0
    outer loop
      vertex 9 39.5 -2.5
      vertex 7.23223 40.2322 -0.4
      vertex 9 39.5 -0.4
    endloop
  endfacet
  facet normal 0.382682 0.92388 0
    outer loop
      vertex 7.23223 40.2322 -0.4
      vertex 9 39.5 -2.5
      vertex 7.23223 40.2322 -2.5
    endloop
  endfacet
  facet normal -0.382683 0.92388 0
    outer loop
      vertex 10.7678 40.2322 -2.5
      vertex 9 39.5 -0.4
      vertex 10.7678 40.2322 -0.4
    endloop
  endfacet
  facet normal -0.382683 0.92388 0
    outer loop
      vertex 9 39.5 -0.4
      vertex 10.7678 40.2322 -2.5
      vertex 9 39.5 -2.5
    endloop
  endfacet
  facet normal 0.92388 0.382683 0
    outer loop
      vertex 7.23223 40.2322 -0.4
      vertex 6.5 42 -2.5
      vertex 6.5 42 -0.4
    endloop
  endfacet
  facet normal 0.92388 0.382683 0
    outer loop
      vertex 6.5 42 -2.5
      vertex 7.23223 40.2322 -0.4
      vertex 7.23223 40.2322 -2.5
    endloop
  endfacet
  facet normal -0.923879 -0.382684 0
    outer loop
      vertex 11.5 42 -2.5
      vertex 10.7678 43.7678 -0.4
      vertex 10.7678 43.7678 -2.5
    endloop
  endfacet
  facet normal -0.923879 -0.382684 0
    outer loop
      vertex 10.7678 43.7678 -0.4
      vertex 11.5 42 -2.5
      vertex 11.5 42 -0.4
    endloop
  endfacet
  facet normal -0.382684 -0.923879 0
    outer loop
      vertex 9 44.5 -2.5
      vertex 10.7678 43.7678 -0.4
      vertex 9 44.5 -0.4
    endloop
  endfacet
  facet normal -0.382684 -0.923879 -0
    outer loop
      vertex 10.7678 43.7678 -0.4
      vertex 9 44.5 -2.5
      vertex 10.7678 43.7678 -2.5
    endloop
  endfacet
  facet normal 0.382684 -0.923879 0
    outer loop
      vertex 7.23223 43.7678 -2.5
      vertex 9 44.5 -0.4
      vertex 7.23223 43.7678 -0.4
    endloop
  endfacet
  facet normal 0.382684 -0.923879 0
    outer loop
      vertex 9 44.5 -0.4
      vertex 7.23223 43.7678 -2.5
      vertex 9 44.5 -2.5
    endloop
  endfacet
  facet normal -0.92388 0.382683 0
    outer loop
      vertex -7.23223 40.2322 -2.5
      vertex -6.5 42 -0.4
      vertex -6.5 42 -2.5
    endloop
  endfacet
  facet normal -0.92388 0.382683 0
    outer loop
      vertex -6.5 42 -0.4
      vertex -7.23223 40.2322 -2.5
      vertex -7.23223 40.2322 -0.4
    endloop
  endfacet
  facet normal 0.92388 0.382683 0
    outer loop
      vertex -10.7678 40.2322 -0.4
      vertex -11.5 42 -2.5
      vertex -11.5 42 -0.4
    endloop
  endfacet
  facet normal 0.92388 0.382683 0
    outer loop
      vertex -11.5 42 -2.5
      vertex -10.7678 40.2322 -0.4
      vertex -10.7678 40.2322 -2.5
    endloop
  endfacet
  facet normal -0.382684 -0.923879 0
    outer loop
      vertex -9 44.5 -2.5
      vertex -7.23223 43.7678 -0.4
      vertex -9 44.5 -0.4
    endloop
  endfacet
  facet normal -0.382684 -0.923879 -0
    outer loop
      vertex -7.23223 43.7678 -0.4
      vertex -9 44.5 -2.5
      vertex -7.23223 43.7678 -2.5
    endloop
  endfacet
  facet normal 0.382683 0.92388 -0
    outer loop
      vertex -9 39.5 -2.5
      vertex -10.7678 40.2322 -0.4
      vertex -9 39.5 -0.4
    endloop
  endfacet
  facet normal 0.382683 0.92388 0
    outer loop
      vertex -10.7678 40.2322 -0.4
      vertex -9 39.5 -2.5
      vertex -10.7678 40.2322 -2.5
    endloop
  endfacet
  facet normal -0.382682 0.92388 0
    outer loop
      vertex -7.23223 40.2322 -2.5
      vertex -9 39.5 -0.4
      vertex -7.23223 40.2322 -0.4
    endloop
  endfacet
  facet normal -0.382682 0.92388 0
    outer loop
      vertex -9 39.5 -0.4
      vertex -7.23223 40.2322 -2.5
      vertex -9 39.5 -2.5
    endloop
  endfacet
  facet normal -0.92388 -0.382683 0
    outer loop
      vertex -6.5 42 -2.5
      vertex -7.23223 43.7678 -0.4
      vertex -7.23223 43.7678 -2.5
    endloop
  endfacet
  facet normal -0.92388 -0.382683 0
    outer loop
      vertex -7.23223 43.7678 -0.4
      vertex -6.5 42 -2.5
      vertex -6.5 42 -0.4
    endloop
  endfacet
  facet normal 0.382684 -0.923879 0
    outer loop
      vertex -10.7678 43.7678 -2.5
      vertex -9 44.5 -0.4
      vertex -10.7678 43.7678 -0.4
    endloop
  endfacet
  facet normal 0.382684 -0.923879 0
    outer loop
      vertex -9 44.5 -0.4
      vertex -10.7678 43.7678 -2.5
      vertex -9 44.5 -2.5
    endloop
  endfacet
  facet normal 0.923879 -0.382684 0
    outer loop
      vertex -11.5 42 -0.4
      vertex -10.7678 43.7678 -2.5
      vertex -10.7678 43.7678 -0.4
    endloop
  endfacet
  facet normal 0.923879 -0.382684 0
    outer loop
      vertex -10.7678 43.7678 -2.5
      vertex -11.5 42 -0.4
      vertex -11.5 42 -2.5
    endloop
  endfacet
  facet normal -0.970942 0.239316 0
    outer loop
      vertex 12.5418 40.1411 -0.4
      vertex 13 42 2.5
      vertex 13 42 -0.4
    endloop
  endfacet
  facet normal -0.970942 0.239316 0
    outer loop
      vertex 13 42 2.5
      vertex 12.5418 40.1411 -0.4
      vertex 12.5418 40.1411 2.5
    endloop
  endfacet
  facet normal 1 -0 0
    outer loop
      vertex 5.11623 41.0427 2.5
      vertex 5.11623 42.9573 -0.4
      vertex 5.11623 42.9573 2.5
    endloop
  endfacet
  facet normal 1 0 0
    outer loop
      vertex 5.11623 42.9573 -0.4
      vertex 5.11623 41.0427 2.5
      vertex 5.11623 41.0427 -0.4
    endloop
  endfacet
  facet normal 0.120536 0.992709 -0
    outer loop
      vertex 9.48215 38.0292 -0.4
      vertex 7.58158 38.2599 2.5
      vertex 9.48215 38.0292 2.5
    endloop
  endfacet
  facet normal 0.120536 0.992709 0
    outer loop
      vertex 7.58158 38.2599 2.5
      vertex 9.48215 38.0292 -0.4
      vertex 7.58158 38.2599 -0.4
    endloop
  endfacet
  facet normal -0.74851 0.663123 0
    outer loop
      vertex 11.2723 38.7081 -0.4
      vertex 12.5418 40.1411 2.5
      vertex 12.5418 40.1411 -0.4
    endloop
  endfacet
  facet normal -0.74851 0.663123 0
    outer loop
      vertex 12.5418 40.1411 2.5
      vertex 11.2723 38.7081 -0.4
      vertex 11.2723 38.7081 2.5
    endloop
  endfacet
  facet normal 0.568065 0.822984 -0
    outer loop
      vertex 7.58158 38.2599 -0.4
      vertex 6.00596 39.3475 2.5
      vertex 7.58158 38.2599 2.5
    endloop
  endfacet
  facet normal 0.568065 0.822984 0
    outer loop
      vertex 6.00596 39.3475 2.5
      vertex 7.58158 38.2599 -0.4
      vertex 6.00596 39.3475 -0.4
    endloop
  endfacet
  facet normal -0.970942 -0.239316 3.148e-07
    outer loop
      vertex 13 42 -0.4
      vertex 12.5418 43.8589 2.5
      vertex 12.5418 43.8589 -0.4
    endloop
  endfacet
  facet normal -0.970942 -0.239316 0
    outer loop
      vertex 12.5418 43.8589 2.5
      vertex 13 42 -0.4
      vertex 13 42 2.5
    endloop
  endfacet
  facet normal -0.354606 0.935016 0
    outer loop
      vertex 11.2723 38.7081 -0.4
      vertex 9.48215 38.0292 2.5
      vertex 11.2723 38.7081 2.5
    endloop
  endfacet
  facet normal -0.354606 0.935016 0
    outer loop
      vertex 9.48215 38.0292 2.5
      vertex 11.2723 38.7081 -0.4
      vertex 9.48215 38.0292 -0.4
    endloop
  endfacet
  facet normal 0.885456 -0.464723 0
    outer loop
      vertex 5.11623 42.9573 2.5
      vertex 6.00596 44.6525 -0.4
      vertex 6.00596 44.6525 2.5
    endloop
  endfacet
  facet normal 0.885456 -0.464723 0
    outer loop
      vertex 6.00596 44.6525 -0.4
      vertex 5.11623 42.9573 2.5
      vertex 5.11623 42.9573 -0.4
    endloop
  endfacet
  facet normal -0.74851 -0.663123 0
    outer loop
      vertex 11.2723 45.2919 -0.4
      vertex 12.5418 43.8589 2.5
      vertex 11.2723 45.2919 2.5
    endloop
  endfacet
  facet normal -0.748511 -0.663122 8.72279e-07
    outer loop
      vertex 12.5418 43.8589 2.5
      vertex 11.2723 45.2919 -0.4
      vertex 12.5418 43.8589 -0.4
    endloop
  endfacet
  facet normal 0 0 1
    outer loop
      vertex 11.5 42 -0.4
      vertex 13 42 -0.4
      vertex 12.5418 43.8589 -0.4
    endloop
  endfacet
  facet normal 0 0 1
    outer loop
      vertex 13 42 -0.4
      vertex 11.5 42 -0.4
      vertex 12.5418 40.1411 -0.4
    endloop
  endfacet
  facet normal 0 0 1
    outer loop
      vertex 10.7678 43.7678 -0.4
      vertex 12.5418 43.8589 -0.4
      vertex 11.2723 45.2919 -0.4
    endloop
  endfacet
  facet normal 0 0 1
    outer loop
      vertex 12.5418 43.8589 -0.4
      vertex 10.7678 43.7678 -0.4
      vertex 11.5 42 -0.4
    endloop
  endfacet
  facet normal 0 0 1
    outer loop
      vertex 9 44.5 -0.4
      vertex 11.2723 45.2919 -0.4
      vertex 9.48215 45.9708 -0.4
    endloop
  endfacet
  facet normal 0 0 1
    outer loop
      vertex 11.2723 45.2919 -0.4
      vertex 9 44.5 -0.4
      vertex 10.7678 43.7678 -0.4
    endloop
  endfacet
  facet normal -0 0 1
    outer loop
      vertex 7.58158 45.7401 -0.4
      vertex 9 44.5 -0.4
      vertex 9.48215 45.9708 -0.4
    endloop
  endfacet
  facet normal 0 0 1
    outer loop
      vertex 7.58158 45.7401 -0.4
      vertex 7.23223 43.7678 -0.4
      vertex 9 44.5 -0.4
    endloop
  endfacet
  facet normal -0 0 1
    outer loop
      vertex 6.00596 44.6525 -0.4
      vertex 7.23223 43.7678 -0.4
      vertex 7.58158 45.7401 -0.4
    endloop
  endfacet
  facet normal 0 0 1
    outer loop
      vertex 5.11623 42.9573 -0.4
      vertex 7.23223 43.7678 -0.4
      vertex 6.00596 44.6525 -0.4
    endloop
  endfacet
  facet normal -0 0 1
    outer loop
      vertex 10.7678 40.2322 -0.4
      vertex 12.5418 40.1411 -0.4
      vertex 11.5 42 -0.4
    endloop
  endfacet
  facet normal 0 0 1
    outer loop
      vertex 12.5418 40.1411 -0.4
      vertex 10.7678 40.2322 -0.4
      vertex 11.2723 38.7081 -0.4
    endloop
  endfacet
  facet normal -0 0 1
    outer loop
      vertex 9 39.5 -0.4
      vertex 11.2723 38.7081 -0.4
      vertex 10.7678 40.2322 -0.4
    endloop
  endfacet
  facet normal 0 0 1
    outer loop
      vertex 11.2723 38.7081 -0.4
      vertex 9 39.5 -0.4
      vertex 9.48215 38.0292 -0.4
    endloop
  endfacet
  facet normal 0 0 1
    outer loop
      vertex 9 39.5 -0.4
      vertex 7.58158 38.2599 -0.4
      vertex 9.48215 38.0292 -0.4
    endloop
  endfacet
  facet normal 0 0 1
    outer loop
      vertex 7.23223 40.2322 -0.4
      vertex 7.58158 38.2599 -0.4
      vertex 9 39.5 -0.4
    endloop
  endfacet
  facet normal -0 0 1
    outer loop
      vertex 5.11623 41.0427 -0.4
      vertex 7.23223 40.2322 -0.4
      vertex 6.5 42 -0.4
    endloop
  endfacet
  facet normal 0 0 1
    outer loop
      vertex 7.23223 40.2322 -0.4
      vertex 6.00596 39.3475 -0.4
      vertex 7.58158 38.2599 -0.4
    endloop
  endfacet
  facet normal 0 0 1
    outer loop
      vertex 7.23223 43.7678 -0.4
      vertex 5.11623 42.9573 -0.4
      vertex 6.5 42 -0.4
    endloop
  endfacet
  facet normal 0 0 1
    outer loop
      vertex 5.11623 41.0427 -0.4
      vertex 6.5 42 -0.4
      vertex 5.11623 42.9573 -0.4
    endloop
  endfacet
  facet normal 0 0 1
    outer loop
      vertex 7.23223 40.2322 -0.4
      vertex 5.11623 41.0427 -0.4
      vertex 6.00596 39.3475 -0.4
    endloop
  endfacet
  facet normal 0.885456 0.464723 0
    outer loop
      vertex 6.00596 39.3475 2.5
      vertex 5.11623 41.0427 -0.4
      vertex 5.11623 41.0427 2.5
    endloop
  endfacet
  facet normal 0.885456 0.464723 0
    outer loop
      vertex 5.11623 41.0427 -0.4
      vertex 6.00596 39.3475 2.5
      vertex 6.00596 39.3475 -0.4
    endloop
  endfacet
  facet normal 0.568066 -0.822983 3.62932e-07
    outer loop
      vertex 6.00596 44.6525 2.5
      vertex 7.58158 45.7401 1.40128
      vertex 7.29192 45.5401 2.5
    endloop
  endfacet
  facet normal 0.568066 -0.822983 0
    outer loop
      vertex 6.00596 44.6525 -0.4
      vertex 7.58158 45.7401 1.40128
      vertex 6.00596 44.6525 2.5
    endloop
  endfacet
  facet normal 0.568065 -0.822984 1.74289e-06
    outer loop
      vertex 7.58158 45.7401 1.40128
      vertex 6.00596 44.6525 -0.4
      vertex 7.58158 45.7401 -0.4
    endloop
  endfacet
  facet normal -0.354604 -0.935017 7.33298e-07
    outer loop
      vertex 11.2723 45.2919 -0.4
      vertex 10.6178 45.5401 2.5
      vertex 9.48215 45.9708 0.133138
    endloop
  endfacet
  facet normal -0.354604 -0.935017 0
    outer loop
      vertex 11.2723 45.2919 -0.4
      vertex 9.48215 45.9708 0.133138
      vertex 9.48215 45.9708 -0.4
    endloop
  endfacet
  facet normal -0.354607 -0.935016 0
    outer loop
      vertex 10.6178 45.5401 2.5
      vertex 11.2723 45.2919 -0.4
      vertex 11.2723 45.2919 2.5
    endloop
  endfacet
  facet normal 0.120536 -0.992709 2.10233e-06
    outer loop
      vertex 7.58158 45.7401 -0.4
      vertex 9.48215 45.9708 0.133138
      vertex 7.58158 45.7401 1.40128
    endloop
  endfacet
  facet normal 0.120536 -0.992709 0
    outer loop
      vertex 9.48215 45.9708 0.133138
      vertex 7.58158 45.7401 -0.4
      vertex 9.48215 45.9708 -0.4
    endloop
  endfacet
  facet normal -0.970942 0.239315 0
    outer loop
      vertex -5.45818 40.1411 -0.4
      vertex -5 42 0.5
      vertex -5 42 -0.4
    endloop
  endfacet
  facet normal -0.970942 0.239315 0
    outer loop
      vertex -5.45818 40.1411 2.5
      vertex -5 42 0.5
      vertex -5.45818 40.1411 -0.4
    endloop
  endfacet
  facet normal -0.970942 0.239315 0
    outer loop
      vertex -5 42 0.5
      vertex -5.45818 40.1411 2.5
      vertex -5 42 2.5
    endloop
  endfacet
  facet normal 1 -0 0
    outer loop
      vertex -12.8838 41.0427 2.5
      vertex -12.8838 42.9573 -0.4
      vertex -12.8838 42.9573 2.5
    endloop
  endfacet
  facet normal 1 0 0
    outer loop
      vertex -12.8838 42.9573 -0.4
      vertex -12.8838 41.0427 2.5
      vertex -12.8838 41.0427 -0.4
    endloop
  endfacet
  facet normal 0.120536 0.992709 -0
    outer loop
      vertex -8.51785 38.0292 -0.4
      vertex -10.4184 38.2599 2.5
      vertex -8.51785 38.0292 2.5
    endloop
  endfacet
  facet normal 0.120536 0.992709 0
    outer loop
      vertex -10.4184 38.2599 2.5
      vertex -8.51785 38.0292 -0.4
      vertex -10.4184 38.2599 -0.4
    endloop
  endfacet
  facet normal -0.74851 0.663123 0
    outer loop
      vertex -6.72774 38.7081 -0.4
      vertex -5.45818 40.1411 2.5
      vertex -5.45818 40.1411 -0.4
    endloop
  endfacet
  facet normal -0.74851 0.663123 0
    outer loop
      vertex -5.45818 40.1411 2.5
      vertex -6.72774 38.7081 -0.4
      vertex -6.72774 38.7081 2.5
    endloop
  endfacet
  facet normal 0.568065 0.822984 -0
    outer loop
      vertex -10.4184 38.2599 -0.4
      vertex -11.994 39.3475 2.5
      vertex -10.4184 38.2599 2.5
    endloop
  endfacet
  facet normal 0.568065 0.822984 0
    outer loop
      vertex -11.994 39.3475 2.5
      vertex -10.4184 38.2599 -0.4
      vertex -11.994 39.3475 -0.4
    endloop
  endfacet
  facet normal -0.970942 -0.239316 -0
    outer loop
      vertex -5 42 0.5
      vertex -5.45818 43.8589 -0.4
      vertex -5 42 -0.4
    endloop
  endfacet
  facet normal -0.970942 -0.239316 3.14799e-07
    outer loop
      vertex -5.45818 43.8589 -0.4
      vertex -5 42 0.5
      vertex -5.45818 43.8589 2.5
    endloop
  endfacet
  facet normal -0.970942 -0.239315 0
    outer loop
      vertex -5.45818 43.8589 2.5
      vertex -5 42 0.5
      vertex -5 42 2.5
    endloop
  endfacet
  facet normal -0.354606 0.935016 0
    outer loop
      vertex -6.72774 38.7081 -0.4
      vertex -8.51785 38.0292 2.5
      vertex -6.72774 38.7081 2.5
    endloop
  endfacet
  facet normal -0.354606 0.935016 0
    outer loop
      vertex -8.51785 38.0292 2.5
      vertex -6.72774 38.7081 -0.4
      vertex -8.51785 38.0292 -0.4
    endloop
  endfacet
  facet normal 0.885456 -0.464723 0
    outer loop
      vertex -12.8838 42.9573 2.5
      vertex -11.994 44.6525 -0.4
      vertex -11.994 44.6525 2.5
    endloop
  endfacet
  facet normal 0.885456 -0.464723 0
    outer loop
      vertex -11.994 44.6525 -0.4
      vertex -12.8838 42.9573 2.5
      vertex -12.8838 42.9573 -0.4
    endloop
  endfacet
  facet normal -0.74851 -0.663123 0
    outer loop
      vertex -6.72774 45.2919 -0.4
      vertex -5.45818 43.8589 2.5
      vertex -6.72774 45.2919 2.5
    endloop
  endfacet
  facet normal -0.748511 -0.663122 8.72279e-07
    outer loop
      vertex -5.45818 43.8589 2.5
      vertex -6.72774 45.2919 -0.4
      vertex -5.45818 43.8589 -0.4
    endloop
  endfacet
  facet normal 0 0 1
    outer loop
      vertex -6.5 42 -0.4
      vertex -5 42 -0.4
      vertex -5.45818 43.8589 -0.4
    endloop
  endfacet
  facet normal 0 0 1
    outer loop
      vertex -5 42 -0.4
      vertex -6.5 42 -0.4
      vertex -5.45818 40.1411 -0.4
    endloop
  endfacet
  facet normal 0 0 1
    outer loop
      vertex -7.23223 43.7678 -0.4
      vertex -5.45818 43.8589 -0.4
      vertex -6.72774 45.2919 -0.4
    endloop
  endfacet
  facet normal 0 0 1
    outer loop
      vertex -5.45818 43.8589 -0.4
      vertex -7.23223 43.7678 -0.4
      vertex -6.5 42 -0.4
    endloop
  endfacet
  facet normal 0 0 1
    outer loop
      vertex -9 44.5 -0.4
      vertex -6.72774 45.2919 -0.4
      vertex -8.51785 45.9708 -0.4
    endloop
  endfacet
  facet normal 0 0 1
    outer loop
      vertex -6.72774 45.2919 -0.4
      vertex -9 44.5 -0.4
      vertex -7.23223 43.7678 -0.4
    endloop
  endfacet
  facet normal -0 0 1
    outer loop
      vertex -10.4184 45.7401 -0.4
      vertex -9 44.5 -0.4
      vertex -8.51785 45.9708 -0.4
    endloop
  endfacet
  facet normal 0 0 1
    outer loop
      vertex -10.4184 45.7401 -0.4
      vertex -10.7678 43.7678 -0.4
      vertex -9 44.5 -0.4
    endloop
  endfacet
  facet normal -0 0 1
    outer loop
      vertex -11.994 44.6525 -0.4
      vertex -10.7678 43.7678 -0.4
      vertex -10.4184 45.7401 -0.4
    endloop
  endfacet
  facet normal 0 0 1
    outer loop
      vertex -12.8838 42.9573 -0.4
      vertex -10.7678 43.7678 -0.4
      vertex -11.994 44.6525 -0.4
    endloop
  endfacet
  facet normal -0 0 1
    outer loop
      vertex -7.23223 40.2322 -0.4
      vertex -5.45818 40.1411 -0.4
      vertex -6.5 42 -0.4
    endloop
  endfacet
  facet normal 0 0 1
    outer loop
      vertex -5.45818 40.1411 -0.4
      vertex -7.23223 40.2322 -0.4
      vertex -6.72774 38.7081 -0.4
    endloop
  endfacet
  facet normal -0 0 1
    outer loop
      vertex -9 39.5 -0.4
      vertex -6.72774 38.7081 -0.4
      vertex -7.23223 40.2322 -0.4
    endloop
  endfacet
  facet normal 0 0 1
    outer loop
      vertex -6.72774 38.7081 -0.4
      vertex -9 39.5 -0.4
      vertex -8.51785 38.0292 -0.4
    endloop
  endfacet
  facet normal 0 0 1
    outer loop
      vertex -9 39.5 -0.4
      vertex -10.4184 38.2599 -0.4
      vertex -8.51785 38.0292 -0.4
    endloop
  endfacet
  facet normal 0 0 1
    outer loop
      vertex -10.7678 40.2322 -0.4
      vertex -10.4184 38.2599 -0.4
      vertex -9 39.5 -0.4
    endloop
  endfacet
  facet normal -0 0 1
    outer loop
      vertex -12.8838 41.0427 -0.4
      vertex -10.7678 40.2322 -0.4
      vertex -11.5 42 -0.4
    endloop
  endfacet
  facet normal 0 0 1
    outer loop
      vertex -10.7678 40.2322 -0.4
      vertex -11.994 39.3475 -0.4
      vertex -10.4184 38.2599 -0.4
    endloop
  endfacet
  facet normal 0 0 1
    outer loop
      vertex -10.7678 43.7678 -0.4
      vertex -12.8838 42.9573 -0.4
      vertex -11.5 42 -0.4
    endloop
  endfacet
  facet normal 0 0 1
    outer loop
      vertex -12.8838 41.0427 -0.4
      vertex -11.5 42 -0.4
      vertex -12.8838 42.9573 -0.4
    endloop
  endfacet
  facet normal 0 0 1
    outer loop
      vertex -10.7678 40.2322 -0.4
      vertex -12.8838 41.0427 -0.4
      vertex -11.994 39.3475 -0.4
    endloop
  endfacet
  facet normal 0.885456 0.464723 0
    outer loop
      vertex -11.994 39.3475 2.5
      vertex -12.8838 41.0427 -0.4
      vertex -12.8838 41.0427 2.5
    endloop
  endfacet
  facet normal 0.885456 0.464723 0
    outer loop
      vertex -12.8838 41.0427 -0.4
      vertex -11.994 39.3475 2.5
      vertex -11.994 39.3475 -0.4
    endloop
  endfacet
  facet normal 0.568066 -0.822983 3.62932e-07
    outer loop
      vertex -11.994 44.6525 2.5
      vertex -10.4184 45.7401 1.40128
      vertex -10.7081 45.5401 2.5
    endloop
  endfacet
  facet normal 0.568066 -0.822983 0
    outer loop
      vertex -11.994 44.6525 -0.4
      vertex -10.4184 45.7401 1.40128
      vertex -11.994 44.6525 2.5
    endloop
  endfacet
  facet normal 0.568065 -0.822984 1.74289e-06
    outer loop
      vertex -10.4184 45.7401 1.40128
      vertex -11.994 44.6525 -0.4
      vertex -10.4184 45.7401 -0.4
    endloop
  endfacet
  facet normal -0.354604 -0.935017 7.95805e-07
    outer loop
      vertex -6.72774 45.2919 -0.4
      vertex -7.38216 45.5401 2.5
      vertex -8.51785 45.9708 0.133138
    endloop
  endfacet
  facet normal -0.354604 -0.935017 0
    outer loop
      vertex -6.72774 45.2919 -0.4
      vertex -8.51785 45.9708 0.133138
      vertex -8.51785 45.9708 -0.4
    endloop
  endfacet
  facet normal -0.354607 -0.935016 0
    outer loop
      vertex -7.38216 45.5401 2.5
      vertex -6.72774 45.2919 -0.4
      vertex -6.72774 45.2919 2.5
    endloop
  endfacet
  facet normal 0.120536 -0.992709 2.10233e-06
    outer loop
      vertex -10.4184 45.7401 -0.4
      vertex -8.51785 45.9708 0.133138
      vertex -10.4184 45.7401 1.40128
    endloop
  endfacet
  facet normal 0.120536 -0.992709 0
    outer loop
      vertex -8.51785 45.9708 0.133138
      vertex -10.4184 45.7401 -0.4
      vertex -8.51785 45.9708 -0.4
    endloop
  endfacet
  facet normal -0.963976 0 0.265988
    outer loop
      vertex -15 46.45 2.5
      vertex -4.67072 47.5 39.9347
      vertex -15 47.45 2.5
    endloop
  endfacet
  facet normal -0.963976 0 0.265988
    outer loop
      vertex -4.67072 47.5 39.9347
      vertex -15 46.45 2.5
      vertex -4.67072 40 39.9347
    endloop
  endfacet
  facet normal 0.19509 0 0.980785
    outer loop
      vertex 0 47.5 43.0556
      vertex 1.93468 40 42.6707
      vertex 1.93468 47.5 42.6707
    endloop
  endfacet
  facet normal 0.19509 0 0.980785
    outer loop
      vertex 1.93468 40 42.6707
      vertex 0 47.5 43.0556
      vertex 0 40 43.0556
    endloop
  endfacet
  facet normal 0 -0.983843 -0.179035
    outer loop
      vertex 7.58158 45.7401 1.40128
      vertex 10.6178 45.5401 2.5
      vertex 7.29192 45.5401 2.5
    endloop
  endfacet
  facet normal -7.67214e-07 -0.983843 -0.179033
    outer loop
      vertex 10.6178 45.5401 2.5
      vertex 7.58158 45.7401 1.40128
      vertex 9.48215 45.9708 0.133138
    endloop
  endfacet
  facet normal -0 -0.983843 -0.179035
    outer loop
      vertex 7.29192 45.5401 2.5
      vertex 5 42.15 21.1296
      vertex 5 45.5401 2.5
    endloop
  endfacet
  facet normal -0 -0.983843 -0.179035
    outer loop
      vertex 10.6178 45.5401 2.5
      vertex 5 42.15 21.1296
      vertex 7.29192 45.5401 2.5
    endloop
  endfacet
  facet normal 0 -0.983843 -0.179035
    outer loop
      vertex 5 42.15 21.1296
      vertex 10.6178 45.5401 2.5
      vertex 12.884 45.5401 2.5
    endloop
  endfacet
  facet normal 0 -0.983843 -0.179035
    outer loop
      vertex -10.4184 45.7401 1.40128
      vertex -7.38216 45.5401 2.5
      vertex -10.7081 45.5401 2.5
    endloop
  endfacet
  facet normal -7.67214e-07 -0.983843 -0.179033
    outer loop
      vertex -7.38216 45.5401 2.5
      vertex -10.4184 45.7401 1.40128
      vertex -8.51785 45.9708 0.133138
    endloop
  endfacet
  facet normal -0 -0.983843 -0.179035
    outer loop
      vertex -10.7081 45.5401 2.5
      vertex -5 42.15 21.1296
      vertex -12.884 45.5401 2.5
    endloop
  endfacet
  facet normal -0 -0.983843 -0.179035
    outer loop
      vertex -7.38216 45.5401 2.5
      vertex -5 42.15 21.1296
      vertex -10.7081 45.5401 2.5
    endloop
  endfacet
  facet normal 0 -0.983843 -0.179035
    outer loop
      vertex -5 42.15 21.1296
      vertex -7.38216 45.5401 2.5
      vertex -5 45.5401 2.5
    endloop
  endfacet
  facet normal -5.38405e-07 -0.983843 -0.179035
    outer loop
      vertex 0 40 32.9444
      vertex -1.24698 41.2521 26.0637
      vertex 0.445042 41.1819 26.4499
    endloop
  endfacet
  facet normal -4.69156e-07 -0.983843 -0.179035
    outer loop
      vertex -3.48837 41.5 24.7015
      vertex -1.24698 41.2521 26.0637
      vertex 0 40 32.9444
    endloop
  endfacet
  facet normal 0 -0.983843 -0.179035
    outer loop
      vertex -1.24698 41.2521 26.0637
      vertex -3.48837 41.5 24.7015
      vertex -1.90294 41.5 24.7015
    endloop
  endfacet
  facet normal 1.50404e-06 -0.983843 -0.179034
    outer loop
      vertex 1.80194 41.3788 25.3678
      vertex 0 40 32.9444
      vertex 0.445042 41.1819 26.4499
    endloop
  endfacet
  facet normal -3.58566e-08 -0.983843 -0.179035
    outer loop
      vertex 1.80194 41.3788 25.3678
      vertex 3.48837 41.5 24.7015
      vertex 0 40 32.9444
    endloop
  endfacet
  facet normal -0 -0.983843 -0.179035
    outer loop
      vertex 3.48837 41.5 24.7015
      vertex 1.80194 41.3788 25.3678
      vertex 1.80194 41.5 24.7015
    endloop
  endfacet
  facet normal 0.336539 -0.939286 -0.0669564
    outer loop
      vertex 13.7723 45.6537 2.5
      vertex 4.67072 40 36.0653
      vertex 13.6608 45.6138 2.5
    endloop
  endfacet
  facet normal 0.336567 -0.939277 -0.0669473
    outer loop
      vertex 4.67072 40 36.0653
      vertex 13.7723 45.6537 2.5
      vertex 5.05556 40 38
    endloop
  endfacet
  facet normal 0.0952866 -0.985182 -0.142606
    outer loop
      vertex 1.93468 40 33.3293
      vertex 4.97312 41.5 24.9969
      vertex 5 41.5 25.0148
    endloop
  endfacet
  facet normal 0.0952863 -0.985182 -0.142606
    outer loop
      vertex 5 41.5 25.0148
      vertex 3.57482 40 34.4252
      vertex 1.93468 40 33.3293
    endloop
  endfacet
  facet normal 0.095287 -0.985182 -0.142606
    outer loop
      vertex 13.4529 45.5766 2.5
      vertex 5 41.5133 24.9232
      vertex 13.1767 45.5499 2.5
    endloop
  endfacet
  facet normal 0.095287 -0.985182 -0.142606
    outer loop
      vertex 5 41.5133 24.9232
      vertex 13.4529 45.5766 2.5
      vertex 5 41.5 25.0148
    endloop
  endfacet
  facet normal 0.0952862 -0.985182 -0.142606
    outer loop
      vertex 5 41.5 25.0148
      vertex 13.4529 45.5766 2.5
      vertex 3.57482 40 34.4252
    endloop
  endfacet
  facet normal -0.544166 -0.838978 5.45547e-07
    outer loop
      vertex -13.7723 45.6537 2.5
      vertex -5.05556 40 38
      vertex -15 46.45 2.5
    endloop
  endfacet
  facet normal -0.0173398 0.999844 0.00344909
    outer loop
      vertex -4.67072 47.5 39.9347
      vertex -5.05556 47.5 38
      vertex -15 47.45 2.5
    endloop
  endfacet
  facet normal -2.10519e-07 0.999999 -0.00141072
    outer loop
      vertex 12.884 47.4571 2.5
      vertex 5 47.4613 5.5
      vertex 0 47.5 32.9444
    endloop
  endfacet
  facet normal 0 0.999999 -0.00141017
    outer loop
      vertex 5 47.4613 5.5
      vertex 12.884 47.4571 2.5
      vertex 5 47.4571 2.5
    endloop
  endfacet
  facet normal 0 0.999999 -0.00141068
    outer loop
      vertex -5 47.4613 5.5
      vertex 0 47.5 32.9444
      vertex 5 47.4613 5.5
    endloop
  endfacet
  facet normal 2.10519e-07 0.999999 -0.00141072
    outer loop
      vertex -5 47.4613 5.5
      vertex -12.884 47.4571 2.5
      vertex 0 47.5 32.9444
    endloop
  endfacet
  facet normal 0 0.999999 -0.00141017
    outer loop
      vertex -12.884 47.4571 2.5
      vertex -5 47.4613 5.5
      vertex -5 47.4571 2.5
    endloop
  endfacet
  facet normal -0.19509 0 0.980785
    outer loop
      vertex -1.93468 47.5 42.6707
      vertex 0 40 43.0556
      vertex 0 47.5 43.0556
    endloop
  endfacet
  facet normal -0.19509 0 0.980785
    outer loop
      vertex 0 40 43.0556
      vertex -1.93468 47.5 42.6707
      vertex -1.93468 40 42.6707
    endloop
  endfacet
  facet normal 0.963976 0 0.265988
    outer loop
      vertex 4.67072 47.5 39.9347
      vertex 15 46.45 2.5
      vertex 15 47.45 2.5
    endloop
  endfacet
  facet normal 0.963976 0 0.265988
    outer loop
      vertex 15 46.45 2.5
      vertex 4.67072 47.5 39.9347
      vertex 4.67072 40 39.9347
    endloop
  endfacet
  facet normal -0.336567 -0.939277 -0.0669473
    outer loop
      vertex -13.7723 45.6537 2.5
      vertex -4.67072 40 36.0653
      vertex -5.05556 40 38
    endloop
  endfacet
  facet normal -0.336539 -0.939286 -0.0669564
    outer loop
      vertex -4.67072 40 36.0653
      vertex -13.7723 45.6537 2.5
      vertex -13.6608 45.6138 2.5
    endloop
  endfacet
  facet normal -0.00139463 0.999999 -0.000922524
    outer loop
      vertex -13.6608 47.4565 2.5
      vertex -3.57482 47.5 34.4252
      vertex -13.4529 47.4568 2.5
    endloop
  endfacet
  facet normal -0.00138514 0.999999 -0.000925523
    outer loop
      vertex -3.57482 47.5 34.4252
      vertex -13.6608 47.4565 2.5
      vertex -4.67072 47.5 36.0653
    endloop
  endfacet
  facet normal 0.0027777 0.999996 -0.000552519
    outer loop
      vertex 13.7723 47.4562 2.5
      vertex 4.67072 47.5 36.0653
      vertex 5.05556 47.5 38
    endloop
  endfacet
  facet normal 0.00277161 0.999996 -0.000554169
    outer loop
      vertex 4.67072 47.5 36.0653
      vertex 13.7723 47.4562 2.5
      vertex 13.6608 47.4565 2.5
    endloop
  endfacet
  facet normal -0.83147 0 0.55557
    outer loop
      vertex -4.67072 40 39.9347
      vertex -3.57482 47.5 41.5748
      vertex -4.67072 47.5 39.9347
    endloop
  endfacet
  facet normal -0.83147 0 0.55557
    outer loop
      vertex -3.57482 47.5 41.5748
      vertex -4.67072 40 39.9347
      vertex -3.57482 40 41.5748
    endloop
  endfacet
  facet normal -0.55557 0 0.83147
    outer loop
      vertex -3.57482 47.5 41.5748
      vertex -1.93468 40 42.6707
      vertex -1.93468 47.5 42.6707
    endloop
  endfacet
  facet normal -0.55557 0 0.83147
    outer loop
      vertex -1.93468 40 42.6707
      vertex -3.57482 47.5 41.5748
      vertex -3.57482 40 41.5748
    endloop
  endfacet
  facet normal 0.83147 -0 0.55557
    outer loop
      vertex 3.57482 40 41.5748
      vertex 4.67072 47.5 39.9347
      vertex 3.57482 47.5 41.5748
    endloop
  endfacet
  facet normal 0.83147 0 0.55557
    outer loop
      vertex 4.67072 47.5 39.9347
      vertex 3.57482 40 41.5748
      vertex 4.67072 40 39.9347
    endloop
  endfacet
  facet normal 0.00502733 0.999987 -1.28487e-07
    outer loop
      vertex 15 47.45 2.5
      vertex 13.7723 47.4562 2.5
      vertex 5.05556 47.5 38
    endloop
  endfacet
  facet normal 0.0328972 -0.98567 -0.165445
    outer loop
      vertex 13.1767 45.5499 2.5
      vertex 5 42.15 21.1296
      vertex 12.884 45.5401 2.5
    endloop
  endfacet
  facet normal 0.0329069 -0.985671 -0.165441
    outer loop
      vertex 5 42.15 21.1296
      vertex 13.1767 45.5499 2.5
      vertex 5 41.5133 24.9232
    endloop
  endfacet
  facet normal 0.0329084 -0.985671 -0.165441
    outer loop
      vertex 3.48837 41.5 24.7015
      vertex 1.93468 40 33.3293
      vertex 0 40 32.9444
    endloop
  endfacet
  facet normal 0.0329082 -0.985671 -0.165441
    outer loop
      vertex 1.93468 40 33.3293
      vertex 3.48837 41.5 24.7015
      vertex 4.97312 41.5 24.9969
    endloop
  endfacet
  facet normal 0.544166 -0.838978 5.45547e-07
    outer loop
      vertex 13.7723 45.6537 2.5
      vertex 15 46.45 2.5
      vertex 5.05556 40 38
    endloop
  endfacet
  facet normal 0.174708 -0.977678 -0.116721
    outer loop
      vertex 13.6608 45.6138 2.5
      vertex 3.57482 40 34.4252
      vertex 13.4529 45.5766 2.5
    endloop
  endfacet
  facet normal 0.174693 -0.97768 -0.116726
    outer loop
      vertex 3.57482 40 34.4252
      vertex 13.6608 45.6138 2.5
      vertex 4.67072 40 36.0653
    endloop
  endfacet
  facet normal -0.0952863 -0.985182 -0.142606
    outer loop
      vertex -3.57482 40 34.4252
      vertex -5 41.5 25.0148
      vertex -1.93468 40 33.3293
    endloop
  endfacet
  facet normal -0.0952862 -0.985182 -0.142606
    outer loop
      vertex -13.4529 45.5766 2.5
      vertex -5 41.5 25.0148
      vertex -3.57482 40 34.4252
    endloop
  endfacet
  facet normal -0.095287 -0.985182 -0.142606
    outer loop
      vertex -13.4529 45.5766 2.5
      vertex -5 41.5133 24.9232
      vertex -5 41.5 25.0148
    endloop
  endfacet
  facet normal -0.095287 -0.985182 -0.142606
    outer loop
      vertex -5 41.5133 24.9232
      vertex -13.4529 45.5766 2.5
      vertex -13.1767 45.5499 2.5
    endloop
  endfacet
  facet normal -0.0952866 -0.985182 -0.142606
    outer loop
      vertex -1.93468 40 33.3293
      vertex -5 41.5 25.0148
      vertex -4.97312 41.5 24.9969
    endloop
  endfacet
  facet normal -0.174693 -0.97768 -0.116726
    outer loop
      vertex -13.6608 45.6138 2.5
      vertex -3.57482 40 34.4252
      vertex -4.67072 40 36.0653
    endloop
  endfacet
  facet normal -0.174708 -0.977678 -0.116721
    outer loop
      vertex -3.57482 40 34.4252
      vertex -13.6608 45.6138 2.5
      vertex -13.4529 45.5766 2.5
    endloop
  endfacet
  facet normal -0.898258 -0.401507 0.178675
    outer loop
      vertex -5.05556 40 38
      vertex -4.67072 40 39.9347
      vertex -15 46.45 2.5
    endloop
  endfacet
  facet normal -0.00502733 0.999987 -1.28487e-07
    outer loop
      vertex -5.05556 47.5 38
      vertex -13.7723 47.4562 2.5
      vertex -15 47.45 2.5
    endloop
  endfacet
  facet normal -0.00277161 0.999996 -0.000554169
    outer loop
      vertex -13.7723 47.4562 2.5
      vertex -4.67072 47.5 36.0653
      vertex -13.6608 47.4565 2.5
    endloop
  endfacet
  facet normal -0.0027777 0.999996 -0.000552519
    outer loop
      vertex -4.67072 47.5 36.0653
      vertex -13.7723 47.4562 2.5
      vertex -5.05556 47.5 38
    endloop
  endfacet
  facet normal -0.000258807 0.999999 -0.0013011
    outer loop
      vertex -12.884 47.4571 2.5
      vertex -1.93468 47.5 33.3293
      vertex 0 47.5 32.9444
    endloop
  endfacet
  facet normal -0.000260644 0.999999 -0.00130045
    outer loop
      vertex -1.93468 47.5 33.3293
      vertex -12.884 47.4571 2.5
      vertex -13.1767 47.457 2.5
    endloop
  endfacet
  facet normal 0.000260644 0.999999 -0.00130045
    outer loop
      vertex 12.884 47.4571 2.5
      vertex 1.93468 47.5 33.3293
      vertex 13.1767 47.457 2.5
    endloop
  endfacet
  facet normal 0.000258807 0.999999 -0.0013011
    outer loop
      vertex 1.93468 47.5 33.3293
      vertex 12.884 47.4571 2.5
      vertex 0 47.5 32.9444
    endloop
  endfacet
  facet normal 0.0173398 0.999844 0.00344909
    outer loop
      vertex 15 47.45 2.5
      vertex 5.05556 47.5 38
      vertex 4.67072 47.5 39.9347
    endloop
  endfacet
  facet normal 0 1 0
    outer loop
      vertex 1.93468 47.5 42.6707
      vertex -1.93468 47.5 42.6707
      vertex 0 47.5 43.0556
    endloop
  endfacet
  facet normal 0 1 0
    outer loop
      vertex 3.57482 47.5 41.5748
      vertex -1.93468 47.5 42.6707
      vertex 1.93468 47.5 42.6707
    endloop
  endfacet
  facet normal 0 1 0
    outer loop
      vertex 3.57482 47.5 41.5748
      vertex -3.57482 47.5 41.5748
      vertex -1.93468 47.5 42.6707
    endloop
  endfacet
  facet normal 0 1 0
    outer loop
      vertex 4.67072 47.5 39.9347
      vertex -3.57482 47.5 41.5748
      vertex 3.57482 47.5 41.5748
    endloop
  endfacet
  facet normal 0 1 0
    outer loop
      vertex 4.67072 47.5 39.9347
      vertex -4.67072 47.5 39.9347
      vertex -3.57482 47.5 41.5748
    endloop
  endfacet
  facet normal 0 1 0
    outer loop
      vertex 5.05556 47.5 38
      vertex -4.67072 47.5 39.9347
      vertex 4.67072 47.5 39.9347
    endloop
  endfacet
  facet normal 0 1 0
    outer loop
      vertex 5.05556 47.5 38
      vertex -5.05556 47.5 38
      vertex -4.67072 47.5 39.9347
    endloop
  endfacet
  facet normal 0 1 -0
    outer loop
      vertex 4.67072 47.5 36.0653
      vertex -5.05556 47.5 38
      vertex 5.05556 47.5 38
    endloop
  endfacet
  facet normal 0 1 0
    outer loop
      vertex 4.67072 47.5 36.0653
      vertex -4.67072 47.5 36.0653
      vertex -5.05556 47.5 38
    endloop
  endfacet
  facet normal 0 1 -0
    outer loop
      vertex 3.57482 47.5 34.4252
      vertex -4.67072 47.5 36.0653
      vertex 4.67072 47.5 36.0653
    endloop
  endfacet
  facet normal 0 1 0
    outer loop
      vertex 3.57482 47.5 34.4252
      vertex -3.57482 47.5 34.4252
      vertex -4.67072 47.5 36.0653
    endloop
  endfacet
  facet normal 0 1 -0
    outer loop
      vertex 1.93468 47.5 33.3293
      vertex -3.57482 47.5 34.4252
      vertex 3.57482 47.5 34.4252
    endloop
  endfacet
  facet normal 0 1 0
    outer loop
      vertex 1.93468 47.5 33.3293
      vertex -1.93468 47.5 33.3293
      vertex -3.57482 47.5 34.4252
    endloop
  endfacet
  facet normal -0 1 0
    outer loop
      vertex -1.93468 47.5 33.3293
      vertex 1.93468 47.5 33.3293
      vertex 0 47.5 32.9444
    endloop
  endfacet
  facet normal 0.55557 0 0.83147
    outer loop
      vertex 1.93468 47.5 42.6707
      vertex 3.57482 40 41.5748
      vertex 3.57482 47.5 41.5748
    endloop
  endfacet
  facet normal 0.55557 0 0.83147
    outer loop
      vertex 3.57482 40 41.5748
      vertex 1.93468 47.5 42.6707
      vertex 1.93468 40 42.6707
    endloop
  endfacet
  facet normal -0.0329069 -0.985671 -0.165441
    outer loop
      vertex -13.1767 45.5499 2.5
      vertex -5 42.15 21.1296
      vertex -5 41.5133 24.9232
    endloop
  endfacet
  facet normal -0.0328972 -0.98567 -0.165445
    outer loop
      vertex -5 42.15 21.1296
      vertex -13.1767 45.5499 2.5
      vertex -12.884 45.5401 2.5
    endloop
  endfacet
  facet normal -0.0329082 -0.985671 -0.165441
    outer loop
      vertex -3.48837 41.5 24.7015
      vertex -1.93468 40 33.3293
      vertex -4.97312 41.5 24.9969
    endloop
  endfacet
  facet normal -0.0329084 -0.985671 -0.165441
    outer loop
      vertex -1.93468 40 33.3293
      vertex -3.48837 41.5 24.7015
      vertex 0 40 32.9444
    endloop
  endfacet
  facet normal 0 -1 0
    outer loop
      vertex 0 40 40.5
      vertex 0 40 43.0556
      vertex -1.93468 40 42.6707
    endloop
  endfacet
  facet normal 0 -1 0
    outer loop
      vertex -1.76777 40 39.7678
      vertex -1.93468 40 42.6707
      vertex -3.57482 40 41.5748
    endloop
  endfacet
  facet normal 0 -1 0
    outer loop
      vertex 0 40 43.0556
      vertex 0 40 40.5
      vertex 1.93468 40 42.6707
    endloop
  endfacet
  facet normal 0 -1 0
    outer loop
      vertex 1.76777 40 39.7678
      vertex 1.93468 40 42.6707
      vertex 0 40 40.5
    endloop
  endfacet
  facet normal 0 -1 0
    outer loop
      vertex -1.76777 40 39.7678
      vertex -3.57482 40 41.5748
      vertex -4.67072 40 39.9347
    endloop
  endfacet
  facet normal 0 -1 0
    outer loop
      vertex -1.93468 40 42.6707
      vertex -1.76777 40 39.7678
      vertex 0 40 40.5
    endloop
  endfacet
  facet normal 0 -1 0
    outer loop
      vertex -2.5 40 38
      vertex -4.67072 40 39.9347
      vertex -5.05556 40 38
    endloop
  endfacet
  facet normal 0 -1 0
    outer loop
      vertex -4.67072 40 39.9347
      vertex -2.5 40 38
      vertex -1.76777 40 39.7678
    endloop
  endfacet
  facet normal 0 -1 0
    outer loop
      vertex -4.67072 40 36.0653
      vertex -2.5 40 38
      vertex -5.05556 40 38
    endloop
  endfacet
  facet normal 0 -1 -0
    outer loop
      vertex -2.5 40 38
      vertex -4.67072 40 36.0653
      vertex -1.76777 40 36.2322
    endloop
  endfacet
  facet normal 0 -1 0
    outer loop
      vertex -3.57482 40 34.4252
      vertex -1.76777 40 36.2322
      vertex -4.67072 40 36.0653
    endloop
  endfacet
  facet normal 0 -1 0
    outer loop
      vertex -1.93468 40 33.3293
      vertex -1.76777 40 36.2322
      vertex -3.57482 40 34.4252
    endloop
  endfacet
  facet normal 0 -1 -0
    outer loop
      vertex 1.93468 40 42.6707
      vertex 1.76777 40 39.7678
      vertex 3.57482 40 41.5748
    endloop
  endfacet
  facet normal 0 -1 -0
    outer loop
      vertex 3.57482 40 41.5748
      vertex 1.76777 40 39.7678
      vertex 4.67072 40 39.9347
    endloop
  endfacet
  facet normal 0 -1 0
    outer loop
      vertex 2.5 40 38
      vertex 4.67072 40 39.9347
      vertex 1.76777 40 39.7678
    endloop
  endfacet
  facet normal 0 -1 0
    outer loop
      vertex 2.5 40 38
      vertex 5.05556 40 38
      vertex 4.67072 40 39.9347
    endloop
  endfacet
  facet normal 0 -1 0
    outer loop
      vertex 4.67072 40 36.0653
      vertex 2.5 40 38
      vertex 1.76777 40 36.2322
    endloop
  endfacet
  facet normal 0 -1 0
    outer loop
      vertex 2.5 40 38
      vertex 4.67072 40 36.0653
      vertex 5.05556 40 38
    endloop
  endfacet
  facet normal 0 -1 0
    outer loop
      vertex 1.93468 40 33.3293
      vertex 1.76777 40 36.2322
      vertex 0 40 35.5
    endloop
  endfacet
  facet normal 0 -1 -0
    outer loop
      vertex -1.76777 40 36.2322
      vertex -1.93468 40 33.3293
      vertex 0 40 35.5
    endloop
  endfacet
  facet normal 0 -1 0
    outer loop
      vertex 1.76777 40 36.2322
      vertex 3.57482 40 34.4252
      vertex 4.67072 40 36.0653
    endloop
  endfacet
  facet normal 0 -1 0
    outer loop
      vertex 0 40 32.9444
      vertex 0 40 35.5
      vertex -1.93468 40 33.3293
    endloop
  endfacet
  facet normal 0 -1 0
    outer loop
      vertex 1.76777 40 36.2322
      vertex 1.93468 40 33.3293
      vertex 3.57482 40 34.4252
    endloop
  endfacet
  facet normal 0 -1 0
    outer loop
      vertex 0 40 35.5
      vertex 0 40 32.9444
      vertex 1.93468 40 33.3293
    endloop
  endfacet
  facet normal 0.898258 -0.401507 0.178675
    outer loop
      vertex 5.05556 40 38
      vertex 15 46.45 2.5
      vertex 4.67072 40 39.9347
    endloop
  endfacet
  facet normal -0.000749758 0.999999 -0.00112209
    outer loop
      vertex -13.1767 47.457 2.5
      vertex -3.57482 47.5 34.4252
      vertex -1.93468 47.5 33.3293
    endloop
  endfacet
  facet normal -0.000745807 0.999999 -0.00112328
    outer loop
      vertex -3.57482 47.5 34.4252
      vertex -13.1767 47.457 2.5
      vertex -13.4529 47.4568 2.5
    endloop
  endfacet
  facet normal 0.000745807 0.999999 -0.00112328
    outer loop
      vertex 13.1767 47.457 2.5
      vertex 3.57482 47.5 34.4252
      vertex 13.4529 47.4568 2.5
    endloop
  endfacet
  facet normal 0.000749758 0.999999 -0.00112209
    outer loop
      vertex 3.57482 47.5 34.4252
      vertex 13.1767 47.457 2.5
      vertex 1.93468 47.5 33.3293
    endloop
  endfacet
  facet normal 0.00138514 0.999999 -0.000925523
    outer loop
      vertex 13.6608 47.4565 2.5
      vertex 3.57482 47.5 34.4252
      vertex 4.67072 47.5 36.0653
    endloop
  endfacet
  facet normal 0.00139463 0.999999 -0.000922524
    outer loop
      vertex 3.57482 47.5 34.4252
      vertex 13.6608 47.4565 2.5
      vertex 13.4529 47.4568 2.5
    endloop
  endfacet
  facet normal 0.923879 0 -0.382684
    outer loop
      vertex -1.76777 40 39.7678
      vertex -2.5 46 38
      vertex -1.76777 46 39.7678
    endloop
  endfacet
  facet normal 0.923879 0 -0.382684
    outer loop
      vertex -2.5 46 38
      vertex -1.76777 40 39.7678
      vertex -2.5 40 38
    endloop
  endfacet
  facet normal -0.923879 0 -0.382684
    outer loop
      vertex 2.5 40 38
      vertex 1.76777 46 39.7678
      vertex 2.5 46 38
    endloop
  endfacet
  facet normal -0.923879 -0 -0.382684
    outer loop
      vertex 1.76777 46 39.7678
      vertex 2.5 40 38
      vertex 1.76777 40 39.7678
    endloop
  endfacet
  facet normal 0.382684 0 -0.923879
    outer loop
      vertex -1.76777 40 39.7678
      vertex 0 46 40.5
      vertex 0 40 40.5
    endloop
  endfacet
  facet normal 0.382684 0 -0.923879
    outer loop
      vertex 0 46 40.5
      vertex -1.76777 40 39.7678
      vertex -1.76777 46 39.7678
    endloop
  endfacet
  facet normal 0 -1 0
    outer loop
      vertex -1.76777 46 39.7678
      vertex 1.76777 46 39.7678
      vertex 0 46 40.5
    endloop
  endfacet
  facet normal 0 -1 0
    outer loop
      vertex -2.5 46 38
      vertex 1.76777 46 39.7678
      vertex -1.76777 46 39.7678
    endloop
  endfacet
  facet normal 0 -1 0
    outer loop
      vertex -2.5 46 38
      vertex 2.5 46 38
      vertex 1.76777 46 39.7678
    endloop
  endfacet
  facet normal 0 -1 0
    outer loop
      vertex -1.76777 46 36.2322
      vertex 2.5 46 38
      vertex -2.5 46 38
    endloop
  endfacet
  facet normal 0 -1 0
    outer loop
      vertex -1.76777 46 36.2322
      vertex 1.76777 46 36.2322
      vertex 2.5 46 38
    endloop
  endfacet
  facet normal -0 -1 0
    outer loop
      vertex 1.76777 46 36.2322
      vertex -1.76777 46 36.2322
      vertex 0 46 35.5
    endloop
  endfacet
  facet normal -0.382684 0 -0.923879
    outer loop
      vertex 0 40 40.5
      vertex 1.76777 46 39.7678
      vertex 1.76777 40 39.7678
    endloop
  endfacet
  facet normal -0.382684 0 -0.923879
    outer loop
      vertex 1.76777 46 39.7678
      vertex 0 40 40.5
      vertex 0 46 40.5
    endloop
  endfacet
  facet normal 0.382683 0 0.92388
    outer loop
      vertex -1.76777 46 36.2322
      vertex 0 40 35.5
      vertex 0 46 35.5
    endloop
  endfacet
  facet normal 0.382683 0 0.92388
    outer loop
      vertex 0 40 35.5
      vertex -1.76777 46 36.2322
      vertex -1.76777 40 36.2322
    endloop
  endfacet
  facet normal -0.92388 0 0.382683
    outer loop
      vertex 1.76777 40 36.2322
      vertex 2.5 46 38
      vertex 1.76777 46 36.2322
    endloop
  endfacet
  facet normal -0.92388 0 0.382683
    outer loop
      vertex 2.5 46 38
      vertex 1.76777 40 36.2322
      vertex 2.5 40 38
    endloop
  endfacet
  facet normal 0.92388 -0 0.382683
    outer loop
      vertex -2.5 40 38
      vertex -1.76777 46 36.2322
      vertex -2.5 46 38
    endloop
  endfacet
  facet normal 0.92388 0 0.382683
    outer loop
      vertex -1.76777 46 36.2322
      vertex -2.5 40 38
      vertex -1.76777 40 36.2322
    endloop
  endfacet
  facet normal -0.382683 0 0.92388
    outer loop
      vertex 0 46 35.5
      vertex 1.76777 40 36.2322
      vertex 1.76777 46 36.2322
    endloop
  endfacet
  facet normal -0.382683 0 0.92388
    outer loop
      vertex 1.76777 40 36.2322
      vertex 0 46 35.5
      vertex 0 40 35.5
    endloop
  endfacet
  facet normal 0.900969 1.88899e-07 -0.433884
    outer loop
      vertex -1.24698 43.5 26.0637
      vertex -1.90294 41.5 24.7015
      vertex -2 43.5 24.5
    endloop
  endfacet
  facet normal 0.900969 0 -0.433884
    outer loop
      vertex -1.90294 41.5 24.7015
      vertex -1.24698 43.5 26.0637
      vertex -1.24698 41.2521 26.0637
    endloop
  endfacet
  facet normal 0.900968 0 -0.433886
    outer loop
      vertex -2 43.5 24.5
      vertex -1.90294 41.5 24.7015
      vertex -2 41.5 24.5
    endloop
  endfacet
  facet normal -1 0 0
    outer loop
      vertex 1.80194 41.5 24.7015
      vertex 1.80194 43.5 23.6322
      vertex 1.80194 41.5 23.6322
    endloop
  endfacet
  facet normal -1 0 0
    outer loop
      vertex 1.80194 43.5 23.6322
      vertex 1.80194 41.5 24.7015
      vertex 1.80194 43.5 25.3678
    endloop
  endfacet
  facet normal -1 -0 0
    outer loop
      vertex 1.80194 43.5 25.3678
      vertex 1.80194 41.5 24.7015
      vertex 1.80194 41.3788 25.3678
    endloop
  endfacet
  facet normal -0.62349 0 0.781831
    outer loop
      vertex 0.445042 43.5 22.5501
      vertex 1.80194 41.5 23.6322
      vertex 1.80194 43.5 23.6322
    endloop
  endfacet
  facet normal -0.62349 0 0.781831
    outer loop
      vertex 1.80194 41.5 23.6322
      vertex 0.445042 43.5 22.5501
      vertex 0.445042 41.5 22.5501
    endloop
  endfacet
  facet normal -0.62349 -0 -0.781831
    outer loop
      vertex 0.445042 43.5 26.4499
      vertex 1.80194 41.3788 25.3678
      vertex 0.445042 41.1819 26.4499
    endloop
  endfacet
  facet normal -0.62349 0 -0.781831
    outer loop
      vertex 1.80194 41.3788 25.3678
      vertex 0.445042 43.5 26.4499
      vertex 1.80194 43.5 25.3678
    endloop
  endfacet
  facet normal 0.222521 0 -0.974928
    outer loop
      vertex -1.24698 41.2521 26.0637
      vertex 0.445042 43.5 26.4499
      vertex 0.445042 41.1819 26.4499
    endloop
  endfacet
  facet normal 0.222521 0 -0.974928
    outer loop
      vertex 0.445042 43.5 26.4499
      vertex -1.24698 41.2521 26.0637
      vertex -1.24698 43.5 26.0637
    endloop
  endfacet
  facet normal 0.900969 -0 0.433884
    outer loop
      vertex -2 41.5 24.5
      vertex -1.24698 43.5 22.9363
      vertex -2 43.5 24.5
    endloop
  endfacet
  facet normal 0.900969 0 0.433884
    outer loop
      vertex -1.24698 43.5 22.9363
      vertex -2 41.5 24.5
      vertex -1.24698 41.5 22.9363
    endloop
  endfacet
  facet normal 0 -1 0
    outer loop
      vertex -1.24698 43.5 26.0637
      vertex 1.80194 43.5 25.3678
      vertex 0.445042 43.5 26.4499
    endloop
  endfacet
  facet normal 0 -1 0
    outer loop
      vertex -2 43.5 24.5
      vertex 1.80194 43.5 25.3678
      vertex -1.24698 43.5 26.0637
    endloop
  endfacet
  facet normal 0 -1 0
    outer loop
      vertex -2 43.5 24.5
      vertex 1.80194 43.5 23.6322
      vertex 1.80194 43.5 25.3678
    endloop
  endfacet
  facet normal 0 -1 0
    outer loop
      vertex -1.24698 43.5 22.9363
      vertex 1.80194 43.5 23.6322
      vertex -2 43.5 24.5
    endloop
  endfacet
  facet normal 0 -1 0
    outer loop
      vertex 1.80194 43.5 23.6322
      vertex -1.24698 43.5 22.9363
      vertex 0.445042 43.5 22.5501
    endloop
  endfacet
  facet normal 0.222521 0 0.974928
    outer loop
      vertex -1.24698 43.5 22.9363
      vertex 0.445042 41.5 22.5501
      vertex 0.445042 43.5 22.5501
    endloop
  endfacet
  facet normal 0.222521 0 0.974928
    outer loop
      vertex 0.445042 41.5 22.5501
      vertex -1.24698 43.5 22.9363
      vertex -1.24698 41.5 22.9363
    endloop
  endfacet
  facet normal 0 -1 0
    outer loop
      vertex -15 37 -2.5
      vertex 15 37 2.5
      vertex -15 37 2.5
    endloop
  endfacet
  facet normal 0 -1 -0
    outer loop
      vertex 15 37 2.5
      vertex -15 37 -2.5
      vertex 15 37 -2.5
    endloop
  endfacet
endsolid OpenSCAD_Model
