solid OpenSCAD_Model
  facet normal -0 0.922383 0.386276
    outer loop
      vertex -10.9876 7.5 6.91817
      vertex -2 6 10.5
      vertex -9.01243 7.5 6.91817
    endloop
  endfacet
  facet normal -0.723462 -0.472661 0.503184
    outer loop
      vertex -17.8532 -0.927051 -3
      vertex -6.41434 -4.06369 10.5
      vertex -7.49464 -2.41017 10.5
    endloop
  endfacet
  facet normal -0.961691 0.274136 0
    outer loop
      vertex -15.9795 7.5 1.49548
      vertex -17.8532 0.927051 -5
      vertex -17.8532 0.927051 -3
    endloop
  endfacet
  facet normal 0.0222754 -0.064886 -0.997644
    outer loop
      vertex -1.01243 -5.91817 -4.5
      vertex -1.25052 -4.85092 -4.57473
      vertex 0.855684 -5.27684 -4.5
    endloop
  endfacet
  facet normal 0.0222752 -0.064886 -0.997644
    outer loop
      vertex -1.01243 -5.91817 -4.5
      vertex -2 -5 -4.58177
      vertex -1.25052 -4.85092 -4.57473
    endloop
  endfacet
  facet normal 0.0222754 -0.0648858 -0.997644
    outer loop
      vertex -1.01243 -5.91817 -4.5
      vertex -3.91342 -4.6194 -4.64924
      vertex -2 -5 -4.58177
    endloop
  endfacet
  facet normal 0.0222752 -0.0648862 -0.997644
    outer loop
      vertex -12.1468 -2.73829 -4.95542
      vertex -3.91342 -4.6194 -4.64924
      vertex -1.01243 -5.91817 -4.5
    endloop
  endfacet
  facet normal 0.0222753 -0.0648857 -0.997644
    outer loop
      vertex -12.1468 -2.73829 -4.95542
      vertex -4.57223 -4.17919 -4.69258
      vertex -3.91342 -4.6194 -4.64924
    endloop
  endfacet
  facet normal 0.0222746 -0.0648892 -0.997644
    outer loop
      vertex -4.57223 -4.17919 -4.69258
      vertex -12.1468 -2.73829 -4.95542
      vertex -12.1468 -2.64744 -4.96133
    endloop
  endfacet
  facet normal -0 0 1
    outer loop
      vertex 0.853169 0.927051 10.5
      vertex 3.97951 -0.495476 10.5
      vertex 3.8164 1.47291 10.5
    endloop
  endfacet
  facet normal 0 0 1
    outer loop
      vertex 0.853169 0.927051 10.5
      vertex 3.8164 1.47291 10.5
      vertex 3.023 3.28169 10.5
    endloop
  endfacet
  facet normal 0 0 1
    outer loop
      vertex 3.97951 -0.495476 10.5
      vertex 0.853169 0.927051 10.5
      vertex 0.853169 -0.927051 10.5
    endloop
  endfacet
  facet normal 0 0 1
    outer loop
      vertex -0.236644 2.42705 10.5
      vertex 3.023 3.28169 10.5
      vertex 1.68528 4.73484 10.5
    endloop
  endfacet
  facet normal 0 0 1
    outer loop
      vertex 3.97951 -0.495476 10.5
      vertex 0.853169 -0.927051 10.5
      vertex 3.49464 -2.41017 10.5
    endloop
  endfacet
  facet normal 0 0 1
    outer loop
      vertex 3.49464 -2.41017 10.5
      vertex 0.853169 -0.927051 10.5
      vertex 2.41434 -4.06369 10.5
    endloop
  endfacet
  facet normal 0 0 1
    outer loop
      vertex -0.236644 2.42705 10.5
      vertex 1.68528 4.73484 10.5
      vertex -0.0518026 5.6749 10.5
    endloop
  endfacet
  facet normal 0 0 1
    outer loop
      vertex 3.023 3.28169 10.5
      vertex -0.236644 2.42705 10.5
      vertex 0.853169 0.927051 10.5
    endloop
  endfacet
  facet normal 0 0 1
    outer loop
      vertex -2 3 10.5
      vertex -0.0518026 5.6749 10.5
      vertex -2 6 10.5
    endloop
  endfacet
  facet normal 0 0 1
    outer loop
      vertex -0.0518026 5.6749 10.5
      vertex -2 3 10.5
      vertex -0.236644 2.42705 10.5
    endloop
  endfacet
  facet normal -0 0 1
    outer loop
      vertex -3.9482 5.6749 10.5
      vertex -2 3 10.5
      vertex -2 6 10.5
    endloop
  endfacet
  facet normal 0 0 1
    outer loop
      vertex -2 3 10.5
      vertex -3.9482 5.6749 10.5
      vertex -3.76336 2.42705 10.5
    endloop
  endfacet
  facet normal -0 0 1
    outer loop
      vertex -5.68528 4.73484 10.5
      vertex -3.76336 2.42705 10.5
      vertex -3.9482 5.6749 10.5
    endloop
  endfacet
  facet normal -0 0 1
    outer loop
      vertex -7.97951 -0.495476 10.5
      vertex -4.85317 -0.927051 10.5
      vertex -4.85317 0.927051 10.5
    endloop
  endfacet
  facet normal -0 0 1
    outer loop
      vertex -7.023 3.28169 10.5
      vertex -3.76336 2.42705 10.5
      vertex -5.68528 4.73484 10.5
    endloop
  endfacet
  facet normal 0 0 1
    outer loop
      vertex -3.76336 2.42705 10.5
      vertex -7.023 3.28169 10.5
      vertex -4.85317 0.927051 10.5
    endloop
  endfacet
  facet normal 0 0 1
    outer loop
      vertex -4.85317 -0.927051 10.5
      vertex -6.41434 -4.06369 10.5
      vertex -4.85568 -5.27684 10.5
    endloop
  endfacet
  facet normal -0 0 1
    outer loop
      vertex -7.8164 1.47291 10.5
      vertex -4.85317 0.927051 10.5
      vertex -7.023 3.28169 10.5
    endloop
  endfacet
  facet normal 0 0 1
    outer loop
      vertex -4.85317 -0.927051 10.5
      vertex -7.49464 -2.41017 10.5
      vertex -6.41434 -4.06369 10.5
    endloop
  endfacet
  facet normal 0 0 1
    outer loop
      vertex -7.97951 -0.495476 10.5
      vertex -4.85317 0.927051 10.5
      vertex -7.8164 1.47291 10.5
    endloop
  endfacet
  facet normal 0 0 1
    outer loop
      vertex -4.85317 -0.927051 10.5
      vertex -7.97951 -0.495476 10.5
      vertex -7.49464 -2.41017 10.5
    endloop
  endfacet
  facet normal -0 0 1
    outer loop
      vertex -0.236644 -2.42705 10.5
      vertex 2.41434 -4.06369 10.5
      vertex 0.853169 -0.927051 10.5
    endloop
  endfacet
  facet normal 0 0 1
    outer loop
      vertex 2.41434 -4.06369 10.5
      vertex -0.236644 -2.42705 10.5
      vertex 0.855684 -5.27684 10.5
    endloop
  endfacet
  facet normal 0 0 1
    outer loop
      vertex -0.236644 -2.42705 10.5
      vertex -1.01243 -5.91817 10.5
      vertex 0.855684 -5.27684 10.5
    endloop
  endfacet
  facet normal -0 0 1
    outer loop
      vertex -2 -3 10.5
      vertex -1.01243 -5.91817 10.5
      vertex -0.236644 -2.42705 10.5
    endloop
  endfacet
  facet normal 0 0 1
    outer loop
      vertex -2 -3 10.5
      vertex -2.98757 -5.91817 10.5
      vertex -1.01243 -5.91817 10.5
    endloop
  endfacet
  facet normal 0 0 1
    outer loop
      vertex -3.76336 -2.42705 10.5
      vertex -2.98757 -5.91817 10.5
      vertex -2 -3 10.5
    endloop
  endfacet
  facet normal 0 0 1
    outer loop
      vertex -4.85568 -5.27684 10.5
      vertex -3.76336 -2.42705 10.5
      vertex -4.85317 -0.927051 10.5
    endloop
  endfacet
  facet normal 0 0 1
    outer loop
      vertex -3.76336 -2.42705 10.5
      vertex -4.85568 -5.27684 10.5
      vertex -2.98757 -5.91817 10.5
    endloop
  endfacet
  facet normal -0.323485 -0.942279 0.0864184
    outer loop
      vertex -16.7634 -2.42705 -3
      vertex -2.98757 -5.91817 10.5
      vertex -4.85568 -5.27684 10.5
    endloop
  endfacet
  facet normal 0.0831152 0.966683 0.242106
    outer loop
      vertex -9.01243 7.5 6.91817
      vertex -2 6 10.5
      vertex -7.14431 7.5 6.27684
    endloop
  endfacet
  facet normal 0.0339049 -0.00858588 -0.999388
    outer loop
      vertex 2.6194 -1.91342 -4.53396
      vertex 3.97951 -0.495476 -4.5
      vertex 3.49464 -2.41017 -4.5
    endloop
  endfacet
  facet normal 0.0339051 -0.00858609 -0.999388
    outer loop
      vertex 3.97951 -0.495476 -4.5
      vertex 2.6194 -1.91342 -4.53396
      vertex 2.94551 -0.273916 -4.53698
    endloop
  endfacet
  facet normal 0.0339048 -0.00858601 -0.999388
    outer loop
      vertex 2.6194 -1.91342 -4.53396
      vertex 3.49464 -2.41017 -4.5
      vertex 2.52357 -2.05684 -4.53598
    endloop
  endfacet
  facet normal 0.0339051 -0.00858563 -0.999388
    outer loop
      vertex -6.64569 1.78125 -4.88003
      vertex -6.73876 1.31336 -4.87917
      vertex -10 2.5 -5
    endloop
  endfacet
  facet normal -0.424313 0.452997 -0.784061
    outer loop
      vertex -11.9482 7.5 -4.6749
      vertex -16.7634 2.42705 -5
      vertex -13.6853 7.5 -3.73484
    endloop
  endfacet
  facet normal -0.709194 -0.51526 0.481198
    outer loop
      vertex -16.7634 -2.42705 -3
      vertex -6.41434 -4.06369 10.5
      vertex -17.8532 -0.927051 -3
    endloop
  endfacet
  facet normal 0.0217148 -0.0668317 -0.997528
    outer loop
      vertex -12.1468 -2.73829 -4.95542
      vertex -1.01243 -5.91817 -4.5
      vertex -12.1468 -3.59524 -4.89801
    endloop
  endfacet
  facet normal 0 -1 0
    outer loop
      vertex -2.98757 -5.91817 -4.5
      vertex -1.01243 -5.91817 10.5
      vertex -2.98757 -5.91817 10.5
    endloop
  endfacet
  facet normal 0 -1 -0
    outer loop
      vertex -1.01243 -5.91817 10.5
      vertex -2.98757 -5.91817 -4.5
      vertex -1.01243 -5.91817 -4.5
    endloop
  endfacet
  facet normal -0.126897 0.760453 0.636874
    outer loop
      vertex -10.9876 7.5 6.91817
      vertex -3.9482 5.6749 10.5
      vertex -2 6 10.5
    endloop
  endfacet
  facet normal 0.212684 0.894602 -0.393006
    outer loop
      vertex -6.31472 7.5 -3.73484
      vertex -0.0518026 5.6749 -4.5
      vertex -8.0518 7.5 -4.6749
    endloop
  endfacet
  facet normal 0.246777 0.942069 -0.227174
    outer loop
      vertex -4.977 7.5 -2.28169
      vertex -0.0518026 5.6749 -4.5
      vertex -6.31472 7.5 -3.73484
    endloop
  endfacet
  facet normal 0.0357439 2.58545e-07 -0.999361
    outer loop
      vertex -10 2.5 -5
      vertex -6.6194 1.91342 -4.87909
      vertex -6.64569 1.78125 -4.88003
    endloop
  endfacet
  facet normal 0.0357439 9.12649e-08 -0.999361
    outer loop
      vertex -10 2.5 -5
      vertex -5.53553 3.53553 -4.84032
      vertex -6.6194 1.91342 -4.87909
    endloop
  endfacet
  facet normal 0.0357438 1.90613e-07 -0.999361
    outer loop
      vertex -10 7.5 -5
      vertex -5.53553 3.53553 -4.84032
      vertex -10 2.5 -5
    endloop
  endfacet
  facet normal 0.0357439 2.0555e-07 -0.999361
    outer loop
      vertex -5.53553 3.53553 -4.84032
      vertex -10 7.5 -5
      vertex -4.3977 4.29581 -4.79962
    endloop
  endfacet
  facet normal 0.035744 2.45308e-07 -0.999361
    outer loop
      vertex 3.97951 -0.495476 -4.5
      vertex 2.94551 -0.273916 -4.53698
      vertex 3 -1.83697e-16 -4.53503
    endloop
  endfacet
  facet normal 0.0357439 1.85484e-07 -0.999361
    outer loop
      vertex 3.97951 -0.495476 -4.5
      vertex 3 -1.83697e-16 -4.53503
      vertex 2.98547 0.0730572 -4.53555
    endloop
  endfacet
  facet normal -1.07765e-07 3.31667e-07 -1
    outer loop
      vertex -15 3 -5
      vertex -16.7634 2.42705 -5
      vertex -10 7.5 -5
    endloop
  endfacet
  facet normal -0.798869 0.488894 -0.350416
    outer loop
      vertex -15.023 7.5 -2.28169
      vertex -17.8532 0.927051 -5
      vertex -15.8164 7.5 -0.472913
    endloop
  endfacet
  facet normal -0.935965 0.343445 -0.0775561
    outer loop
      vertex -15.8164 7.5 -0.472913
      vertex -17.8532 0.927051 -5
      vertex -15.9795 7.5 1.49548
    endloop
  endfacet
  facet normal -0.160769 0.214341 -0.963437
    outer loop
      vertex -10 7.5 -5
      vertex -16.7634 2.42705 -5
      vertex -11.9482 7.5 -4.6749
    endloop
  endfacet
  facet normal 0.0300822 -0.0196531 -0.999354
    outer loop
      vertex -6.6194 -1.91342 -4.81422
      vertex -12.1468 -0.927051 -5
      vertex -6.71311 -1.44227 -4.8263
    endloop
  endfacet
  facet normal 0.0300819 -0.0196549 -0.999354
    outer loop
      vertex -12.1468 -0.927051 -5
      vertex -6.6194 -1.91342 -4.81422
      vertex -6.45993 -2.15207 -4.80472
    endloop
  endfacet
  facet normal 0.030082 -0.0196535 -0.999354
    outer loop
      vertex 2.41434 -4.06369 -4.5
      vertex 2.3594 -2.30253 -4.53629
      vertex 3.49464 -2.41017 -4.5
    endloop
  endfacet
  facet normal 0.0300822 -0.0196535 -0.999354
    outer loop
      vertex 2.41434 -4.06369 -4.5
      vertex 1.53553 -3.53553 -4.53684
      vertex 2.3594 -2.30253 -4.53629
    endloop
  endfacet
  facet normal 0.0300823 -0.0196534 -0.999354
    outer loop
      vertex 1.53553 -3.53553 -4.53684
      vertex 2.41434 -4.06369 -4.5
      vertex 1.15204 -3.79178 -4.54334
    endloop
  endfacet
  facet normal 3.50052e-07 -0.168878 -0.985637
    outer loop
      vertex -12.1468 -3.59524 -4.89801
      vertex -2.98757 -5.91817 -4.5
      vertex -12.1468 -3.69312 -4.88124
    endloop
  endfacet
  facet normal 0 -0.168879 -0.985637
    outer loop
      vertex -2.98757 -5.91817 -4.5
      vertex -12.1468 -3.59524 -4.89801
      vertex -1.01243 -5.91817 -4.5
    endloop
  endfacet
  facet normal 0.417811 0.908534 0
    outer loop
      vertex -0.0518026 5.6749 10.5
      vertex -0.0518026 5.6749 -4.5
      vertex -4.02049 7.5 1.49548
    endloop
  endfacet
  facet normal -0.963746 0.107791 0.244078
    outer loop
      vertex -17.2888 2.5 -1.466
      vertex -15.9795 7.5 1.49548
      vertex -17.2974 2.5 -1.5
    endloop
  endfacet
  facet normal -0.963748 0.107785 0.244075
    outer loop
      vertex -17.2974 2.5 -1.5
      vertex -17.8532 0.927051 -3
      vertex -17.3013 2.46514 -1.5
    endloop
  endfacet
  facet normal -0.963751 0.107807 0.244053
    outer loop
      vertex -17.8532 0.927051 -3
      vertex -17.2974 2.5 -1.5
      vertex -15.9795 7.5 1.49548
    endloop
  endfacet
  facet normal -0.963751 0.107806 0.244055
    outer loop
      vertex -15.9795 7.5 1.49548
      vertex -17.2888 2.5 -1.466
      vertex -15.4946 7.5 3.41017
    endloop
  endfacet
  facet normal -0.72695 -0.463252 0.506894
    outer loop
      vertex -17.0794 -0.5 -1.5
      vertex -17.8532 -0.927051 -3
      vertex -13.5929 -0.5 3.5
    endloop
  endfacet
  facet normal -0.72695 -0.463252 0.506894
    outer loop
      vertex -17.8532 -0.927051 -3
      vertex -17.0794 -0.5 -1.5
      vertex -17.2135 -0.289554 -1.5
    endloop
  endfacet
  facet normal -0.72695 -0.463251 0.506895
    outer loop
      vertex -13.5929 -0.5 3.5
      vertex -14.4143 2.5 5.06369
      vertex -15.0812 1.83543 3.5
    endloop
  endfacet
  facet normal -0.72695 -0.463251 0.506894
    outer loop
      vertex -13.5929 -0.5 3.5
      vertex -7.49464 -2.41017 10.5
      vertex -14.4143 2.5 5.06369
    endloop
  endfacet
  facet normal -0.72695 -0.463251 0.506894
    outer loop
      vertex -7.49464 -2.41017 10.5
      vertex -13.5929 -0.5 3.5
      vertex -17.8532 -0.927051 -3
    endloop
  endfacet
  facet normal -0.575071 -0.738851 0.351273
    outer loop
      vertex -16.7634 -2.42705 -3
      vertex -4.85568 -5.27684 10.5
      vertex -6.41434 -4.06369 10.5
    endloop
  endfacet
  facet normal 0 0 -1
    outer loop
      vertex -14.4122 -22.809 -5
      vertex -12.1468 -22.927 -5
      vertex -13.2366 -24.427 -5
    endloop
  endfacet
  facet normal 0 0 -1
    outer loop
      vertex -12.1468 -22.927 -5
      vertex -14.0489 -21.691 -5
      vertex -12.1468 -0.927051 -5
    endloop
  endfacet
  facet normal 0 0 -1
    outer loop
      vertex -15 -21 -5
      vertex -12.1468 -0.927051 -5
      vertex -14.0489 -21.691 -5
    endloop
  endfacet
  facet normal 0 0 -1
    outer loop
      vertex -12.1468 -0.927051 -5
      vertex -15 3 -5
      vertex -10 2.5 -5
    endloop
  endfacet
  facet normal 0 0 -1
    outer loop
      vertex -17.8532 0.927051 -5
      vertex -12.1468 -0.927051 -5
      vertex -15 -21 -5
    endloop
  endfacet
  facet normal 0 0 -1
    outer loop
      vertex -17.8532 0.927051 -5
      vertex -15 -21 -5
      vertex -15.9511 -21.691 -5
    endloop
  endfacet
  facet normal -0 0 -1
    outer loop
      vertex -15.5878 -22.809 -5
      vertex -17.8532 -22.927 -5
      vertex -15.9511 -21.691 -5
    endloop
  endfacet
  facet normal 0 0 -1
    outer loop
      vertex -17.8532 0.927051 -5
      vertex -15.9511 -21.691 -5
      vertex -17.8532 -22.927 -5
    endloop
  endfacet
  facet normal 0 0 -1
    outer loop
      vertex -12.1468 -0.927051 -5
      vertex -17.8532 0.927051 -5
      vertex -15 3 -5
    endloop
  endfacet
  facet normal 0 0 -1
    outer loop
      vertex -15 3 -5
      vertex -17.8532 0.927051 -5
      vertex -16.7634 2.42705 -5
    endloop
  endfacet
  facet normal 0 0 -1
    outer loop
      vertex -12.1468 -22.927 -5
      vertex -14.4122 -22.809 -5
      vertex -14.0489 -21.691 -5
    endloop
  endfacet
  facet normal 0 0 -1
    outer loop
      vertex -15 -25 -5
      vertex -14.4122 -22.809 -5
      vertex -13.2366 -24.427 -5
    endloop
  endfacet
  facet normal 0 0 -1
    outer loop
      vertex -15 -25 -5
      vertex -15.5878 -22.809 -5
      vertex -14.4122 -22.809 -5
    endloop
  endfacet
  facet normal 0 0 -1
    outer loop
      vertex -16.7634 -24.427 -5
      vertex -15.5878 -22.809 -5
      vertex -15 -25 -5
    endloop
  endfacet
  facet normal 0 0 -1
    outer loop
      vertex -17.8532 -22.927 -5
      vertex -15.5878 -22.809 -5
      vertex -16.7634 -24.427 -5
    endloop
  endfacet
  facet normal -0.613666 0.042193 0.788438
    outer loop
      vertex -14.4143 7.5 5.06369
      vertex -7.97951 -0.495476 10.5
      vertex -12.8557 7.5 6.27684
    endloop
  endfacet
  facet normal -0.681304 -0.17253 0.711378
    outer loop
      vertex -14.4143 2.5 5.06369
      vertex -7.49464 -2.41017 10.5
      vertex -7.97951 -0.495476 10.5
    endloop
  endfacet
  facet normal -0.60557 0.0501788 0.794209
    outer loop
      vertex -12.8557 7.5 6.27684
      vertex -7.97951 -0.495476 10.5
      vertex -7.8164 1.47291 10.5
    endloop
  endfacet
  facet normal -0.374232 0.344505 0.860969
    outer loop
      vertex -12.8557 7.5 6.27684
      vertex -7.023 3.28169 10.5
      vertex -5.68528 4.73484 10.5
    endloop
  endfacet
  facet normal -0.277954 0.516916 0.809654
    outer loop
      vertex -12.8557 7.5 6.27684
      vertex -3.9482 5.6749 10.5
      vertex -10.9876 7.5 6.91817
    endloop
  endfacet
  facet normal -0.278751 0.515087 0.810545
    outer loop
      vertex -12.8557 7.5 6.27684
      vertex -5.68528 4.73484 10.5
      vertex -3.9482 5.6749 10.5
    endloop
  endfacet
  facet normal 0.0545551 0.0502216 -0.997247
    outer loop
      vertex 0.873363 3.97798 -4.58253
      vertex 1.68528 4.73484 -4.5
      vertex 3.023 3.28169 -4.5
    endloop
  endfacet
  facet normal 0.0545554 0.0502213 -0.997247
    outer loop
      vertex -0.0865822 4.6194 -4.60275
      vertex 1.68528 4.73484 -4.5
      vertex 0.873363 3.97798 -4.58253
    endloop
  endfacet
  facet normal 0.0545553 0.0502221 -0.997247
    outer loop
      vertex -2 5 -4.68825
      vertex 1.68528 4.73484 -4.5
      vertex -0.0865822 4.6194 -4.60275
    endloop
  endfacet
  facet normal 0.0545553 0.0502218 -0.997247
    outer loop
      vertex -2 5 -4.68825
      vertex -10 7.5 -5
      vertex 1.68528 4.73484 -4.5
    endloop
  endfacet
  facet normal 0.0545554 0.050222 -0.997247
    outer loop
      vertex -10 7.5 -5
      vertex -2 5 -4.68825
      vertex -2.17463 4.96526 -4.69956
    endloop
  endfacet
  facet normal 0.195334 0.972398 0.127618
    outer loop
      vertex -5.58566 7.5 5.06369
      vertex -0.0518026 5.6749 10.5
      vertex -4.50536 7.5 3.41017
    endloop
  endfacet
  facet normal 0.915773 0.401695 0
    outer loop
      vertex 3.8164 1.47291 10.5
      vertex 3.023 3.28169 -4.5
      vertex 3.023 3.28169 10.5
    endloop
  endfacet
  facet normal 0.915773 0.401695 0
    outer loop
      vertex 3.023 3.28169 -4.5
      vertex 3.8164 1.47291 10.5
      vertex 3.8164 1.47291 -4.5
    endloop
  endfacet
  facet normal 0.0301549 -0.0188902 -0.999367
    outer loop
      vertex -12.1468 -0.927051 -5
      vertex -7 4.28626e-16 -4.86222
      vertex -6.71311 -1.44227 -4.8263
    endloop
  endfacet
  facet normal 0.0301549 -0.0188901 -0.999367
    outer loop
      vertex -7 4.28626e-16 -4.86222
      vertex -12.1468 -0.927051 -5
      vertex -10 2.5 -5
    endloop
  endfacet
  facet normal 0.0301549 -0.0188901 -0.999367
    outer loop
      vertex -6.73876 1.31336 -4.87917
      vertex -7 4.28626e-16 -4.86222
      vertex -10 2.5 -5
    endloop
  endfacet
  facet normal 0.0301548 -0.01889 -0.999367
    outer loop
      vertex 2.52357 -2.05684 -4.53598
      vertex 3.49464 -2.41017 -4.5
      vertex 2.3594 -2.30253 -4.53629
    endloop
  endfacet
  facet normal -0.764315 -0.408009 0.499351
    outer loop
      vertex -17.3013 -0.12511 -1.5
      vertex -17.8532 -0.927051 -3
      vertex -17.2135 -0.289554 -1.5
    endloop
  endfacet
  facet normal -0.764314 -0.40801 0.499351
    outer loop
      vertex -15.436 2.5 3.5
      vertex -15.0812 1.83543 3.5
      vertex -14.4143 2.5 5.06369
    endloop
  endfacet
  facet normal -1 0 0
    outer loop
      vertex -17.8532 0.927051 -5
      vertex -17.8532 -0.927051 -3
      vertex -17.8532 0.927051 -3
    endloop
  endfacet
  facet normal -1 0 0
    outer loop
      vertex -17.8532 -22.927 -5
      vertex -17.8532 -0.927051 -3
      vertex -17.8532 0.927051 -5
    endloop
  endfacet
  facet normal -1 -0 0
    outer loop
      vertex -17.8532 -0.927051 -3
      vertex -17.8532 -22.927 -5
      vertex -17.8532 -22.927 -3
    endloop
  endfacet
  facet normal -0.645351 0 0.763887
    outer loop
      vertex -14.4143 2.5 5.06369
      vertex -7.97951 -0.495476 10.5
      vertex -14.4143 7.5 5.06369
    endloop
  endfacet
  facet normal -0.938491 0 0.345304
    outer loop
      vertex -17.8532 0.927051 -3
      vertex -17.3013 -0.12511 -1.5
      vertex -17.3013 2.46514 -1.5
    endloop
  endfacet
  facet normal -0.938491 0 0.345304
    outer loop
      vertex -17.3013 -0.12511 -1.5
      vertex -17.8532 0.927051 -3
      vertex -17.8532 -0.927051 -3
    endloop
  endfacet
  facet normal -0.938491 0 0.345304
    outer loop
      vertex -17.2888 2.5 -1.466
      vertex -15.4946 2.5 3.41017
      vertex -15.4946 7.5 3.41017
    endloop
  endfacet
  facet normal -0.308276 -0.948775 0.0692193
    outer loop
      vertex -15 -3 -3
      vertex -2.98757 -5.91817 10.5
      vertex -16.7634 -2.42705 -3
    endloop
  endfacet
  facet normal -0.471295 0.206729 0.857406
    outer loop
      vertex -12.8557 7.5 6.27684
      vertex -7.8164 1.47291 10.5
      vertex -7.023 3.28169 10.5
    endloop
  endfacet
  facet normal 0.139454 0.531184 -0.835701
    outer loop
      vertex -8.0518 7.5 -4.6749
      vertex -0.0518026 5.6749 -4.5
      vertex -10 7.5 -5
    endloop
  endfacet
  facet normal 0.075085 0.138745 -0.987478
    outer loop
      vertex -0.0518026 5.6749 -4.5
      vertex 1.68528 4.73484 -4.5
      vertex -10 7.5 -5
    endloop
  endfacet
  facet normal 0.614213 -0.78914 0
    outer loop
      vertex 0.855684 -5.27684 -4.5
      vertex 2.41434 -4.06369 10.5
      vertex 0.855684 -5.27684 10.5
    endloop
  endfacet
  facet normal 0.614213 -0.78914 0
    outer loop
      vertex 2.41434 -4.06369 10.5
      vertex 0.855684 -5.27684 -4.5
      vertex 2.41434 -4.06369 -4.5
    endloop
  endfacet
  facet normal 0.324699 -0.945817 0
    outer loop
      vertex -1.01243 -5.91817 -4.5
      vertex 0.855684 -5.27684 10.5
      vertex -1.01243 -5.91817 10.5
    endloop
  endfacet
  facet normal 0.324699 -0.945817 0
    outer loop
      vertex 0.855684 -5.27684 10.5
      vertex -1.01243 -5.91817 -4.5
      vertex 0.855684 -5.27684 -4.5
    endloop
  endfacet
  facet normal 0.837166 -0.546948 0
    outer loop
      vertex 2.41434 -4.06369 10.5
      vertex 3.49464 -2.41017 -4.5
      vertex 3.49464 -2.41017 10.5
    endloop
  endfacet
  facet normal 0.837166 -0.546948 0
    outer loop
      vertex 3.49464 -2.41017 -4.5
      vertex 2.41434 -4.06369 10.5
      vertex 2.41434 -4.06369 -4.5
    endloop
  endfacet
  facet normal 0.0375195 0.00310894 -0.999291
    outer loop
      vertex 2.98547 0.0730572 -4.53555
      vertex 3.8164 1.47291 -4.5
      vertex 3.97951 -0.495476 -4.5
    endloop
  endfacet
  facet normal 0.0375195 0.00310891 -0.999291
    outer loop
      vertex 2.6194 1.91342 -4.54357
      vertex 3.8164 1.47291 -4.5
      vertex 2.98547 0.0730572 -4.53555
    endloop
  endfacet
  facet normal 0.0375213 0.00311386 -0.999291
    outer loop
      vertex 3.8164 1.47291 -4.5
      vertex 2.6194 1.91342 -4.54357
      vertex 2.54239 2.02867 -4.5461
    endloop
  endfacet
  facet normal 0.0375186 0.00310723 -0.999291
    outer loop
      vertex -3.91342 4.6194 -4.78043
      vertex -10 7.5 -5
      vertex -3.55842 4.69001 -4.76689
    endloop
  endfacet
  facet normal 0.0375195 0.00310909 -0.999291
    outer loop
      vertex -10 7.5 -5
      vertex -3.91342 4.6194 -4.78043
      vertex -4.3977 4.29581 -4.79962
    endloop
  endfacet
  facet normal 0.0446984 0.0196065 -0.998808
    outer loop
      vertex 2.54239 2.02867 -4.5461
      vertex 3.023 3.28169 -4.5
      vertex 3.8164 1.47291 -4.5
    endloop
  endfacet
  facet normal 0.0446986 0.0196065 -0.998808
    outer loop
      vertex 1.53553 3.53553 -4.56158
      vertex 3.023 3.28169 -4.5
      vertex 2.54239 2.02867 -4.5461
    endloop
  endfacet
  facet normal 0.0446988 0.0196074 -0.998808
    outer loop
      vertex 3.023 3.28169 -4.5
      vertex 1.53553 3.53553 -4.56158
      vertex 0.873363 3.97798 -4.58253
    endloop
  endfacet
  facet normal 0.0446986 0.0196067 -0.998808
    outer loop
      vertex -2.17463 4.96526 -4.69956
      vertex -3.55842 4.69001 -4.76689
      vertex -10 7.5 -5
    endloop
  endfacet
  facet normal 1.90735e-08 1.90735e-07 -1
    outer loop
      vertex -10 7.5 -5
      vertex -10 2.5 -5
      vertex -15 3 -5
    endloop
  endfacet
  facet normal -0.837167 0 0.546948
    outer loop
      vertex -15.436 2.5 3.5
      vertex -15.4946 7.5 3.41017
      vertex -15.4946 2.5 3.41017
    endloop
  endfacet
  facet normal -0.837166 9.09884e-09 0.546948
    outer loop
      vertex -15.4946 7.5 3.41017
      vertex -15.436 2.5 3.5
      vertex -14.4143 7.5 5.06369
    endloop
  endfacet
  facet normal -0.837166 0 0.546948
    outer loop
      vertex -14.4143 7.5 5.06369
      vertex -15.436 2.5 3.5
      vertex -14.4143 2.5 5.06369
    endloop
  endfacet
  facet normal -0.236063 -0.971738 3.00571e-08
    outer loop
      vertex -12.1468 -3.69312 -3
      vertex -10.9511 -3.98361 0.690983
      vertex -15 -3 -3
    endloop
  endfacet
  facet normal -0.236063 -0.971738 -1.20861e-08
    outer loop
      vertex -10.5878 -4.07185 1.80902
      vertex -15 -3 -3
      vertex -10.9511 -3.98361 0.690983
    endloop
  endfacet
  facet normal -0.236063 -0.971738 6.85959e-08
    outer loop
      vertex -15 -3 -3
      vertex -10.5878 -4.07185 1.80902
      vertex -2.98757 -5.91817 10.5
    endloop
  endfacet
  facet normal -0.236063 -0.971738 8.5023e-08
    outer loop
      vertex -9.41221 -4.35743 1.80902
      vertex -2.98757 -5.91817 10.5
      vertex -10.5878 -4.07185 1.80902
    endloop
  endfacet
  facet normal -0.236063 -0.971738 1.02676e-08
    outer loop
      vertex -9.04894 -4.44568 0.690983
      vertex -2.98757 -5.91817 10.5
      vertex -9.41221 -4.35743 1.80902
    endloop
  endfacet
  facet normal -0.236063 -0.971738 2.43345e-09
    outer loop
      vertex -10.9511 -3.98361 0.690983
      vertex -12.1468 -3.69312 -3
      vertex -10 -4.21464 -2.58073e-16
    endloop
  endfacet
  facet normal -0.236063 -0.971738 3.36336e-08
    outer loop
      vertex -2.98757 -5.91817 -4.5
      vertex -10 -4.21464 -2.58073e-16
      vertex -12.1468 -3.69312 -3
    endloop
  endfacet
  facet normal -0.236063 -0.971738 0
    outer loop
      vertex -9.04894 -4.44568 0.690983
      vertex -2.98757 -5.91817 -4.5
      vertex -2.98757 -5.91817 10.5
    endloop
  endfacet
  facet normal -0.236063 -0.971738 -1.36727e-07
    outer loop
      vertex -10 -4.21464 -2.58073e-16
      vertex -2.98757 -5.91817 -4.5
      vertex -9.04894 -4.44568 0.690983
    endloop
  endfacet
  facet normal -0.236063 -0.971738 0
    outer loop
      vertex -2.98757 -5.91817 -4.5
      vertex -12.1468 -3.69312 -3
      vertex -12.1468 -3.69312 -4.88124
    endloop
  endfacet
  facet normal 0.162435 0.973421 0.16145
    outer loop
      vertex -2 6 10.5
      vertex -0.0518026 5.6749 10.5
      vertex -5.58566 7.5 5.06369
    endloop
  endfacet
  facet normal 0.475948 0.879474 -0
    outer loop
      vertex 1.68528 4.73484 -4.5
      vertex -0.0518026 5.6749 10.5
      vertex 1.68528 4.73484 10.5
    endloop
  endfacet
  facet normal 0.475948 0.879474 0
    outer loop
      vertex -0.0518026 5.6749 10.5
      vertex 1.68528 4.73484 -4.5
      vertex -0.0518026 5.6749 -4.5
    endloop
  endfacet
  facet normal 0.735724 0.677282 0
    outer loop
      vertex 3.023 3.28169 10.5
      vertex 1.68528 4.73484 -4.5
      vertex 1.68528 4.73484 10.5
    endloop
  endfacet
  facet normal 0.735724 0.677282 0
    outer loop
      vertex 1.68528 4.73484 -4.5
      vertex 3.023 3.28169 10.5
      vertex 3.023 3.28169 -4.5
    endloop
  endfacet
  facet normal 0.378146 0.925215 -0.031334
    outer loop
      vertex -4.02049 7.5 1.49548
      vertex -0.0518026 5.6749 -4.5
      vertex -4.1836 7.5 -0.472913
    endloop
  endfacet
  facet normal 0.293149 0.94738 -0.128587
    outer loop
      vertex -4.1836 7.5 -0.472913
      vertex -0.0518026 5.6749 -4.5
      vertex -4.977 7.5 -2.28169
    endloop
  endfacet
  facet normal 0.0281334 -0.0361458 -0.99895
    outer loop
      vertex 0.855684 -5.27684 -4.5
      vertex 0.970982 -3.91276 -4.54611
      vertex 2.41434 -4.06369 -4.5
    endloop
  endfacet
  facet normal 0.0281334 -0.0361458 -0.99895
    outer loop
      vertex 0.855684 -5.27684 -4.5
      vertex -0.0865822 -4.6194 -4.55033
      vertex 0.970982 -3.91276 -4.54611
    endloop
  endfacet
  facet normal 0.0281337 -0.0361454 -0.99895
    outer loop
      vertex -0.0865822 -4.6194 -4.55033
      vertex 0.855684 -5.27684 -4.5
      vertex -1.25052 -4.85092 -4.57473
    endloop
  endfacet
  facet normal 0.0281335 -0.0361459 -0.99895
    outer loop
      vertex -12.1468 -2.64744 -4.96133
      vertex -5.53553 -3.53553 -4.743
      vertex -4.57223 -4.17919 -4.69258
    endloop
  endfacet
  facet normal 0.0281335 -0.0361461 -0.99895
    outer loop
      vertex -12.1468 -2.64744 -4.96133
      vertex -5.75332 -3.20959 -4.76093
      vertex -5.53553 -3.53553 -4.743
    endloop
  endfacet
  facet normal 0.0281338 -0.0361429 -0.998951
    outer loop
      vertex -5.75332 -3.20959 -4.76093
      vertex -12.1468 -2.64744 -4.96133
      vertex -12.1468 -2.54101 -4.96518
    endloop
  endfacet
  facet normal 0.0296711 -0.021557 -0.999327
    outer loop
      vertex -12.1468 -2.54101 -4.96518
      vertex -6.45993 -2.15207 -4.80472
      vertex -5.75332 -3.20959 -4.76093
    endloop
  endfacet
  facet normal 0.0296711 -0.0215574 -0.999327
    outer loop
      vertex -6.45993 -2.15207 -4.80472
      vertex -12.1468 -2.54101 -4.96518
      vertex -12.1468 -0.927051 -5
    endloop
  endfacet
  facet normal 0.0296706 -0.0215602 -0.999327
    outer loop
      vertex 1.15204 -3.79178 -4.54334
      vertex 2.41434 -4.06369 -4.5
      vertex 0.970982 -3.91276 -4.54611
    endloop
  endfacet
  facet normal 0.996585 0.0825792 0
    outer loop
      vertex 3.97951 -0.495476 10.5
      vertex 3.8164 1.47291 -4.5
      vertex 3.8164 1.47291 10.5
    endloop
  endfacet
  facet normal 0.996585 0.0825792 0
    outer loop
      vertex 3.8164 1.47291 -4.5
      vertex 3.97951 -0.495476 10.5
      vertex 3.97951 -0.495476 -4.5
    endloop
  endfacet
  facet normal 0.9694 -0.245486 0
    outer loop
      vertex 3.49464 -2.41017 10.5
      vertex 3.97951 -0.495476 -4.5
      vertex 3.97951 -0.495476 10.5
    endloop
  endfacet
  facet normal 0.9694 -0.245486 0
    outer loop
      vertex 3.97951 -0.495476 -4.5
      vertex 3.49464 -2.41017 10.5
      vertex 3.49464 -2.41017 -4.5
    endloop
  endfacet
  facet normal -0.700137 0.508679 -0.501052
    outer loop
      vertex -16.7634 2.42705 -5
      vertex -17.8532 0.927051 -5
      vertex -15.023 7.5 -2.28169
    endloop
  endfacet
  facet normal -0.626603 0.524057 -0.576829
    outer loop
      vertex -13.6853 7.5 -3.73484
      vertex -16.7634 2.42705 -5
      vertex -15.023 7.5 -2.28169
    endloop
  endfacet
  facet normal 0.138266 0.974333 0.177644
    outer loop
      vertex -7.14431 7.5 6.27684
      vertex -2 6 10.5
      vertex -5.58566 7.5 5.06369
    endloop
  endfacet
  facet normal 0 1 -0
    outer loop
      vertex -8.08658 7.5 5.6194
      vertex -9.01243 7.5 6.91817
      vertex -7.14431 7.5 6.27684
    endloop
  endfacet
  facet normal 0 1 0
    outer loop
      vertex -9.01243 7.5 6.91817
      vertex -10 7.5 6
      vertex -10.9876 7.5 6.91817
    endloop
  endfacet
  facet normal 0 1 0
    outer loop
      vertex -11.9134 7.5 5.6194
      vertex -10.9876 7.5 6.91817
      vertex -10 7.5 6
    endloop
  endfacet
  facet normal 0 1 0
    outer loop
      vertex -9.01243 7.5 6.91817
      vertex -8.08658 7.5 5.6194
      vertex -10 7.5 6
    endloop
  endfacet
  facet normal 0 1 -0
    outer loop
      vertex -6.46447 7.5 4.53553
      vertex -7.14431 7.5 6.27684
      vertex -5.58566 7.5 5.06369
    endloop
  endfacet
  facet normal 0 1 0
    outer loop
      vertex -7.14431 7.5 6.27684
      vertex -6.46447 7.5 4.53553
      vertex -8.08658 7.5 5.6194
    endloop
  endfacet
  facet normal 0 1 -0
    outer loop
      vertex -5.3806 7.5 2.91342
      vertex -5.58566 7.5 5.06369
      vertex -4.50536 7.5 3.41017
    endloop
  endfacet
  facet normal 0 1 0
    outer loop
      vertex -5.58566 7.5 5.06369
      vertex -5.3806 7.5 2.91342
      vertex -6.46447 7.5 4.53553
    endloop
  endfacet
  facet normal 0 1 0
    outer loop
      vertex -4.02049 7.5 1.49548
      vertex -5.3806 7.5 2.91342
      vertex -4.50536 7.5 3.41017
    endloop
  endfacet
  facet normal 0 1 0
    outer loop
      vertex -4.02049 7.5 1.49548
      vertex -5 7.5 1
      vertex -5.3806 7.5 2.91342
    endloop
  endfacet
  facet normal 0 1 -0
    outer loop
      vertex -4.1836 7.5 -0.472913
      vertex -5 7.5 1
      vertex -4.02049 7.5 1.49548
    endloop
  endfacet
  facet normal 0 1 0
    outer loop
      vertex -4.1836 7.5 -0.472913
      vertex -5.3806 7.5 -0.913417
      vertex -5 7.5 1
    endloop
  endfacet
  facet normal 0 1 -0
    outer loop
      vertex -4.977 7.5 -2.28169
      vertex -5.3806 7.5 -0.913417
      vertex -4.1836 7.5 -0.472913
    endloop
  endfacet
  facet normal 0 1 0
    outer loop
      vertex -4.977 7.5 -2.28169
      vertex -6.46447 7.5 -2.53553
      vertex -5.3806 7.5 -0.913417
    endloop
  endfacet
  facet normal 0 1 -0
    outer loop
      vertex -6.31472 7.5 -3.73484
      vertex -6.46447 7.5 -2.53553
      vertex -4.977 7.5 -2.28169
    endloop
  endfacet
  facet normal 0 1 0
    outer loop
      vertex -6.46447 7.5 -2.53553
      vertex -6.31472 7.5 -3.73484
      vertex -8.08658 7.5 -3.6194
    endloop
  endfacet
  facet normal 0 1 -0
    outer loop
      vertex -8.0518 7.5 -4.6749
      vertex -8.08658 7.5 -3.6194
      vertex -6.31472 7.5 -3.73484
    endloop
  endfacet
  facet normal 0 1 0
    outer loop
      vertex -8.08658 7.5 -3.6194
      vertex -8.0518 7.5 -4.6749
      vertex -10 7.5 -4
    endloop
  endfacet
  facet normal 0 1 0
    outer loop
      vertex -10.9876 7.5 6.91817
      vertex -11.9134 7.5 5.6194
      vertex -12.8557 7.5 6.27684
    endloop
  endfacet
  facet normal 0 1 0
    outer loop
      vertex -13.5355 7.5 4.53553
      vertex -12.8557 7.5 6.27684
      vertex -11.9134 7.5 5.6194
    endloop
  endfacet
  facet normal 0 1 0
    outer loop
      vertex -12.8557 7.5 6.27684
      vertex -13.5355 7.5 4.53553
      vertex -14.4143 7.5 5.06369
    endloop
  endfacet
  facet normal 0 1 0
    outer loop
      vertex -14.6194 7.5 2.91342
      vertex -14.4143 7.5 5.06369
      vertex -13.5355 7.5 4.53553
    endloop
  endfacet
  facet normal 0 1 0
    outer loop
      vertex -14.4143 7.5 5.06369
      vertex -14.6194 7.5 2.91342
      vertex -15.4946 7.5 3.41017
    endloop
  endfacet
  facet normal 0 1 0
    outer loop
      vertex -14.6194 7.5 2.91342
      vertex -15.9795 7.5 1.49548
      vertex -15.4946 7.5 3.41017
    endloop
  endfacet
  facet normal 0 1 -0
    outer loop
      vertex -15 7.5 0.999999
      vertex -15.9795 7.5 1.49548
      vertex -14.6194 7.5 2.91342
    endloop
  endfacet
  facet normal 0 1 0
    outer loop
      vertex -15 7.5 0.999999
      vertex -15.8164 7.5 -0.472913
      vertex -15.9795 7.5 1.49548
    endloop
  endfacet
  facet normal 0 1 0
    outer loop
      vertex -14.6194 7.5 -0.913417
      vertex -15.8164 7.5 -0.472913
      vertex -15 7.5 0.999999
    endloop
  endfacet
  facet normal 0 1 0
    outer loop
      vertex -14.6194 7.5 -0.913417
      vertex -15.023 7.5 -2.28169
      vertex -15.8164 7.5 -0.472913
    endloop
  endfacet
  facet normal 0 1 0
    outer loop
      vertex -13.5355 7.5 -2.53553
      vertex -15.023 7.5 -2.28169
      vertex -14.6194 7.5 -0.913417
    endloop
  endfacet
  facet normal 0 1 0
    outer loop
      vertex -13.6853 7.5 -3.73484
      vertex -13.5355 7.5 -2.53553
      vertex -11.9134 7.5 -3.6194
    endloop
  endfacet
  facet normal 0 1 0
    outer loop
      vertex -13.5355 7.5 -2.53553
      vertex -13.6853 7.5 -3.73484
      vertex -15.023 7.5 -2.28169
    endloop
  endfacet
  facet normal 0 1 0
    outer loop
      vertex -11.9482 7.5 -4.6749
      vertex -11.9134 7.5 -3.6194
      vertex -10 7.5 -4
    endloop
  endfacet
  facet normal 0 1 0
    outer loop
      vertex -10 7.5 -5
      vertex -10 7.5 -4
      vertex -8.0518 7.5 -4.6749
    endloop
  endfacet
  facet normal 0 1 0
    outer loop
      vertex -11.9134 7.5 -3.6194
      vertex -11.9482 7.5 -4.6749
      vertex -13.6853 7.5 -3.73484
    endloop
  endfacet
  facet normal 0 1 0
    outer loop
      vertex -10 7.5 -4
      vertex -10 7.5 -5
      vertex -11.9482 7.5 -4.6749
    endloop
  endfacet
  facet normal 0.279648 0.957487 0.0708166
    outer loop
      vertex -4.50536 7.5 3.41017
      vertex -0.0518026 5.6749 10.5
      vertex -4.02049 7.5 1.49548
    endloop
  endfacet
  facet normal 0.809017 -0.587785 0
    outer loop
      vertex -13.2366 -24.427 -3
      vertex -12.1468 -22.927 -5
      vertex -12.1468 -22.927 -3
    endloop
  endfacet
  facet normal 0.809017 -0.587785 0
    outer loop
      vertex -12.1468 -22.927 -5
      vertex -13.2366 -24.427 -3
      vertex -13.2366 -24.427 -5
    endloop
  endfacet
  facet normal -0.309018 -0.951056 0
    outer loop
      vertex -16.7634 -24.427 -5
      vertex -15 -25 -3
      vertex -16.7634 -24.427 -3
    endloop
  endfacet
  facet normal -0.309018 -0.951056 -0
    outer loop
      vertex -15 -25 -3
      vertex -16.7634 -24.427 -5
      vertex -15 -25 -5
    endloop
  endfacet
  facet normal 0.309018 -0.951056 0
    outer loop
      vertex -15 -25 -5
      vertex -13.2366 -24.427 -3
      vertex -15 -25 -3
    endloop
  endfacet
  facet normal 0.309018 -0.951056 0
    outer loop
      vertex -13.2366 -24.427 -3
      vertex -15 -25 -5
      vertex -13.2366 -24.427 -5
    endloop
  endfacet
  facet normal -0.809017 -0.587785 0
    outer loop
      vertex -16.7634 -24.427 -5
      vertex -17.8532 -22.927 -3
      vertex -17.8532 -22.927 -5
    endloop
  endfacet
  facet normal -0.809017 -0.587785 0
    outer loop
      vertex -17.8532 -22.927 -3
      vertex -16.7634 -24.427 -5
      vertex -16.7634 -24.427 -3
    endloop
  endfacet
  facet normal 1 0 0
    outer loop
      vertex -12.1468 -3.69312 -3
      vertex -12.1468 -22.927 -3
      vertex -12.1468 -3.69312 -4.88124
    endloop
  endfacet
  facet normal 1 0 0
    outer loop
      vertex -12.1468 -22.927 -5
      vertex -12.1468 -3.69312 -4.88124
      vertex -12.1468 -22.927 -3
    endloop
  endfacet
  facet normal 1 0 0
    outer loop
      vertex -12.1468 -2.54101 -4.96518
      vertex -12.1468 -22.927 -5
      vertex -12.1468 -0.927051 -5
    endloop
  endfacet
  facet normal 1 0 0
    outer loop
      vertex -12.1468 -2.64744 -4.96133
      vertex -12.1468 -22.927 -5
      vertex -12.1468 -2.54101 -4.96518
    endloop
  endfacet
  facet normal 1 0 0
    outer loop
      vertex -12.1468 -2.73829 -4.95542
      vertex -12.1468 -22.927 -5
      vertex -12.1468 -2.64744 -4.96133
    endloop
  endfacet
  facet normal 1 0 0
    outer loop
      vertex -12.1468 -3.59524 -4.89801
      vertex -12.1468 -22.927 -5
      vertex -12.1468 -2.73829 -4.95542
    endloop
  endfacet
  facet normal 1 0 0
    outer loop
      vertex -12.1468 -3.69312 -4.88124
      vertex -12.1468 -22.927 -5
      vertex -12.1468 -3.59524 -4.89801
    endloop
  endfacet
  facet normal -0 0 1
    outer loop
      vertex -14.0489 -21.691 -3
      vertex -12.1468 -22.927 -3
      vertex -12.1468 -3.69312 -3
    endloop
  endfacet
  facet normal -0 0 1
    outer loop
      vertex -14.4122 -22.809 -3
      vertex -12.1468 -22.927 -3
      vertex -14.0489 -21.691 -3
    endloop
  endfacet
  facet normal 0 0 1
    outer loop
      vertex -15 -21 -3
      vertex -12.1468 -3.69312 -3
      vertex -15 -3 -3
    endloop
  endfacet
  facet normal 0 0 1
    outer loop
      vertex -12.1468 -3.69312 -3
      vertex -15 -21 -3
      vertex -14.0489 -21.691 -3
    endloop
  endfacet
  facet normal 0 0 1
    outer loop
      vertex -16.7634 -2.42705 -3
      vertex -15 -21 -3
      vertex -15 -3 -3
    endloop
  endfacet
  facet normal 0 0 1
    outer loop
      vertex -15 -21 -3
      vertex -16.7634 -2.42705 -3
      vertex -15.9511 -21.691 -3
    endloop
  endfacet
  facet normal 0 0 1
    outer loop
      vertex -12.1468 -22.927 -3
      vertex -14.4122 -22.809 -3
      vertex -13.2366 -24.427 -3
    endloop
  endfacet
  facet normal 0 0 1
    outer loop
      vertex -14.4122 -22.809 -3
      vertex -15 -25 -3
      vertex -13.2366 -24.427 -3
    endloop
  endfacet
  facet normal -0 0 1
    outer loop
      vertex -15.5878 -22.809 -3
      vertex -15 -25 -3
      vertex -14.4122 -22.809 -3
    endloop
  endfacet
  facet normal 0 0 1
    outer loop
      vertex -17.8532 -22.927 -3
      vertex -15.5878 -22.809 -3
      vertex -15.9511 -21.691 -3
    endloop
  endfacet
  facet normal 0 0 1
    outer loop
      vertex -15.5878 -22.809 -3
      vertex -16.7634 -24.427 -3
      vertex -15 -25 -3
    endloop
  endfacet
  facet normal 0 0 1
    outer loop
      vertex -17.8532 -22.927 -3
      vertex -15.9511 -21.691 -3
      vertex -16.7634 -2.42705 -3
    endloop
  endfacet
  facet normal 0 0 1
    outer loop
      vertex -17.8532 -22.927 -3
      vertex -16.7634 -2.42705 -3
      vertex -17.8532 -0.927051 -3
    endloop
  endfacet
  facet normal 0 0 1
    outer loop
      vertex -15.5878 -22.809 -3
      vertex -17.8532 -22.927 -3
      vertex -16.7634 -24.427 -3
    endloop
  endfacet
  facet normal 0.195091 0 0.980785
    outer loop
      vertex -11.9134 7.5 -3.6194
      vertex -10 3.5 -4
      vertex -10 7.5 -4
    endloop
  endfacet
  facet normal 0.195091 0 0.980785
    outer loop
      vertex -10 3.5 -4
      vertex -11.9134 7.5 -3.6194
      vertex -11.9134 3.5 -3.6194
    endloop
  endfacet
  facet normal 0.980785 0 -0.195091
    outer loop
      vertex -14.6194 3.5 2.91342
      vertex -15 7.5 0.999999
      vertex -14.6194 7.5 2.91342
    endloop
  endfacet
  facet normal 0.980785 0 -0.195091
    outer loop
      vertex -15 7.5 0.999999
      vertex -14.6194 3.5 2.91342
      vertex -15 3.5 0.999999
    endloop
  endfacet
  facet normal -0.83147 0 0.55557
    outer loop
      vertex -6.46447 7.5 -2.53553
      vertex -5.3806 3.63906 -0.913417
      vertex -5.3806 7.5 -0.913417
    endloop
  endfacet
  facet normal -0.83147 -1.17261e-08 0.55557
    outer loop
      vertex -6.46447 7.5 -2.53553
      vertex -5.53553 3.53553 -1.14529
      vertex -5.3806 3.63906 -0.913417
    endloop
  endfacet
  facet normal -0.83147 0 0.55557
    outer loop
      vertex -6.46447 3.5 -2.53553
      vertex -5.53553 3.53553 -1.14529
      vertex -6.46447 7.5 -2.53553
    endloop
  endfacet
  facet normal -0.83147 4.11591e-06 0.55557
    outer loop
      vertex -5.53553 3.53553 -1.14529
      vertex -6.46447 3.5 -2.53553
      vertex -5.55928 3.5 -1.18082
    endloop
  endfacet
  facet normal 0.83147 -0 0.55557
    outer loop
      vertex -14.6194 3.5 -0.913417
      vertex -13.5355 7.5 -2.53553
      vertex -14.6194 7.5 -0.913417
    endloop
  endfacet
  facet normal 0.83147 0 0.55557
    outer loop
      vertex -13.5355 7.5 -2.53553
      vertex -14.6194 3.5 -0.913417
      vertex -13.5355 3.5 -2.53553
    endloop
  endfacet
  facet normal 0.55557 0 0.83147
    outer loop
      vertex -13.5355 7.5 -2.53553
      vertex -11.9134 3.5 -3.6194
      vertex -11.9134 7.5 -3.6194
    endloop
  endfacet
  facet normal 0.55557 0 0.83147
    outer loop
      vertex -11.9134 3.5 -3.6194
      vertex -13.5355 7.5 -2.53553
      vertex -13.5355 3.5 -2.53553
    endloop
  endfacet
  facet normal 0.980785 -0 0.195091
    outer loop
      vertex -15 3.5 0.999999
      vertex -14.6194 7.5 -0.913417
      vertex -15 7.5 0.999999
    endloop
  endfacet
  facet normal 0.980785 0 0.195091
    outer loop
      vertex -14.6194 7.5 -0.913417
      vertex -15 3.5 0.999999
      vertex -14.6194 3.5 -0.913417
    endloop
  endfacet
  facet normal 0.55557 0 -0.83147
    outer loop
      vertex -13.5355 3.5 4.53553
      vertex -11.9134 7.5 5.6194
      vertex -11.9134 3.5 5.6194
    endloop
  endfacet
  facet normal 0.55557 0 -0.83147
    outer loop
      vertex -11.9134 7.5 5.6194
      vertex -13.5355 3.5 4.53553
      vertex -13.5355 7.5 4.53553
    endloop
  endfacet
  facet normal 0 1 -0
    outer loop
      vertex -9.01394 3.5 4.35822
      vertex -10 3.5 6
      vertex -8.08658 3.5 5.6194
    endloop
  endfacet
  facet normal 0 1 -0
    outer loop
      vertex -7.35488 3.5 3.29201
      vertex -8.08658 3.5 5.6194
      vertex -6.46447 3.5 4.53553
    endloop
  endfacet
  facet normal 0 1 0
    outer loop
      vertex -10.9861 3.5 4.35822
      vertex -10 3.5 6
      vertex -9.01394 3.5 4.35822
    endloop
  endfacet
  facet normal 0 1 0
    outer loop
      vertex -10 3.5 6
      vertex -10.9861 3.5 4.35822
      vertex -11.9134 3.5 5.6194
    endloop
  endfacet
  facet normal 0 1 0
    outer loop
      vertex -8.08658 3.5 5.6194
      vertex -7.35488 3.5 3.29201
      vertex -9.01394 3.5 4.35822
    endloop
  endfacet
  facet normal 0 1 0
    outer loop
      vertex -5.55928 3.5 3.18082
      vertex -7.35488 3.5 3.29201
      vertex -6.46447 3.5 4.53553
    endloop
  endfacet
  facet normal 0 1 0
    outer loop
      vertex -5.55928 3.5 3.18082
      vertex -6.53562 3.5 1.4981
      vertex -7.35488 3.5 3.29201
    endloop
  endfacet
  facet normal 0 1 -0
    outer loop
      vertex -5.55928 3.5 -1.18082
      vertex -6.53562 3.5 1.4981
      vertex -5.55928 3.5 3.18082
    endloop
  endfacet
  facet normal 0 1 0
    outer loop
      vertex -6.53562 3.5 1.4981
      vertex -5.55928 3.5 -1.18082
      vertex -6.81629 3.5 -0.453952
    endloop
  endfacet
  facet normal 0 1 -0
    outer loop
      vertex -6.46447 3.5 -2.53553
      vertex -6.81629 3.5 -0.453952
      vertex -5.55928 3.5 -1.18082
    endloop
  endfacet
  facet normal 0 1 -0
    outer loop
      vertex -8.08658 3.5 -3.6194
      vertex -8.10776 3.5 -1.94439
      vertex -6.46447 3.5 -2.53553
    endloop
  endfacet
  facet normal 0 1 0
    outer loop
      vertex -6.81629 3.5 -0.453952
      vertex -6.46447 3.5 -2.53553
      vertex -8.10776 3.5 -1.94439
    endloop
  endfacet
  facet normal 0 1 0
    outer loop
      vertex -12.6451 3.5 3.29201
      vertex -11.9134 3.5 5.6194
      vertex -10.9861 3.5 4.35822
    endloop
  endfacet
  facet normal 0 1 0
    outer loop
      vertex -11.9134 3.5 5.6194
      vertex -12.6451 3.5 3.29201
      vertex -13.5355 3.5 4.53553
    endloop
  endfacet
  facet normal 0 1 0
    outer loop
      vertex -12.6451 3.5 3.29201
      vertex -14.6194 3.5 2.91342
      vertex -13.5355 3.5 4.53553
    endloop
  endfacet
  facet normal 0 1 -0
    outer loop
      vertex -13.4644 3.5 1.4981
      vertex -14.6194 3.5 2.91342
      vertex -12.6451 3.5 3.29201
    endloop
  endfacet
  facet normal 0 1 0
    outer loop
      vertex -13.4644 3.5 1.4981
      vertex -15 3.5 0.999999
      vertex -14.6194 3.5 2.91342
    endloop
  endfacet
  facet normal 0 1 0
    outer loop
      vertex -13.1837 3.5 -0.453952
      vertex -15 3.5 0.999999
      vertex -13.4644 3.5 1.4981
    endloop
  endfacet
  facet normal 0 1 0
    outer loop
      vertex -13.1837 3.5 -0.453952
      vertex -14.6194 3.5 -0.913417
      vertex -15 3.5 0.999999
    endloop
  endfacet
  facet normal 0 1 0
    outer loop
      vertex -13.5355 3.5 -2.53553
      vertex -13.1837 3.5 -0.453952
      vertex -11.8922 3.5 -1.94439
    endloop
  endfacet
  facet normal 0 1 0
    outer loop
      vertex -13.1837 3.5 -0.453952
      vertex -13.5355 3.5 -2.53553
      vertex -14.6194 3.5 -0.913417
    endloop
  endfacet
  facet normal 0 1 0
    outer loop
      vertex -11.9134 3.5 -3.6194
      vertex -11.8922 3.5 -1.94439
      vertex -10 3.5 -2.5
    endloop
  endfacet
  facet normal 0 1 0
    outer loop
      vertex -8.10776 3.5 -1.94439
      vertex -8.08658 3.5 -3.6194
      vertex -10 3.5 -2.5
    endloop
  endfacet
  facet normal 0 1 0
    outer loop
      vertex -10 3.5 -4
      vertex -10 3.5 -2.5
      vertex -8.08658 3.5 -3.6194
    endloop
  endfacet
  facet normal 0 1 0
    outer loop
      vertex -11.8922 3.5 -1.94439
      vertex -11.9134 3.5 -3.6194
      vertex -13.5355 3.5 -2.53553
    endloop
  endfacet
  facet normal 0 1 0
    outer loop
      vertex -10 3.5 -2.5
      vertex -10 3.5 -4
      vertex -11.9134 3.5 -3.6194
    endloop
  endfacet
  facet normal 0.195091 0 -0.980785
    outer loop
      vertex -11.9134 3.5 5.6194
      vertex -10 7.5 6
      vertex -10 3.5 6
    endloop
  endfacet
  facet normal 0.195091 0 -0.980785
    outer loop
      vertex -10 7.5 6
      vertex -11.9134 3.5 5.6194
      vertex -11.9134 7.5 5.6194
    endloop
  endfacet
  facet normal 0.83147 0 -0.55557
    outer loop
      vertex -13.5355 3.5 4.53553
      vertex -14.6194 7.5 2.91342
      vertex -13.5355 7.5 4.53553
    endloop
  endfacet
  facet normal 0.83147 0 -0.55557
    outer loop
      vertex -14.6194 7.5 2.91342
      vertex -13.5355 3.5 4.53553
      vertex -14.6194 3.5 2.91342
    endloop
  endfacet
  facet normal -0.980785 0 -0.19509
    outer loop
      vertex -5 3.89337 1
      vertex -5.3806 7.5 2.91342
      vertex -5 7.5 1
    endloop
  endfacet
  facet normal -0.980785 -0 -0.19509
    outer loop
      vertex -5.3806 7.5 2.91342
      vertex -5 3.89337 1
      vertex -5.3806 3.63906 2.91342
    endloop
  endfacet
  facet normal -0.55557 0 -0.83147
    outer loop
      vertex -8.08658 3.5 5.6194
      vertex -6.46447 7.5 4.53553
      vertex -6.46447 3.5 4.53553
    endloop
  endfacet
  facet normal -0.55557 0 -0.83147
    outer loop
      vertex -6.46447 7.5 4.53553
      vertex -8.08658 3.5 5.6194
      vertex -8.08658 7.5 5.6194
    endloop
  endfacet
  facet normal -0.195091 0 -0.980785
    outer loop
      vertex -10 3.5 6
      vertex -8.08658 7.5 5.6194
      vertex -8.08658 3.5 5.6194
    endloop
  endfacet
  facet normal -0.195091 0 -0.980785
    outer loop
      vertex -8.08658 7.5 5.6194
      vertex -10 3.5 6
      vertex -10 7.5 6
    endloop
  endfacet
  facet normal -0.55557 0 0.83147
    outer loop
      vertex -8.08658 7.5 -3.6194
      vertex -6.46447 3.5 -2.53553
      vertex -6.46447 7.5 -2.53553
    endloop
  endfacet
  facet normal -0.55557 0 0.83147
    outer loop
      vertex -6.46447 3.5 -2.53553
      vertex -8.08658 7.5 -3.6194
      vertex -8.08658 3.5 -3.6194
    endloop
  endfacet
  facet normal -0.980785 0 0.19509
    outer loop
      vertex -5.3806 7.5 -0.913417
      vertex -5 3.89337 1
      vertex -5 7.5 1
    endloop
  endfacet
  facet normal -0.980785 0 0.19509
    outer loop
      vertex -5 3.89337 1
      vertex -5.3806 7.5 -0.913417
      vertex -5.3806 3.63906 -0.913417
    endloop
  endfacet
  facet normal -0.83147 0 -0.55557
    outer loop
      vertex -5.3806 3.63906 2.91342
      vertex -6.46447 7.5 4.53553
      vertex -5.3806 7.5 2.91342
    endloop
  endfacet
  facet normal -0.83147 -1.17261e-08 -0.55557
    outer loop
      vertex -5.53553 3.53553 3.14529
      vertex -6.46447 7.5 4.53553
      vertex -5.3806 3.63906 2.91342
    endloop
  endfacet
  facet normal -0.83147 4.11591e-06 -0.55557
    outer loop
      vertex -6.46447 3.5 4.53553
      vertex -5.53553 3.53553 3.14529
      vertex -5.55928 3.5 3.18082
    endloop
  endfacet
  facet normal -0.83147 0 -0.55557
    outer loop
      vertex -5.53553 3.53553 3.14529
      vertex -6.46447 3.5 4.53553
      vertex -6.46447 7.5 4.53553
    endloop
  endfacet
  facet normal -0.195091 0 0.980785
    outer loop
      vertex -10 7.5 -4
      vertex -8.08658 3.5 -3.6194
      vertex -8.08658 7.5 -3.6194
    endloop
  endfacet
  facet normal -0.195091 0 0.980785
    outer loop
      vertex -8.08658 3.5 -3.6194
      vertex -10 7.5 -4
      vertex -10 3.5 -4
    endloop
  endfacet
  facet normal 0.281733 0 0.959493
    outer loop
      vertex -11.8922 3.5 -1.94439
      vertex -10 -1 -2.5
      vertex -10 3.5 -2.5
    endloop
  endfacet
  facet normal 0.281733 0 0.959493
    outer loop
      vertex -10 -1 -2.5
      vertex -11.8922 3.5 -1.94439
      vertex -11.8922 -1 -1.94439
    endloop
  endfacet
  facet normal 0 0 -1
    outer loop
      vertex -10.9861 -1 4.35822
      vertex -9.01394 3.5 4.35822
      vertex -9.01394 -1 4.35822
    endloop
  endfacet
  facet normal -0 0 -1
    outer loop
      vertex -9.01394 3.5 4.35822
      vertex -10.9861 -1 4.35822
      vertex -10.9861 3.5 4.35822
    endloop
  endfacet
  facet normal 0 1 0
    outer loop
      vertex -6.80109 -1 2.07938
      vertex -9.04894 -1 0.690983
      vertex -9.41221 -1 1.80902
    endloop
  endfacet
  facet normal 0 1 -0
    outer loop
      vertex -6.80109 -1 -0.348229
      vertex -9.04894 -1 0.690983
      vertex -6.80109 -1 2.07938
    endloop
  endfacet
  facet normal 0 1 -0
    outer loop
      vertex -6.81629 -1 -0.453952
      vertex -9.04894 -1 0.690983
      vertex -6.80109 -1 -0.348229
    endloop
  endfacet
  facet normal 0 1 0
    outer loop
      vertex -9.41221 -1 1.80902
      vertex -9.01394 -1 4.35822
      vertex -7.35488 -1 3.29201
    endloop
  endfacet
  facet normal 0 1 0
    outer loop
      vertex -9.01394 -1 4.35822
      vertex -9.41221 -1 1.80902
      vertex -10.9861 -1 4.35822
    endloop
  endfacet
  facet normal 0 1 0
    outer loop
      vertex -9.41221 -1 1.80902
      vertex -7.35488 -1 3.29201
      vertex -6.80109 -1 2.07938
    endloop
  endfacet
  facet normal 0 1 -0
    outer loop
      vertex -10.5878 -1 1.80902
      vertex -10.9861 -1 4.35822
      vertex -9.41221 -1 1.80902
    endloop
  endfacet
  facet normal 0 1 0
    outer loop
      vertex -10.9861 -1 4.35822
      vertex -10.5878 -1 1.80902
      vertex -12.6451 -1 3.29201
    endloop
  endfacet
  facet normal 0 1 0
    outer loop
      vertex -10.5878 -1 1.80902
      vertex -13.4644 -1 1.4981
      vertex -12.6451 -1 3.29201
    endloop
  endfacet
  facet normal 0 1 -0
    outer loop
      vertex -10.9511 -1 0.690983
      vertex -13.4644 -1 1.4981
      vertex -10.5878 -1 1.80902
    endloop
  endfacet
  facet normal 0 1 0
    outer loop
      vertex -11.8922 -1 -1.94439
      vertex -10.9511 -1 0.690983
      vertex -10 -1 -6.12323e-17
    endloop
  endfacet
  facet normal 0 1 -0
    outer loop
      vertex -8.10776 -1 -1.94439
      vertex -9.04894 -1 0.690983
      vertex -6.81629 -1 -0.453952
    endloop
  endfacet
  facet normal 0 1 0
    outer loop
      vertex -10.9511 -1 0.690983
      vertex -13.1837 -1 -0.453952
      vertex -13.4644 -1 1.4981
    endloop
  endfacet
  facet normal 0 1 0
    outer loop
      vertex -9.04894 -1 0.690983
      vertex -8.10776 -1 -1.94439
      vertex -10 -1 -6.12323e-17
    endloop
  endfacet
  facet normal 0 1 0
    outer loop
      vertex -10 -1 -2.5
      vertex -10 -1 -6.12323e-17
      vertex -8.10776 -1 -1.94439
    endloop
  endfacet
  facet normal 0 1 0
    outer loop
      vertex -10.9511 -1 0.690983
      vertex -11.8922 -1 -1.94439
      vertex -13.1837 -1 -0.453952
    endloop
  endfacet
  facet normal 0 1 0
    outer loop
      vertex -10 -1 -6.12323e-17
      vertex -10 -1 -2.5
      vertex -11.8922 -1 -1.94439
    endloop
  endfacet
  facet normal 0.909632 0 -0.415415
    outer loop
      vertex -12.6451 -1 3.29201
      vertex -13.4644 -0.5 1.4981
      vertex -12.6451 -0.5 3.29201
    endloop
  endfacet
  facet normal 0.909632 0 -0.415415
    outer loop
      vertex -13.4644 -0.5 1.4981
      vertex -12.6451 -1 3.29201
      vertex -13.4644 -1 1.4981
    endloop
  endfacet
  facet normal 0.909632 0 -0.415415
    outer loop
      vertex -12.6451 2.5 3.29201
      vertex -13.4644 3.5 1.4981
      vertex -12.6451 3.5 3.29201
    endloop
  endfacet
  facet normal 0.909632 0 -0.415415
    outer loop
      vertex -13.4644 3.5 1.4981
      vertex -12.6451 2.5 3.29201
      vertex -13.4644 2.5 1.4981
    endloop
  endfacet
  facet normal 0.54064 0 -0.841254
    outer loop
      vertex -12.3215 2.5 3.5
      vertex -10.9861 -1 4.35822
      vertex -12.3215 -0.5 3.5
    endloop
  endfacet
  facet normal 0.540641 4.80969e-07 -0.841254
    outer loop
      vertex -12.6451 -1 3.29201
      vertex -12.3215 -0.5 3.5
      vertex -10.9861 -1 4.35822
    endloop
  endfacet
  facet normal 0.540641 0 -0.841253
    outer loop
      vertex -12.3215 -0.5 3.5
      vertex -12.6451 -1 3.29201
      vertex -12.6451 -0.5 3.29201
    endloop
  endfacet
  facet normal 0.54064 0 -0.841254
    outer loop
      vertex -10.9861 -1 4.35822
      vertex -12.3215 2.5 3.5
      vertex -10.9861 3.5 4.35822
    endloop
  endfacet
  facet normal 0.540641 0 -0.841253
    outer loop
      vertex -12.6451 3.5 3.29201
      vertex -12.3215 2.5 3.5
      vertex -12.6451 2.5 3.29201
    endloop
  endfacet
  facet normal 0.540641 -2.40484e-07 -0.841254
    outer loop
      vertex -12.3215 2.5 3.5
      vertex -12.6451 3.5 3.29201
      vertex -10.9861 3.5 4.35822
    endloop
  endfacet
  facet normal -0.989821 0 0.142315
    outer loop
      vertex -6.81629 -0.923581 -0.453952
      vertex -6.81629 -1 -0.453952
      vertex -6.80109 -1 -0.348229
    endloop
  endfacet
  facet normal -0.989821 0 0.142315
    outer loop
      vertex -6.81629 2.5 -0.453952
      vertex -6.53562 3.5 1.4981
      vertex -6.81629 3.5 -0.453952
    endloop
  endfacet
  facet normal -0.989821 0 0.142315
    outer loop
      vertex -6.53562 3.5 1.4981
      vertex -6.81629 2.5 -0.453952
      vertex -6.53562 2.5 1.4981
    endloop
  endfacet
  facet normal -0.75575 -1.49417e-07 0.654861
    outer loop
      vertex -8.10776 3.5 -1.94439
      vertex -7.72269 2.5 -1.5
      vertex -6.81629 3.5 -0.453952
    endloop
  endfacet
  facet normal -0.755749 0 0.654861
    outer loop
      vertex -8.10776 -1 -1.94439
      vertex -7.72269 2.5 -1.5
      vertex -8.10776 3.5 -1.94439
    endloop
  endfacet
  facet normal -0.75575 -4.76676e-08 0.654861
    outer loop
      vertex -7.72269 -0.5 -1.5
      vertex -6.81629 -0.923581 -0.453952
      vertex -6.90054 -0.5 -0.551188
    endloop
  endfacet
  facet normal -0.755749 0 0.654861
    outer loop
      vertex -7.72269 2.5 -1.5
      vertex -8.10776 -1 -1.94439
      vertex -7.72269 -0.5 -1.5
    endloop
  endfacet
  facet normal -0.75575 2.98835e-07 0.654861
    outer loop
      vertex -6.81629 -1 -0.453952
      vertex -7.72269 -0.5 -1.5
      vertex -8.10776 -1 -1.94439
    endloop
  endfacet
  facet normal -0.75575 0 0.654861
    outer loop
      vertex -7.72269 -0.5 -1.5
      vertex -6.81629 -1 -0.453952
      vertex -6.81629 -0.923581 -0.453952
    endloop
  endfacet
  facet normal -0.75575 0 0.654861
    outer loop
      vertex -6.81629 3.5 -0.453952
      vertex -7.72269 2.5 -1.5
      vertex -6.81629 2.5 -0.453952
    endloop
  endfacet
  facet normal 0.989821 -0 0.142315
    outer loop
      vertex -13.4644 -1 1.4981
      vertex -13.1837 -0.5 -0.453952
      vertex -13.4644 -0.5 1.4981
    endloop
  endfacet
  facet normal 0.989821 0 0.142315
    outer loop
      vertex -13.1837 -0.5 -0.453952
      vertex -13.4644 -1 1.4981
      vertex -13.1837 -1 -0.453952
    endloop
  endfacet
  facet normal 0.989821 -0 0.142315
    outer loop
      vertex -13.4644 2.5 1.4981
      vertex -13.1837 3.5 -0.453952
      vertex -13.4644 3.5 1.4981
    endloop
  endfacet
  facet normal 0.989821 0 0.142315
    outer loop
      vertex -13.1837 3.5 -0.453952
      vertex -13.4644 2.5 1.4981
      vertex -13.1837 2.5 -0.453952
    endloop
  endfacet
  facet normal 0.75575 0 0.654861
    outer loop
      vertex -13.1837 -0.5 -0.453952
      vertex -13.1837 -1 -0.453952
      vertex -12.2773 -0.5 -1.5
    endloop
  endfacet
  facet normal 0.75575 0 0.654861
    outer loop
      vertex -12.2773 2.5 -1.5
      vertex -13.1837 3.5 -0.453952
      vertex -13.1837 2.5 -0.453952
    endloop
  endfacet
  facet normal 0.75575 -1.49417e-07 0.654861
    outer loop
      vertex -13.1837 3.5 -0.453952
      vertex -12.2773 2.5 -1.5
      vertex -11.8922 3.5 -1.94439
    endloop
  endfacet
  facet normal 0.755749 0 0.654861
    outer loop
      vertex -11.8922 -1 -1.94439
      vertex -12.2773 2.5 -1.5
      vertex -12.2773 -0.5 -1.5
    endloop
  endfacet
  facet normal 0.755749 0 0.654861
    outer loop
      vertex -12.2773 2.5 -1.5
      vertex -11.8922 -1 -1.94439
      vertex -11.8922 3.5 -1.94439
    endloop
  endfacet
  facet normal 0.75575 2.98835e-07 0.654861
    outer loop
      vertex -11.8922 -1 -1.94439
      vertex -12.2773 -0.5 -1.5
      vertex -13.1837 -1 -0.453952
    endloop
  endfacet
  facet normal -0.281733 0 0.959493
    outer loop
      vertex -10 3.5 -2.5
      vertex -8.10776 -1 -1.94439
      vertex -8.10776 3.5 -1.94439
    endloop
  endfacet
  facet normal -0.281733 0 0.959493
    outer loop
      vertex -8.10776 -1 -1.94439
      vertex -10 3.5 -2.5
      vertex -10 -1 -2.5
    endloop
  endfacet
  facet normal -0.909632 -1.52964e-07 -0.415415
    outer loop
      vertex -7.35488 -1 3.29201
      vertex -6.90054 -0.5 2.29716
      vertex -6.80109 -1 2.07938
    endloop
  endfacet
  facet normal -0.909632 0 -0.415415
    outer loop
      vertex -6.90054 -0.5 2.29716
      vertex -7.35488 -1 3.29201
      vertex -7.35488 -0.5 3.29201
    endloop
  endfacet
  facet normal -0.909632 0 -0.415415
    outer loop
      vertex -6.53562 2.5 1.4981
      vertex -7.35488 3.5 3.29201
      vertex -6.53562 3.5 1.4981
    endloop
  endfacet
  facet normal -0.909632 -0 -0.415415
    outer loop
      vertex -7.35488 3.5 3.29201
      vertex -6.53562 2.5 1.4981
      vertex -7.35488 2.5 3.29201
    endloop
  endfacet
  facet normal -0.540641 0 -0.841254
    outer loop
      vertex -7.35488 -1 3.29201
      vertex -7.67851 -0.5 3.5
      vertex -7.35488 -0.5 3.29201
    endloop
  endfacet
  facet normal -0.540641 0 -0.841254
    outer loop
      vertex -7.67851 -0.5 3.5
      vertex -9.01394 -1 4.35822
      vertex -7.67851 2.5 3.5
    endloop
  endfacet
  facet normal -0.540641 -3.46263e-08 -0.841254
    outer loop
      vertex -9.01394 -1 4.35822
      vertex -7.67851 -0.5 3.5
      vertex -7.35488 -1 3.29201
    endloop
  endfacet
  facet normal -0.540641 0 -0.841254
    outer loop
      vertex -7.67851 2.5 3.5
      vertex -7.35488 3.5 3.29201
      vertex -7.35488 2.5 3.29201
    endloop
  endfacet
  facet normal -0.540641 -0 -0.841254
    outer loop
      vertex -9.01394 3.5 4.35822
      vertex -7.67851 2.5 3.5
      vertex -9.01394 -1 4.35822
    endloop
  endfacet
  facet normal -0.540641 1.73132e-08 -0.841254
    outer loop
      vertex -7.67851 2.5 3.5
      vertex -9.01394 3.5 4.35822
      vertex -7.35488 3.5 3.29201
    endloop
  endfacet
  facet normal 0.587785 -0 0.809017
    outer loop
      vertex -10.9511 -3.98361 0.690983
      vertex -10 -1 -6.12323e-17
      vertex -10.9511 -1 0.690983
    endloop
  endfacet
  facet normal 0.587785 -4.9538e-17 0.809017
    outer loop
      vertex -10 -1 -6.12323e-17
      vertex -10.9511 -3.98361 0.690983
      vertex -10 -4.21464 -2.58073e-16
    endloop
  endfacet
  facet normal 0 0 -1
    outer loop
      vertex -10.5878 -4.07185 1.80902
      vertex -9.41221 -1 1.80902
      vertex -9.41221 -4.35743 1.80902
    endloop
  endfacet
  facet normal -0 0 -1
    outer loop
      vertex -9.41221 -1 1.80902
      vertex -10.5878 -4.07185 1.80902
      vertex -10.5878 -1 1.80902
    endloop
  endfacet
  facet normal 0.951056 0 -0.309017
    outer loop
      vertex -10.5878 -1 1.80902
      vertex -10.9511 -3.98361 0.690983
      vertex -10.9511 -1 0.690983
    endloop
  endfacet
  facet normal 0.951056 0 -0.309017
    outer loop
      vertex -10.9511 -3.98361 0.690983
      vertex -10.5878 -1 1.80902
      vertex -10.5878 -4.07185 1.80902
    endloop
  endfacet
  facet normal -0.951056 0 -0.309017
    outer loop
      vertex -9.04894 -1 0.690983
      vertex -9.41221 -4.35743 1.80902
      vertex -9.41221 -1 1.80902
    endloop
  endfacet
  facet normal -0.951056 0 -0.309017
    outer loop
      vertex -9.41221 -4.35743 1.80902
      vertex -9.04894 -1 0.690983
      vertex -9.04894 -4.44568 0.690983
    endloop
  endfacet
  facet normal -0.587785 -4.9538e-17 0.809017
    outer loop
      vertex -10 -4.21464 -2.58073e-16
      vertex -9.04894 -1 0.690983
      vertex -10 -1 -6.12323e-17
    endloop
  endfacet
  facet normal -0.587785 0 0.809017
    outer loop
      vertex -9.04894 -1 0.690983
      vertex -10 -4.21464 -2.58073e-16
      vertex -9.04894 -4.44568 0.690983
    endloop
  endfacet
  facet normal 0 0 -1
    outer loop
      vertex -6.90054 -0.5 3.5
      vertex -7.67851 -0.5 3.5
      vertex -7 4.28626e-16 3.5
    endloop
  endfacet
  facet normal 0 0 -1
    outer loop
      vertex -7.67851 2.5 3.5
      vertex -7 4.28626e-16 3.5
      vertex -7.67851 -0.5 3.5
    endloop
  endfacet
  facet normal 0 0 -1
    outer loop
      vertex -6.6194 1.91342 3.5
      vertex -7.67851 2.5 3.5
      vertex -6.22746 2.5 3.5
    endloop
  endfacet
  facet normal 0 0 -1
    outer loop
      vertex -7 4.28626e-16 3.5
      vertex -7.67851 2.5 3.5
      vertex -6.6194 1.91342 3.5
    endloop
  endfacet
  facet normal 0 0 -1
    outer loop
      vertex -13.5929 -0.5 3.5
      vertex -12.3215 2.5 3.5
      vertex -12.3215 -0.5 3.5
    endloop
  endfacet
  facet normal 0 0 -1
    outer loop
      vertex -15.0812 1.83543 3.5
      vertex -12.3215 2.5 3.5
      vertex -13.5929 -0.5 3.5
    endloop
  endfacet
  facet normal -0 0 -1
    outer loop
      vertex -12.3215 2.5 3.5
      vertex -15.0812 1.83543 3.5
      vertex -15.436 2.5 3.5
    endloop
  endfacet
  facet normal 0 -1 0
    outer loop
      vertex -7.35488 2.5 3.29201
      vertex -6.22746 2.5 3.5
      vertex -7.67851 2.5 3.5
    endloop
  endfacet
  facet normal 0 -1 0
    outer loop
      vertex -6.53562 2.5 1.4981
      vertex -6.22746 2.5 3.5
      vertex -7.35488 2.5 3.29201
    endloop
  endfacet
  facet normal 0 -1 0
    outer loop
      vertex -6.22746 2.5 -1.5
      vertex -6.53562 2.5 1.4981
      vertex -6.81629 2.5 -0.453952
    endloop
  endfacet
  facet normal 0 -1 0
    outer loop
      vertex -6.53562 2.5 1.4981
      vertex -6.22746 2.5 -1.5
      vertex -6.22746 2.5 3.5
    endloop
  endfacet
  facet normal 0 -1 0
    outer loop
      vertex -6.22746 2.5 -1.5
      vertex -6.81629 2.5 -0.453952
      vertex -7.72269 2.5 -1.5
    endloop
  endfacet
  facet normal 0 -1 0
    outer loop
      vertex -13.4644 2.5 1.4981
      vertex -15.436 2.5 3.5
      vertex -15.4946 2.5 3.41017
    endloop
  endfacet
  facet normal 0 -1 0
    outer loop
      vertex -15.436 2.5 3.5
      vertex -12.6451 2.5 3.29201
      vertex -12.3215 2.5 3.5
    endloop
  endfacet
  facet normal 0 -1 0
    outer loop
      vertex -15.436 2.5 3.5
      vertex -13.4644 2.5 1.4981
      vertex -12.6451 2.5 3.29201
    endloop
  endfacet
  facet normal 0 -1 0
    outer loop
      vertex -17.2888 2.5 -1.466
      vertex -13.4644 2.5 1.4981
      vertex -15.4946 2.5 3.41017
    endloop
  endfacet
  facet normal 0 -1 -0
    outer loop
      vertex -13.4644 2.5 1.4981
      vertex -17.2888 2.5 -1.466
      vertex -13.1837 2.5 -0.453952
    endloop
  endfacet
  facet normal 0 -1 0
    outer loop
      vertex -17.2974 2.5 -1.5
      vertex -13.1837 2.5 -0.453952
      vertex -17.2888 2.5 -1.466
    endloop
  endfacet
  facet normal 0 -1 -0
    outer loop
      vertex -13.1837 2.5 -0.453952
      vertex -17.2974 2.5 -1.5
      vertex -12.2773 2.5 -1.5
    endloop
  endfacet
  facet normal 0 0 1
    outer loop
      vertex -7.72269 -0.5 -1.5
      vertex -7 4.28626e-16 -1.5
      vertex -7.72269 2.5 -1.5
    endloop
  endfacet
  facet normal 0 0 1
    outer loop
      vertex -7 4.28626e-16 -1.5
      vertex -7.72269 -0.5 -1.5
      vertex -6.90054 -0.5 -1.5
    endloop
  endfacet
  facet normal 0 0 1
    outer loop
      vertex -6.6194 1.91342 -1.5
      vertex -7.72269 2.5 -1.5
      vertex -7 4.28626e-16 -1.5
    endloop
  endfacet
  facet normal -0 0 1
    outer loop
      vertex -7.72269 2.5 -1.5
      vertex -6.6194 1.91342 -1.5
      vertex -6.22746 2.5 -1.5
    endloop
  endfacet
  facet normal 0 0 1
    outer loop
      vertex -12.2773 2.5 -1.5
      vertex -17.0794 -0.5 -1.5
      vertex -12.2773 -0.5 -1.5
    endloop
  endfacet
  facet normal 0 0 1
    outer loop
      vertex -12.2773 2.5 -1.5
      vertex -17.2135 -0.289554 -1.5
      vertex -17.0794 -0.5 -1.5
    endloop
  endfacet
  facet normal 0 0 1
    outer loop
      vertex -17.3013 2.46514 -1.5
      vertex -12.2773 2.5 -1.5
      vertex -17.2974 2.5 -1.5
    endloop
  endfacet
  facet normal 0 0 1
    outer loop
      vertex -17.3013 -0.12511 -1.5
      vertex -12.2773 2.5 -1.5
      vertex -17.3013 2.46514 -1.5
    endloop
  endfacet
  facet normal 0 0 1
    outer loop
      vertex -12.2773 2.5 -1.5
      vertex -17.3013 -0.12511 -1.5
      vertex -17.2135 -0.289554 -1.5
    endloop
  endfacet
  facet normal 0 1 -0
    outer loop
      vertex -12.6451 -0.5 3.29201
      vertex -13.5929 -0.5 3.5
      vertex -12.3215 -0.5 3.5
    endloop
  endfacet
  facet normal 0 1 -0
    outer loop
      vertex -13.4644 -0.5 1.4981
      vertex -13.5929 -0.5 3.5
      vertex -12.6451 -0.5 3.29201
    endloop
  endfacet
  facet normal 0 1 0
    outer loop
      vertex -13.4644 -0.5 1.4981
      vertex -17.0794 -0.5 -1.5
      vertex -13.5929 -0.5 3.5
    endloop
  endfacet
  facet normal 0 1 0
    outer loop
      vertex -13.1837 -0.5 -0.453952
      vertex -17.0794 -0.5 -1.5
      vertex -13.4644 -0.5 1.4981
    endloop
  endfacet
  facet normal 0 1 0
    outer loop
      vertex -17.0794 -0.5 -1.5
      vertex -13.1837 -0.5 -0.453952
      vertex -12.2773 -0.5 -1.5
    endloop
  endfacet
  facet normal 0 1 0
    outer loop
      vertex -6.90054 -0.5 3.5
      vertex -7.35488 -0.5 3.29201
      vertex -7.67851 -0.5 3.5
    endloop
  endfacet
  facet normal -0 1 0
    outer loop
      vertex -7.35488 -0.5 3.29201
      vertex -6.90054 -0.5 3.5
      vertex -6.90054 -0.5 2.29716
    endloop
  endfacet
  facet normal 0 1 -0
    outer loop
      vertex -6.90054 -0.5 -1.5
      vertex -7.72269 -0.5 -1.5
      vertex -6.90054 -0.5 -0.551188
    endloop
  endfacet
  facet normal 0.587785 -0.809017 0
    outer loop
      vertex -15.9511 -21.691 -5
      vertex -15 -21 -3
      vertex -15.9511 -21.691 -3
    endloop
  endfacet
  facet normal 0.587785 -0.809017 0
    outer loop
      vertex -15 -21 -3
      vertex -15.9511 -21.691 -5
      vertex -15 -21 -5
    endloop
  endfacet
  facet normal 0 1 -0
    outer loop
      vertex -14.4122 -22.809 -5
      vertex -15.5878 -22.809 -3
      vertex -14.4122 -22.809 -3
    endloop
  endfacet
  facet normal 0 1 0
    outer loop
      vertex -15.5878 -22.809 -3
      vertex -14.4122 -22.809 -5
      vertex -15.5878 -22.809 -5
    endloop
  endfacet
  facet normal 0.951056 0.309018 0
    outer loop
      vertex -15.5878 -22.809 -3
      vertex -15.9511 -21.691 -5
      vertex -15.9511 -21.691 -3
    endloop
  endfacet
  facet normal 0.951056 0.309018 0
    outer loop
      vertex -15.9511 -21.691 -5
      vertex -15.5878 -22.809 -3
      vertex -15.5878 -22.809 -5
    endloop
  endfacet
  facet normal -0.951056 0.309018 0
    outer loop
      vertex -14.4122 -22.809 -5
      vertex -14.0489 -21.691 -3
      vertex -14.0489 -21.691 -5
    endloop
  endfacet
  facet normal -0.951056 0.309018 0
    outer loop
      vertex -14.0489 -21.691 -3
      vertex -14.4122 -22.809 -5
      vertex -14.4122 -22.809 -3
    endloop
  endfacet
  facet normal -0.587785 -0.809017 0
    outer loop
      vertex -15 -21 -5
      vertex -14.0489 -21.691 -3
      vertex -15 -21 -3
    endloop
  endfacet
  facet normal -0.587785 -0.809017 -0
    outer loop
      vertex -14.0489 -21.691 -3
      vertex -15 -21 -5
      vertex -14.0489 -21.691 -5
    endloop
  endfacet
  facet normal 0.195091 -0.980785 7.73415e-09
    outer loop
      vertex -2.17463 4.96526 -4.69956
      vertex -2 5 7.75
      vertex -3.91342 4.6194 7.75
    endloop
  endfacet
  facet normal 0.195091 -0.980785 0
    outer loop
      vertex -2 5 7.75
      vertex -2.17463 4.96526 -4.69956
      vertex -2 5 -4.68825
    endloop
  endfacet
  facet normal 0.19509 -0.980785 -6.66318e-09
    outer loop
      vertex -3.91342 4.6194 7.75
      vertex -3.55842 4.69001 -4.76689
      vertex -2.17463 4.96526 -4.69956
    endloop
  endfacet
  facet normal 0.195091 -0.980785 0
    outer loop
      vertex -3.55842 4.69001 -4.76689
      vertex -3.91342 4.6194 7.75
      vertex -3.91342 4.6194 -4.78043
    endloop
  endfacet
  facet normal -0.195091 0.980785 0
    outer loop
      vertex -1.25052 -4.85092 -4.57473
      vertex -0.0865822 -4.6194 7.75
      vertex -0.0865822 -4.6194 -4.55033
    endloop
  endfacet
  facet normal -0.195091 0.980785 -5.4223e-09
    outer loop
      vertex -0.0865822 -4.6194 7.75
      vertex -1.25052 -4.85092 -4.57473
      vertex -2 -5 7.75
    endloop
  endfacet
  facet normal -0.19509 0.980785 0
    outer loop
      vertex -2 -5 7.75
      vertex -1.25052 -4.85092 -4.57473
      vertex -2 -5 -4.58177
    endloop
  endfacet
  facet normal -0.980785 -0.195091 0
    outer loop
      vertex 2.98547 0.0730572 -4.53555
      vertex 2.6194 1.91342 7.75
      vertex 2.6194 1.91342 -4.54357
    endloop
  endfacet
  facet normal -0.980785 -0.195092 -0
    outer loop
      vertex 3 -1.83697e-16 7.75
      vertex 2.98547 0.0730572 -4.53555
      vertex 3 -1.83697e-16 -4.53503
    endloop
  endfacet
  facet normal -0.980785 -0.195091 6.54281e-09
    outer loop
      vertex 2.98547 0.0730572 -4.53555
      vertex 3 -1.83697e-16 7.75
      vertex 2.6194 1.91342 7.75
    endloop
  endfacet
  facet normal 0.980785 0.195091 0
    outer loop
      vertex -6.90054 -0.5 -0.551188
      vertex -6.81629 -0.923581 -0.453952
      vertex -6.90054 -0.5 -1.5
    endloop
  endfacet
  facet normal 0.980785 0.195091 0
    outer loop
      vertex -6.90054 -0.5 -1.5
      vertex -7 4.28626e-16 -4.86222
      vertex -7 4.28626e-16 -1.5
    endloop
  endfacet
  facet normal 0.980785 0.195089 -5.63153e-07
    outer loop
      vertex -6.80109 -1 -0.348229
      vertex -6.90054 -0.5 -1.5
      vertex -6.81629 -0.923581 -0.453952
    endloop
  endfacet
  facet normal 0.980785 0.195091 1.10912e-08
    outer loop
      vertex -6.90054 -0.5 -1.5
      vertex -6.80109 -1 -0.348229
      vertex -6.6194 -1.91342 -4.81422
    endloop
  endfacet
  facet normal 0.980785 0.195091 3.07219e-09
    outer loop
      vertex -6.90054 -0.5 -1.5
      vertex -6.71311 -1.44227 -4.8263
      vertex -7 4.28626e-16 -4.86222
    endloop
  endfacet
  facet normal 0.980785 0.195091 0
    outer loop
      vertex -7 4.28626e-16 7.75
      vertex -6.90054 -0.5 3.5
      vertex -7 4.28626e-16 3.5
    endloop
  endfacet
  facet normal 0.980785 0.195091 0
    outer loop
      vertex -6.90054 -0.5 3.5
      vertex -6.80109 -1 2.07938
      vertex -6.90054 -0.5 2.29716
    endloop
  endfacet
  facet normal 0.980785 0.195091 -4.48043e-09
    outer loop
      vertex -6.6194 -1.91342 7.75
      vertex -6.90054 -0.5 3.5
      vertex -7 4.28626e-16 7.75
    endloop
  endfacet
  facet normal 0.980785 0.195091 0
    outer loop
      vertex -6.6194 -1.91342 -4.81422
      vertex -6.80109 -1 -0.348229
      vertex -6.80109 -1 2.07938
    endloop
  endfacet
  facet normal 0.980785 0.195091 -8.81579e-09
    outer loop
      vertex -6.90054 -0.5 3.5
      vertex -6.6194 -1.91342 7.75
      vertex -6.80109 -1 2.07938
    endloop
  endfacet
  facet normal 0.980785 0.195091 -0
    outer loop
      vertex -6.6194 -1.91342 -4.81422
      vertex -6.80109 -1 2.07938
      vertex -6.6194 -1.91342 7.75
    endloop
  endfacet
  facet normal 0.980785 0.195091 -1.69179e-08
    outer loop
      vertex -6.90054 -0.5 -1.5
      vertex -6.6194 -1.91342 -4.81422
      vertex -6.71311 -1.44227 -4.8263
    endloop
  endfacet
  facet normal 0.831468 -0.555573 0
    outer loop
      vertex -5.53553 3.53553 7.75
      vertex -5.55928 3.5 3.18082
      vertex -5.53553 3.53553 3.14529
    endloop
  endfacet
  facet normal 0.83147 -0.55557 0
    outer loop
      vertex -5.55928 3.5 3.18082
      vertex -6.22746 2.5 3.5
      vertex -5.55928 3.5 -1.18082
    endloop
  endfacet
  facet normal 0.83147 -0.55557 -3.19712e-08
    outer loop
      vertex -5.53553 3.53553 7.75
      vertex -6.22746 2.5 3.5
      vertex -5.55928 3.5 3.18082
    endloop
  endfacet
  facet normal 0.83147 -0.55557 -8.86839e-09
    outer loop
      vertex -6.6194 1.91342 7.75
      vertex -6.22746 2.5 3.5
      vertex -5.53553 3.53553 7.75
    endloop
  endfacet
  facet normal 0.83147 -0.55557 0
    outer loop
      vertex -6.22746 2.5 3.5
      vertex -6.6194 1.91342 7.75
      vertex -6.6194 1.91342 3.5
    endloop
  endfacet
  facet normal 0.831468 -0.555573 0
    outer loop
      vertex -5.55928 3.5 -1.18082
      vertex -5.53553 3.53553 -4.84032
      vertex -5.53553 3.53553 -1.14529
    endloop
  endfacet
  facet normal 0.83147 -0.55557 0
    outer loop
      vertex -6.22746 2.5 -1.5
      vertex -5.55928 3.5 -1.18082
      vertex -6.22746 2.5 3.5
    endloop
  endfacet
  facet normal 0.83147 -0.55557 3.9894e-08
    outer loop
      vertex -5.55928 3.5 -1.18082
      vertex -6.22746 2.5 -1.5
      vertex -5.53553 3.53553 -4.84032
    endloop
  endfacet
  facet normal 0.83147 -0.55557 0
    outer loop
      vertex -6.6194 1.91342 -4.87909
      vertex -6.22746 2.5 -1.5
      vertex -6.6194 1.91342 -1.5
    endloop
  endfacet
  facet normal 0.83147 -0.55557 1.12006e-08
    outer loop
      vertex -6.22746 2.5 -1.5
      vertex -6.6194 1.91342 -4.87909
      vertex -5.53553 3.53553 -4.84032
    endloop
  endfacet
  facet normal 0.55557 -0.83147 0
    outer loop
      vertex -5.53553 3.53553 3.14529
      vertex -3.91342 4.6194 7.75
      vertex -5.53553 3.53553 7.75
    endloop
  endfacet
  facet normal 0.55557 -0.83147 -1.2362e-07
    outer loop
      vertex -5.3806 3.63906 2.91342
      vertex -3.91342 4.6194 7.75
      vertex -5.53553 3.53553 3.14529
    endloop
  endfacet
  facet normal 0.55557 -0.83147 -9.06175e-09
    outer loop
      vertex -5 3.89337 1
      vertex -3.91342 4.6194 7.75
      vertex -5.3806 3.63906 2.91342
    endloop
  endfacet
  facet normal 0.55557 -0.83147 0
    outer loop
      vertex -5 3.89337 1
      vertex -3.91342 4.6194 -4.78043
      vertex -3.91342 4.6194 7.75
    endloop
  endfacet
  facet normal 0.55557 -0.83147 9.84321e-09
    outer loop
      vertex -5.3806 3.63906 -0.913417
      vertex -3.91342 4.6194 -4.78043
      vertex -5 3.89337 1
    endloop
  endfacet
  facet normal 0.55557 -0.83147 1.43389e-07
    outer loop
      vertex -5.53553 3.53553 -1.14529
      vertex -3.91342 4.6194 -4.78043
      vertex -5.3806 3.63906 -0.913417
    endloop
  endfacet
  facet normal 0.55557 -0.83147 1.83872e-07
    outer loop
      vertex -5.53553 3.53553 -1.14529
      vertex -4.3977 4.29581 -4.79962
      vertex -3.91342 4.6194 -4.78043
    endloop
  endfacet
  facet normal 0.55557 -0.83147 0
    outer loop
      vertex -4.3977 4.29581 -4.79962
      vertex -5.53553 3.53553 -1.14529
      vertex -5.53553 3.53553 -4.84032
    endloop
  endfacet
  facet normal 0.980785 -0.195091 0
    outer loop
      vertex -7 4.28626e-16 7.75
      vertex -6.6194 1.91342 3.5
      vertex -6.6194 1.91342 7.75
    endloop
  endfacet
  facet normal 0.980785 -0.195091 0
    outer loop
      vertex -6.6194 1.91342 3.5
      vertex -7 4.28626e-16 7.75
      vertex -7 4.28626e-16 3.5
    endloop
  endfacet
  facet normal 0.980785 -0.19509 0
    outer loop
      vertex -6.6194 1.91342 -1.5
      vertex -6.64569 1.78125 -4.88003
      vertex -6.6194 1.91342 -4.87909
    endloop
  endfacet
  facet normal 0.980785 -0.195091 5.7125e-08
    outer loop
      vertex -6.6194 1.91342 -1.5
      vertex -6.73876 1.31336 -4.87917
      vertex -6.64569 1.78125 -4.88003
    endloop
  endfacet
  facet normal 0.980785 -0.195091 -6.49788e-08
    outer loop
      vertex -7 4.28626e-16 -1.5
      vertex -6.73876 1.31336 -4.87917
      vertex -6.6194 1.91342 -1.5
    endloop
  endfacet
  facet normal 0.980785 -0.19509 0
    outer loop
      vertex -6.73876 1.31336 -4.87917
      vertex -7 4.28626e-16 -1.5
      vertex -7 4.28626e-16 -4.86222
    endloop
  endfacet
  facet normal 0.55557 0.83147 0
    outer loop
      vertex -4.57223 -4.17919 -4.69258
      vertex -3.91342 -4.6194 7.75
      vertex -3.91342 -4.6194 -4.64924
    endloop
  endfacet
  facet normal 0.55557 0.83147 -1.68045e-09
    outer loop
      vertex -3.91342 -4.6194 7.75
      vertex -4.57223 -4.17919 -4.69258
      vertex -5.53553 -3.53553 7.75
    endloop
  endfacet
  facet normal 0.55557 0.83147 0
    outer loop
      vertex -5.53553 -3.53553 7.75
      vertex -4.57223 -4.17919 -4.69258
      vertex -5.53553 -3.53553 -4.743
    endloop
  endfacet
  facet normal 0.195091 0.980785 -0
    outer loop
      vertex -2 -5 -4.58177
      vertex -3.91342 -4.6194 7.75
      vertex -2 -5 7.75
    endloop
  endfacet
  facet normal 0.195091 0.980785 0
    outer loop
      vertex -3.91342 -4.6194 7.75
      vertex -2 -5 -4.58177
      vertex -3.91342 -4.6194 -4.64924
    endloop
  endfacet
  facet normal 0 0 -1
    outer loop
      vertex 0.853169 -0.927051 7.75
      vertex 3 -1.83697e-16 7.75
      vertex 2.6194 -1.91342 7.75
    endloop
  endfacet
  facet normal 0 0 -1
    outer loop
      vertex 0.853169 -0.927051 7.75
      vertex 2.6194 -1.91342 7.75
      vertex 1.53553 -3.53553 7.75
    endloop
  endfacet
  facet normal 0 0 -1
    outer loop
      vertex 0.853169 0.927051 7.75
      vertex 3 -1.83697e-16 7.75
      vertex 0.853169 -0.927051 7.75
    endloop
  endfacet
  facet normal 0 0 -1
    outer loop
      vertex 3 -1.83697e-16 7.75
      vertex 0.853169 0.927051 7.75
      vertex 2.6194 1.91342 7.75
    endloop
  endfacet
  facet normal 0 0 -1
    outer loop
      vertex -0.236644 -2.42705 7.75
      vertex 1.53553 -3.53553 7.75
      vertex -0.0865822 -4.6194 7.75
    endloop
  endfacet
  facet normal 0 0 -1
    outer loop
      vertex 1.53553 -3.53553 7.75
      vertex -0.236644 -2.42705 7.75
      vertex 0.853169 -0.927051 7.75
    endloop
  endfacet
  facet normal 0 0 -1
    outer loop
      vertex -2 -3 7.75
      vertex -0.0865822 -4.6194 7.75
      vertex -2 -5 7.75
    endloop
  endfacet
  facet normal 0 0 -1
    outer loop
      vertex -0.0865822 -4.6194 7.75
      vertex -2 -3 7.75
      vertex -0.236644 -2.42705 7.75
    endloop
  endfacet
  facet normal 0 0 -1
    outer loop
      vertex -3.91342 -4.6194 7.75
      vertex -2 -3 7.75
      vertex -2 -5 7.75
    endloop
  endfacet
  facet normal -0 0 -1
    outer loop
      vertex -2 -3 7.75
      vertex -3.91342 -4.6194 7.75
      vertex -3.76336 -2.42705 7.75
    endloop
  endfacet
  facet normal 0 0 -1
    outer loop
      vertex -5.53553 -3.53553 7.75
      vertex -3.76336 -2.42705 7.75
      vertex -3.91342 -4.6194 7.75
    endloop
  endfacet
  facet normal 0 0 -1
    outer loop
      vertex -6.6194 -1.91342 7.75
      vertex -4.85317 -0.927051 7.75
      vertex -5.53553 -3.53553 7.75
    endloop
  endfacet
  facet normal -0 0 -1
    outer loop
      vertex -3.76336 -2.42705 7.75
      vertex -5.53553 -3.53553 7.75
      vertex -4.85317 -0.927051 7.75
    endloop
  endfacet
  facet normal -0 0 -1
    outer loop
      vertex 2.6194 1.91342 7.75
      vertex 0.853169 0.927051 7.75
      vertex 1.53553 3.53553 7.75
    endloop
  endfacet
  facet normal 0 0 -1
    outer loop
      vertex -0.236644 2.42705 7.75
      vertex 1.53553 3.53553 7.75
      vertex 0.853169 0.927051 7.75
    endloop
  endfacet
  facet normal -0 0 -1
    outer loop
      vertex 1.53553 3.53553 7.75
      vertex -0.236644 2.42705 7.75
      vertex -0.0865822 4.6194 7.75
    endloop
  endfacet
  facet normal 0 0 -1
    outer loop
      vertex -2 3 7.75
      vertex -0.0865822 4.6194 7.75
      vertex -0.236644 2.42705 7.75
    endloop
  endfacet
  facet normal 0 0 -1
    outer loop
      vertex -2 3 7.75
      vertex -2 5 7.75
      vertex -0.0865822 4.6194 7.75
    endloop
  endfacet
  facet normal 0 0 -1
    outer loop
      vertex -3.91342 4.6194 7.75
      vertex -2 3 7.75
      vertex -3.76336 2.42705 7.75
    endloop
  endfacet
  facet normal 0 0 -1
    outer loop
      vertex -2 3 7.75
      vertex -3.91342 4.6194 7.75
      vertex -2 5 7.75
    endloop
  endfacet
  facet normal 0 0 -1
    outer loop
      vertex -5.53553 3.53553 7.75
      vertex -3.76336 2.42705 7.75
      vertex -4.85317 0.927051 7.75
    endloop
  endfacet
  facet normal 0 0 -1
    outer loop
      vertex -3.76336 2.42705 7.75
      vertex -5.53553 3.53553 7.75
      vertex -3.91342 4.6194 7.75
    endloop
  endfacet
  facet normal 0 0 -1
    outer loop
      vertex -7 4.28626e-16 7.75
      vertex -4.85317 -0.927051 7.75
      vertex -6.6194 -1.91342 7.75
    endloop
  endfacet
  facet normal 0 0 -1
    outer loop
      vertex -4.85317 -0.927051 7.75
      vertex -7 4.28626e-16 7.75
      vertex -4.85317 0.927051 7.75
    endloop
  endfacet
  facet normal 0 0 -1
    outer loop
      vertex -4.85317 0.927051 7.75
      vertex -6.6194 1.91342 7.75
      vertex -5.53553 3.53553 7.75
    endloop
  endfacet
  facet normal -0 0 -1
    outer loop
      vertex -4.85317 0.927051 7.75
      vertex -7 4.28626e-16 7.75
      vertex -6.6194 1.91342 7.75
    endloop
  endfacet
  facet normal 0.831469 0.555571 0
    outer loop
      vertex -6.6194 -1.91342 7.75
      vertex -6.45993 -2.15207 -4.80472
      vertex -6.6194 -1.91342 -4.81422
    endloop
  endfacet
  facet normal 0.83147 0.55557 1.94153e-08
    outer loop
      vertex -6.6194 -1.91342 7.75
      vertex -5.75332 -3.20959 -4.76093
      vertex -6.45993 -2.15207 -4.80472
    endloop
  endfacet
  facet normal 0.83147 0.55557 -3.44779e-09
    outer loop
      vertex -5.53553 -3.53553 7.75
      vertex -5.75332 -3.20959 -4.76093
      vertex -6.6194 -1.91342 7.75
    endloop
  endfacet
  facet normal 0.83147 0.55557 0
    outer loop
      vertex -5.75332 -3.20959 -4.76093
      vertex -5.53553 -3.53553 7.75
      vertex -5.53553 -3.53553 -4.743
    endloop
  endfacet
  facet normal -0.195091 -0.980785 0
    outer loop
      vertex -2 5 7.75
      vertex -0.0865822 4.6194 -4.60275
      vertex -0.0865822 4.6194 7.75
    endloop
  endfacet
  facet normal -0.195091 -0.980785 0
    outer loop
      vertex -0.0865822 4.6194 -4.60275
      vertex -2 5 7.75
      vertex -2 5 -4.68825
    endloop
  endfacet
  facet normal -0.980785 0.195091 0
    outer loop
      vertex 2.94551 -0.273916 -4.53698
      vertex 3 -1.83697e-16 7.75
      vertex 3 -1.83697e-16 -4.53503
    endloop
  endfacet
  facet normal -0.980785 0.195091 0
    outer loop
      vertex 2.6194 -1.91342 7.75
      vertex 2.94551 -0.273916 -4.53698
      vertex 2.6194 -1.91342 -4.53396
    endloop
  endfacet
  facet normal -0.980785 0.195091 -1.78701e-09
    outer loop
      vertex 2.94551 -0.273916 -4.53698
      vertex 2.6194 -1.91342 7.75
      vertex 3 -1.83697e-16 7.75
    endloop
  endfacet
  facet normal -0.83147 0.55557 0
    outer loop
      vertex 2.52357 -2.05684 -4.53598
      vertex 2.6194 -1.91342 7.75
      vertex 2.6194 -1.91342 -4.53396
    endloop
  endfacet
  facet normal -0.83147 0.55557 -4.3763e-09
    outer loop
      vertex 2.3594 -2.30253 -4.53629
      vertex 2.6194 -1.91342 7.75
      vertex 2.52357 -2.05684 -4.53598
    endloop
  endfacet
  facet normal -0.83147 0.55557 0
    outer loop
      vertex 1.53553 -3.53553 7.75
      vertex 2.3594 -2.30253 -4.53629
      vertex 1.53553 -3.53553 -4.53684
    endloop
  endfacet
  facet normal -0.83147 0.55557 -4.08445e-09
    outer loop
      vertex 2.3594 -2.30253 -4.53629
      vertex 1.53553 -3.53553 7.75
      vertex 2.6194 -1.91342 7.75
    endloop
  endfacet
  facet normal -0.55557 0.83147 0
    outer loop
      vertex 1.15204 -3.79178 -4.54334
      vertex 1.53553 -3.53553 7.75
      vertex 1.53553 -3.53553 -4.53684
    endloop
  endfacet
  facet normal -0.55557 0.83147 -1.91828e-08
    outer loop
      vertex 0.970982 -3.91276 -4.54611
      vertex 1.53553 -3.53553 7.75
      vertex 1.15204 -3.79178 -4.54334
    endloop
  endfacet
  facet normal -0.55557 0.83147 7.20846e-09
    outer loop
      vertex 1.53553 -3.53553 7.75
      vertex 0.970982 -3.91276 -4.54611
      vertex -0.0865822 -4.6194 7.75
    endloop
  endfacet
  facet normal -0.55557 0.83147 0
    outer loop
      vertex -0.0865822 -4.6194 7.75
      vertex 0.970982 -3.91276 -4.54611
      vertex -0.0865822 -4.6194 -4.55033
    endloop
  endfacet
  facet normal -0.55557 -0.83147 5.35489e-09
    outer loop
      vertex 0.873363 3.97798 -4.58253
      vertex 1.53553 3.53553 7.75
      vertex -0.0865822 4.6194 7.75
    endloop
  endfacet
  facet normal -0.55557 -0.83147 -0
    outer loop
      vertex 1.53553 3.53553 7.75
      vertex 0.873363 3.97798 -4.58253
      vertex 1.53553 3.53553 -4.56158
    endloop
  endfacet
  facet normal -0.55557 -0.83147 0
    outer loop
      vertex 0.873363 3.97798 -4.58253
      vertex -0.0865822 4.6194 7.75
      vertex -0.0865822 4.6194 -4.60275
    endloop
  endfacet
  facet normal -0.83147 -0.55557 0
    outer loop
      vertex 2.54239 2.02867 -4.5461
      vertex 1.53553 3.53553 7.75
      vertex 1.53553 3.53553 -4.56158
    endloop
  endfacet
  facet normal -0.83147 -0.55557 -0
    outer loop
      vertex 2.6194 1.91342 7.75
      vertex 2.54239 2.02867 -4.5461
      vertex 2.6194 1.91342 -4.54357
    endloop
  endfacet
  facet normal -0.83147 -0.55557 -6.61756e-10
    outer loop
      vertex 2.54239 2.02867 -4.5461
      vertex 2.6194 1.91342 7.75
      vertex 1.53553 3.53553 7.75
    endloop
  endfacet
  facet normal 0.309017 -0.951056 0
    outer loop
      vertex -3.76336 2.42705 7.75
      vertex -2 3 10.5
      vertex -3.76336 2.42705 10.5
    endloop
  endfacet
  facet normal 0.309017 -0.951056 0
    outer loop
      vertex -2 3 10.5
      vertex -3.76336 2.42705 7.75
      vertex -2 3 7.75
    endloop
  endfacet
  facet normal -0.809017 -0.587785 0
    outer loop
      vertex 0.853169 0.927051 7.75
      vertex -0.236644 2.42705 10.5
      vertex -0.236644 2.42705 7.75
    endloop
  endfacet
  facet normal -0.809017 -0.587785 0
    outer loop
      vertex -0.236644 2.42705 10.5
      vertex 0.853169 0.927051 7.75
      vertex 0.853169 0.927051 10.5
    endloop
  endfacet
  facet normal 1 -0 0
    outer loop
      vertex -4.85317 -0.927051 10.5
      vertex -4.85317 0.927051 7.75
      vertex -4.85317 0.927051 10.5
    endloop
  endfacet
  facet normal 1 0 0
    outer loop
      vertex -4.85317 0.927051 7.75
      vertex -4.85317 -0.927051 10.5
      vertex -4.85317 -0.927051 7.75
    endloop
  endfacet
  facet normal 0.809017 -0.587785 0
    outer loop
      vertex -4.85317 0.927051 10.5
      vertex -3.76336 2.42705 7.75
      vertex -3.76336 2.42705 10.5
    endloop
  endfacet
  facet normal 0.809017 -0.587785 0
    outer loop
      vertex -3.76336 2.42705 7.75
      vertex -4.85317 0.927051 10.5
      vertex -4.85317 0.927051 7.75
    endloop
  endfacet
  facet normal -0.309017 -0.951056 0
    outer loop
      vertex -2 3 7.75
      vertex -0.236644 2.42705 10.5
      vertex -2 3 10.5
    endloop
  endfacet
  facet normal -0.309017 -0.951056 -0
    outer loop
      vertex -0.236644 2.42705 10.5
      vertex -2 3 7.75
      vertex -0.236644 2.42705 7.75
    endloop
  endfacet
  facet normal 0.309017 0.951056 -0
    outer loop
      vertex -2 -3 7.75
      vertex -3.76336 -2.42705 10.5
      vertex -2 -3 10.5
    endloop
  endfacet
  facet normal 0.309017 0.951056 0
    outer loop
      vertex -3.76336 -2.42705 10.5
      vertex -2 -3 7.75
      vertex -3.76336 -2.42705 7.75
    endloop
  endfacet
  facet normal -0.309017 0.951056 0
    outer loop
      vertex -0.236644 -2.42705 7.75
      vertex -2 -3 10.5
      vertex -0.236644 -2.42705 10.5
    endloop
  endfacet
  facet normal -0.309017 0.951056 0
    outer loop
      vertex -2 -3 10.5
      vertex -0.236644 -2.42705 7.75
      vertex -2 -3 7.75
    endloop
  endfacet
  facet normal 0.809017 0.587785 0
    outer loop
      vertex -3.76336 -2.42705 10.5
      vertex -4.85317 -0.927051 7.75
      vertex -4.85317 -0.927051 10.5
    endloop
  endfacet
  facet normal 0.809017 0.587785 0
    outer loop
      vertex -4.85317 -0.927051 7.75
      vertex -3.76336 -2.42705 10.5
      vertex -3.76336 -2.42705 7.75
    endloop
  endfacet
  facet normal -1 0 0
    outer loop
      vertex 0.853169 -0.927051 7.75
      vertex 0.853169 0.927051 10.5
      vertex 0.853169 0.927051 7.75
    endloop
  endfacet
  facet normal -1 -0 0
    outer loop
      vertex 0.853169 0.927051 10.5
      vertex 0.853169 -0.927051 7.75
      vertex 0.853169 -0.927051 10.5
    endloop
  endfacet
  facet normal -0.809017 0.587785 0
    outer loop
      vertex -0.236644 -2.42705 7.75
      vertex 0.853169 -0.927051 10.5
      vertex 0.853169 -0.927051 7.75
    endloop
  endfacet
  facet normal -0.809017 0.587785 0
    outer loop
      vertex 0.853169 -0.927051 10.5
      vertex -0.236644 -2.42705 7.75
      vertex -0.236644 -2.42705 10.5
    endloop
  endfacet
endsolid OpenSCAD_Model
