solid OpenSCAD_Model
  facet normal -0.891006 -0.453991 0
    outer loop
      vertex -43.0159 -3.64427 -4.5
      vertex -43.8965 -1.9159 -0.5
      vertex -43.8965 -1.9159 -4.5
    endloop
  endfacet
  facet normal -0.891006 -0.453991 0
    outer loop
      vertex -43.8965 -1.9159 -0.5
      vertex -43.0159 -3.64427 -4.5
      vertex -43.0159 -3.64427 -0.5
    endloop
  endfacet
  facet normal -0.891006 -0.453991 0
    outer loop
      vertex -43.0159 -3.64427 0.5
      vertex -43.8965 -1.9159 10.5
      vertex -43.8965 -1.9159 0.5
    endloop
  endfacet
  facet normal -0.891006 -0.453991 0
    outer loop
      vertex -43.8965 -1.9159 10.5
      vertex -43.0159 -3.64427 0.5
      vertex -43.0159 -3.64427 10.5
    endloop
  endfacet
  facet normal -0.707107 0.707107 0
    outer loop
      vertex -43.0159 3.64427 -4.5
      vertex -41.6443 5.0159 -0.5
      vertex -41.6443 5.0159 -4.5
    endloop
  endfacet
  facet normal -0.707107 0.707107 0
    outer loop
      vertex -41.6443 5.0159 -0.5
      vertex -43.0159 3.64427 -4.5
      vertex -43.0159 3.64427 -0.5
    endloop
  endfacet
  facet normal -0.707107 0.707107 0
    outer loop
      vertex -43.0159 3.64427 0.5
      vertex -41.6443 5.0159 10.5
      vertex -41.6443 5.0159 0.5
    endloop
  endfacet
  facet normal -0.707107 0.707107 0
    outer loop
      vertex -41.6443 5.0159 10.5
      vertex -43.0159 3.64427 0.5
      vertex -43.0159 3.64427 10.5
    endloop
  endfacet
  facet normal 0.979947 0.155207 0.124958
    outer loop
      vertex -31.8 1.94719e-15 10.5
      vertex -31 3 0.5
      vertex -32.1034 1.9159 10.5
    endloop
  endfacet
  facet normal 0.541265 0.81006 0.225467
    outer loop
      vertex -34.3557 5.0159 10.5
      vertex -32.4645 6.53553 0.5
      vertex -34.0866 7.6194 0.5
    endloop
  endfacet
  facet normal -0.555546 -0.831435 0.00919753
    outer loop
      vertex -39.0708 -6.84604 0.5
      vertex -41.6443 -5.0159 10.5
      vertex -39.5355 -6.53553 0.5
    endloop
  endfacet
  facet normal -0.555547 -0.831434 0.00919697
    outer loop
      vertex -41.6443 -5.0159 10.5
      vertex -39.0708 -6.84604 0.5
      vertex -37.9134 -7.6194 0.5
    endloop
  endfacet
  facet normal -0.453104 -0.889266 0.0624734
    outer loop
      vertex -37.9134 -7.6194 0.5
      vertex -39.9159 -5.89655 10.5
      vertex -41.6443 -5.0159 10.5
    endloop
  endfacet
  facet normal -0.707107 -0.707107 0
    outer loop
      vertex -41.6443 -5.0159 0.5
      vertex -43.0159 -3.64427 10.5
      vertex -43.0159 -3.64427 0.5
    endloop
  endfacet
  facet normal -0.707107 -0.707107 0
    outer loop
      vertex -43.0159 -3.64427 10.5
      vertex -41.6443 -5.0159 0.5
      vertex -41.6443 -5.0159 10.5
    endloop
  endfacet
  facet normal -0.707107 -0.707107 0
    outer loop
      vertex -41.6443 -5.0159 -4.5
      vertex -43.0159 -3.64427 -0.5
      vertex -43.0159 -3.64427 -4.5
    endloop
  endfacet
  facet normal -0.707107 -0.707107 0
    outer loop
      vertex -43.0159 -3.64427 -0.5
      vertex -41.6443 -5.0159 -4.5
      vertex -41.6443 -5.0159 -0.5
    endloop
  endfacet
  facet normal -0.584644 -0.81129 0
    outer loop
      vertex -41.6443 -5.0159 -4.5
      vertex -39.5355 -6.53553 -0.5
      vertex -41.6443 -5.0159 -0.5
    endloop
  endfacet
  facet normal -0.584644 -0.81129 -0
    outer loop
      vertex -39.5355 -6.53553 -0.5
      vertex -41.6443 -5.0159 -4.5
      vertex -39.5355 -6.53553 -4.5
    endloop
  endfacet
  facet normal -0.584644 -0.81129 0
    outer loop
      vertex -39.5355 -6.53553 0.5
      vertex -41.6443 -5.0159 10.5
      vertex -41.6443 -5.0159 0.5
    endloop
  endfacet
  facet normal 0 0 -1
    outer loop
      vertex -32.202 6.1427 -4.5
      vertex -34.0866 7.6194 -4.5
      vertex -32.4645 6.53553 -4.5
    endloop
  endfacet
  facet normal 0 0 -1
    outer loop
      vertex -35.355 3.64058 -4.5
      vertex -32.202 6.1427 -4.5
      vertex -34.1029 2.25 -4.5
    endloop
  endfacet
  facet normal -0 0 -1
    outer loop
      vertex -32.202 6.1427 -4.5
      vertex -35.355 3.64058 -4.5
      vertex -34.0866 7.6194 -4.5
    endloop
  endfacet
  facet normal 0 0 -1
    outer loop
      vertex -37.0644 4.40166 -4.5
      vertex -34.0866 7.6194 -4.5
      vertex -35.355 3.64058 -4.5
    endloop
  endfacet
  facet normal -0 0 -1
    outer loop
      vertex -34.0866 7.6194 -4.5
      vertex -37.0644 4.40166 -4.5
      vertex -36 8 -4.5
    endloop
  endfacet
  facet normal 0 0 -1
    outer loop
      vertex -37.0644 4.40166 -4.5
      vertex -37.9134 7.6194 -4.5
      vertex -36 8 -4.5
    endloop
  endfacet
  facet normal 0 0 -1
    outer loop
      vertex -39.5355 6.53553 -4.5
      vertex -37.0644 4.40166 -4.5
      vertex -38.9356 4.40166 -4.5
    endloop
  endfacet
  facet normal 0 0 -1
    outer loop
      vertex -37.0644 4.40166 -4.5
      vertex -39.5355 6.53553 -4.5
      vertex -37.9134 7.6194 -4.5
    endloop
  endfacet
  facet normal 0 0 -1
    outer loop
      vertex -41.6443 5.0159 -4.5
      vertex -38.9356 4.40166 -4.5
      vertex -40.645 3.64058 -4.5
    endloop
  endfacet
  facet normal 0 0 -1
    outer loop
      vertex -38.9356 4.40166 -4.5
      vertex -41.6443 5.0159 -4.5
      vertex -39.5355 6.53553 -4.5
    endloop
  endfacet
  facet normal 0 0 -1
    outer loop
      vertex -43.0159 3.64427 -4.5
      vertex -40.645 3.64058 -4.5
      vertex -41.8971 2.25 -4.5
    endloop
  endfacet
  facet normal 0 0 -1
    outer loop
      vertex -43.8965 1.9159 -4.5
      vertex -41.8971 2.25 -4.5
      vertex -42.4753 0.470378 -4.5
    endloop
  endfacet
  facet normal 0 0 -1
    outer loop
      vertex -40.645 3.64058 -4.5
      vertex -43.0159 3.64427 -4.5
      vertex -41.6443 5.0159 -4.5
    endloop
  endfacet
  facet normal 0 0 -1
    outer loop
      vertex -44.2 2.70647e-15 -4.5
      vertex -42.2798 -1.39058 -4.5
      vertex -43.8965 -1.9159 -4.5
    endloop
  endfacet
  facet normal 0 0 -1
    outer loop
      vertex -42.2798 -1.39058 -4.5
      vertex -44.2 2.70647e-15 -4.5
      vertex -42.4753 0.470378 -4.5
    endloop
  endfacet
  facet normal -0 0 -1
    outer loop
      vertex -41.8971 2.25 -4.5
      vertex -43.8965 1.9159 -4.5
      vertex -43.0159 3.64427 -4.5
    endloop
  endfacet
  facet normal -0 0 -1
    outer loop
      vertex -42.4753 0.470378 -4.5
      vertex -44.2 2.70647e-15 -4.5
      vertex -43.8965 1.9159 -4.5
    endloop
  endfacet
  facet normal 0 0 -1
    outer loop
      vertex -22.9363 -1.24698 -4.5
      vertex -20.5292 -0.482146 -4.5
      vertex -21.2081 -2.27226 -4.5
    endloop
  endfacet
  facet normal 0 0 -1
    outer loop
      vertex -20.5292 -0.482146 -4.5
      vertex -22.5501 0.445042 -4.5
      vertex -20.7599 1.41842 -4.5
    endloop
  endfacet
  facet normal -0 0 -1
    outer loop
      vertex -20.7599 1.41842 -4.5
      vertex -22.5501 0.445042 -4.5
      vertex -21.8475 2.99404 -4.5
    endloop
  endfacet
  facet normal 0 0 -1
    outer loop
      vertex -22.9363 -1.24698 -4.5
      vertex -21.2081 -2.27226 -4.5
      vertex -22.6411 -3.54182 -4.5
    endloop
  endfacet
  facet normal -0 0 -1
    outer loop
      vertex -20.5292 -0.482146 -4.5
      vertex -22.9363 -1.24698 -4.5
      vertex -22.5501 0.445042 -4.5
    endloop
  endfacet
  facet normal 0 0 -1
    outer loop
      vertex -22.6411 -3.54182 -4.5
      vertex -24.5 -2 -4.5
      vertex -22.9363 -1.24698 -4.5
    endloop
  endfacet
  facet normal 0 0 -1
    outer loop
      vertex -32.1156 -6.01343 -4.5
      vertex -24.5 -2 -4.5
      vertex -22.6411 -3.54182 -4.5
    endloop
  endfacet
  facet normal 0 0 -1
    outer loop
      vertex -33.7202 -1.39058 -4.5
      vertex -26.0637 -1.24698 -4.5
      vertex -32.1156 -6.01343 -4.5
    endloop
  endfacet
  facet normal -0 0 -1
    outer loop
      vertex -24.5 -2 -4.5
      vertex -32.1156 -6.01343 -4.5
      vertex -26.0637 -1.24698 -4.5
    endloop
  endfacet
  facet normal 0 0 -1
    outer loop
      vertex -23.6322 1.80194 -4.5
      vertex -21.8475 2.99404 -4.5
      vertex -22.5501 0.445042 -4.5
    endloop
  endfacet
  facet normal -0 0 -1
    outer loop
      vertex -21.8475 2.99404 -4.5
      vertex -23.6322 1.80194 -4.5
      vertex -23.5427 3.88377 -4.5
    endloop
  endfacet
  facet normal 0 0 -1
    outer loop
      vertex -25.3678 1.80194 -4.5
      vertex -23.5427 3.88377 -4.5
      vertex -23.6322 1.80194 -4.5
    endloop
  endfacet
  facet normal -0 0 -1
    outer loop
      vertex -26.0637 -1.24698 -4.5
      vertex -33.7202 -1.39058 -4.5
      vertex -26.4499 0.445042 -4.5
    endloop
  endfacet
  facet normal 0 0 -1
    outer loop
      vertex -25.3678 1.80194 -4.5
      vertex -32.202 6.1427 -4.5
      vertex -23.5427 3.88377 -4.5
    endloop
  endfacet
  facet normal 0 -0 -1
    outer loop
      vertex -33.5247 0.470378 -4.5
      vertex -26.4499 0.445042 -4.5
      vertex -33.7202 -1.39058 -4.5
    endloop
  endfacet
  facet normal 0 0 -1
    outer loop
      vertex -34.6558 -3.01109 -4.5
      vertex -32.1156 -6.01343 -4.5
      vertex -32.4645 -6.53553 -4.5
    endloop
  endfacet
  facet normal 0 0 -1
    outer loop
      vertex -26.4499 0.445042 -4.5
      vertex -32.202 6.1427 -4.5
      vertex -25.3678 1.80194 -4.5
    endloop
  endfacet
  facet normal 0 0 -1
    outer loop
      vertex -34.1029 2.25 -4.5
      vertex -32.202 6.1427 -4.5
      vertex -33.5247 0.470378 -4.5
    endloop
  endfacet
  facet normal 0 -0 -1
    outer loop
      vertex -32.202 6.1427 -4.5
      vertex -26.4499 0.445042 -4.5
      vertex -33.5247 0.470378 -4.5
    endloop
  endfacet
  facet normal 0 0 -1
    outer loop
      vertex -36.1697 -4.11095 -4.5
      vertex -32.4645 -6.53553 -4.5
      vertex -34.0866 -7.6194 -4.5
    endloop
  endfacet
  facet normal 0 0 -1
    outer loop
      vertex -32.1156 -6.01343 -4.5
      vertex -34.6558 -3.01109 -4.5
      vertex -33.7202 -1.39058 -4.5
    endloop
  endfacet
  facet normal 0 0 -1
    outer loop
      vertex -36.1697 -4.11095 -4.5
      vertex -34.0866 -7.6194 -4.5
      vertex -36 -8 -4.5
    endloop
  endfacet
  facet normal 0 0 -1
    outer loop
      vertex -32.4645 -6.53553 -4.5
      vertex -36.1697 -4.11095 -4.5
      vertex -34.6558 -3.01109 -4.5
    endloop
  endfacet
  facet normal 0 0 -1
    outer loop
      vertex -37.9134 -7.6194 -4.5
      vertex -36.1697 -4.11095 -4.5
      vertex -36 -8 -4.5
    endloop
  endfacet
  facet normal 0 0 -1
    outer loop
      vertex -37.9134 -7.6194 -4.5
      vertex -38 -4.5 -4.5
      vertex -36.1697 -4.11095 -4.5
    endloop
  endfacet
  facet normal 0 0 -1
    outer loop
      vertex -39.5355 -6.53553 -4.5
      vertex -38 -4.5 -4.5
      vertex -37.9134 -7.6194 -4.5
    endloop
  endfacet
  facet normal 0 0 -1
    outer loop
      vertex -39.5355 -6.53553 -4.5
      vertex -39.8303 -4.11095 -4.5
      vertex -38 -4.5 -4.5
    endloop
  endfacet
  facet normal 0 0 -1
    outer loop
      vertex -41.6443 -5.0159 -4.5
      vertex -39.8303 -4.11095 -4.5
      vertex -39.5355 -6.53553 -4.5
    endloop
  endfacet
  facet normal -0 0 -1
    outer loop
      vertex -39.8303 -4.11095 -4.5
      vertex -41.6443 -5.0159 -4.5
      vertex -41.3442 -3.01109 -4.5
    endloop
  endfacet
  facet normal 0 0 -1
    outer loop
      vertex -43.0159 -3.64427 -4.5
      vertex -41.3442 -3.01109 -4.5
      vertex -41.6443 -5.0159 -4.5
    endloop
  endfacet
  facet normal 0 0 -1
    outer loop
      vertex -43.8965 -1.9159 -4.5
      vertex -42.2798 -1.39058 -4.5
      vertex -43.0159 -3.64427 -4.5
    endloop
  endfacet
  facet normal -0 0 -1
    outer loop
      vertex -41.3442 -3.01109 -4.5
      vertex -43.0159 -3.64427 -4.5
      vertex -42.2798 -1.39058 -4.5
    endloop
  endfacet
  facet normal 0.687395 -0.687397 0.234464
    outer loop
      vertex -32.4645 -6.53553 0.5
      vertex -32.9841 -3.64427 10.5
      vertex -34.3557 -5.0159 10.5
    endloop
  endfacet
  facet normal -0.555569 -0.83147 -0
    outer loop
      vertex -39.5355 -6.53553 -0.5
      vertex -39.5355 -6.53553 -4.5
      vertex -39.0708 -6.84604 -0.5
    endloop
  endfacet
  facet normal -0.555571 -0.831469 0
    outer loop
      vertex -39.0708 -6.84604 -0.5
      vertex -37.9134 -7.6194 0.5
      vertex -39.0708 -6.84604 0.5
    endloop
  endfacet
  facet normal -0.55557 -0.83147 1.77584e-07
    outer loop
      vertex -37.9134 -7.6194 -4.5
      vertex -39.0708 -6.84604 -0.5
      vertex -39.5355 -6.53553 -4.5
    endloop
  endfacet
  facet normal -0.555571 -0.831469 0
    outer loop
      vertex -39.0708 -6.84604 -0.5
      vertex -37.9134 -7.6194 -4.5
      vertex -37.9134 -7.6194 0.5
    endloop
  endfacet
  facet normal 0.831471 0.555569 0
    outer loop
      vertex -32.4645 6.53553 0.5
      vertex -32.202 6.1427 -2.5
      vertex -32.4645 6.53553 -4.5
    endloop
  endfacet
  facet normal 0.83147 0.55557 -3.17904e-07
    outer loop
      vertex -31.3806 4.91342 0.5
      vertex -32.202 6.1427 -2.5
      vertex -32.4645 6.53553 0.5
    endloop
  endfacet
  facet normal 0.831469 0.555571 0
    outer loop
      vertex -32.202 6.1427 -2.5
      vertex -31.3806 4.91342 0.5
      vertex -31.3806 4.91342 -2.5
    endloop
  endfacet
  facet normal 0.831471 0.555569 0
    outer loop
      vertex -32.4645 6.53553 -4.5
      vertex -32.202 6.1427 -2.5
      vertex -32.202 6.1427 -4.5
    endloop
  endfacet
  facet normal -0.584644 0.81129 0
    outer loop
      vertex -39.5355 6.53553 -4.5
      vertex -41.6443 5.0159 -0.5
      vertex -39.5355 6.53553 -0.5
    endloop
  endfacet
  facet normal -0.584644 0.81129 0
    outer loop
      vertex -41.6443 5.0159 -0.5
      vertex -39.5355 6.53553 -4.5
      vertex -41.6443 5.0159 -4.5
    endloop
  endfacet
  facet normal -0.584644 0.81129 0
    outer loop
      vertex -41.6443 5.0159 0.5
      vertex -41.6443 5.0159 10.5
      vertex -39.5355 6.53553 0.5
    endloop
  endfacet
  facet normal -0.891006 0.453991 0
    outer loop
      vertex -43.8965 1.9159 -4.5
      vertex -43.0159 3.64427 -0.5
      vertex -43.0159 3.64427 -4.5
    endloop
  endfacet
  facet normal -0.891006 0.453991 0
    outer loop
      vertex -43.0159 3.64427 -0.5
      vertex -43.8965 1.9159 -4.5
      vertex -43.8965 1.9159 -0.5
    endloop
  endfacet
  facet normal -0.891006 0.453991 0
    outer loop
      vertex -43.8965 1.9159 0.5
      vertex -43.0159 3.64427 10.5
      vertex -43.0159 3.64427 0.5
    endloop
  endfacet
  facet normal -0.891006 0.453991 0
    outer loop
      vertex -43.0159 3.64427 10.5
      vertex -43.8965 1.9159 0.5
      vertex -43.8965 1.9159 10.5
    endloop
  endfacet
  facet normal 0.55557 0.83147 -0
    outer loop
      vertex -32.4645 6.53553 -4.5
      vertex -34.0866 7.6194 0.5
      vertex -32.4645 6.53553 0.5
    endloop
  endfacet
  facet normal 0.55557 0.83147 0
    outer loop
      vertex -34.0866 7.6194 0.5
      vertex -32.4645 6.53553 -4.5
      vertex -34.0866 7.6194 -4.5
    endloop
  endfacet
  facet normal 0.153124 0.966785 0.204646
    outer loop
      vertex -36.0841 5.89655 10.5
      vertex -36 8 0.5
      vertex -38 6.2 10.5
    endloop
  endfacet
  facet normal -0.453104 0.889266 0.0624734
    outer loop
      vertex -41.6443 5.0159 10.5
      vertex -39.9159 5.89655 10.5
      vertex -37.9134 7.6194 0.5
    endloop
  endfacet
  facet normal -0.193465 0.972613 0.128825
    outer loop
      vertex -39.9159 5.89655 10.5
      vertex -36 8 0.5
      vertex -37.9134 7.6194 0.5
    endloop
  endfacet
  facet normal 0.195091 0.980785 -0
    outer loop
      vertex -34.0866 7.6194 -4.5
      vertex -36 8 0.5
      vertex -34.0866 7.6194 0.5
    endloop
  endfacet
  facet normal 0.195091 0.980785 0
    outer loop
      vertex -36 8 0.5
      vertex -34.0866 7.6194 -4.5
      vertex -36 8 -4.5
    endloop
  endfacet
  facet normal -0.195091 0.980785 0
    outer loop
      vertex -36 8 -4.5
      vertex -37.9134 7.6194 0.5
      vertex -36 8 0.5
    endloop
  endfacet
  facet normal -0.195091 0.980785 0
    outer loop
      vertex -37.9134 7.6194 0.5
      vertex -36 8 -4.5
      vertex -37.9134 7.6194 -4.5
    endloop
  endfacet
  facet normal 0.814717 0.544376 0.199728
    outer loop
      vertex -32.9841 3.64427 10.5
      vertex -31.3806 4.91342 0.5
      vertex -32.4645 6.53553 0.5
    endloop
  endfacet
  facet normal 0.996815 -0 0.0797451
    outer loop
      vertex -31 -3 0.5
      vertex -31 3 0.5
      vertex -31.8 1.94719e-15 10.5
    endloop
  endfacet
  facet normal 0.55557 -0.83147 0
    outer loop
      vertex -34.0866 -7.6194 -4.5
      vertex -32.4645 -6.53553 0.5
      vertex -34.0866 -7.6194 0.5
    endloop
  endfacet
  facet normal 0.55557 -0.83147 0
    outer loop
      vertex -32.4645 -6.53553 0.5
      vertex -34.0866 -7.6194 -4.5
      vertex -32.4645 -6.53553 -4.5
    endloop
  endfacet
  facet normal -0.555571 0.831469 0
    outer loop
      vertex -37.9134 7.6194 0.5
      vertex -39.0708 6.84604 -0.5
      vertex -39.0708 6.84604 0.5
    endloop
  endfacet
  facet normal -0.555571 0.831469 0
    outer loop
      vertex -37.9134 7.6194 -4.5
      vertex -39.0708 6.84604 -0.5
      vertex -37.9134 7.6194 0.5
    endloop
  endfacet
  facet normal -0.55557 0.83147 1.77584e-07
    outer loop
      vertex -39.5355 6.53553 -4.5
      vertex -39.0708 6.84604 -0.5
      vertex -37.9134 7.6194 -4.5
    endloop
  endfacet
  facet normal -0.555569 0.83147 0
    outer loop
      vertex -39.0708 6.84604 -0.5
      vertex -39.5355 6.53553 -4.5
      vertex -39.5355 6.53553 -0.5
    endloop
  endfacet
  facet normal 0.191005 0.960244 0.203589
    outer loop
      vertex -36.0841 5.89655 10.5
      vertex -34.0866 7.6194 0.5
      vertex -36 8 0.5
    endloop
  endfacet
  facet normal 0.441032 0.865573 0.237222
    outer loop
      vertex -34.3557 5.0159 10.5
      vertex -34.0866 7.6194 0.5
      vertex -36.0841 5.89655 10.5
    endloop
  endfacet
  facet normal -0.154782 0.977257 0.14495
    outer loop
      vertex -39.9159 5.89655 10.5
      vertex -38 6.2 10.5
      vertex -36 8 0.5
    endloop
  endfacet
  facet normal -0 0 1
    outer loop
      vertex -32.5836 0.955065 10.5
      vertex -31.8 1.94719e-15 10.5
      vertex -32.1034 1.9159 10.5
    endloop
  endfacet
  facet normal 0 0 1
    outer loop
      vertex -32.5836 -0.955065 10.5
      vertex -31.8 1.94719e-15 10.5
      vertex -32.5836 0.955065 10.5
    endloop
  endfacet
  facet normal -0 0 1
    outer loop
      vertex -33.2369 2.75 10.5
      vertex -32.1034 1.9159 10.5
      vertex -32.9841 3.64427 10.5
    endloop
  endfacet
  facet normal 0 0 1
    outer loop
      vertex -32.1034 1.9159 10.5
      vertex -33.2369 2.75 10.5
      vertex -32.5836 0.955065 10.5
    endloop
  endfacet
  facet normal -0 0 1
    outer loop
      vertex -34.4647 4.21324 10.5
      vertex -32.9841 3.64427 10.5
      vertex -34.3557 5.0159 10.5
    endloop
  endfacet
  facet normal 0 0 1
    outer loop
      vertex -32.9841 3.64427 10.5
      vertex -34.4647 4.21324 10.5
      vertex -33.2369 2.75 10.5
    endloop
  endfacet
  facet normal -0 0 1
    outer loop
      vertex -36.1189 5.16831 10.5
      vertex -34.3557 5.0159 10.5
      vertex -36.0841 5.89655 10.5
    endloop
  endfacet
  facet normal 0 0 1
    outer loop
      vertex -34.3557 5.0159 10.5
      vertex -36.1189 5.16831 10.5
      vertex -34.4647 4.21324 10.5
    endloop
  endfacet
  facet normal 0 0 1
    outer loop
      vertex -38 5.5 10.5
      vertex -36.0841 5.89655 10.5
      vertex -38 6.2 10.5
    endloop
  endfacet
  facet normal 0 0 1
    outer loop
      vertex -36.0841 5.89655 10.5
      vertex -38 5.5 10.5
      vertex -36.1189 5.16831 10.5
    endloop
  endfacet
  facet normal -0 0 1
    outer loop
      vertex -39.9159 5.89655 10.5
      vertex -38 5.5 10.5
      vertex -38 6.2 10.5
    endloop
  endfacet
  facet normal 0 0 1
    outer loop
      vertex -38 5.5 10.5
      vertex -39.9159 5.89655 10.5
      vertex -39.8811 5.16831 10.5
    endloop
  endfacet
  facet normal 0 0 1
    outer loop
      vertex -41.6443 5.0159 10.5
      vertex -39.8811 5.16831 10.5
      vertex -39.9159 5.89655 10.5
    endloop
  endfacet
  facet normal 0 0 1
    outer loop
      vertex -39.8811 5.16831 10.5
      vertex -41.6443 5.0159 10.5
      vertex -41.5353 4.21324 10.5
    endloop
  endfacet
  facet normal 0 0 1
    outer loop
      vertex -43.0159 3.64427 10.5
      vertex -41.5353 4.21324 10.5
      vertex -41.6443 5.0159 10.5
    endloop
  endfacet
  facet normal 0 0 1
    outer loop
      vertex -41.5353 4.21324 10.5
      vertex -43.0159 3.64427 10.5
      vertex -42.7631 2.75 10.5
    endloop
  endfacet
  facet normal 0 0 1
    outer loop
      vertex -43.8965 1.9159 10.5
      vertex -42.7631 2.75 10.5
      vertex -43.0159 3.64427 10.5
    endloop
  endfacet
  facet normal 0 0 1
    outer loop
      vertex -44.2 2.70647e-15 10.5
      vertex -43.4164 0.955065 10.5
      vertex -43.8965 1.9159 10.5
    endloop
  endfacet
  facet normal 0 0 1
    outer loop
      vertex -42.7631 2.75 10.5
      vertex -43.8965 1.9159 10.5
      vertex -43.4164 0.955065 10.5
    endloop
  endfacet
  facet normal 0 0 1
    outer loop
      vertex -31.8 1.94719e-15 10.5
      vertex -32.5836 -0.955065 10.5
      vertex -32.1034 -1.9159 10.5
    endloop
  endfacet
  facet normal 0 0 1
    outer loop
      vertex -33.2369 -2.75 10.5
      vertex -32.1034 -1.9159 10.5
      vertex -32.5836 -0.955065 10.5
    endloop
  endfacet
  facet normal 0 0 1
    outer loop
      vertex -32.1034 -1.9159 10.5
      vertex -33.2369 -2.75 10.5
      vertex -32.9841 -3.64427 10.5
    endloop
  endfacet
  facet normal 0 0 1
    outer loop
      vertex -34.4647 -4.21324 10.5
      vertex -32.9841 -3.64427 10.5
      vertex -33.2369 -2.75 10.5
    endloop
  endfacet
  facet normal 0 0 1
    outer loop
      vertex -32.9841 -3.64427 10.5
      vertex -34.4647 -4.21324 10.5
      vertex -34.3557 -5.0159 10.5
    endloop
  endfacet
  facet normal 0 0 1
    outer loop
      vertex -36.1189 -5.16831 10.5
      vertex -34.3557 -5.0159 10.5
      vertex -34.4647 -4.21324 10.5
    endloop
  endfacet
  facet normal 0 0 1
    outer loop
      vertex -34.3557 -5.0159 10.5
      vertex -36.1189 -5.16831 10.5
      vertex -36.0841 -5.89655 10.5
    endloop
  endfacet
  facet normal -0 0 1
    outer loop
      vertex -38 -5.5 10.5
      vertex -36.0841 -5.89655 10.5
      vertex -36.1189 -5.16831 10.5
    endloop
  endfacet
  facet normal 0 0 1
    outer loop
      vertex -38 -5.5 10.5
      vertex -38 -6.2 10.5
      vertex -36.0841 -5.89655 10.5
    endloop
  endfacet
  facet normal 0 0 1
    outer loop
      vertex -39.9159 -5.89655 10.5
      vertex -38 -5.5 10.5
      vertex -39.8811 -5.16831 10.5
    endloop
  endfacet
  facet normal 0 0 1
    outer loop
      vertex -38 -5.5 10.5
      vertex -39.9159 -5.89655 10.5
      vertex -38 -6.2 10.5
    endloop
  endfacet
  facet normal -0 0 1
    outer loop
      vertex -41.6443 -5.0159 10.5
      vertex -39.8811 -5.16831 10.5
      vertex -41.5353 -4.21324 10.5
    endloop
  endfacet
  facet normal 0 0 1
    outer loop
      vertex -39.8811 -5.16831 10.5
      vertex -41.6443 -5.0159 10.5
      vertex -39.9159 -5.89655 10.5
    endloop
  endfacet
  facet normal -0 0 1
    outer loop
      vertex -43.0159 -3.64427 10.5
      vertex -41.5353 -4.21324 10.5
      vertex -42.7631 -2.75 10.5
    endloop
  endfacet
  facet normal 0 0 1
    outer loop
      vertex -41.5353 -4.21324 10.5
      vertex -43.0159 -3.64427 10.5
      vertex -41.6443 -5.0159 10.5
    endloop
  endfacet
  facet normal -0 0 1
    outer loop
      vertex -43.8965 -1.9159 10.5
      vertex -42.7631 -2.75 10.5
      vertex -43.4164 -0.955065 10.5
    endloop
  endfacet
  facet normal 0 0 1
    outer loop
      vertex -43.4164 0.955065 10.5
      vertex -44.2 2.70647e-15 10.5
      vertex -43.4164 -0.955065 10.5
    endloop
  endfacet
  facet normal 0 0 1
    outer loop
      vertex -42.7631 -2.75 10.5
      vertex -43.8965 -1.9159 10.5
      vertex -43.0159 -3.64427 10.5
    endloop
  endfacet
  facet normal 0 0 1
    outer loop
      vertex -43.4164 -0.955065 10.5
      vertex -44.2 2.70647e-15 10.5
      vertex -43.8965 -1.9159 10.5
    endloop
  endfacet
  facet normal 0.873621 0.445133 0.196578
    outer loop
      vertex -32.1034 1.9159 10.5
      vertex -31.3806 4.91342 0.5
      vertex -32.9841 3.64427 10.5
    endloop
  endfacet
  facet normal 0.687395 0.687397 0.234464
    outer loop
      vertex -32.9841 3.64427 10.5
      vertex -32.4645 6.53553 0.5
      vertex -34.3557 5.0159 10.5
    endloop
  endfacet
  facet normal 0.83147 -0.55557 0
    outer loop
      vertex -31.3806 -4.91342 0.5
      vertex -32.1156 -6.01343 -2.5
      vertex -31.3806 -4.91342 -2.5
    endloop
  endfacet
  facet normal 0.83147 -0.55557 2.19898e-07
    outer loop
      vertex -32.4645 -6.53553 0.5
      vertex -32.1156 -6.01343 -2.5
      vertex -31.3806 -4.91342 0.5
    endloop
  endfacet
  facet normal 0.831469 -0.555571 0
    outer loop
      vertex -32.4645 -6.53553 -4.5
      vertex -32.1156 -6.01343 -2.5
      vertex -32.4645 -6.53553 0.5
    endloop
  endfacet
  facet normal 0.831469 -0.555571 0
    outer loop
      vertex -32.1156 -6.01343 -2.5
      vertex -32.4645 -6.53553 -4.5
      vertex -32.1156 -6.01343 -4.5
    endloop
  endfacet
  facet normal -0.193465 -0.972613 0.128825
    outer loop
      vertex -36 -8 0.5
      vertex -39.9159 -5.89655 10.5
      vertex -37.9134 -7.6194 0.5
    endloop
  endfacet
  facet normal -0.195091 -0.980785 0
    outer loop
      vertex -37.9134 -7.6194 -4.5
      vertex -36 -8 0.5
      vertex -37.9134 -7.6194 0.5
    endloop
  endfacet
  facet normal -0.195091 -0.980785 -0
    outer loop
      vertex -36 -8 0.5
      vertex -37.9134 -7.6194 -4.5
      vertex -36 -8 -4.5
    endloop
  endfacet
  facet normal 0.191005 -0.960244 0.203589
    outer loop
      vertex -36 -8 0.5
      vertex -34.0866 -7.6194 0.5
      vertex -36.0841 -5.89655 10.5
    endloop
  endfacet
  facet normal -0.555547 0.831434 0.00919697
    outer loop
      vertex -39.0708 6.84604 0.5
      vertex -41.6443 5.0159 10.5
      vertex -37.9134 7.6194 0.5
    endloop
  endfacet
  facet normal -0.555546 0.831435 0.00919753
    outer loop
      vertex -41.6443 5.0159 10.5
      vertex -39.0708 6.84604 0.5
      vertex -39.5355 6.53553 0.5
    endloop
  endfacet
  facet normal -0.987688 0.156435 0
    outer loop
      vertex -44.2 2.70647e-15 0.5
      vertex -43.8965 1.9159 10.5
      vertex -43.8965 1.9159 0.5
    endloop
  endfacet
  facet normal -0.987688 0.156435 0
    outer loop
      vertex -43.8965 1.9159 10.5
      vertex -44.2 2.70647e-15 0.5
      vertex -44.2 2.70647e-15 10.5
    endloop
  endfacet
  facet normal -0.987688 0.156435 0
    outer loop
      vertex -44.2 2.70647e-15 -4.5
      vertex -43.8965 1.9159 -0.5
      vertex -43.8965 1.9159 -4.5
    endloop
  endfacet
  facet normal -0.987688 0.156435 0
    outer loop
      vertex -43.8965 1.9159 -0.5
      vertex -44.2 2.70647e-15 -4.5
      vertex -44.2 2.70647e-15 -0.5
    endloop
  endfacet
  facet normal -0.987688 -0.156435 0
    outer loop
      vertex -43.8965 -1.9159 -4.5
      vertex -44.2 2.70647e-15 -0.5
      vertex -44.2 2.70647e-15 -4.5
    endloop
  endfacet
  facet normal -0.987688 -0.156435 0
    outer loop
      vertex -44.2 2.70647e-15 -0.5
      vertex -43.8965 -1.9159 -4.5
      vertex -43.8965 -1.9159 -0.5
    endloop
  endfacet
  facet normal -0.987688 -0.156435 0
    outer loop
      vertex -43.8965 -1.9159 0.5
      vertex -44.2 2.70647e-15 10.5
      vertex -44.2 2.70647e-15 0.5
    endloop
  endfacet
  facet normal -0.987688 -0.156435 0
    outer loop
      vertex -44.2 2.70647e-15 10.5
      vertex -43.8965 -1.9159 0.5
      vertex -43.8965 -1.9159 10.5
    endloop
  endfacet
  facet normal 0.972679 0.193478 0.128305
    outer loop
      vertex -32.1034 1.9159 10.5
      vertex -31 3 0.5
      vertex -31.3806 4.91342 0.5
    endloop
  endfacet
  facet normal 0.980785 0.19509 0
    outer loop
      vertex -31 3 0.5
      vertex -31.3806 4.91342 -2.5
      vertex -31.3806 4.91342 0.5
    endloop
  endfacet
  facet normal 0.980785 0.19509 0
    outer loop
      vertex -31.3806 4.91342 -2.5
      vertex -31 3 0.5
      vertex -31 3 -2.5
    endloop
  endfacet
  facet normal 0.979947 -0.155207 0.124958
    outer loop
      vertex -31 -3 0.5
      vertex -31.8 1.94719e-15 10.5
      vertex -32.1034 -1.9159 10.5
    endloop
  endfacet
  facet normal 0.814717 -0.544376 0.199728
    outer loop
      vertex -32.4645 -6.53553 0.5
      vertex -31.3806 -4.91342 0.5
      vertex -32.9841 -3.64427 10.5
    endloop
  endfacet
  facet normal 0.195091 -0.980785 0
    outer loop
      vertex -36 -8 -4.5
      vertex -34.0866 -7.6194 0.5
      vertex -36 -8 0.5
    endloop
  endfacet
  facet normal 0.195091 -0.980785 0
    outer loop
      vertex -34.0866 -7.6194 0.5
      vertex -36 -8 -4.5
      vertex -34.0866 -7.6194 -4.5
    endloop
  endfacet
  facet normal 1 -0 0
    outer loop
      vertex -31 -3 0.5
      vertex -31 3 -2.5
      vertex -31 3 0.5
    endloop
  endfacet
  facet normal 1 0 0
    outer loop
      vertex -31 3 -2.5
      vertex -31 -3 0.5
      vertex -31 -3 -2.5
    endloop
  endfacet
  facet normal 0.980785 -0.19509 0
    outer loop
      vertex -31.3806 -4.91342 0.5
      vertex -31 -3 -2.5
      vertex -31 -3 0.5
    endloop
  endfacet
  facet normal 0.980785 -0.19509 0
    outer loop
      vertex -31 -3 -2.5
      vertex -31.3806 -4.91342 0.5
      vertex -31.3806 -4.91342 -2.5
    endloop
  endfacet
  facet normal 0.972679 -0.193478 0.128305
    outer loop
      vertex -31.3806 -4.91342 0.5
      vertex -31 -3 0.5
      vertex -32.1034 -1.9159 10.5
    endloop
  endfacet
  facet normal 0.873621 -0.445133 0.196578
    outer loop
      vertex -31.3806 -4.91342 0.5
      vertex -32.1034 -1.9159 10.5
      vertex -32.9841 -3.64427 10.5
    endloop
  endfacet
  facet normal 0.441032 -0.865573 0.237222
    outer loop
      vertex -34.0866 -7.6194 0.5
      vertex -34.3557 -5.0159 10.5
      vertex -36.0841 -5.89655 10.5
    endloop
  endfacet
  facet normal 0.541265 -0.81006 0.225467
    outer loop
      vertex -34.0866 -7.6194 0.5
      vertex -32.4645 -6.53553 0.5
      vertex -34.3557 -5.0159 10.5
    endloop
  endfacet
  facet normal 0.153124 -0.966785 0.204646
    outer loop
      vertex -36 -8 0.5
      vertex -36.0841 -5.89655 10.5
      vertex -38 -6.2 10.5
    endloop
  endfacet
  facet normal -0.154782 -0.977257 0.14495
    outer loop
      vertex -36 -8 0.5
      vertex -38 -6.2 10.5
      vertex -39.9159 -5.89655 10.5
    endloop
  endfacet
  facet normal 0.252422 0.967617 -0
    outer loop
      vertex -23.5427 3.88377 -4.5
      vertex -32.202 6.1427 -2.5
      vertex -23.5427 3.88377 -2.5
    endloop
  endfacet
  facet normal 0.252422 0.967617 0
    outer loop
      vertex -32.202 6.1427 -2.5
      vertex -23.5427 3.88377 -4.5
      vertex -32.202 6.1427 -4.5
    endloop
  endfacet
  facet normal 0.935016 -0.354606 0
    outer loop
      vertex -21.2081 -2.27226 -2.5
      vertex -20.5292 -0.482146 -4.5
      vertex -20.5292 -0.482146 -2.5
    endloop
  endfacet
  facet normal 0.935016 -0.354606 0
    outer loop
      vertex -20.5292 -0.482146 -4.5
      vertex -21.2081 -2.27226 -2.5
      vertex -21.2081 -2.27226 -4.5
    endloop
  endfacet
  facet normal 0 0 1
    outer loop
      vertex -23.6322 1.80194 -2.5
      vertex -21.8475 2.99404 -2.5
      vertex -23.5427 3.88377 -2.5
    endloop
  endfacet
  facet normal 0 0 1
    outer loop
      vertex -21.8475 2.99404 -2.5
      vertex -23.6322 1.80194 -2.5
      vertex -22.5501 0.445042 -2.5
    endloop
  endfacet
  facet normal 0 0 1
    outer loop
      vertex -23.5427 3.88377 -2.5
      vertex -25.3678 1.80194 -2.5
      vertex -23.6322 1.80194 -2.5
    endloop
  endfacet
  facet normal 0 0 1
    outer loop
      vertex -25.3678 1.80194 -2.5
      vertex -31 3 -2.5
      vertex -26.4499 0.445042 -2.5
    endloop
  endfacet
  facet normal 0 0 1
    outer loop
      vertex -31.3806 4.91342 -2.5
      vertex -25.3678 1.80194 -2.5
      vertex -23.5427 3.88377 -2.5
    endloop
  endfacet
  facet normal 0 0 1
    outer loop
      vertex -25.3678 1.80194 -2.5
      vertex -31.3806 4.91342 -2.5
      vertex -31 3 -2.5
    endloop
  endfacet
  facet normal -0 -0 1
    outer loop
      vertex -31.3806 4.91342 -2.5
      vertex -23.5427 3.88377 -2.5
      vertex -32.202 6.1427 -2.5
    endloop
  endfacet
  facet normal -0 0 1
    outer loop
      vertex -22.5501 0.445042 -2.5
      vertex -20.5292 -0.482146 -2.5
      vertex -20.7599 1.41842 -2.5
    endloop
  endfacet
  facet normal 0 0 1
    outer loop
      vertex -22.5501 0.445042 -2.5
      vertex -20.7599 1.41842 -2.5
      vertex -21.8475 2.99404 -2.5
    endloop
  endfacet
  facet normal 0 0 1
    outer loop
      vertex -22.9363 -1.24698 -2.5
      vertex -20.5292 -0.482146 -2.5
      vertex -22.5501 0.445042 -2.5
    endloop
  endfacet
  facet normal 0 0 1
    outer loop
      vertex -20.5292 -0.482146 -2.5
      vertex -22.9363 -1.24698 -2.5
      vertex -21.2081 -2.27226 -2.5
    endloop
  endfacet
  facet normal 0 0 1
    outer loop
      vertex -21.2081 -2.27226 -2.5
      vertex -22.9363 -1.24698 -2.5
      vertex -22.6411 -3.54182 -2.5
    endloop
  endfacet
  facet normal -0 0 1
    outer loop
      vertex -24.5 -2 -2.5
      vertex -22.6411 -3.54182 -2.5
      vertex -22.9363 -1.24698 -2.5
    endloop
  endfacet
  facet normal 0 0 1
    outer loop
      vertex -31.3806 -4.91342 -2.5
      vertex -24.5 -2 -2.5
      vertex -26.0637 -1.24698 -2.5
    endloop
  endfacet
  facet normal 0 0 1
    outer loop
      vertex -31 -3 -2.5
      vertex -26.4499 0.445042 -2.5
      vertex -31 3 -2.5
    endloop
  endfacet
  facet normal 0 0 1
    outer loop
      vertex -26.4499 0.445042 -2.5
      vertex -31 -3 -2.5
      vertex -26.0637 -1.24698 -2.5
    endloop
  endfacet
  facet normal 0 0 1
    outer loop
      vertex -31.3806 -4.91342 -2.5
      vertex -26.0637 -1.24698 -2.5
      vertex -31 -3 -2.5
    endloop
  endfacet
  facet normal 0 0 1
    outer loop
      vertex -24.5 -2 -2.5
      vertex -31.3806 -4.91342 -2.5
      vertex -22.6411 -3.54182 -2.5
    endloop
  endfacet
  facet normal 0 0 1
    outer loop
      vertex -22.6411 -3.54182 -2.5
      vertex -31.3806 -4.91342 -2.5
      vertex -32.1156 -6.01343 -2.5
    endloop
  endfacet
  facet normal 0.464723 0.885456 -0
    outer loop
      vertex -21.8475 2.99404 -4.5
      vertex -23.5427 3.88377 -2.5
      vertex -21.8475 2.99404 -2.5
    endloop
  endfacet
  facet normal 0.464723 0.885456 0
    outer loop
      vertex -23.5427 3.88377 -2.5
      vertex -21.8475 2.99404 -4.5
      vertex -23.5427 3.88377 -4.5
    endloop
  endfacet
  facet normal 0.822984 0.568065 0
    outer loop
      vertex -20.7599 1.41842 -2.5
      vertex -21.8475 2.99404 -4.5
      vertex -21.8475 2.99404 -2.5
    endloop
  endfacet
  facet normal 0.822984 0.568065 0
    outer loop
      vertex -21.8475 2.99404 -4.5
      vertex -20.7599 1.41842 -2.5
      vertex -20.7599 1.41842 -4.5
    endloop
  endfacet
  facet normal 0.992709 0.120537 0
    outer loop
      vertex -20.5292 -0.482146 -2.5
      vertex -20.7599 1.41842 -4.5
      vertex -20.7599 1.41842 -2.5
    endloop
  endfacet
  facet normal 0.992709 0.120537 0
    outer loop
      vertex -20.7599 1.41842 -4.5
      vertex -20.5292 -0.482146 -2.5
      vertex -20.5292 -0.482146 -4.5
    endloop
  endfacet
  facet normal 0.663123 -0.74851 0
    outer loop
      vertex -22.6411 -3.54182 -4.5
      vertex -21.2081 -2.27226 -2.5
      vertex -22.6411 -3.54182 -2.5
    endloop
  endfacet
  facet normal 0.663123 -0.74851 0
    outer loop
      vertex -21.2081 -2.27226 -2.5
      vertex -22.6411 -3.54182 -4.5
      vertex -21.2081 -2.27226 -4.5
    endloop
  endfacet
  facet normal 0.252422 -0.967617 0
    outer loop
      vertex -32.1156 -6.01343 -4.5
      vertex -22.6411 -3.54182 -2.5
      vertex -32.1156 -6.01343 -2.5
    endloop
  endfacet
  facet normal 0.252422 -0.967617 0
    outer loop
      vertex -22.6411 -3.54182 -2.5
      vertex -32.1156 -6.01343 -4.5
      vertex -22.6411 -3.54182 -4.5
    endloop
  endfacet
  facet normal 0.433884 0.900969 -0
    outer loop
      vertex -24.5 -2 -4.5
      vertex -26.0637 -1.24698 -2.5
      vertex -24.5 -2 -2.5
    endloop
  endfacet
  facet normal 0.433884 0.900969 0
    outer loop
      vertex -26.0637 -1.24698 -2.5
      vertex -24.5 -2 -4.5
      vertex -26.0637 -1.24698 -4.5
    endloop
  endfacet
  facet normal 0 -1 0
    outer loop
      vertex -25.3678 1.80194 -4.5
      vertex -23.6322 1.80194 -2.5
      vertex -25.3678 1.80194 -2.5
    endloop
  endfacet
  facet normal 0 -1 -0
    outer loop
      vertex -23.6322 1.80194 -2.5
      vertex -25.3678 1.80194 -4.5
      vertex -23.6322 1.80194 -4.5
    endloop
  endfacet
  facet normal -0.781831 -0.62349 0
    outer loop
      vertex -22.5501 0.445042 -4.5
      vertex -23.6322 1.80194 -2.5
      vertex -23.6322 1.80194 -4.5
    endloop
  endfacet
  facet normal -0.781831 -0.62349 0
    outer loop
      vertex -23.6322 1.80194 -2.5
      vertex -22.5501 0.445042 -4.5
      vertex -22.5501 0.445042 -2.5
    endloop
  endfacet
  facet normal 0.781831 -0.62349 0
    outer loop
      vertex -26.4499 0.445042 -2.5
      vertex -25.3678 1.80194 -4.5
      vertex -25.3678 1.80194 -2.5
    endloop
  endfacet
  facet normal 0.781831 -0.62349 0
    outer loop
      vertex -25.3678 1.80194 -4.5
      vertex -26.4499 0.445042 -2.5
      vertex -26.4499 0.445042 -4.5
    endloop
  endfacet
  facet normal 0.974928 0.222521 0
    outer loop
      vertex -26.0637 -1.24698 -2.5
      vertex -26.4499 0.445042 -4.5
      vertex -26.4499 0.445042 -2.5
    endloop
  endfacet
  facet normal 0.974928 0.222521 0
    outer loop
      vertex -26.4499 0.445042 -4.5
      vertex -26.0637 -1.24698 -2.5
      vertex -26.0637 -1.24698 -4.5
    endloop
  endfacet
  facet normal -0.433884 0.900969 0
    outer loop
      vertex -22.9363 -1.24698 -4.5
      vertex -24.5 -2 -2.5
      vertex -22.9363 -1.24698 -2.5
    endloop
  endfacet
  facet normal -0.433884 0.900969 0
    outer loop
      vertex -24.5 -2 -2.5
      vertex -22.9363 -1.24698 -4.5
      vertex -24.5 -2 -4.5
    endloop
  endfacet
  facet normal -0.974928 0.222522 0
    outer loop
      vertex -22.9363 -1.24698 -4.5
      vertex -22.5501 0.445042 -2.5
      vertex -22.5501 0.445042 -4.5
    endloop
  endfacet
  facet normal -0.974928 0.222522 0
    outer loop
      vertex -22.5501 0.445042 -2.5
      vertex -22.9363 -1.24698 -4.5
      vertex -22.9363 -1.24698 -2.5
    endloop
  endfacet
  facet normal 0.173648 0.984808 -0
    outer loop
      vertex -38 -5.5 -4
      vertex -39.8811 -5.16831 -0.5
      vertex -38 -5.5 -0.5
    endloop
  endfacet
  facet normal 0.173648 0.984808 0
    outer loop
      vertex -39.8811 -5.16831 -0.5
      vertex -38 -5.5 -4
      vertex -39.8811 -5.16831 -4
    endloop
  endfacet
  facet normal 0.173648 0.984808 -0
    outer loop
      vertex -38 -5.5 0.5
      vertex -39.8811 -5.16831 10.5
      vertex -38 -5.5 10.5
    endloop
  endfacet
  facet normal 0.173648 0.984808 0
    outer loop
      vertex -39.8811 -5.16831 10.5
      vertex -38 -5.5 0.5
      vertex -39.8811 -5.16831 0.5
    endloop
  endfacet
  facet normal 1 -0 0
    outer loop
      vertex -43.4164 -0.955065 -0.5
      vertex -43.4164 0.955065 -4
      vertex -43.4164 0.955065 -0.5
    endloop
  endfacet
  facet normal 1 0 0
    outer loop
      vertex -43.4164 0.955065 -4
      vertex -43.4164 -0.955065 -0.5
      vertex -43.4164 -0.955065 -4
    endloop
  endfacet
  facet normal 1 -0 0
    outer loop
      vertex -43.4164 -0.955065 10.5
      vertex -43.4164 0.955065 0.5
      vertex -43.4164 0.955065 10.5
    endloop
  endfacet
  facet normal 1 0 0
    outer loop
      vertex -43.4164 0.955065 0.5
      vertex -43.4164 -0.955065 10.5
      vertex -43.4164 -0.955065 0.5
    endloop
  endfacet
  facet normal 0.766045 0.642787 0
    outer loop
      vertex -41.5353 -4.21324 -0.5
      vertex -42.7631 -2.75 -4
      vertex -42.7631 -2.75 -0.5
    endloop
  endfacet
  facet normal 0.766045 0.642787 0
    outer loop
      vertex -42.7631 -2.75 -4
      vertex -41.5353 -4.21324 -0.5
      vertex -41.5353 -4.21324 -4
    endloop
  endfacet
  facet normal 0.766045 0.642787 0
    outer loop
      vertex -41.5353 -4.21324 10.5
      vertex -42.7631 -2.75 0.5
      vertex -42.7631 -2.75 10.5
    endloop
  endfacet
  facet normal 0.766045 0.642787 0
    outer loop
      vertex -42.7631 -2.75 0.5
      vertex -41.5353 -4.21324 10.5
      vertex -41.5353 -4.21324 0.5
    endloop
  endfacet
  facet normal 0.5 0.866025 -0
    outer loop
      vertex -39.8811 -5.16831 -4
      vertex -41.5353 -4.21324 -0.5
      vertex -39.8811 -5.16831 -0.5
    endloop
  endfacet
  facet normal 0.5 0.866025 0
    outer loop
      vertex -41.5353 -4.21324 -0.5
      vertex -39.8811 -5.16831 -4
      vertex -41.5353 -4.21324 -4
    endloop
  endfacet
  facet normal 0.5 0.866025 -0
    outer loop
      vertex -39.8811 -5.16831 0.5
      vertex -41.5353 -4.21324 10.5
      vertex -39.8811 -5.16831 10.5
    endloop
  endfacet
  facet normal 0.5 0.866025 0
    outer loop
      vertex -41.5353 -4.21324 10.5
      vertex -39.8811 -5.16831 0.5
      vertex -41.5353 -4.21324 0.5
    endloop
  endfacet
  facet normal 0.939692 0.342021 0
    outer loop
      vertex -42.7631 -2.75 -0.5
      vertex -43.4164 -0.955065 -4
      vertex -43.4164 -0.955065 -0.5
    endloop
  endfacet
  facet normal 0.939692 0.342021 0
    outer loop
      vertex -43.4164 -0.955065 -4
      vertex -42.7631 -2.75 -0.5
      vertex -42.7631 -2.75 -4
    endloop
  endfacet
  facet normal 0.939692 0.342021 0
    outer loop
      vertex -42.7631 -2.75 10.5
      vertex -43.4164 -0.955065 0.5
      vertex -43.4164 -0.955065 10.5
    endloop
  endfacet
  facet normal 0.939692 0.342021 0
    outer loop
      vertex -43.4164 -0.955065 0.5
      vertex -42.7631 -2.75 10.5
      vertex -42.7631 -2.75 0.5
    endloop
  endfacet
  facet normal 0.5 -0.866025 0
    outer loop
      vertex -41.5353 4.21324 -4
      vertex -39.8811 5.16831 -0.5
      vertex -41.5353 4.21324 -0.5
    endloop
  endfacet
  facet normal 0.5 -0.866025 0
    outer loop
      vertex -39.8811 5.16831 -0.5
      vertex -41.5353 4.21324 -4
      vertex -39.8811 5.16831 -4
    endloop
  endfacet
  facet normal 0.5 -0.866025 0
    outer loop
      vertex -41.5353 4.21324 0.5
      vertex -39.8811 5.16831 10.5
      vertex -41.5353 4.21324 10.5
    endloop
  endfacet
  facet normal 0.5 -0.866025 0
    outer loop
      vertex -39.8811 5.16831 10.5
      vertex -41.5353 4.21324 0.5
      vertex -39.8811 5.16831 0.5
    endloop
  endfacet
  facet normal -0 0 1
    outer loop
      vertex -34.1029 2.25 -4
      vertex -32.5836 0.955065 -4
      vertex -33.2369 2.75 -4
    endloop
  endfacet
  facet normal 0 0 1
    outer loop
      vertex -32.5836 0.955065 -4
      vertex -33.5247 0.470378 -4
      vertex -32.5836 -0.955065 -4
    endloop
  endfacet
  facet normal 0 0 1
    outer loop
      vertex -33.7202 -1.39058 -4
      vertex -32.5836 -0.955065 -4
      vertex -33.5247 0.470378 -4
    endloop
  endfacet
  facet normal 0 0 1
    outer loop
      vertex -32.5836 0.955065 -4
      vertex -34.1029 2.25 -4
      vertex -33.5247 0.470378 -4
    endloop
  endfacet
  facet normal 0 0 1
    outer loop
      vertex -34.4647 4.21324 -4
      vertex -34.1029 2.25 -4
      vertex -33.2369 2.75 -4
    endloop
  endfacet
  facet normal 0 0 1
    outer loop
      vertex -34.4647 4.21324 -4
      vertex -35.355 3.64058 -4
      vertex -34.1029 2.25 -4
    endloop
  endfacet
  facet normal 0 0 1
    outer loop
      vertex -36.1189 5.16831 -4
      vertex -35.355 3.64058 -4
      vertex -34.4647 4.21324 -4
    endloop
  endfacet
  facet normal 0 0 1
    outer loop
      vertex -36.1189 5.16831 -4
      vertex -37.0644 4.40166 -4
      vertex -35.355 3.64058 -4
    endloop
  endfacet
  facet normal 0 0 1
    outer loop
      vertex -38 5.5 -4
      vertex -37.0644 4.40166 -4
      vertex -36.1189 5.16831 -4
    endloop
  endfacet
  facet normal 0 0 1
    outer loop
      vertex -38 5.5 -4
      vertex -38.9356 4.40166 -4
      vertex -37.0644 4.40166 -4
    endloop
  endfacet
  facet normal -0 0 1
    outer loop
      vertex -39.8811 5.16831 -4
      vertex -38.9356 4.40166 -4
      vertex -38 5.5 -4
    endloop
  endfacet
  facet normal 0 0 1
    outer loop
      vertex -39.8811 5.16831 -4
      vertex -40.645 3.64058 -4
      vertex -38.9356 4.40166 -4
    endloop
  endfacet
  facet normal -0 0 1
    outer loop
      vertex -41.5353 4.21324 -4
      vertex -40.645 3.64058 -4
      vertex -39.8811 5.16831 -4
    endloop
  endfacet
  facet normal 0 0 1
    outer loop
      vertex -41.5353 4.21324 -4
      vertex -41.8971 2.25 -4
      vertex -40.645 3.64058 -4
    endloop
  endfacet
  facet normal -0 0 1
    outer loop
      vertex -42.7631 2.75 -4
      vertex -41.8971 2.25 -4
      vertex -41.5353 4.21324 -4
    endloop
  endfacet
  facet normal 0 0 1
    outer loop
      vertex -43.4164 0.955065 -4
      vertex -41.8971 2.25 -4
      vertex -42.7631 2.75 -4
    endloop
  endfacet
  facet normal 0 0 1
    outer loop
      vertex -32.5836 -0.955065 -4
      vertex -33.7202 -1.39058 -4
      vertex -33.2369 -2.75 -4
    endloop
  endfacet
  facet normal 0 0 1
    outer loop
      vertex -34.6558 -3.01109 -4
      vertex -33.2369 -2.75 -4
      vertex -33.7202 -1.39058 -4
    endloop
  endfacet
  facet normal 0 0 1
    outer loop
      vertex -33.2369 -2.75 -4
      vertex -34.6558 -3.01109 -4
      vertex -34.4647 -4.21324 -4
    endloop
  endfacet
  facet normal -0 0 1
    outer loop
      vertex -36.1697 -4.11095 -4
      vertex -34.4647 -4.21324 -4
      vertex -34.6558 -3.01109 -4
    endloop
  endfacet
  facet normal 0 0 1
    outer loop
      vertex -34.4647 -4.21324 -4
      vertex -36.1697 -4.11095 -4
      vertex -36.1189 -5.16831 -4
    endloop
  endfacet
  facet normal -0 0 1
    outer loop
      vertex -38 -4.5 -4
      vertex -36.1189 -5.16831 -4
      vertex -36.1697 -4.11095 -4
    endloop
  endfacet
  facet normal 0 0 1
    outer loop
      vertex -38 -4.5 -4
      vertex -38 -5.5 -4
      vertex -36.1189 -5.16831 -4
    endloop
  endfacet
  facet normal 0 0 1
    outer loop
      vertex -39.8811 -5.16831 -4
      vertex -38 -4.5 -4
      vertex -39.8303 -4.11095 -4
    endloop
  endfacet
  facet normal 0 0 1
    outer loop
      vertex -38 -4.5 -4
      vertex -39.8811 -5.16831 -4
      vertex -38 -5.5 -4
    endloop
  endfacet
  facet normal 0 0 1
    outer loop
      vertex -41.5353 -4.21324 -4
      vertex -39.8303 -4.11095 -4
      vertex -41.3442 -3.01109 -4
    endloop
  endfacet
  facet normal 0 0 1
    outer loop
      vertex -39.8303 -4.11095 -4
      vertex -41.5353 -4.21324 -4
      vertex -39.8811 -5.16831 -4
    endloop
  endfacet
  facet normal -0 0 1
    outer loop
      vertex -42.7631 -2.75 -4
      vertex -41.3442 -3.01109 -4
      vertex -42.2798 -1.39058 -4
    endloop
  endfacet
  facet normal 0 0 1
    outer loop
      vertex -41.8971 2.25 -4
      vertex -43.4164 0.955065 -4
      vertex -42.4753 0.470378 -4
    endloop
  endfacet
  facet normal 0 0 1
    outer loop
      vertex -41.3442 -3.01109 -4
      vertex -42.7631 -2.75 -4
      vertex -41.5353 -4.21324 -4
    endloop
  endfacet
  facet normal 0 0 1
    outer loop
      vertex -43.4164 -0.955065 -4
      vertex -42.4753 0.470378 -4
      vertex -43.4164 0.955065 -4
    endloop
  endfacet
  facet normal 0 0 1
    outer loop
      vertex -42.4753 0.470378 -4
      vertex -43.4164 -0.955065 -4
      vertex -42.2798 -1.39058 -4
    endloop
  endfacet
  facet normal 0 0 1
    outer loop
      vertex -42.2798 -1.39058 -4
      vertex -43.4164 -0.955065 -4
      vertex -42.7631 -2.75 -4
    endloop
  endfacet
  facet normal 0.173648 -0.984808 0
    outer loop
      vertex -39.8811 5.16831 -4
      vertex -38 5.5 -0.5
      vertex -39.8811 5.16831 -0.5
    endloop
  endfacet
  facet normal 0.173648 -0.984808 0
    outer loop
      vertex -38 5.5 -0.5
      vertex -39.8811 5.16831 -4
      vertex -38 5.5 -4
    endloop
  endfacet
  facet normal 0.173648 -0.984808 0
    outer loop
      vertex -39.8811 5.16831 0.5
      vertex -38 5.5 10.5
      vertex -39.8811 5.16831 10.5
    endloop
  endfacet
  facet normal 0.173648 -0.984808 0
    outer loop
      vertex -38 5.5 10.5
      vertex -39.8811 5.16831 0.5
      vertex -38 5.5 0.5
    endloop
  endfacet
  facet normal 0.766045 -0.642787 0
    outer loop
      vertex -42.7631 2.75 -0.5
      vertex -41.5353 4.21324 -4
      vertex -41.5353 4.21324 -0.5
    endloop
  endfacet
  facet normal 0.766045 -0.642787 0
    outer loop
      vertex -41.5353 4.21324 -4
      vertex -42.7631 2.75 -0.5
      vertex -42.7631 2.75 -4
    endloop
  endfacet
  facet normal 0.766045 -0.642787 0
    outer loop
      vertex -42.7631 2.75 10.5
      vertex -41.5353 4.21324 0.5
      vertex -41.5353 4.21324 10.5
    endloop
  endfacet
  facet normal 0.766045 -0.642787 0
    outer loop
      vertex -41.5353 4.21324 0.5
      vertex -42.7631 2.75 10.5
      vertex -42.7631 2.75 0.5
    endloop
  endfacet
  facet normal -0.939693 -0.342019 0
    outer loop
      vertex -32.5836 0.955065 -4
      vertex -33.2369 2.75 -0.5
      vertex -33.2369 2.75 -4
    endloop
  endfacet
  facet normal -0.939693 -0.342019 0
    outer loop
      vertex -33.2369 2.75 -0.5
      vertex -32.5836 0.955065 -4
      vertex -32.5836 0.955065 -0.5
    endloop
  endfacet
  facet normal -0.939693 -0.342019 0
    outer loop
      vertex -32.5836 0.955065 0.5
      vertex -33.2369 2.75 10.5
      vertex -33.2369 2.75 0.5
    endloop
  endfacet
  facet normal -0.939693 -0.342019 0
    outer loop
      vertex -33.2369 2.75 10.5
      vertex -32.5836 0.955065 0.5
      vertex -32.5836 0.955065 10.5
    endloop
  endfacet
  facet normal -0.5 -0.866025 0
    outer loop
      vertex -36.1189 5.16831 -4
      vertex -34.4647 4.21324 -0.5
      vertex -36.1189 5.16831 -0.5
    endloop
  endfacet
  facet normal -0.5 -0.866025 -0
    outer loop
      vertex -34.4647 4.21324 -0.5
      vertex -36.1189 5.16831 -4
      vertex -34.4647 4.21324 -4
    endloop
  endfacet
  facet normal -0.5 -0.866025 0
    outer loop
      vertex -36.1189 5.16831 0.5
      vertex -34.4647 4.21324 10.5
      vertex -36.1189 5.16831 10.5
    endloop
  endfacet
  facet normal -0.5 -0.866025 -0
    outer loop
      vertex -34.4647 4.21324 10.5
      vertex -36.1189 5.16831 0.5
      vertex -34.4647 4.21324 0.5
    endloop
  endfacet
  facet normal -0.173648 -0.984808 0
    outer loop
      vertex -38 5.5 -4
      vertex -36.1189 5.16831 -0.5
      vertex -38 5.5 -0.5
    endloop
  endfacet
  facet normal -0.173648 -0.984808 -0
    outer loop
      vertex -36.1189 5.16831 -0.5
      vertex -38 5.5 -4
      vertex -36.1189 5.16831 -4
    endloop
  endfacet
  facet normal -0.173648 -0.984808 0
    outer loop
      vertex -38 5.5 0.5
      vertex -36.1189 5.16831 10.5
      vertex -38 5.5 10.5
    endloop
  endfacet
  facet normal -0.173648 -0.984808 -0
    outer loop
      vertex -36.1189 5.16831 10.5
      vertex -38 5.5 0.5
      vertex -36.1189 5.16831 0.5
    endloop
  endfacet
  facet normal 0.939692 -0.342021 0
    outer loop
      vertex -43.4164 0.955065 -0.5
      vertex -42.7631 2.75 -4
      vertex -42.7631 2.75 -0.5
    endloop
  endfacet
  facet normal 0.939692 -0.342021 0
    outer loop
      vertex -42.7631 2.75 -4
      vertex -43.4164 0.955065 -0.5
      vertex -43.4164 0.955065 -4
    endloop
  endfacet
  facet normal 0.939692 -0.342021 0
    outer loop
      vertex -43.4164 0.955065 10.5
      vertex -42.7631 2.75 0.5
      vertex -42.7631 2.75 10.5
    endloop
  endfacet
  facet normal 0.939692 -0.342021 0
    outer loop
      vertex -42.7631 2.75 0.5
      vertex -43.4164 0.955065 10.5
      vertex -43.4164 0.955065 0.5
    endloop
  endfacet
  facet normal -0.5 0.866025 0
    outer loop
      vertex -34.4647 -4.21324 -4
      vertex -36.1189 -5.16831 -0.5
      vertex -34.4647 -4.21324 -0.5
    endloop
  endfacet
  facet normal -0.5 0.866025 0
    outer loop
      vertex -36.1189 -5.16831 -0.5
      vertex -34.4647 -4.21324 -4
      vertex -36.1189 -5.16831 -4
    endloop
  endfacet
  facet normal -0.5 0.866025 0
    outer loop
      vertex -34.4647 -4.21324 0.5
      vertex -36.1189 -5.16831 10.5
      vertex -34.4647 -4.21324 10.5
    endloop
  endfacet
  facet normal -0.5 0.866025 0
    outer loop
      vertex -36.1189 -5.16831 10.5
      vertex -34.4647 -4.21324 0.5
      vertex -36.1189 -5.16831 0.5
    endloop
  endfacet
  facet normal -0.939692 0.342021 0
    outer loop
      vertex -33.2369 -2.75 -4
      vertex -32.5836 -0.955065 -0.5
      vertex -32.5836 -0.955065 -4
    endloop
  endfacet
  facet normal -0.939692 0.342021 0
    outer loop
      vertex -32.5836 -0.955065 -0.5
      vertex -33.2369 -2.75 -4
      vertex -33.2369 -2.75 -0.5
    endloop
  endfacet
  facet normal -0.939692 0.342021 0
    outer loop
      vertex -33.2369 -2.75 0.5
      vertex -32.5836 -0.955065 10.5
      vertex -32.5836 -0.955065 0.5
    endloop
  endfacet
  facet normal -0.939692 0.342021 0
    outer loop
      vertex -32.5836 -0.955065 10.5
      vertex -33.2369 -2.75 0.5
      vertex -33.2369 -2.75 10.5
    endloop
  endfacet
  facet normal -1 0 0
    outer loop
      vertex -32.5836 -0.955065 -4
      vertex -32.5836 0.955065 -0.5
      vertex -32.5836 0.955065 -4
    endloop
  endfacet
  facet normal -1 -0 0
    outer loop
      vertex -32.5836 0.955065 -0.5
      vertex -32.5836 -0.955065 -4
      vertex -32.5836 -0.955065 -0.5
    endloop
  endfacet
  facet normal -1 0 0
    outer loop
      vertex -32.5836 -0.955065 0.5
      vertex -32.5836 0.955065 10.5
      vertex -32.5836 0.955065 0.5
    endloop
  endfacet
  facet normal -1 -0 0
    outer loop
      vertex -32.5836 0.955065 10.5
      vertex -32.5836 -0.955065 0.5
      vertex -32.5836 -0.955065 10.5
    endloop
  endfacet
  facet normal -0.766044 -0.642788 0
    outer loop
      vertex -33.2369 2.75 -4
      vertex -34.4647 4.21324 -0.5
      vertex -34.4647 4.21324 -4
    endloop
  endfacet
  facet normal -0.766044 -0.642788 0
    outer loop
      vertex -34.4647 4.21324 -0.5
      vertex -33.2369 2.75 -4
      vertex -33.2369 2.75 -0.5
    endloop
  endfacet
  facet normal -0.766044 -0.642788 0
    outer loop
      vertex -33.2369 2.75 0.5
      vertex -34.4647 4.21324 10.5
      vertex -34.4647 4.21324 0.5
    endloop
  endfacet
  facet normal -0.766044 -0.642788 0
    outer loop
      vertex -34.4647 4.21324 10.5
      vertex -33.2369 2.75 0.5
      vertex -33.2369 2.75 10.5
    endloop
  endfacet
  facet normal -0.173648 0.984808 0
    outer loop
      vertex -36.1189 -5.16831 -4
      vertex -38 -5.5 -0.5
      vertex -36.1189 -5.16831 -0.5
    endloop
  endfacet
  facet normal -0.173648 0.984808 0
    outer loop
      vertex -38 -5.5 -0.5
      vertex -36.1189 -5.16831 -4
      vertex -38 -5.5 -4
    endloop
  endfacet
  facet normal -0.173648 0.984808 0
    outer loop
      vertex -36.1189 -5.16831 0.5
      vertex -38 -5.5 10.5
      vertex -36.1189 -5.16831 10.5
    endloop
  endfacet
  facet normal -0.173648 0.984808 0
    outer loop
      vertex -38 -5.5 10.5
      vertex -36.1189 -5.16831 0.5
      vertex -38 -5.5 0.5
    endloop
  endfacet
  facet normal -0.766045 0.642787 0
    outer loop
      vertex -34.4647 -4.21324 -4
      vertex -33.2369 -2.75 -0.5
      vertex -33.2369 -2.75 -4
    endloop
  endfacet
  facet normal -0.766045 0.642787 0
    outer loop
      vertex -33.2369 -2.75 -0.5
      vertex -34.4647 -4.21324 -4
      vertex -34.4647 -4.21324 -0.5
    endloop
  endfacet
  facet normal -0.766045 0.642787 0
    outer loop
      vertex -34.4647 -4.21324 0.5
      vertex -33.2369 -2.75 10.5
      vertex -33.2369 -2.75 0.5
    endloop
  endfacet
  facet normal -0.766045 0.642787 0
    outer loop
      vertex -33.2369 -2.75 10.5
      vertex -34.4647 -4.21324 0.5
      vertex -34.4647 -4.21324 10.5
    endloop
  endfacet
  facet normal 0.207912 0.978148 -0
    outer loop
      vertex -38 -4.5 -4.5
      vertex -39.8303 -4.11095 -4
      vertex -38 -4.5 -4
    endloop
  endfacet
  facet normal 0.207912 0.978148 0
    outer loop
      vertex -39.8303 -4.11095 -4
      vertex -38 -4.5 -4.5
      vertex -39.8303 -4.11095 -4.5
    endloop
  endfacet
  facet normal 0 -1 0
    outer loop
      vertex -38.9356 4.40166 -4.5
      vertex -37.0644 4.40166 -4
      vertex -38.9356 4.40166 -4
    endloop
  endfacet
  facet normal 0 -1 -0
    outer loop
      vertex -37.0644 4.40166 -4
      vertex -38.9356 4.40166 -4.5
      vertex -37.0644 4.40166 -4.5
    endloop
  endfacet
  facet normal 0.994522 0.104529 0
    outer loop
      vertex -42.2798 -1.39058 -4
      vertex -42.4753 0.470378 -4.5
      vertex -42.4753 0.470378 -4
    endloop
  endfacet
  facet normal 0.994522 0.104529 0
    outer loop
      vertex -42.4753 0.470378 -4.5
      vertex -42.2798 -1.39058 -4
      vertex -42.2798 -1.39058 -4.5
    endloop
  endfacet
  facet normal 0.587785 0.809017 -0
    outer loop
      vertex -39.8303 -4.11095 -4.5
      vertex -41.3442 -3.01109 -4
      vertex -39.8303 -4.11095 -4
    endloop
  endfacet
  facet normal 0.587785 0.809017 0
    outer loop
      vertex -41.3442 -3.01109 -4
      vertex -39.8303 -4.11095 -4.5
      vertex -41.3442 -3.01109 -4.5
    endloop
  endfacet
  facet normal -0.994522 0.104529 0
    outer loop
      vertex -33.7202 -1.39058 -4.5
      vertex -33.5247 0.470378 -4
      vertex -33.5247 0.470378 -4.5
    endloop
  endfacet
  facet normal -0.994522 0.104529 0
    outer loop
      vertex -33.5247 0.470378 -4
      vertex -33.7202 -1.39058 -4.5
      vertex -33.7202 -1.39058 -4
    endloop
  endfacet
  facet normal -0.866026 0.499999 0
    outer loop
      vertex -34.6558 -3.01109 -4.5
      vertex -33.7202 -1.39058 -4
      vertex -33.7202 -1.39058 -4.5
    endloop
  endfacet
  facet normal -0.866026 0.499999 0
    outer loop
      vertex -33.7202 -1.39058 -4
      vertex -34.6558 -3.01109 -4.5
      vertex -34.6558 -3.01109 -4
    endloop
  endfacet
  facet normal 0.866025 0.500001 0
    outer loop
      vertex -41.3442 -3.01109 -4
      vertex -42.2798 -1.39058 -4.5
      vertex -42.2798 -1.39058 -4
    endloop
  endfacet
  facet normal 0.866025 0.500001 0
    outer loop
      vertex -42.2798 -1.39058 -4.5
      vertex -41.3442 -3.01109 -4
      vertex -41.3442 -3.01109 -4.5
    endloop
  endfacet
  facet normal 0.743144 -0.669131 0
    outer loop
      vertex -41.8971 2.25 -4
      vertex -40.645 3.64058 -4.5
      vertex -40.645 3.64058 -4
    endloop
  endfacet
  facet normal 0.743144 -0.669131 0
    outer loop
      vertex -40.645 3.64058 -4.5
      vertex -41.8971 2.25 -4
      vertex -41.8971 2.25 -4.5
    endloop
  endfacet
  facet normal 0.406737 -0.913545 0
    outer loop
      vertex -40.645 3.64058 -4.5
      vertex -38.9356 4.40166 -4
      vertex -40.645 3.64058 -4
    endloop
  endfacet
  facet normal 0.406737 -0.913545 0
    outer loop
      vertex -38.9356 4.40166 -4
      vertex -40.645 3.64058 -4.5
      vertex -38.9356 4.40166 -4.5
    endloop
  endfacet
  facet normal 0.951056 -0.309018 0
    outer loop
      vertex -42.4753 0.470378 -4
      vertex -41.8971 2.25 -4.5
      vertex -41.8971 2.25 -4
    endloop
  endfacet
  facet normal 0.951056 -0.309018 0
    outer loop
      vertex -41.8971 2.25 -4.5
      vertex -42.4753 0.470378 -4
      vertex -42.4753 0.470378 -4.5
    endloop
  endfacet
  facet normal -0.951056 -0.309018 0
    outer loop
      vertex -33.5247 0.470378 -4.5
      vertex -34.1029 2.25 -4
      vertex -34.1029 2.25 -4.5
    endloop
  endfacet
  facet normal -0.951056 -0.309018 0
    outer loop
      vertex -34.1029 2.25 -4
      vertex -33.5247 0.470378 -4.5
      vertex -33.5247 0.470378 -4
    endloop
  endfacet
  facet normal -0.406737 -0.913545 0
    outer loop
      vertex -37.0644 4.40166 -4.5
      vertex -35.355 3.64058 -4
      vertex -37.0644 4.40166 -4
    endloop
  endfacet
  facet normal -0.406737 -0.913545 -0
    outer loop
      vertex -35.355 3.64058 -4
      vertex -37.0644 4.40166 -4.5
      vertex -35.355 3.64058 -4.5
    endloop
  endfacet
  facet normal -0.587785 0.809018 0
    outer loop
      vertex -34.6558 -3.01109 -4.5
      vertex -36.1697 -4.11095 -4
      vertex -34.6558 -3.01109 -4
    endloop
  endfacet
  facet normal -0.587785 0.809018 0
    outer loop
      vertex -36.1697 -4.11095 -4
      vertex -34.6558 -3.01109 -4.5
      vertex -36.1697 -4.11095 -4.5
    endloop
  endfacet
  facet normal -0.207912 0.978148 0
    outer loop
      vertex -36.1697 -4.11095 -4.5
      vertex -38 -4.5 -4
      vertex -36.1697 -4.11095 -4
    endloop
  endfacet
  facet normal -0.207912 0.978148 0
    outer loop
      vertex -38 -4.5 -4
      vertex -36.1697 -4.11095 -4.5
      vertex -38 -4.5 -4.5
    endloop
  endfacet
  facet normal -0.743145 -0.66913 0
    outer loop
      vertex -34.1029 2.25 -4.5
      vertex -35.355 3.64058 -4
      vertex -35.355 3.64058 -4.5
    endloop
  endfacet
  facet normal -0.743145 -0.66913 0
    outer loop
      vertex -35.355 3.64058 -4
      vertex -34.1029 2.25 -4.5
      vertex -34.1029 2.25 -4
    endloop
  endfacet
  facet normal 0.142315 0.989821 -0
    outer loop
      vertex -38 -7 -0.5
      vertex -39.0708 -6.84604 0.5
      vertex -38 -7 0.5
    endloop
  endfacet
  facet normal 0.142315 0.989821 0
    outer loop
      vertex -39.0708 -6.84604 0.5
      vertex -38 -7 -0.5
      vertex -39.0708 -6.84604 -0.5
    endloop
  endfacet
  facet normal -0.142315 -0.989821 0
    outer loop
      vertex -38 7 -0.5
      vertex -36.0279 6.71645 0.5
      vertex -38 7 0.5
    endloop
  endfacet
  facet normal -0.142315 -0.989821 -0
    outer loop
      vertex -36.0279 6.71645 0.5
      vertex -38 7 -0.5
      vertex -36.0279 6.71645 -0.5
    endloop
  endfacet
  facet normal -0.415416 0.909632 0
    outer loop
      vertex -34.2155 -5.88877 -0.5
      vertex -36.0279 -6.71645 0.5
      vertex -34.2155 -5.88877 0.5
    endloop
  endfacet
  facet normal -0.415416 0.909632 0
    outer loop
      vertex -36.0279 -6.71645 0.5
      vertex -34.2155 -5.88877 -0.5
      vertex -36.0279 -6.71645 -0.5
    endloop
  endfacet
  facet normal -0.415416 -0.909632 0
    outer loop
      vertex -36.0279 6.71645 -0.5
      vertex -34.2155 5.88877 0.5
      vertex -36.0279 6.71645 0.5
    endloop
  endfacet
  facet normal -0.415416 -0.909632 -0
    outer loop
      vertex -34.2155 5.88877 0.5
      vertex -36.0279 6.71645 -0.5
      vertex -34.2155 5.88877 -0.5
    endloop
  endfacet
  facet normal 0 0 1
    outer loop
      vertex -32.5836 0.955065 -0.5
      vertex -31.0712 0.996203 -0.5
      vertex -31.6326 2.9079 -0.5
    endloop
  endfacet
  facet normal 0 0 1
    outer loop
      vertex -31.0712 0.996203 -0.5
      vertex -32.5836 0.955065 -0.5
      vertex -31.0712 -0.996203 -0.5
    endloop
  endfacet
  facet normal -0 0 1
    outer loop
      vertex -32.5836 -0.955065 -0.5
      vertex -31.0712 -0.996203 -0.5
      vertex -32.5836 0.955065 -0.5
    endloop
  endfacet
  facet normal 0 0 1
    outer loop
      vertex -33.2369 2.75 -0.5
      vertex -31.6326 2.9079 -0.5
      vertex -32.7098 4.58402 -0.5
    endloop
  endfacet
  facet normal 0 0 1
    outer loop
      vertex -31.6326 2.9079 -0.5
      vertex -33.2369 2.75 -0.5
      vertex -32.5836 0.955065 -0.5
    endloop
  endfacet
  facet normal 0 0 1
    outer loop
      vertex -34.4647 4.21324 -0.5
      vertex -32.7098 4.58402 -0.5
      vertex -34.2155 5.88877 -0.5
    endloop
  endfacet
  facet normal 0 0 1
    outer loop
      vertex -32.7098 4.58402 -0.5
      vertex -34.4647 4.21324 -0.5
      vertex -33.2369 2.75 -0.5
    endloop
  endfacet
  facet normal 0 0 1
    outer loop
      vertex -36.1189 5.16831 -0.5
      vertex -34.2155 5.88877 -0.5
      vertex -36.0279 6.71645 -0.5
    endloop
  endfacet
  facet normal 0 0 1
    outer loop
      vertex -34.2155 5.88877 -0.5
      vertex -36.1189 5.16831 -0.5
      vertex -34.4647 4.21324 -0.5
    endloop
  endfacet
  facet normal 0 0 1
    outer loop
      vertex -38 5.5 -0.5
      vertex -36.0279 6.71645 -0.5
      vertex -38 7 -0.5
    endloop
  endfacet
  facet normal 0 0 1
    outer loop
      vertex -36.0279 6.71645 -0.5
      vertex -38 5.5 -0.5
      vertex -36.1189 5.16831 -0.5
    endloop
  endfacet
  facet normal -0 0 1
    outer loop
      vertex -39.0708 6.84604 -0.5
      vertex -38 5.5 -0.5
      vertex -38 7 -0.5
    endloop
  endfacet
  facet normal -0 0 1
    outer loop
      vertex -39.5355 6.53553 -0.5
      vertex -38 5.5 -0.5
      vertex -39.0708 6.84604 -0.5
    endloop
  endfacet
  facet normal 0 0 1
    outer loop
      vertex -39.5355 6.53553 -0.5
      vertex -39.8811 5.16831 -0.5
      vertex -38 5.5 -0.5
    endloop
  endfacet
  facet normal 0 0 1
    outer loop
      vertex -41.6443 5.0159 -0.5
      vertex -39.8811 5.16831 -0.5
      vertex -39.5355 6.53553 -0.5
    endloop
  endfacet
  facet normal 0 0 1
    outer loop
      vertex -39.8811 5.16831 -0.5
      vertex -41.6443 5.0159 -0.5
      vertex -41.5353 4.21324 -0.5
    endloop
  endfacet
  facet normal 0 0 1
    outer loop
      vertex -43.0159 3.64427 -0.5
      vertex -41.5353 4.21324 -0.5
      vertex -41.6443 5.0159 -0.5
    endloop
  endfacet
  facet normal 0 0 1
    outer loop
      vertex -41.5353 4.21324 -0.5
      vertex -43.0159 3.64427 -0.5
      vertex -42.7631 2.75 -0.5
    endloop
  endfacet
  facet normal 0 0 1
    outer loop
      vertex -43.8965 1.9159 -0.5
      vertex -42.7631 2.75 -0.5
      vertex -43.0159 3.64427 -0.5
    endloop
  endfacet
  facet normal 0 0 1
    outer loop
      vertex -44.2 2.70647e-15 -0.5
      vertex -43.4164 0.955065 -0.5
      vertex -43.8965 1.9159 -0.5
    endloop
  endfacet
  facet normal 0 0 1
    outer loop
      vertex -42.7631 2.75 -0.5
      vertex -43.8965 1.9159 -0.5
      vertex -43.4164 0.955065 -0.5
    endloop
  endfacet
  facet normal 0 0 1
    outer loop
      vertex -31.0712 -0.996203 -0.5
      vertex -32.5836 -0.955065 -0.5
      vertex -31.6326 -2.9079 -0.5
    endloop
  endfacet
  facet normal -0 0 1
    outer loop
      vertex -33.2369 -2.75 -0.5
      vertex -31.6326 -2.9079 -0.5
      vertex -32.5836 -0.955065 -0.5
    endloop
  endfacet
  facet normal 0 0 1
    outer loop
      vertex -31.6326 -2.9079 -0.5
      vertex -33.2369 -2.75 -0.5
      vertex -32.7098 -4.58402 -0.5
    endloop
  endfacet
  facet normal -0 0 1
    outer loop
      vertex -34.4647 -4.21324 -0.5
      vertex -32.7098 -4.58402 -0.5
      vertex -33.2369 -2.75 -0.5
    endloop
  endfacet
  facet normal 0 0 1
    outer loop
      vertex -32.7098 -4.58402 -0.5
      vertex -34.4647 -4.21324 -0.5
      vertex -34.2155 -5.88877 -0.5
    endloop
  endfacet
  facet normal -0 0 1
    outer loop
      vertex -36.1189 -5.16831 -0.5
      vertex -34.2155 -5.88877 -0.5
      vertex -34.4647 -4.21324 -0.5
    endloop
  endfacet
  facet normal 0 0 1
    outer loop
      vertex -34.2155 -5.88877 -0.5
      vertex -36.1189 -5.16831 -0.5
      vertex -36.0279 -6.71645 -0.5
    endloop
  endfacet
  facet normal -0 0 1
    outer loop
      vertex -38 -5.5 -0.5
      vertex -36.0279 -6.71645 -0.5
      vertex -36.1189 -5.16831 -0.5
    endloop
  endfacet
  facet normal 0 0 1
    outer loop
      vertex -38 -5.5 -0.5
      vertex -38 -7 -0.5
      vertex -36.0279 -6.71645 -0.5
    endloop
  endfacet
  facet normal 0 0 1
    outer loop
      vertex -38 -5.5 -0.5
      vertex -39.0708 -6.84604 -0.5
      vertex -38 -7 -0.5
    endloop
  endfacet
  facet normal 0 0 1
    outer loop
      vertex -38 -5.5 -0.5
      vertex -39.5355 -6.53553 -0.5
      vertex -39.0708 -6.84604 -0.5
    endloop
  endfacet
  facet normal 0 0 1
    outer loop
      vertex -39.8811 -5.16831 -0.5
      vertex -39.5355 -6.53553 -0.5
      vertex -38 -5.5 -0.5
    endloop
  endfacet
  facet normal -0 0 1
    outer loop
      vertex -41.6443 -5.0159 -0.5
      vertex -39.8811 -5.16831 -0.5
      vertex -41.5353 -4.21324 -0.5
    endloop
  endfacet
  facet normal 0 0 1
    outer loop
      vertex -39.8811 -5.16831 -0.5
      vertex -41.6443 -5.0159 -0.5
      vertex -39.5355 -6.53553 -0.5
    endloop
  endfacet
  facet normal -0 0 1
    outer loop
      vertex -43.0159 -3.64427 -0.5
      vertex -41.5353 -4.21324 -0.5
      vertex -42.7631 -2.75 -0.5
    endloop
  endfacet
  facet normal 0 0 1
    outer loop
      vertex -41.5353 -4.21324 -0.5
      vertex -43.0159 -3.64427 -0.5
      vertex -41.6443 -5.0159 -0.5
    endloop
  endfacet
  facet normal -0 0 1
    outer loop
      vertex -43.8965 -1.9159 -0.5
      vertex -42.7631 -2.75 -0.5
      vertex -43.4164 -0.955065 -0.5
    endloop
  endfacet
  facet normal 0 0 1
    outer loop
      vertex -43.4164 0.955065 -0.5
      vertex -44.2 2.70647e-15 -0.5
      vertex -43.4164 -0.955065 -0.5
    endloop
  endfacet
  facet normal 0 0 1
    outer loop
      vertex -42.7631 -2.75 -0.5
      vertex -43.8965 -1.9159 -0.5
      vertex -43.0159 -3.64427 -0.5
    endloop
  endfacet
  facet normal 0 0 1
    outer loop
      vertex -43.4164 -0.955065 -0.5
      vertex -44.2 2.70647e-15 -0.5
      vertex -43.8965 -1.9159 -0.5
    endloop
  endfacet
  facet normal 0.142315 -0.989821 0
    outer loop
      vertex -39.0708 6.84604 -0.5
      vertex -38 7 0.5
      vertex -39.0708 6.84604 0.5
    endloop
  endfacet
  facet normal 0.142315 -0.989821 0
    outer loop
      vertex -38 7 0.5
      vertex -39.0708 6.84604 -0.5
      vertex -38 7 -0.5
    endloop
  endfacet
  facet normal 0 0 -1
    outer loop
      vertex -32.5836 -0.955065 0.5
      vertex -31.0712 -0.996203 0.5
      vertex -31.6326 -2.9079 0.5
    endloop
  endfacet
  facet normal 0 0 -1
    outer loop
      vertex -31.0712 -0.996203 0.5
      vertex -32.5836 -0.955065 0.5
      vertex -31.0712 0.996203 0.5
    endloop
  endfacet
  facet normal 0 0 -1
    outer loop
      vertex -32.5836 0.955065 0.5
      vertex -31.0712 0.996203 0.5
      vertex -32.5836 -0.955065 0.5
    endloop
  endfacet
  facet normal 0 0 -1
    outer loop
      vertex -33.2369 -2.75 0.5
      vertex -31.6326 -2.9079 0.5
      vertex -32.7098 -4.58402 0.5
    endloop
  endfacet
  facet normal 0 0 -1
    outer loop
      vertex -31.6326 -2.9079 0.5
      vertex -33.2369 -2.75 0.5
      vertex -32.5836 -0.955065 0.5
    endloop
  endfacet
  facet normal 0 0 -1
    outer loop
      vertex -34.4647 -4.21324 0.5
      vertex -32.7098 -4.58402 0.5
      vertex -34.2155 -5.88877 0.5
    endloop
  endfacet
  facet normal 0 0 -1
    outer loop
      vertex -32.7098 -4.58402 0.5
      vertex -34.4647 -4.21324 0.5
      vertex -33.2369 -2.75 0.5
    endloop
  endfacet
  facet normal 0 0 -1
    outer loop
      vertex -36.1189 -5.16831 0.5
      vertex -34.2155 -5.88877 0.5
      vertex -36.0279 -6.71645 0.5
    endloop
  endfacet
  facet normal 0 0 -1
    outer loop
      vertex -34.2155 -5.88877 0.5
      vertex -36.1189 -5.16831 0.5
      vertex -34.4647 -4.21324 0.5
    endloop
  endfacet
  facet normal 0 0 -1
    outer loop
      vertex -38 -5.5 0.5
      vertex -36.0279 -6.71645 0.5
      vertex -38 -7 0.5
    endloop
  endfacet
  facet normal 0 0 -1
    outer loop
      vertex -36.0279 -6.71645 0.5
      vertex -38 -5.5 0.5
      vertex -36.1189 -5.16831 0.5
    endloop
  endfacet
  facet normal 0 0 -1
    outer loop
      vertex -39.0708 -6.84604 0.5
      vertex -38 -5.5 0.5
      vertex -38 -7 0.5
    endloop
  endfacet
  facet normal 0 0 -1
    outer loop
      vertex -39.5355 -6.53553 0.5
      vertex -38 -5.5 0.5
      vertex -39.0708 -6.84604 0.5
    endloop
  endfacet
  facet normal 0 0 -1
    outer loop
      vertex -39.5355 -6.53553 0.5
      vertex -39.8811 -5.16831 0.5
      vertex -38 -5.5 0.5
    endloop
  endfacet
  facet normal 0 0 -1
    outer loop
      vertex -41.6443 -5.0159 0.5
      vertex -39.8811 -5.16831 0.5
      vertex -39.5355 -6.53553 0.5
    endloop
  endfacet
  facet normal 0 0 -1
    outer loop
      vertex -39.8811 -5.16831 0.5
      vertex -41.6443 -5.0159 0.5
      vertex -41.5353 -4.21324 0.5
    endloop
  endfacet
  facet normal 0 0 -1
    outer loop
      vertex -43.0159 -3.64427 0.5
      vertex -41.5353 -4.21324 0.5
      vertex -41.6443 -5.0159 0.5
    endloop
  endfacet
  facet normal 0 0 -1
    outer loop
      vertex -41.5353 -4.21324 0.5
      vertex -43.0159 -3.64427 0.5
      vertex -42.7631 -2.75 0.5
    endloop
  endfacet
  facet normal 0 0 -1
    outer loop
      vertex -43.8965 -1.9159 0.5
      vertex -42.7631 -2.75 0.5
      vertex -43.0159 -3.64427 0.5
    endloop
  endfacet
  facet normal 0 0 -1
    outer loop
      vertex -44.2 2.70647e-15 0.5
      vertex -43.4164 -0.955065 0.5
      vertex -43.8965 -1.9159 0.5
    endloop
  endfacet
  facet normal 0 0 -1
    outer loop
      vertex -42.7631 -2.75 0.5
      vertex -43.8965 -1.9159 0.5
      vertex -43.4164 -0.955065 0.5
    endloop
  endfacet
  facet normal -0 0 -1
    outer loop
      vertex -31.0712 0.996203 0.5
      vertex -32.5836 0.955065 0.5
      vertex -31.6326 2.9079 0.5
    endloop
  endfacet
  facet normal 0 0 -1
    outer loop
      vertex -33.2369 2.75 0.5
      vertex -31.6326 2.9079 0.5
      vertex -32.5836 0.955065 0.5
    endloop
  endfacet
  facet normal -0 0 -1
    outer loop
      vertex -31.6326 2.9079 0.5
      vertex -33.2369 2.75 0.5
      vertex -32.7098 4.58402 0.5
    endloop
  endfacet
  facet normal 0 0 -1
    outer loop
      vertex -34.4647 4.21324 0.5
      vertex -32.7098 4.58402 0.5
      vertex -33.2369 2.75 0.5
    endloop
  endfacet
  facet normal -0 0 -1
    outer loop
      vertex -32.7098 4.58402 0.5
      vertex -34.4647 4.21324 0.5
      vertex -34.2155 5.88877 0.5
    endloop
  endfacet
  facet normal 0 0 -1
    outer loop
      vertex -36.1189 5.16831 0.5
      vertex -34.2155 5.88877 0.5
      vertex -34.4647 4.21324 0.5
    endloop
  endfacet
  facet normal -0 0 -1
    outer loop
      vertex -34.2155 5.88877 0.5
      vertex -36.1189 5.16831 0.5
      vertex -36.0279 6.71645 0.5
    endloop
  endfacet
  facet normal 0 0 -1
    outer loop
      vertex -38 5.5 0.5
      vertex -36.0279 6.71645 0.5
      vertex -36.1189 5.16831 0.5
    endloop
  endfacet
  facet normal 0 0 -1
    outer loop
      vertex -38 5.5 0.5
      vertex -38 7 0.5
      vertex -36.0279 6.71645 0.5
    endloop
  endfacet
  facet normal 0 0 -1
    outer loop
      vertex -38 5.5 0.5
      vertex -39.0708 6.84604 0.5
      vertex -38 7 0.5
    endloop
  endfacet
  facet normal 0 0 -1
    outer loop
      vertex -38 5.5 0.5
      vertex -39.5355 6.53553 0.5
      vertex -39.0708 6.84604 0.5
    endloop
  endfacet
  facet normal 0 0 -1
    outer loop
      vertex -39.8811 5.16831 0.5
      vertex -39.5355 6.53553 0.5
      vertex -38 5.5 0.5
    endloop
  endfacet
  facet normal 0 0 -1
    outer loop
      vertex -41.6443 5.0159 0.5
      vertex -39.8811 5.16831 0.5
      vertex -41.5353 4.21324 0.5
    endloop
  endfacet
  facet normal -0 0 -1
    outer loop
      vertex -39.8811 5.16831 0.5
      vertex -41.6443 5.0159 0.5
      vertex -39.5355 6.53553 0.5
    endloop
  endfacet
  facet normal 0 0 -1
    outer loop
      vertex -43.0159 3.64427 0.5
      vertex -41.5353 4.21324 0.5
      vertex -42.7631 2.75 0.5
    endloop
  endfacet
  facet normal -0 0 -1
    outer loop
      vertex -41.5353 4.21324 0.5
      vertex -43.0159 3.64427 0.5
      vertex -41.6443 5.0159 0.5
    endloop
  endfacet
  facet normal 0 0 -1
    outer loop
      vertex -43.8965 1.9159 0.5
      vertex -42.7631 2.75 0.5
      vertex -43.4164 0.955065 0.5
    endloop
  endfacet
  facet normal 0 0 -1
    outer loop
      vertex -43.4164 -0.955065 0.5
      vertex -44.2 2.70647e-15 0.5
      vertex -43.4164 0.955065 0.5
    endloop
  endfacet
  facet normal -0 0 -1
    outer loop
      vertex -42.7631 2.75 0.5
      vertex -43.8965 1.9159 0.5
      vertex -43.0159 3.64427 0.5
    endloop
  endfacet
  facet normal -0 0 -1
    outer loop
      vertex -43.4164 0.955065 0.5
      vertex -44.2 2.70647e-15 0.5
      vertex -43.8965 1.9159 0.5
    endloop
  endfacet
  facet normal -0.142315 0.989821 0
    outer loop
      vertex -36.0279 -6.71645 -0.5
      vertex -38 -7 0.5
      vertex -36.0279 -6.71645 0.5
    endloop
  endfacet
  facet normal -0.142315 0.989821 0
    outer loop
      vertex -38 -7 0.5
      vertex -36.0279 -6.71645 -0.5
      vertex -38 -7 -0.5
    endloop
  endfacet
  facet normal -0.959493 0.281733 0
    outer loop
      vertex -31.6326 -2.9079 -0.5
      vertex -31.0712 -0.996203 0.5
      vertex -31.0712 -0.996203 -0.5
    endloop
  endfacet
  facet normal -0.959493 0.281733 0
    outer loop
      vertex -31.0712 -0.996203 0.5
      vertex -31.6326 -2.9079 -0.5
      vertex -31.6326 -2.9079 0.5
    endloop
  endfacet
  facet normal -0.841254 -0.54064 0
    outer loop
      vertex -31.6326 2.9079 -0.5
      vertex -32.7098 4.58402 0.5
      vertex -32.7098 4.58402 -0.5
    endloop
  endfacet
  facet normal -0.841254 -0.54064 0
    outer loop
      vertex -32.7098 4.58402 0.5
      vertex -31.6326 2.9079 -0.5
      vertex -31.6326 2.9079 0.5
    endloop
  endfacet
  facet normal -1 0 0
    outer loop
      vertex -31.0712 -0.996203 -0.5
      vertex -31.0712 0.996203 0.5
      vertex -31.0712 0.996203 -0.5
    endloop
  endfacet
  facet normal -1 -0 0
    outer loop
      vertex -31.0712 0.996203 0.5
      vertex -31.0712 -0.996203 -0.5
      vertex -31.0712 -0.996203 0.5
    endloop
  endfacet
  facet normal -0.65486 -0.75575 0
    outer loop
      vertex -34.2155 5.88877 -0.5
      vertex -32.7098 4.58402 0.5
      vertex -34.2155 5.88877 0.5
    endloop
  endfacet
  facet normal -0.65486 -0.75575 -0
    outer loop
      vertex -32.7098 4.58402 0.5
      vertex -34.2155 5.88877 -0.5
      vertex -32.7098 4.58402 -0.5
    endloop
  endfacet
  facet normal -0.65486 0.75575 0
    outer loop
      vertex -32.7098 -4.58402 -0.5
      vertex -34.2155 -5.88877 0.5
      vertex -32.7098 -4.58402 0.5
    endloop
  endfacet
  facet normal -0.65486 0.75575 0
    outer loop
      vertex -34.2155 -5.88877 0.5
      vertex -32.7098 -4.58402 -0.5
      vertex -34.2155 -5.88877 -0.5
    endloop
  endfacet
  facet normal -0.959493 -0.281733 0
    outer loop
      vertex -31.0712 0.996203 -0.5
      vertex -31.6326 2.9079 0.5
      vertex -31.6326 2.9079 -0.5
    endloop
  endfacet
  facet normal -0.959493 -0.281733 0
    outer loop
      vertex -31.6326 2.9079 0.5
      vertex -31.0712 0.996203 -0.5
      vertex -31.0712 0.996203 0.5
    endloop
  endfacet
  facet normal -0.841254 0.54064 0
    outer loop
      vertex -32.7098 -4.58402 -0.5
      vertex -31.6326 -2.9079 0.5
      vertex -31.6326 -2.9079 -0.5
    endloop
  endfacet
  facet normal -0.841254 0.54064 0
    outer loop
      vertex -31.6326 -2.9079 0.5
      vertex -32.7098 -4.58402 -0.5
      vertex -32.7098 -4.58402 0.5
    endloop
  endfacet
endsolid OpenSCAD_Model
